<?xml version="1.0" standalone="no"?>
<!DOCTYPE svg PUBLIC "-//W3C//DTD SVG 1.1//EN" "http://www.w3.org/Graphics/SVG/1.1/DTD/svg11.dtd" >
<svg xmlns="http://www.w3.org/2000/svg" xmlns:xlink="http://www.w3.org/1999/xlink" version="1.1">
<metadata></metadata>
<defs>
<font id="the_battle_continuezregular" horiz-adv-x="1139" >
<font-face units-per-em="2048" ascent="1638" descent="-410" />
<missing-glyph horiz-adv-x="569" />
<glyph horiz-adv-x="0" />
<glyph unicode="&#xd;" horiz-adv-x="569" />
<glyph unicode=" "  horiz-adv-x="569" />
<glyph unicode="&#x09;" horiz-adv-x="569" />
<glyph unicode="&#xa0;" horiz-adv-x="569" />
<glyph unicode="!" horiz-adv-x="569" />
<glyph unicode="&#x22;" horiz-adv-x="727" />
<glyph unicode="#" />
<glyph unicode="$" horiz-adv-x="1147" d="M-35 1066v49q0 146 163 207l76 5l169 -32q0 201 44 201h5q25 0 49 -98l44 -109q51 -27 76 -27l16 22v60q34 107 93 163h11l21 -22v-5l-16 -27l6 -6v-5l-11 -87l5 -44l-5 -22l5 -16h-16v44h-6l-11 -98v-17l11 -11l6 55h16l-5 -33q23 -69 65 -98h5l11 11v38l-11 38l17 17 v16l-22 16l-5 6v27q12 26 76 49q0 24 22 33h5l27 -17l17 6q32 -28 32 -60l6 -6h5l11 11h5l-11 -16v-55l-5 -27l16 -16v-185q15 -42 38 -65v-55l-16 -16l6 -6v-76l-6 -5v-6q75 -51 120 -147l16 -16l-5 -16q15 0 22 -60l5 -6v-136l-5 -5l5 -5q0 -61 -76 -175q-11 0 -87 -76 q-20 -20 -131 -71h-49l-33 -5l-130 60l-17 -22v-5l17 -120l-6 -16l6 -49v-60l27 -43v-60l-5 -65h-6l-5 5h-6l-5 -5l-11 10v-21h-11v21h-5l-6 -38h-11v17l6 27q-28 0 -28 11v5l6 6v5l-16 16v39q-13 76 -22 76q-16 -98 -27 -98l-6 16l6 16l-6 6h-5l-6 -6h-5l5 -65v-5 q0 -50 -38 -77h-22l-32 33v38q1 27 11 27l-17 39q0 81 60 315v81l-32 33h-6l-16 -65h-17l-5 38h-5v-17h-6q-22 11 -33 33l6 22l-6 5h-5q-34 -30 -93 -136h-5l-11 11v6l11 16v5h-22q0 -21 -11 -21l-5 5v27q16 0 16 11v6l-11 10l-5 -21h-22q-30 0 -81 60v179q-17 22 -17 82 q0 64 38 81h38q13 0 66 -98q28 -38 38 -38l5 6v27q-11 11 -11 49q-23 24 -49 109q-136 126 -136 163l-5 71l60 54q-20 38 -49 38q-13 20 -71 55q-49 37 -49 92zM145 1088q14 -74 321 -98l11 44q0 30 -109 70q-62 66 -76 66l-39 10h-27q-49 0 -81 -59l5 -22l-5 -6v-5z M243 859q14 -54 43 -70q10 0 104 -109l87 -136l5 -27h16v119l-16 22v71l16 22v65q0 11 -54 16l-5 6h-104q-8 9 -71 16l-5 5l-16 6v-6zM379 228q11 0 11 -22l27 28l-17 16l-21 -11v-11zM390 1284h16v11l-11 27h-5v-38zM406 103v16h11v-16h-11zM509 -179v-11h17v11h-17z M520 -109v-43h17v32l10 11l11 -11l6 6v22l-17 21l6 17l-6 5h-10zM547 631l22 -44h6v28l16 16l-6 5v87l6 6v5l-27 22h-6l-11 -11v-114zM553 1050q0 -104 16 -104h16l11 44q0 46 -32 65h-11v-5zM624 332q17 -1 54 -44q68 -44 87 -44q157 49 185 77q55 53 55 130v22 q-17 0 -17 38q-39 45 -54 87q-13 0 -147 136q-78 44 -109 44h-16l-11 -11v-163l-11 -17v-109l-16 -16l5 -27v-93l-5 -5v-5zM651 936l92 -28h28v6q-10 34 -71 81l-27 11h-11l-11 -11v-59zM662 1251h5l6 27v33l-11 -11v-49zM694 1371h6l5 33v5h-5l-6 -22v-16zM803 1153l38 -27 h6v71h-6l-38 -27v-17zM809 1099h5l11 11l-5 5h-11v-16zM950 816l33 -27h5v16l-11 16v6l11 16v6h-5z" />
<glyph unicode="%" horiz-adv-x="1821" />
<glyph unicode="&#x26;" horiz-adv-x="1366" />
<glyph unicode="'" horiz-adv-x="391" />
<glyph unicode="(" horiz-adv-x="682" />
<glyph unicode=")" horiz-adv-x="682" />
<glyph unicode="*" horiz-adv-x="797" />
<glyph unicode="+" horiz-adv-x="1196" />
<glyph unicode="," horiz-adv-x="430" d="M-62 -291q44 92 68 164q7 0 16 28q14 36 20 36l4 -4h4l8 8l-4 4v12l48 68l-8 8q34 20 52 64q112 148 164 204l4 -4h4q9 15 32 28h36l20 -40q0 -75 -84 -136l-168 -208q0 -15 -120 -152q-40 -77 -68 -104q-8 0 -8 12l-12 -8l-8 8v12z" />
<glyph unicode="-" horiz-adv-x="682" />
<glyph unicode="." horiz-adv-x="443" d="M-108 323v6h4l6 -6h-10zM-73 83l7 6h31l-19 -13zM-16 92v10q0 6 44 12l-19 25v4l3 3l-3 3v16l6 9q-7 17 -18 19l-4 16h4l15 -13h3q4 37 13 51l-16 9l3 10l-6 6q0 6 12 6v10h7q0 -22 9 -22h3l57 57l-12 15v10l6 6l22 -12h3l6 6l-12 19v9h6q0 -14 16 -22h3v10l16 -4h3 q0 13 6 13v-6h7v6h-7v16l-12 28v19q6 0 6 -12l16 -26q11 0 12 -28l19 -10l16 13q6 0 6 -19h16q31 15 44 29h4v-4l-13 -22v-15q18 0 44 -23l3 4h3l13 -4l3 4l3 -4v-6l-3 -3l41 -54v-3h3l35 16v-3l-3 -3q-16 -6 -16 -19l-3 -4q16 -20 16 -44h3l22 13l6 -6q0 -5 -28 -16l-3 -3 v-13q12 0 12 -6v-13l-6 -9v-19l10 -10h31v-6h-44q-13 -6 -22 -35l6 -9v-13l-76 -88q-15 0 -31 -60l-6 -6v-60l-7 -6l-6 6v63h-3l-10 -3v3l7 9v4h-13v-26l-6 -9v-38h-7v69l-9 10h-3v-51l-7 -6l-6 6v29l-13 25q0 -10 -18 -25v-51h-7q0 15 -6 22v7l6 9v19l-9 38l-26 22h-3 q0 -12 -6 -12l-9 6l-10 -6h-6l-7 6v6l7 10l-3 9h-7l-15 -3v9l6 10l-19 15h-29l-9 -6h-34l2 22h7v-16h9q16 6 25 29q0 36 -31 60h-12l-13 -10h-3zM15 329l6 6h7l6 -6l-6 -6h-7zM34 386v6q22 -16 32 -38l-7 -6q-8 2 -25 38zM141 443v3h7v-10zM173 550v3h6v-9zM179 515v29l7 -7 v-22h-7zM208 401q6 19 12 19h3v-3q-6 -7 -6 -22h-3zM268 389v3l6 6v-9h-6zM287 395v3l6 7v-10h-6zM293 405v6l6 6v-6zM299 417v7l6 15h7v-9zM406 42v3l7 6h3v-3l-6 -6h-4zM438 32l6 6l10 -9v-3h-10zM511 196v7h22l6 -7l-6 -6h-7z" />
<glyph unicode="/" horiz-adv-x="569" />
<glyph unicode="0" horiz-adv-x="1040" d="M-47 48v16q0 40 116 148l4 16q-116 148 -116 336q0 412 416 572h168q167 0 372 -148h12q155 160 192 160h4q60 -10 60 -52v-16q0 -39 -120 -144l-40 -48q104 -157 104 -268q0 -228 -228 -464q-190 -132 -364 -132h-20q-96 0 -292 80l-32 20h-8q-22 0 -124 -112 q-15 -12 -36 -12h-20q-48 11 -48 48zM89 540q0 -122 88 -224h8q261 208 632 568v8q-131 116 -376 116h-12q-90 0 -240 -144q-100 -118 -100 -324zM289 216q172 -60 228 -60h8q160 0 300 116q156 178 156 280l12 64q0 72 -68 176h-8q-314 -298 -628 -564v-12z" />
<glyph unicode="1" horiz-adv-x="972" d="M5 743q3 39 100 152q88 134 100 230q8 0 8 18l-4 4v4q22 45 35 122q16 30 39 30l26 9h26q9 -9 35 -9l13 -17v-43l-9 -13v-40l-22 -34v-35l13 -13l-4 -22v-26q39 -72 39 -117q12 -41 52 -117q18 -22 48 -117q53 -56 78 -126q33 -33 57 -109q63 -54 91 -126q14 0 69 -87 l22 -21v-13l-9 -13l26 -22l66 22q2 13 34 13l118 -5l8 9h13l26 -30h18l13 8h48l21 5l35 -48v-9q-4 -13 -52 -30l-17 -18h-31q-33 -2 -61 -39v-43q0 -9 -13 -9l5 -64h-13v21l-9 13v22q-26 0 -35 91l-17 -5v-30l-22 -30v-9q0 -19 30 -52v-17l-17 -17h-4l-13 8h-26v-13l4 -4v-4 l-4 -5h-5l-13 9q0 -22 -8 -22h-5v22h-8v-13l8 -13v-9l-17 -26l-9 9h-4v-78l4 -22h-4l4 -4v-57l-8 -9l-5 5v74h-4l-18 -18l5 -17l-5 -4h-4q-16 73 -26 73l4 31v30l-13 -4v-39l-8 -9l-5 4v18l5 21q-9 0 -9 22q-13 0 -17 57q-48 55 -48 77h-44q-13 -3 -30 -51h-4q0 21 -9 21 l-17 -17h-5l5 21l-5 5h-4l-17 -35v-47l-18 -26q-5 50 -13 56v35l-69 25v26l39 39l13 -4q0 9 48 26l26 4q0 21 34 22l-78 243q-10 0 -26 48q-20 8 -52 96q-14 26 -30 26l-9 -9l4 -4v-22l-13 -13l5 -5v-17h-13v39l-5 31l9 8v5l-26 34l9 9h8l5 -4h4v13q-31 61 -126 160l-13 57 q13 2 13 34l-39 35l-13 -8l4 -5v-22l-8 -8l-13 61l8 26l-4 4h-9q-9 -2 -39 -56v-5l13 -35l-4 -4h-5l-8 9h-5v-22l-8 -9l-5 5v4l5 30l-5 5h-4l-35 -61l-4 4h-4v-13h-5l-13 9l-4 -4v-5l13 -4v-9l-26 -39q0 22 -9 22l-17 -17q0 -7 17 -13l13 4v-61l-21 -56l4 -61v-17l9 -13 l-5 -70l5 -35l-5 -4h-4l-13 17v57l-9 13v61h-13v-35h-9v48l13 17l-4 4v83l4 4v5l-17 21q-23 0 -39 26zM921 66l22 -22l26 35v4l-13 13h-9z" />
<glyph unicode="2" horiz-adv-x="1470" d="M-207 54l5 5v4l-5 14l80 80q15 15 149 74q0 9 107 33q80 12 177 79q112 56 131 56q139 39 215 98q61 31 149 94l135 70q94 30 276 238l32 79v37q0 13 -37 19h-93q-75 0 -210 -65l-164 -56q-165 -96 -308 -192q-84 -57 -84 -65q-118 -107 -149 -107q0 -10 -23 -10h-47 q-53 0 -79 52v42q19 15 23 37q9 0 14 37l9 10v98q-51 47 -51 60q39 80 121 80q70 0 112 -61v-56h10l37 19q86 84 247 149q0 19 140 56q37 23 103 37q163 80 210 80h9l150 9h140q45 -25 84 -98v-19q0 -126 -80 -219q0 -15 -28 -37q0 -27 -74 -61q0 -19 -94 -98l-84 -56 l-149 -89q-64 -65 -131 -88l-186 -108l-5 5h-5l-9 -14v-5q0 -25 168 -37l65 14h318l18 14h164l70 -14h42v19l-70 88l-5 5v112q9 17 56 51h131l70 -51l9 -42v-28q0 -12 -75 -70q0 -19 33 -51q0 -18 65 -66q21 -60 201 -144q44 -5 112 -80v-46q-21 -41 -70 -75h-23 q-66 52 -229 112l-121 61l-14 -5q0 14 -66 28q-30 15 -112 28h-51l-14 9h-70l-5 5l-4 -5h-24l-18 14h-28l-19 -14h-19l-4 5l-5 -5h-257l-14 -9h-4q-183 -14 -238 -33l-28 5h-24q-37 -14 -182 -19l-168 -46l-4 -5h-66q-116 -32 -163 -32h-4q-40 0 -94 60z" />
<glyph unicode="3" horiz-adv-x="1305" d="M-237 1303q19 63 64 63h27l168 -59q98 -31 408 -31l18 4l5 -4l32 4h13q387 0 645 91h13q73 -10 73 -73q0 -58 -104 -118q-175 -165 -300 -227v-4l9 -9q389 0 513 -250q68 -102 68 -186v-27q0 -200 -300 -404q-210 -73 -408 -73h-132q-185 0 -313 100q-125 57 -245 231v23 q23 91 91 91h18q123 -16 123 -100q34 -89 109 -132q93 -63 213 -63h95l5 -5l4 5h46q173 0 345 68q199 150 199 272q0 94 -131 232q-110 68 -314 68l-90 4l-182 -9q-62 0 -72 78q0 60 104 109q67 53 259 163v14q-134 -19 -341 -19h-240q-9 0 -9 -13q50 -98 50 -132 q-11 -82 -73 -82q-58 0 -100 118q-54 95 -317 196q-46 29 -46 86z" />
<glyph unicode="4" horiz-adv-x="870" d="M-57 751v29q0 53 142 123q132 101 165 222q0 151 29 151q0 16 52 24h9q100 0 100 -118v-5q0 -61 -123 -265l-38 -47l4 -5l223 5h99q30 0 76 350q0 126 38 151q22 14 52 14q57 0 71 -95q0 -154 -67 -420q0 -18 100 -38q80 -35 80 -109q0 -39 -61 -56h-24q-98 33 -123 33 q-20 0 -43 -100q-51 -183 -241 -401q0 -19 43 -19v-10q-33 0 -33 -28l-5 5h-10v-5h10l-28 -47l4 -14h-4l-15 4q0 -9 -14 -9q0 -17 19 -38v-5h-5l-42 43q0 -17 -29 -24l-14 5v-5q0 -9 -19 -9l-9 19h-5q-8 0 -14 -33h-5l-19 61l-23 14h-5l-14 -9h-5v9l-5 5l5 5h5l-19 75l5 33 h-5l-10 10v5q24 0 24 23l-24 29l5 4h5l28 -19l24 15l5 -5l4 5l-4 4v10l4 4l-4 5v29h9l9 -43h5l14 9v-4l5 4h10q0 -14 14 -14q46 33 161 204q75 162 75 212l-5 5h-47q-164 0 -482 -28q-90 14 -90 70zM137 113l9 10h5l-9 -10h-5zM137 350l5 4h4l15 -14v-4h-10zM142 236v10h19 v-10h-19zM156 161v9h14v-9h-14zM217 321v10h5l9 -10l-4 -4h-5zM222 24v14h14v-5l-9 -9h-5zM302 312v19h10v-19h-10zM354 359v10l10 9h14v-9l-9 -10h-15zM359 28h10l19 -14l-5 -14h-10zM487 61v5h9l14 -14h-14z" />
<glyph unicode="5" horiz-adv-x="1042" d="M-97 662v28q10 69 106 373l5 56l-5 161q0 61 94 78q59 0 206 -134l167 -122l6 6v5l-11 72v17q27 134 122 134h11q84 -11 84 -73v-11l-23 -78v-5q0 -24 89 -189v-39l-5 -39q18 -16 133 -34q273 -82 273 -378q0 -361 -506 -479l-178 -11q-387 0 -468 156l-5 28q12 89 89 89 q17 0 167 -73l228 -16q330 0 467 200l22 111q0 132 -94 178q-120 45 -278 45q-313 0 -557 -134l-39 -11q-100 18 -100 89zM137 840l5 -5h6q147 39 289 55l6 6v6q-84 50 -234 167h-6q-9 -1 -44 -162z" />
<glyph unicode="6" horiz-adv-x="1100" d="M-122 56q0 45 160 137q71 326 264 542q162 215 316 274q182 94 260 94q51 -9 51 -52q0 -53 -155 -85q-216 -93 -316 -207q-167 -205 -241 -344q-47 -122 -47 -156h5q191 90 594 198q195 52 288 52h47q146 0 146 -80v-19q0 -118 -514 -452q-188 -128 -344 -128 q-170 0 -283 123q0 13 -66 108l-98 -52l-15 -5q-52 10 -52 52zM147 118q54 -179 254 -179q135 0 392 188q173 105 330 264v9h-57q-242 -9 -820 -226q-94 -43 -99 -56z" />
<glyph unicode="7" horiz-adv-x="855" d="M-447 1372v17q0 44 68 63h12l379 -105q146 -25 311 -25q406 0 585 92l47 13h8q67 -12 67 -59v-25q-4 -46 -206 -190q-237 -272 -311 -446v-4q215 12 378 12l26 5l17 -5h8v5l42 -5h51q130 0 130 -67v-8q0 -51 -63 -68l-93 5h-92q-493 -8 -493 -30q-67 -175 -67 -294v-17 q0 -79 105 -114q30 -32 30 -55q0 -54 -59 -67h-21q-74 0 -165 114q-29 56 -29 101v50q0 77 51 270l-9 8l-122 -17q-76 10 -76 72q0 84 223 84q60 0 76 55q104 188 236 361l76 89v12l-215 -12h-244q-113 0 -299 38v-9q68 -63 68 -105v-13q0 -51 -76 -67h-25l-110 17 q-50 0 -50 -42q-25 -34 -51 -34h-21q-62 0 -92 89v12q0 89 147 110q17 0 17 8q-169 121 -169 181z" />
<glyph unicode="8" horiz-adv-x="1015" d="M-112 969q0 152 228 318l45 11q212 -16 243 -49q105 -48 326 -228q22 -37 22 -71q0 -73 -243 -202v-7q8 -10 94 -45q200 -95 366 -232q165 -159 165 -262q0 -155 -344 -195l-169 -7h-67q-177 0 -363 49q-104 40 -142 123q-23 74 -23 135q0 209 206 400v4l-221 89 q-123 65 -123 169zM11 969q0 -58 345 -165h3q17 0 247 150v7q-246 202 -344 202l-67 8q-76 0 -172 -161zM150 307q0 -91 45 -124q145 -60 352 -60h67q290 0 393 75v15q0 37 -109 146q-172 156 -449 269q-60 27 -75 27q-147 -94 -205 -247q-19 -61 -19 -101z" />
<glyph unicode="9" horiz-adv-x="505" d="M-102 1295q0 130 142 179q45 14 101 14q77 0 349 -37q51 -30 51 -73v-28l-37 -307q37 -42 37 -69v-5q0 -49 -64 -78q-14 -22 -101 -468q-60 -285 -92 -386q-32 -37 -78 -37q-50 0 -60 83q147 677 170 817q0 15 -124 74q-294 155 -294 321zM54 1291q0 -80 280 -221h5 q19 0 41 230q-26 27 -248 36q-61 0 -78 -32v-13z" />
<glyph unicode=":" horiz-adv-x="569" />
<glyph unicode=";" horiz-adv-x="569" />
<glyph unicode="&#x3c;" horiz-adv-x="1196" />
<glyph unicode="=" horiz-adv-x="1196" />
<glyph unicode="&#x3e;" horiz-adv-x="1196" />
<glyph unicode="?" />
<glyph unicode="@" horiz-adv-x="2079" />
<glyph unicode="A" horiz-adv-x="1057" d="M-48 654v10l6 14l-6 20v10q51 58 92 58l44 -6q72 34 72 69l-4 19l4 29v24l-4 30q23 38 28 86h5l-10 97l15 73l5 5v24l5 48l-5 20q3 198 24 198q37 93 77 112l6 4h63q55 0 82 -39q25 0 68 -111q16 -5 53 -102q8 0 29 -67q10 0 20 -48q33 -31 57 -146q56 -114 73 -184 q24 -14 24 -39q22 -2 44 -58l107 -101q14 -16 29 -64q25 0 58 -164q24 -26 72 -164l49 -98l-6 -14q11 0 25 -97v-68q-15 -29 -44 -43l-4 5l-34 -5h-20q-48 20 -63 58l-48 53v68q-18 58 -63 97q0 23 -34 77q0 27 -29 97q-19 63 -63 116q-35 39 -209 59l-29 9h-203 q0 -19 -58 -38q0 -15 -10 -15l6 -5v-10l-25 -43v-25l-24 -121v-53l10 -14v-10q0 -9 -15 -9l-5 -15l5 -14l-10 -15l5 -25v-4q-29 -44 -29 -68l5 -44q-19 -6 -19 -44v-33q-19 -48 -92 -48l-20 33v54q10 11 10 33l10 44h4l-4 5v14q23 23 38 165l6 4v171q0 34 29 121l-35 9 l-29 -9q-111 0 -111 38zM277 833q14 -4 14 -29h301q0 20 9 20q-3 47 -63 193q-44 49 -58 136q-53 72 -107 72h-19q-14 -41 -24 -121q-30 -82 -30 -125v-15q-14 -20 -14 -77l-5 -6h-4l4 -33v-5l-4 -4v-6z" />
<glyph unicode="B" horiz-adv-x="909" d="M-23 855v19l24 30v29l-14 34q19 0 19 29l20 15l-15 34v5l5 5l-10 39v24q0 17 15 35v5l-10 14l5 5v5l-10 10v5l30 29q-7 0 -49 142v24q0 18 19 39v10q-14 0 -29 24v5l10 10h5l14 -10h5q49 33 49 73h5l49 -34q19 0 39 25q68 0 161 68h78q78 0 137 -34q159 -46 205 -83 q43 -10 108 -73q14 0 44 -59v-83l-35 -78q0 -8 -49 -34q-24 -74 -58 -74l-15 -19v-10q38 -78 88 -78q104 -91 117 -117q0 -19 15 -39v-35l-54 -117q-8 0 -83 -146q-7 -2 -44 -83h-5l-14 4q0 -18 -142 -39l-5 -4l-19 4q-13 -29 -83 -29l-49 15q-10 -30 -30 -30q10 -19 10 -53 l-10 -15q20 -29 20 -54v-5q0 -14 -20 -14v-25q-14 -16 -24 -92l5 -54h-10q-16 181 -68 181q-58 34 -88 34q0 13 -49 49l-10 19v10l5 5v5q-44 46 -44 83q0 62 54 88q15 34 15 63l4 5h5l-5 5v5l5 19l-9 10v10l9 10l-5 39l5 14l-24 49q-15 0 -15 10v5l5 5l-5 5v9l5 5l-5 5v29 l5 5v5q-8 0 -49 49l-39 10q-39 -49 -39 -88l5 -5q0 -34 -24 -107l14 -35v-5l-5 -4v-5l10 -10v-88q20 -1 20 -20q-20 -45 -25 -97h-5q10 -25 10 -88v-54l-10 -10l10 -58l-10 -10v-24l10 -35q-15 -73 -29 -73l-15 34v5l10 15v24l-15 20v5l10 9l-5 5v5l5 59l-5 54q25 12 25 39 q-10 0 -20 58l-5 5l5 5l-5 5v73l10 15v78l-10 15v19l5 5v5q-9 0 -15 44q7 24 15 24l-5 5v10l10 15v34q-33 46 -44 88zM6 15v19l10 10q34 -7 34 -20v-4l-29 -20zM36 1123l19 -44h5q15 101 24 113v19l-9 10l-20 -10v-19l-19 -64v-5zM65 1045q0 -52 24 -68q0 -20 39 -20 q18 -29 44 -29l10 10l-5 5v5l10 14v49q-15 46 -20 127q-14 0 -14 44l-5 5h-5l-10 -10l-14 34h-5q-17 -15 -30 -127zM304 1289l39 -87q0 -39 39 -59h5q99 20 186 73q0 10 29 10q0 23 30 39l-5 5v10l5 5v4q-8 0 -20 39l-49 44l-34 -4h-73q-69 0 -147 -59zM387 205l10 -10h5 l-5 25h-10v-15zM387 689l39 -64q25 -34 74 -34q25 20 97 44q26 14 54 88v49q-30 58 -68 58q-18 30 -64 30q0 8 -24 9h-20l-14 -14v-15q24 -1 24 -15v-4q-31 0 -68 -40q-15 0 -30 -87v-5z" />
<glyph unicode="C" horiz-adv-x="1054" d="M3 705v10q30 40 30 73l-15 25v14q17 20 29 64l5 5h34l89 20h49l132 54q67 0 152 58q64 25 98 54q112 30 226 138q10 42 34 73l-5 54q23 0 54 186l20 20l29 -10q0 -36 -44 -113q-17 -92 -39 -117v-44l-15 -30l5 -19h-5q6 -25 15 -25h29q10 10 69 15q0 8 118 39l68 34 q0 10 39 30q0 23 74 34q0 -32 54 -88v-15l-49 -59v-24l10 -15v-10q0 -39 -59 -49l-15 5l-24 -24q-9 9 -74 14l-5 5v5l-157 -44h-29q0 -15 -15 -15l-5 5h-5q-132 -39 -132 -83l-15 -15v-5q35 -31 35 -68l-25 -40v-14l10 -15v-5q-8 -6 -20 -83l-14 -10l4 -5v-5 q-19 -26 -29 -103l-10 -29l-5 -5l5 -20q-16 0 -34 -103l5 -34l-5 -49q10 0 19 -39q57 -33 74 -79q74 -31 103 -64q0 15 10 15h29q54 -54 64 -54v-29l25 -25q-34 -37 -69 -49q0 -10 -25 -10q0 -13 -9 -13h-25q-20 13 -88 28q-109 167 -157 167l-5 -5l5 -5l-15 -39v-10l10 -15 l-15 -49h-5l5 -34v-5l-5 -5l5 -5v-19l-24 -58l-10 -10h-5l-5 5l-5 -5h-5l-14 15q0 36 34 62l15 25q0 34 9 44v74l-9 34l4 5h-14l5 -5v-20h-10l-10 30v5l29 39v10q-58 81 -181 171q-49 19 -49 44l-69 69q-15 0 -112 69l-30 10l-15 -15l-4 5h-5l5 -59v-20l-10 -14v-49h-15 l10 68l-10 10v59l-20 34h-5q0 -16 -14 -34v-59h-10l-5 34l15 49zM317 715q83 -69 83 -79q74 -87 74 -98q8 0 142 -137h15l29 24v25q25 162 49 162l-5 5v4l20 30v39l-20 25v4q0 9 35 30q14 17 14 59v34q0 18 -19 49l14 20v19q-8 35 -54 35q-90 -64 -107 -64q0 -24 -49 -39 q-64 -28 -138 -79q-45 0 -83 -59v-9zM636 386l5 -5h4l15 5l-15 15z" />
<glyph unicode="D" horiz-adv-x="1327" d="M-33 1372l33 49q32 4 32 59l16 -11h38l28 6q25 -53 119 -81q0 -27 239 -120q0 -8 49 -27q133 -130 211 -130q0 -39 217 -103q53 -26 87 -60q71 -40 147 -65q110 -71 119 -87q46 -21 82 -60l5 -27q0 -16 -76 -81q-22 0 -22 -16l-43 -22l-54 -38h-6l-5 5h-6q0 -23 -141 -97 q-16 0 -130 -87q-133 -59 -195 -109l-71 -38q0 -23 -71 -38l-43 -48v-33q15 -18 27 -65q36 -37 60 -81v-5l-44 -44l11 -16v-6l-16 -16h-16l-17 11h-5v-16l-11 -60v-16h-11v76l-11 16v5l6 6v5l-6 6h-5l-16 -11l-33 32v11q0 11 16 11q0 36 -65 54q-7 27 -16 27h-5l-60 -27 l-27 -21l-22 5q0 -33 -108 -54q0 -24 -33 -38h-16l-22 16l-11 -16q-60 9 -60 38q0 70 44 86q0 34 119 87q32 0 65 38q87 0 141 54l6 60q-22 32 -22 49l6 27q-31 0 -44 136q-7 0 -43 108l-27 114q-26 0 -38 184l-6 6l6 22l-71 206q-13 87 -38 87h-5v-28q-10 -9 -17 -65 l11 -10v-11h-16l-11 21v6l6 5v6q-15 5 -28 81q-13 51 -48 87zM211 1138q22 -41 27 -92l28 -103v-5l-6 -6v-5q11 0 11 -16l22 -33h5l-5 -27v-5l38 -87l16 -22v-43q17 -44 27 -120l-5 -43q14 0 32 -98l11 -11v-27q20 -141 71 -141q10 21 76 60l5 21l27 -5q96 49 125 49 q0 13 22 16q174 98 228 141q46 33 65 33l-6 38l33 21q-16 0 -16 11v17q0 10 21 10l6 6v43q-28 87 -65 87q-56 58 -147 87q-59 56 -125 65l-146 60l-11 16l-6 -5h-10l-76 48h-11q-15 0 -17 -27h-10l-11 27l5 17l-65 32h-5l-33 -38l-11 11v11l16 22q-39 54 -97 54l-33 -16v-28 zM390 32q17 0 38 -22h6v5l-22 44l-22 -22v-5zM1090 666l6 -5h11l43 16l11 -11l11 11v11q-19 28 -65 54q-13 0 -17 -38l6 -16z" />
<glyph unicode="E" horiz-adv-x="1087" d="M-30 1227q0 40 43 118q50 56 70 66l10 29q18 -10 52 -10h28l19 -14h14l62 24h66l14 -5l24 5h141q33 14 33 28q109 -30 138 -52q0 -11 70 -14l38 9v-4l5 4h5l113 -28q42 -9 113 -9h104l85 18q43 -17 43 -70v-52q0 -37 -19 -43l-24 5q-22 -33 -141 -33l-48 -10h-85l-4 5h-5 l-9 -9h-43l-14 9l-14 -5q0 10 -52 14q-16 19 -48 19h-85q-40 0 -66 -37l5 -5v-5l-19 -47l5 -24l-5 -4q8 0 19 -62l9 -23l5 -5v-19l-14 -14l-5 4l5 5v5q-43 72 -43 104l5 14l-9 9l9 24l-5 5v5l5 42q0 34 -66 52l-24 -5h-19l-56 5q-3 -14 -38 -14h-19q0 -14 -9 -14l4 -5v-5 q-9 -8 -9 -47q-10 0 -10 -14l-4 -99l-10 -10v-160q17 -55 33 -57l52 -14h66q10 0 10 14l5 5h4l5 -5h5l56 57q20 0 90 -38h76l14 9h14l5 -5h5l37 34h67l61 -67v-9q0 -83 -85 -132q-31 0 -66 -33h-10l-33 4l-71 -42h-9l-14 9l-33 -38l4 -33v-9l-4 -47q7 -59 28 -99l-5 -38 q41 -66 85 -66q25 0 109 42q84 0 118 -61v-33q0 -50 -90 -123l-70 -33q-71 0 -71 -57q-12 -32 -19 -32h-10q-24 0 -28 14l5 5l-5 4v4l5 19l-24 14l-33 -28h-76l-37 10h-62q-134 53 -142 66q-47 34 -80 118q-37 32 -38 42l5 19l-9 14v24l9 9l-5 5v5l5 5l-5 33v37l5 33 q-9 0 -9 29q-11 0 -38 71q-12 1 -43 47q-21 8 -38 33v19q14 31 38 47q22 0 47 189q15 0 15 28l9 10l-5 5l5 56v5q-30 142 -42 156q-63 11 -94 47zM334 514q0 -38 38 -76l-10 -14v-19q37 -92 104 -137l14 10q29 -4 29 -10l4 5h19l5 -5l5 -14h4q71 35 71 47v5l-28 52l5 14 l-10 10v9l10 14v5l-14 57l-5 4v38l9 14v29q-9 11 -9 33q-19 0 -19 14h-33q-10 9 -57 14q-33 16 -33 28h-5l-19 -4l-14 4q0 -9 -28 -9l-14 -14l4 -5v-14q-23 -42 -23 -85z" />
<glyph unicode="F" horiz-adv-x="933" d="M8 1291v14l10 14v15l-10 38v14q16 21 43 38q16 34 119 34l105 -38h129q18 14 42 14h72l133 -24h248q51 0 105 -105v-24q-6 -62 -52 -62l-29 -28h-19l-129 28l-19 -4l-62 23l-14 -9h-10l-9 9l-5 -4h-28l-15 9l-14 -9h-76q-8 11 -81 19q0 12 -105 47h-19l-15 -9h-9l-5 5h-5 q-100 -59 -100 -115q-43 -64 -43 -124l15 -28l-10 -14l10 -39h-5l9 -38l-4 -43l4 -4v-5l-14 -38q20 -115 72 -115h52l62 29l105 14q272 -9 272 -57v-57q-33 -43 -77 -43q-31 -22 -143 -38l-28 9h-15q-49 -23 -143 -23q0 -13 -76 -19l-9 -15q28 -56 28 -124q19 0 29 -109 q15 0 28 -86q13 0 20 -148l-5 -66v-39q-31 -57 -43 -57l-29 -9q-39 0 -76 62q-52 22 -52 66q-15 5 -15 29q0 55 19 95q0 21 24 62l-24 100v10q-19 0 -19 14l5 19l-9 10v33l4 5v5q-12 0 -24 66l-51 62v38q0 25 -15 43v19l10 15v52l-10 14v43l15 14l-5 34l5 105l-5 133l5 176z " />
<glyph unicode="G" horiz-adv-x="793" d="M-44 -170q26 42 26 72v32q15 23 36 150q12 9 37 88q19 11 73 104q14 13 51 94q31 41 73 41q42 -33 42 -72v-37q0 -14 -37 -67q-77 -127 -114 -167l-31 -67l5 -47q-11 0 -26 -109v-5q72 -73 125 -73h62q49 -26 83 -26h68l57 -26q85 0 94 42q52 3 88 47q25 24 47 119v21 q-21 58 -26 114q-21 0 -21 62v47l5 21l-5 21v15h-10l-21 57v11l5 5v5l-10 11v26q-20 0 -68 36h-15q-31 -36 -89 -36h-15q-17 14 -94 41l-16 -5q0 15 -78 57q-28 0 -109 52q-10 0 -10 31q-25 0 -52 130l5 6v5q-26 86 -26 156q0 163 125 306l151 136l72 46l52 6h16l21 10 l47 -5l10 10h5l5 -5h6q0 26 46 26q104 0 141 -73q10 0 10 -57l36 -42v-5l-5 -5l5 -5l-5 -156v-37q0 -26 -10 -26l5 -5v-21l-21 -62q42 -21 42 -47l-16 -72l5 -32q0 -9 -72 -72v-214l26 -57v-83l-6 -5v-5q26 0 32 -214q12 0 26 -67l10 -10v-5l-10 -115l10 -10v-104 q-17 -47 -88 -99q0 -33 -84 -47l-187 11l-46 -5l-37 10l-52 -5l-5 5v5l-5 -5h-94l-15 10h-32q-89 0 -145 68q-57 21 -57 83q-13 0 -21 63zM242 781q10 0 15 -37l-5 -52q26 -26 57 -99l73 -52l5 6h6q18 -16 62 -16h36q62 72 84 140q15 0 15 42q-15 0 -26 73l5 57 q0 52 -20 135v52l-11 10l5 6v20l-20 73l-11 52l-52 16l-21 -11l6 -5v-5q-22 -55 -58 -73q-47 -37 -72 -104q0 -36 -21 -36v-21q-21 -52 -26 -109q-10 0 -26 -62z" />
<glyph unicode="H" horiz-adv-x="870" d="M-7 693q9 40 24 40q17 14 49 27l21 18q0 9 18 40v51l6 9v67l-12 21v110l9 30q5 0 22 33v13l-25 45q-5 23 -24 43q-9 57 -30 57q-31 31 -37 46l79 60q0 8 46 67q20 0 51 18h49q54 -16 54 -39q0 -9 16 -18l-4 -52v-48q-13 -94 -33 -94q0 -11 -9 -22v-6l3 -30l-15 -6v-18 l-6 -10v-78l18 -28v-36l-15 -67q-13 -6 -21 -33v-25l9 -36l3 -3v-49q13 0 18 -12v-18h21l9 6h52l9 6h24l15 -3l22 3l39 -3l91 18l21 16v33l-6 9v58q-6 4 -6 33l-18 30v46l-6 9v88l-6 9v109l6 10v57l9 31l3 3v27l6 9v27l-27 52q0 42 -15 79v15q0 41 39 64l61 21 q29 -18 42 -58q25 0 25 -82q-10 -19 -10 -48v-155l31 -33v-22l-9 -42v-21l6 -19h3l-3 -15q-3 -112 -9 -112l6 -39l-3 -10l3 -33v-18l6 -9v-94q12 -19 12 -28h24l15 -12h52q16 -12 70 -24q27 -19 27 -24v-25q-49 -50 -88 -57q0 -7 -42 -22l-22 -24v-9l6 -9v-122q0 -37 31 -75 l6 -19v-3l-6 -9v-18l6 -9v-58l9 -36l3 -3v-27l18 -40v-30q12 0 12 -6v-34l9 -36l3 -3v-164l-12 -24q-36 -24 -63 -33q-7 -19 -13 -19q-46 22 -63 58q-6 12 -6 37q-7 0 -22 48q-14 16 -18 115l-6 15l3 64v70l-6 9v33l-15 43l-3 3v51l-6 9v52l-9 30l-3 3v34q-7 0 -15 76 q0 12 -37 12l-6 6h-212q-5 0 -16 -21v-207l7 -9v-33q16 -15 24 -40v-76l24 -63v-55q-37 -38 -85 -55h-36q-20 9 -31 25q-17 36 -27 88q-15 16 -15 51l-6 6v64l-6 9v64q-6 8 -12 52l-12 18v127l6 12q0 19 -40 52l-24 9h-27q-31 10 -31 21q-21 39 -21 76z" />
<glyph unicode="I" horiz-adv-x="281" d="M-1 1106v21l21 31l-5 58l5 16l-5 48v53l-11 15v101q19 63 37 63h11q47 -19 47 -90l5 -68l-10 -53l5 -100v-154q14 0 37 -200l11 -11v-5l-6 -5v-6l11 -10v-90q0 -17 16 -37v-63l-11 -16v-5q25 -54 37 -116v-48l16 -21v-5l-11 -11l6 -5v-5l-6 -6v-5q12 0 32 -127v-95 q3 -38 32 -58q5 -55 21 -74l-11 -21l37 -89v-5l-47 -85q-20 -52 -32 -53q-57 27 -79 48l-16 32v10l11 32q-7 0 -21 47l-11 11l11 52l-6 6v10q0 12 27 16q-37 46 -37 127l5 15l-11 69l6 5h5l-5 43l5 52q-15 0 -63 212l5 26v74l-11 16l6 5v5l-11 11v37l-5 21l5 5q-5 58 -16 69 h6l-11 31v32l11 11l-6 5v10l6 37q-16 0 -16 69q-16 0 -16 85z" />
<glyph unicode="J" horiz-adv-x="1090" d="M-32 918v21q49 124 118 195h5q27 0 67 -26l36 21q10 -10 102 -21l11 11h41q8 -11 102 -21q0 15 47 15q49 -25 82 -25l20 10l31 -5l26 26h25l77 -67l-5 -26q19 -112 57 -154q15 -78 76 -133q0 -85 257 -436q46 -81 77 -231q-17 -87 -26 -87l5 -5v-26l-15 -46h-5l5 -5v-5 q0 -20 -118 -123q0 -18 -72 -57l-5 5h-5q-8 -16 -77 -36q0 -8 -128 -51l-16 -10l-5 5h-5l-41 -21h-62l-10 11l-56 -11l-5 6l-26 -6h-87l-36 21l-26 -5q-40 16 -51 31l-5 -5h-5q-180 123 -195 123q-14 20 -57 36q0 10 -46 51q-31 78 -31 103h-5q-10 0 -15 -62h-10v31l10 41v5 q-10 12 -10 35h-10v6l20 41q-15 0 -20 61q10 88 50 200l-5 26l11 31l-6 15q21 0 36 82q9 0 31 72q62 98 62 113l-16 31v15q13 14 16 62q0 31 -31 56q-3 36 -15 36l-11 -10q-76 12 -128 66zM127 77q15 -20 15 -46l-5 -5q8 0 31 -51q108 -105 221 -123q18 0 108 -47l30 -10h77 l11 -10l51 5h15l26 -5q10 17 108 31l92 41l113 102l-10 16l15 15h5l-5 5v15l10 16l-10 46l5 46l-31 36l-5 5h-5l-10 -10l-16 15l11 21q-26 36 -36 82q-25 8 -52 97l-87 129q-69 55 -102 133q-28 57 -47 62l6 5v20q-21 45 -77 67q-69 41 -185 51l-21 5l-10 -10h-15l-16 16 l-87 -21l-15 15h-36q-31 -16 -31 -56v-82l15 -21v-10l-15 -31q39 0 56 -51q15 0 31 -26q13 0 16 -25l5 -5v-6l-11 -15l6 -15q-82 -100 -82 -149l-47 -129v-66l-10 -57v-15z" />
<glyph unicode="K" horiz-adv-x="973" d="M-19 1111q0 66 50 105l-6 6v17l17 22l-11 11q7 50 28 50l16 -6l23 39l-17 17l11 11q23 -32 50 -44l6 5q0 -10 72 -67q15 0 33 -133l6 -5v-39q-17 -15 -28 -72h-11l-6 38q-39 0 -39 -61l6 -5v-6l-6 -83q13 0 23 -61l5 5h11l6 -5h5q16 42 95 72h28q0 8 83 61q0 9 55 22 q0 19 39 23q30 31 161 66l78 39q37 70 72 89h34l16 -11h6l17 16v6l-12 17h12q31 -27 50 -78q16 0 16 -11l-5 -17l5 -5l-11 -12q17 -23 17 -44q-28 -59 -28 -100v-50h-6l-11 11v39h-11q0 -20 -22 -33q-39 -60 -39 -78v-222h-11q-11 63 -11 216v39l5 28q-11 0 -11 17l6 16 q-23 23 -61 39v11l-17 -22l11 -11l-16 -44v-11l-6 -84l-22 17l5 39q0 85 -33 105h-17q-16 -16 -38 -16q0 -48 -150 -84q-15 -27 -106 -61q0 -14 -50 -22l-100 -72q0 -58 61 -106q0 -27 95 -83q0 -45 122 -144q20 -34 144 -128q0 -23 61 -78q58 -121 150 -178q34 -37 34 -60 v-73q-24 -38 -73 -38h-11q-38 0 -61 77l-5 6q0 17 -17 17q0 13 -39 16q-39 115 -100 139q-22 0 -22 38l-33 17l-17 -5v5q0 36 -139 167q0 27 -111 128h-11l-11 -45h-11v11l5 6q0 61 -33 61v-6q5 -68 17 -77v-56l-12 -17v-39q32 -61 56 -205q18 -28 33 -150l11 -11v-83 q0 -32 23 -56v-44h11v-6q-13 -100 -89 -100l-45 23l-5 44l11 17q-56 214 -56 271l-11 62l-5 5l5 6l-39 122q-14 0 -22 100l-11 11v39l6 5v6q-17 0 -17 61v28l-11 17v16l5 6v5q-11 0 -11 34l-16 16v17l5 5v6l-11 11v39l6 6q-11 76 -23 88v45q0 76 -38 172q0 89 11 133z M87 1122h5q83 7 83 28v44l-11 11h-16q-61 -36 -61 -78v-5zM942 1227h5l6 -5h6l16 5q28 -22 28 -38q-11 0 -11 -23h-11q0 16 -28 34zM947 894v28h6l6 -28h-12z" />
<glyph unicode="L" horiz-adv-x="862" d="M-38 1105v25l15 39l-15 5l5 25v10l5 134l40 15q45 -27 49 -45l5 -5q28 -46 40 -114l5 -5l-5 -5v-5l20 -25v-5l-5 -4l5 -5v-5l-5 -5v-5q9 0 25 -40l-5 -15l10 -10l-15 -50v-49q49 -54 49 -229q10 0 10 -24v-20l-5 -5l20 -60v-44q15 0 15 -10v-40q3 -30 15 -30l-10 -59v-5 l25 -70q0 -45 45 -109q20 -13 24 -40h5q149 18 149 35l15 -10q50 35 234 114q0 15 49 15q10 21 50 35q0 15 20 15q0 10 40 10l10 10h54q68 39 85 39h19q60 -21 60 -54q-30 -79 -94 -120l-90 -39l-15 5q0 -15 -64 -25q-22 -31 -124 -50q-40 -35 -100 -54q-39 -29 -39 -55 l10 -10q0 -118 -90 -183l-15 -55l15 -5v-5l-10 -20l5 -24l-15 -10h-15q-53 54 -69 54q-19 -3 -45 -49h-15l-5 5h-5q0 -15 -24 -15l-40 35h-25l-10 -35l5 -20q-8 0 -20 -85h-10v25q2 25 10 25l-5 5v20l5 5v5l-10 10v10l10 15v5q-26 26 -35 59l-5 25h-9l5 25h-5q-20 0 -30 74 l-5 5v5l5 25l-10 10v29l20 70l-65 193q-13 0 -20 85q-22 0 -39 79l-10 10l5 25v20l5 109q-10 0 -20 40l5 49q-15 184 -35 184v30l-10 55v34l20 25q-25 11 -25 50z" />
<glyph unicode="M" horiz-adv-x="1274" d="M9 730v40l25 93h5l-5 5v5l9 10l-4 30q0 84 24 177q0 80 54 177q80 98 89 98l25 5h9q97 0 153 -98q46 -33 84 -153l14 -14v-5l-4 -5v-5q14 -11 39 -118l44 -84v-15l-5 -5v-5l5 -5h20q0 38 59 84q0 41 89 153l-5 5v5l54 73l49 89q6 46 167 167l20 5l15 -5q0 13 20 15 q142 -11 142 -74q0 -17 74 -118v-10l-5 -19l15 -25v-44l-10 -15v-39l10 -15v-20l5 -64l-5 -15l5 -93v-79l-15 -20v-19q0 -42 -15 -59v-94q0 -77 -34 -221l-10 -10v-59q-39 -126 -39 -163q-20 -56 -25 -108l-39 -49l5 -5l-5 -5l-15 -44h-10q-10 0 -10 25q-14 0 -14 9l-5 -4 h-5q-10 11 -69 24v5l-5 -5h-10v14q-15 0 -25 -43h-9v24l-15 29l15 25l-5 15q9 0 14 59q15 0 40 59q25 0 49 192v69l10 19q0 116 29 192v40l5 152l-5 89l-9 10v39q9 0 19 113q-11 74 -24 74q-65 -9 -89 -39q-69 -40 -69 -84q-47 -39 -89 -123q-41 -82 -59 -172h-5l5 -5v-15 l-19 -24l5 -5v-5l-5 -5v-5l5 -20q-55 -139 -55 -172q-19 -177 -44 -177l5 -25q0 -147 -39 -222q0 -17 -20 -49h-10v15h-10q-19 -8 -19 -34v-44h-10v24l-10 59h-10v-15h-5q-7 0 -20 54l-9 59h-15v5q0 10 20 10l-5 35v44l-40 93v40l5 20l-24 172l4 15q-4 34 -14 34l5 25v5 q-30 69 -35 152q-23 25 -39 148q-9 0 -10 24q0 10 15 10q-23 35 -64 143h-25q-39 -24 -39 -69l5 -29q0 -61 -35 -143l-10 -40l5 -39l-5 -5q20 -5 20 -54l-5 -103l-10 -10l25 -44v-25l-10 -10l5 -5v-5l-20 -29l20 -89l-5 -5q13 0 20 -64l-5 -20l79 -310l4 -53l-9 -10 q14 -19 14 -44q-14 0 -19 -50h-10v35h-5v-30h-20v15h-5q0 -30 -10 -30q-7 20 -14 20l-15 -5l5 -24h-5l-5 5l-5 -5h-10v5l5 4v5l-5 5l10 10v15l-15 -10h-10l-9 10l5 5l-10 34l-25 -19h-10v19l5 5l-5 5l10 49l-29 20l4 4h15v-9h10v5l-5 4v5l5 5q-12 0 -29 79v44q-20 24 -20 69 l5 45q-10 0 -10 14v10h5q0 76 -40 187zM133 -156l4 20h8v-12l-8 -8l4 -4v-12h-8v16zM159 -91v-15l10 10v5h-10zM233 -57v-19h5v19h-5z" />
<glyph unicode="N" horiz-adv-x="896" d="M15 896l4 3l-4 20v70q0 36 16 110v121q0 61 -16 130l4 121l8 8q0 8 11 8q0 23 8 23h79q65 -19 89 -63l75 -90q13 -14 35 -70v-12q21 0 27 -31q8 0 8 -27q22 -18 43 -71q28 -64 63 -106q11 -11 11 -39q17 -11 79 -102q17 0 39 -74q31 -39 55 -90q32 -29 74 -98q7 0 31 -35 l4 -4v-4h12v4l-4 86q-7 1 -24 31l4 12l-4 55v27q-47 101 -50 137l-4 4v16l-4 145l-32 78v39l-7 8l4 39v32l-8 7l-4 106v24l-8 11v86q0 44 63 94l43 4h7q51 -40 51 -74l8 -16v-55l-8 -11v-32l-4 -15l4 -4l-4 -47v-67l4 -117q17 -21 28 -94l4 -4v-90q0 -12 23 -39l4 -75 q8 -9 23 -121v-19l8 -12v-86q0 -21 28 -90q7 -55 31 -79q3 -20 23 -35q0 -34 39 -125l20 -39v-86q-41 -46 -59 -133q-7 -4 -23 -51l-24 -20q-58 0 -117 55q0 39 -59 145q0 30 -31 74l-23 63l-4 27q-15 0 -55 63l-4 4l-27 78q-14 11 -32 59q-18 0 -23 54q-47 26 -47 83 q-27 17 -74 90q-51 22 -51 66q-59 116 -125 192q-69 65 -102 86h-8l-11 -23v-43l11 -4l-4 -106q0 -91 36 -157v-152q0 -104 58 -263v-125q13 -14 20 -55l11 -35q7 0 12 -47l4 -4v-125q-32 -50 -62 -50l-16 4h-8l-12 -8h-7q-110 67 -110 121l-4 4v712q-10 7 -19 74 q-6 0 -20 36z" />
<glyph unicode="O" horiz-adv-x="753" d="M-4 470v39l16 27l-4 4v4q16 160 28 160l-4 24l4 19l-8 8l19 70v39l8 12l-4 20q4 30 23 43q0 46 35 90l20 50q21 7 47 63q42 29 98 39q34 31 54 31h47l39 12h4l12 -8h19q81 0 157 -51q0 -11 15 -11q72 -46 102 -125q22 -29 59 -114q27 -28 27 -97l4 -43l-12 -12v-47 l-11 -16l3 -15l-3 -4l7 -102l-11 -27l11 -20v-19q-27 -72 -47 -180q-14 0 -23 -74q-48 -57 -55 -102l-4 -4q-9 0 -15 -23q-14 0 -20 -43q-6 0 -27 -35l-74 -39l-20 4q-16 -20 -35 -20l-63 23q-33 0 -97 40q-55 15 -55 27l4 4v4q-21 21 -47 31v4l8 8v11q0 10 -55 20l-8 -8 h-16q-54 30 -82 59v15q12 15 12 28v11l-19 36l3 4v3q-32 42 -50 114zM176 638q0 -43 55 -153q6 0 15 -35q7 0 28 -47q46 -52 46 -62l12 -12l24 8q40 -10 86 -66q0 -14 19 -20v-12h8l12 8l4 -4l4 4h3l4 -4h4q3 11 43 31q0 32 16 43q0 15 23 36l39 54l-3 4v12q16 39 27 39v266 q0 88 -39 152q0 40 -67 55h-58q-6 0 -12 15l-8 8q0 10 -19 12l-4 4h-4q-53 -35 -78 -35l-16 -4l-12 -12h-8l-62 27l-12 -3l-8 7h-7l-12 -11l8 -12q-20 -18 -32 -63q-11 0 -11 -7v-8l11 -20l-4 -58l4 -28q-19 -53 -19 -78v-31z" />
<glyph unicode="P" horiz-adv-x="1125" d="M-167 1008v29q36 164 95 164h9l94 -5l198 74q0 11 60 20l5 5h49q103 0 218 -30q36 0 173 -64q110 -51 283 -169q10 0 49 -39q37 0 89 -114q30 -70 30 -129h-5l5 -5v-15q0 -73 -25 -148q-28 -95 -183 -233q0 -27 -139 -124q-87 -60 -163 -89q-35 -18 -35 -69h-5l10 -74 l-10 -35h-10q0 23 -10 35l5 5l-5 14l10 25l-5 25h5l-14 34l-25 -10v-29h-10q0 24 -10 24h-5v-24l5 -20l-5 -20l10 -10v-9l-5 -30q0 -11 59 -74q15 -18 15 -35v-5l-10 -40v-14l15 -15h10v10h5l10 -10v-10l-5 -5l5 -5v-35l-10 -20h-5q-8 0 -20 40h-5q0 -15 -59 -20l-25 -35 h-15l-49 60q-50 10 -50 20l5 25q-64 51 -84 118q-32 48 -74 89h-15l-25 -24l10 -15v-30l-5 -25h-10v5l5 20l-5 5v5l5 15q-11 0 -15 44l5 15v5h-5q0 -20 -20 -20q-12 40 -44 40l5 -5v-15l-5 -49h-5v10h-5l5 24v15l-10 15v20l10 14q-17 0 -25 25v15l10 10l45 -10l19 25v5h-9 v-10h-5l-5 20l14 19l15 -29h10l5 25v9q-21 0 -49 50v15l10 15v5q-21 55 -60 109l-15 54l10 10q-4 36 -15 50v29l5 20q-24 48 -24 69q-40 40 -40 100l-25 39l5 5v5q-40 46 -59 99q-42 52 -49 114l-5 5h-5l-15 -15h-5q-37 0 -60 50zM91 1023q54 -34 54 -50l-10 -30 q29 -21 64 -84h5l-5 -25v-5q16 -40 100 -153q0 -38 14 -55v-59q20 -13 25 -74l5 -5l-5 -5q17 -20 74 -30q2 -37 40 -89q0 -65 20 -70l-15 -24l10 -20q106 15 267 143q83 30 164 119q89 103 89 194q15 0 15 84q-29 21 -70 84q-182 151 -282 178v5l-5 -5h-5q-17 15 -59 15h-25 q-18 15 -35 15h-34l-25 -5l-5 15q-30 -7 -35 -25v-20l5 -24h-5l5 -5v-50h-10v15q0 64 -10 89l5 15l-9 10l-45 -10l-15 5q0 -15 -104 -15h-5q-6 -8 -84 -20l-5 -5h-20l-5 5h-5l-24 -24v-5zM502 32q27 -87 44 -99q0 10 15 10l-5 20l5 20l-5 5v5l5 14l-10 10l5 30l-15 34h-10 q-29 -11 -29 -49z" />
<glyph unicode="Q" horiz-adv-x="1010" d="M-52 577l6 5l-6 25v110q0 117 51 241h4l-4 5v5q41 104 95 191l-5 15l35 81q118 80 171 80q0 13 40 20q89 0 246 -50q82 0 166 -111v-10l-5 -25q19 -6 45 -75q28 -37 50 -101q28 0 45 -115l20 -40l-5 -5v-5l20 -40l-5 -5l21 -26v-10l-5 -5v-5l5 -5l-10 -10v-5q16 0 35 -65 v-45q50 -101 70 -166v-146l-65 -140l-101 -116v-29q-40 0 -40 -40l-5 -6v-5q15 0 15 -10v-5h-15v-5l10 -20l-5 -15l5 -25l-5 -15l10 -10v-5q0 -18 -20 -40l5 -15q-68 -45 -90 -45l-15 10h-5q0 -26 -11 -26h-5q0 27 -30 36l-30 60l-5 35l15 30v5q-34 59 -65 76 q-10 -9 -15 -71h-10q0 30 -15 30l-5 -35v-50h-5l-10 10v65q-29 66 -106 66l-5 5l-5 -5h-5q-229 89 -326 265q-24 35 -61 151l-49 80v60zM164 687q0 -135 25 -201q3 -29 15 -45l-5 -15l35 -90q43 -101 86 -101q0 -35 130 -85h5q36 0 36 20q10 14 15 65q-19 7 -26 91l5 50 l-10 10v40l10 15l-10 10v25q66 106 116 106q55 -8 55 -56l10 -30l5 -185l-20 -21v-10l25 -25q10 0 10 20l5 5h5l5 -5l-5 -5v-15h5v15h5q11 0 11 -15h10q0 20 10 20l5 -5v-5l-10 -15l10 -10l-5 -5v-5h5l5 5h5l5 -15h5q65 68 65 211q-15 77 -50 166l-5 30l5 15l-10 10v5l5 5v5 q-17 0 -40 65l-15 15l10 15q-41 0 -46 81q-60 217 -115 261q-123 100 -146 100q0 -8 -166 -165q-54 -112 -80 -231v-121zM526 180l5 -5l20 5v5l-15 15h-5z" />
<glyph unicode="R" horiz-adv-x="1057" d="M-135 909v19l25 -5l-5 25q10 0 14 43l15 29q14 0 14 14h5l82 -53l19 -4q118 41 193 106q26 0 92 38l130 39l125 -10q4 34 15 34l5 -5l-10 -29v-9h24q119 -26 169 -82q174 -176 174 -290v-34l9 -14v-63q-29 -75 -101 -140q-46 -86 -188 -212v-10h5q37 -14 120 -72 q105 -37 232 -111l43 10v-5l5 5h15q77 -51 77 -92q24 -25 24 -43v-14q0 -92 -58 -92l-5 -5l-19 5q0 -24 -15 -24l-14 9l-14 -4q-5 19 -20 19l-14 -5l-5 5l5 5v5q-8 18 -92 43q-71 53 -174 91q-10 17 -96 58q-112 60 -208 97q-5 11 -120 62l-5 5h-15q-14 0 -19 -58h-5l5 -5 v-33l-5 -5l5 -5v-10l-10 -14v-24q44 -89 78 -96q30 -40 38 -87q34 -37 34 -63q-16 -47 -68 -92l-19 -77v-34h-9q0 62 -54 78v-10h10v-19l-10 -10h-4q0 51 -140 150l-34 62v49q0 48 -39 110q-59 99 -86 203l-53 125v101l-34 285l10 10q-20 5 -20 48l5 34q-5 18 -34 48z M130 677l10 -14v-19l-5 -5v-5q15 0 15 -53v-53l9 -29h10l14 10l87 -15q38 15 92 15v-5l5 5h48q76 0 121 -39l-15 -19l5 -5h5q2 17 77 34q135 110 135 284l-29 87q-44 92 -87 92l-19 14h-24q-42 0 -72 -87l9 -115v-20l-9 -14v-44h-10v25l-10 14l20 34l-10 72v44l-15 43h-28 v10l-5 -5h-5l-5 5h-5l-9 -29v-20l9 -14v-53q-9 -8 -9 -53l-5 -5h-10l5 5v53l10 14v29q-23 25 -34 97h-5l-19 -15l-15 5q0 -9 -91 -101q0 -16 -97 -106q-21 -39 -29 -39l-5 5h-5v-15zM241 296q0 -39 39 -169h10v25q0 57 14 111q-46 33 -63 33zM280 -335l10 9h4v-29h-4l-10 10 v10zM343 -277v-5l9 -10l5 24h-5zM405 263l15 14v5h-5l-10 -10v-9zM405 923h5l10 10v5h-15v-15zM425 291h9l10 20v5l-10 9h-9l5 -5v-4zM468 369l5 4h5l5 -4h4v4l-9 10l-10 -10v-4zM512 914l14 14v5l-14 -14v-5z" />
<glyph unicode="S" horiz-adv-x="1089" d="M-93 1165v5q0 162 146 338q66 63 150 114q0 14 146 21h68q197 -24 197 -36q108 -52 125 -52q61 0 156 -78l140 -141q94 -92 94 -135l5 -62q-23 -104 -88 -104l-47 -11q-99 0 -99 52q-26 0 -52 130q0 105 -120 151l-161 36h-140q-9 -10 -73 -15q0 -11 -99 -57 q-31 -26 -41 -52v-6q18 -31 130 -93q29 -37 104 -78q52 -54 218 -130q25 -37 161 -83q61 -51 99 -115q68 -53 125 -166l15 -115v-36l6 -21l-6 -21l6 -36q-56 -141 -167 -187q-2 -12 -93 -47q-120 -93 -203 -99q0 -11 -104 -31l-5 5l-52 -5h-83q-80 0 -146 16l-5 -6h-5 q-93 0 -151 162l-5 62v213q29 110 88 172q28 30 83 57h37q83 -3 83 -31l-11 -11v-5l11 -15q-11 -12 -11 -37h-5l-26 11v-6l-10 -15l10 -11h5v11h11v-26l-16 -21l16 -16l5 32h10v-16l-5 -52h-10q0 36 -21 36h-5v-20q0 -20 -26 -47q0 -60 41 -125q0 -57 47 -57v-5l5 5h6l31 -5 l140 57q101 39 172 83q78 41 78 78q0 24 10 36v47q-12 45 -187 177q-12 0 -63 42l-67 36q-19 0 -78 47q-168 83 -229 104l-145 57q-88 50 -120 146z" />
<glyph unicode="T" horiz-adv-x="613" d="M-475 1553v12q35 61 159 92q66 18 110 18h43l49 -12l98 6v6q-72 73 -98 147h6q127 -159 201 -159l86 -37l67 -12l6 6v6l-12 13v6l19 18h24q64 -3 159 -61l49 -6l67 36l86 13q88 -56 269 -98q24 -37 24 -55q-21 -74 -202 -74h-30q-10 -12 -68 -12l-18 -12l-67 18 q-141 0 -141 -36h-12v-13l12 -67v-153l-6 -6l12 -36v-55l13 -19v-24l-6 -6v-6l24 -31v-6l-6 -6v-6l12 -13v-152q25 -26 25 -80q28 0 36 -220q31 -63 31 -128v-43q18 -66 24 -153q9 -39 43 -73q-31 -29 -31 -92l-12 -30l-91 -68h-31q-73 73 -73 135l-31 73v183l-12 37 q-18 0 -18 12v12l18 68q-25 44 -25 91v104q0 32 -18 55v37q0 62 -37 171q0 30 -30 67l12 19v232q0 154 -79 196l-49 36q-90 0 -140 43l-62 19v6l-36 -12l-31 6l-122 -31h-49q-110 36 -110 67z" />
<glyph unicode="U" horiz-adv-x="1042" d="M-190 96v15q0 16 26 36q39 103 71 152q41 115 91 182q0 31 91 157q67 119 71 152q65 101 65 188v25q41 65 41 142q20 0 30 66v30l36 36h56q81 -68 81 -96v-97q0 -34 -61 -66q-17 -49 -31 -55l6 -5v-16l-31 -50v-91q-152 -273 -152 -294q-26 -21 -45 -142l-11 -10 q5 -16 31 -16l50 26h355l61 -5l15 15h61l25 51v10q-22 46 -45 142q-23 37 -81 202l5 36v45l-5 76h5l-5 5v6l15 20v157q0 109 126 238h16l40 -41v-91l-25 -55v-228l5 -26h-5l15 -25l-5 -25q40 -144 40 -173l-5 -5q7 0 26 -81l5 -5v-5l-5 -5q17 0 45 -127q11 0 41 -101 q29 -42 45 -96q9 0 36 -51l81 -76v-81q-14 -31 -61 -31q-77 0 -167 66q-7 9 -66 16q0 18 -182 45q-50 20 -91 20h-81l-16 11q-247 -26 -390 -92q-38 -49 -85 -71h-31q0 -21 -66 -30h-10q-51 13 -51 96z" />
<glyph unicode="V" horiz-adv-x="757" d="M-60 1129v71q16 15 16 111v11q20 38 50 50h71q59 -26 76 -55q13 -3 45 -102v-55q0 -49 -30 -132l5 -71v-30l-10 -10l5 -6v-15l-20 -35v-71q10 -8 10 -56h5l-5 -25v-41l10 -15l-5 -5v-5l10 -10v-35l5 -21l-5 -20v-5q28 -65 56 -101q35 18 35 45l20 61l-5 5l66 162 q27 38 41 91q23 20 55 157q43 51 81 198q41 27 97 243q45 86 50 121q31 25 66 117q21 20 41 20h35q43 0 76 -61q0 -59 -46 -162q0 -47 -20 -61q0 -30 -25 -96q-15 -30 -15 -76q-9 0 -41 -126q-12 0 -51 -127l-60 -157q-34 0 -51 -126q-34 -68 -56 -213q-10 0 -10 -31l-5 -30 l-10 -10v-51q-56 -52 -56 -167q-10 0 -20 -66q-93 -99 -121 -111h-87q-70 49 -91 101q-13 0 -40 81q-15 0 -20 91l-36 97v45l-35 183l5 5v5q-15 33 -15 81v101l-25 116v137z" />
<glyph unicode="W" horiz-adv-x="1195" d="M-57 1119v102q15 173 52 219l5 6h45q72 -28 72 -62l40 -127v-41q0 -27 16 -46v-26q0 -42 41 -240q15 -158 30 -158v-36l16 -87q81 87 107 184q20 72 61 123q0 29 92 138q53 0 66 20h6q36 -41 66 -41l10 -20l-5 -16q8 -2 41 -92q56 -70 56 -117q26 -57 56 -179h-5 q5 -41 16 -41h5q40 12 40 51l57 169l66 174q3 35 15 35l-5 5v6q61 160 97 219q14 60 51 107q37 117 97 169q78 92 92 92h5q103 -20 103 -72q10 0 10 -40l10 -11v-66q-97 -133 -97 -163q-15 -9 -15 -36q-169 -292 -169 -368q-45 -104 -66 -204q-10 0 -10 -31q-16 0 -16 -31 h-5l5 -5v-5q-10 0 -25 -143l-31 -230q-13 -9 -36 -87l5 -15q-11 -1 -81 -87h-51q-85 22 -113 77q-22 19 -25 66q-26 44 -26 108q-66 68 -66 102l-5 41l5 5v5l-31 66q0 51 -15 51v-143l-10 -15v-20l5 -62h-11l-5 46l5 82l-40 153q-8 0 -41 -92q-16 -2 -36 -117h-5l5 -5v-5 q-20 -22 -41 -154v-20q-10 -8 -25 -102q-8 0 -21 -51l-30 -26h-6l-5 5l-5 -5h-15l-5 5h-5l-11 -10h-10q-39 0 -87 61l-56 159q0 30 -25 71l5 5l-5 5v36l5 5q-37 137 -67 210l-20 86l5 6v5q-9 32 -45 92l-26 56l-5 51h-5l-5 -31h-10v67l10 15zM546 618l5 -5h5l5 5v15z M561 598l15 -16l-5 -41l15 -76h6l5 25l-11 31v56l-25 26v-5zM592 557l5 -5h5v15z" />
<glyph unicode="X" horiz-adv-x="1118" d="M-149 236q0 58 72 78q17 48 77 87q6 16 242 231l123 144l51 46q5 20 36 52v10l-77 82l-87 103q0 56 -103 134q0 28 -77 82l-5 5q-8 0 -21 41q-12 0 -36 31q-10 0 -10 -15q0 -32 26 -52l-11 -10q-12 0 -25 51l-5 -5h-11q0 15 -20 41l-15 -5v5l5 21v21h-15l10 41l-5 15 q38 62 56 62q24 21 61 25l6 21h10q0 -22 25 -31q109 -49 165 -154q68 -135 118 -170q28 -26 46 -82q17 -37 155 -175q8 0 46 72q98 102 133 124q0 18 124 97q75 67 87 113l36 26h21l5 -5h5q0 10 15 10l5 5v6q48 0 98 -62l5 -21v-10q0 -77 -154 -175q-107 -119 -154 -133 q-142 -130 -165 -201l129 -175l185 -277q42 -27 62 -93l123 -159l5 -26q0 -62 -57 -82h-5q-108 0 -221 154l6 5q0 14 -119 211q0 21 -108 139q-50 23 -82 108l-5 5l-31 15v-5l-5 -5l-20 5q-62 -15 -88 -41q-109 -34 -133 -92l-77 -108q0 -35 -150 -155q-46 -75 -113 -102 l-10 -11h-30q-72 0 -124 113z" />
<glyph unicode="Y" horiz-adv-x="1084" d="M-83 -188q0 27 89 122q133 300 133 383q29 38 78 38l22 -5q0 22 11 22q0 58 -78 72q-61 49 -100 122h-11v6l6 5l-6 17l6 17l-22 39v5l5 6l-55 183v16l5 6v6h-10q10 121 27 155l-6 5v6q26 84 122 244q11 0 17 45q19 36 72 83v39h6l16 -11q56 23 56 44h11q0 -18 -22 -44v-6 l16 -28l-11 -33l6 -22l-11 -11v-6q27 -44 27 -127q-29 -178 -61 -178l-5 -56l5 -55v-28l12 -16v-62l-12 -16l6 -6l-6 -27v-45l28 -100q15 -22 28 -22q128 26 128 56l22 33q14 0 27 33q28 14 28 56q40 19 95 161v77q0 79 16 150v33q55 84 78 84l61 11q44 -42 44 -122v-106 l-39 -183v-72q0 -86 50 -222q62 -114 161 -167q218 -116 278 -116l5 -6q39 -18 39 -27v-23q-34 -61 -117 -77q-97 -26 -255 -117q-22 0 -155 -72q-31 0 -200 -105l-327 -150q0 -11 -33 -11v-50l-12 -17l6 -22l-6 -5v-6l6 -17h-17v28l6 67l-6 5h-5l-11 -11h-11l-28 22h-72 l-33 -33l11 -61h-6q-11 0 -17 45q-11 0 -55 72q-38 0 -50 22v61zM117 866l27 -89q9 0 67 -100q17 0 17 -27h11l11 11v33l-11 17v44l11 33l-11 11v28l11 17v5l-11 17v172q-39 83 -61 83l-34 -61l6 -16q-7 -1 -33 -78v-100zM167 -88l27 -28h28q69 44 155 61q159 62 278 138 q66 39 150 61l155 84l17 22l-183 139q-115 111 -145 172l-50 66q-41 -74 -188 -183h-95q-51 -22 -61 -50l12 -16v-12l-12 -16q17 -2 50 -122q-18 -67 -38 -67l-6 -28l6 -22l-12 -16l12 -12v-5l-23 -33v-6l11 -17v-38l6 -28h-17q-5 55 -16 66v28q16 20 16 39l-5 6h-17 q-17 0 -17 -56q-38 -38 -38 -127z" />
<glyph unicode="Z" horiz-adv-x="1241" d="M-101 -14v39q22 34 71 50q13 25 34 25v25q156 133 186 181q91 116 115 130l80 85q27 56 105 115q45 49 115 96q15 25 76 65q28 56 95 115q0 22 55 65l-5 5h-5q0 -10 -15 -10l-15 5q-108 -84 -261 -140q-157 -44 -240 -100q-95 0 -95 -45l-10 -21v-100h-15v25l5 5v5 l-15 10l5 25v71q0 10 -56 45q-20 48 -20 70q9 40 15 40l-10 20q0 18 35 80q0 25 11 25h15l50 -65l50 -20l20 5l40 -5q62 28 170 55l181 80q55 51 140 80q21 23 190 116q38 38 126 95q11 24 100 70q0 13 40 20h45l35 -40v-25q-33 -41 -100 -85l-130 -121l-121 -125 q-64 -72 -90 -135q-160 -162 -210 -256l-106 -115q-12 0 -85 -95q-144 -137 -150 -165v-5h25l185 65h156l10 10v50l-20 20h-15l-25 -20l-5 5v5l25 30l-5 20l10 10v5h-15v10q20 0 30 35q85 85 130 85l85 -15l10 10l5 -5h5l25 15h10l20 -20v-20q0 -15 -30 -15q0 -30 -15 -30 l5 -5v-15l-5 -5q64 -109 90 -135q79 -76 111 -140q7 0 75 -116l95 -124l-20 -20h-10q-160 99 -376 174q0 13 -60 15h-5l-20 -30h-5l5 -5v-45l-15 -20l5 -20l-10 -10l10 -14v-25l-10 -20h-10l-5 25v39l15 70l-15 20v15l5 5v5q-15 0 -15 30h-10l-30 -75v-35h5l15 5v-10 l-15 -54l-5 -5v-56h-10v56l-10 15v4l15 20q-5 67 -15 75v65q-14 41 -80 41h-71l-140 -25h-5l-15 5v-5l-75 -46l-5 5q-85 -35 -206 -120q-136 -84 -164 -84v5l-5 -5h-5q-53 33 -56 45l6 5zM736 110h10v66h-10v-66zM746 321l10 -10h20v5l-10 15v70h-20v-80zM796 321l40 -20h5 v15l-30 55v5h-15v-55zM856 321q0 -15 30 -15l15 -20l10 10l-35 40h-10l-10 -10v-5zM921 281l5 -5h5l5 5v5l-5 5h-5l-5 -5v-5zM941 271l5 -5h10v5l-10 10l-5 -5v-5z" />
<glyph unicode="[" horiz-adv-x="569" />
<glyph unicode="\" horiz-adv-x="569" />
<glyph unicode="]" horiz-adv-x="569" />
<glyph unicode="^" horiz-adv-x="961" />
<glyph unicode="_" />
<glyph unicode="`" horiz-adv-x="682" />
<glyph unicode="a" horiz-adv-x="856" d="M-258 -168q24 41 77 91q14 45 72 86q40 112 110 229q16 41 26 122l25 35v31q25 145 87 355q19 36 25 107q56 64 56 167q16 0 25 72l5 25l5 5h6l-6 5v5l35 117l26 20h15l10 -10l21 5q95 -12 116 -35q35 0 77 -77v-4l-5 -16q42 -48 66 -193l9 -20l-4 -5l30 -254l46 -112 q19 -64 97 -173q30 -90 91 -147q6 -26 91 -112q0 -17 61 -86q136 -64 148 -91l25 -86v-21q-20 -18 -20 -46q-35 -14 -77 -55q-108 0 -207 152q0 34 -82 132q-102 126 -188 263q-28 10 -56 77q-9 0 -36 51l-25 4h-15l-71 -25h-11l-60 6q0 -9 -56 -21q0 -8 -41 -26 q-29 -24 -101 -182q-91 -118 -102 -153q-21 0 -35 -49q-29 -14 -66 -97q-10 -5 -45 -86q-19 0 -31 -46q-8 0 -25 -36l-36 -10q-72 0 -82 87v25zM239 594l15 -15q17 15 198 66q11 20 31 20l-6 5l6 26v45q-20 102 -46 102h-92q-40 -22 -71 -132l-35 -92v-25z" />
<glyph unicode="b" horiz-adv-x="1082" d="M-27 904q24 252 50 252l96 91l66 40q20 0 65 30l101 25l10 -10l10 10l15 -5q85 52 136 56l5 5h10l5 -5h5q0 10 16 10l141 5l136 -30q55 -41 100 -56q0 -10 46 -55v-30q0 -43 -61 -121q-20 -18 -40 -106l5 -15h-5l5 -5v-5q-40 -76 -40 -116l20 -30v-6h-5l-40 36 q-23 0 -71 -71l5 -5v-5l-5 -5v-5q24 -29 96 -50q103 -15 206 -61h15v-5l-5 -5v-5q13 0 76 -45q106 -66 106 -106l25 -30v-36q0 -17 -50 -100q0 -15 -21 -26l5 -5v-5q0 -16 -65 -20l-106 -86h-5l-5 6h-5q0 -11 -25 -11q0 -24 -121 -55q0 -11 -96 -30q-33 -13 -201 -41 q0 -10 -41 -15q-60 -42 -60 -60l5 -5v-5l-5 -20l10 -35v-172h-10v157h-5l-20 -31l-5 -20l-15 5v10q1 36 10 36l-5 5v20l10 15v40l-10 15v5l5 5v5q-11 15 -101 20l-5 -5h-5q-114 30 -136 61l-20 -5q-88 78 -106 171l-10 35l5 15q-10 156 -31 247l16 126v10q-65 54 -65 177z M109 1030q6 -60 20 -60h15q36 15 36 40l5 55l-15 10h-11q-18 -20 -45 -20zM134 899q0 -36 71 -50q24 4 40 25q30 0 101 50l101 46l95 25l76 40l40 71q10 0 15 40q14 30 36 30v5q0 17 -66 25q-60 -10 -80 -25h-11l-20 15h-10l-60 -20q0 -26 -51 -45v5q26 27 26 45l-16 10h-10 q-13 -18 -75 -45l-46 -61l-5 -5h-5l-25 5q-35 -33 -35 -55v-35q7 0 15 20l5 5h20v-10q-27 0 -50 -61q0 -20 -25 -20l5 -25l-15 15l10 51h-10q-41 -55 -41 -71zM225 435l15 -50l30 -55q15 0 15 -11v-5l-5 -5v-5l31 -25h30v-10h-30v-10l25 -5h10q0 15 10 15l10 -10h15 q19 15 35 15h5v-15q-17 0 -20 -35l5 -5q0 8 162 20l5 5l5 25l5 5h5q25 -29 65 -40q30 20 46 20h45q0 25 81 25q0 17 90 30q30 15 30 31l16 5l-10 10h-16l-30 -5l-5 5h-5l-55 -15h-26v10l86 25l15 -5q17 13 101 35q43 24 60 51v5q-6 17 -70 50q-85 91 -302 91q-27 20 -56 20 l-20 -5l-30 10h-41q0 -16 -35 -45h-5q0 20 -15 20h-10l-20 -10v-26q-10 -11 -10 -35h-10l-20 61h-6l-40 -16l-91 41q-36 0 -70 -111v-71zM225 1181l10 -10h10q56 30 56 61q0 16 -51 20v-5q-25 -44 -25 -66zM301 1040v15q2 11 65 46h10v-10l-55 -31l-10 -20h-10zM583 808 l20 -15l5 5h5l15 -5l15 5l10 -10h36q11 0 15 66l-10 40h-5q-40 -38 -96 -61zM709 894l10 -35l-5 -20l5 -31h5l35 41v10q-7 21 -45 35h-5zM739 355l5 5q45 -13 45 -20v-10l-30 -5zM769 909q13 -25 40 -25q32 0 61 111h-40q-23 -8 -61 -66v-20zM1172 294h20v15l-15 16h-5v-31z " />
<glyph unicode="c" horiz-adv-x="1060" d="M-52 872v131l29 137q10 0 28 46l51 57q35 21 166 34h23l17 -12h80l28 -5q4 34 23 34l-5 57h-12v-29l-11 -11l-12 103q19 0 35 91l-52 109l12 11h5q12 0 12 -34q28 -11 28 -35h12l5 29v23q0 19 -17 40q14 34 23 34h6v-17q0 -81 23 -109l-6 -28l6 -23l-23 -91q0 -19 17 -40 q-11 -103 -29 -103v-11q0 -9 149 -74l40 -35l17 6q124 -69 194 -91l228 -143q16 0 52 -63l17 -68q0 -19 -63 -29l-6 -6h-28l-51 18q0 -18 -12 -18l-6 6l-40 29q-51 88 -159 125q-48 58 -172 103q-12 17 -28 17l-17 -6q0 8 -57 23l-12 12h-11l-17 -29v-319l-6 -23l6 -23v-137 l5 -91l-5 -18l45 -91q42 -45 69 -45l85 -63q0 -18 52 -52q129 -85 257 -85h23l34 80l-12 74l6 17q-6 69 -103 234v17q33 34 86 34q0 -13 108 -40l52 -137q57 -109 57 -142t17 -57v-80q-69 -154 -160 -154h-23l-80 -6q-214 0 -485 205v6q-17 -3 -17 -46v-34l-11 -17v-56 l-12 -12h-6v34l6 108l-17 29l6 6v5q-11 1 -63 74q-168 162 -183 234q-91 104 -114 223l-17 -6q-57 63 -57 137q-23 31 -23 52zM131 986q49 -229 80 -229q24 -147 114 -256q65 -57 85 -57v5l6 23v194h-17l6 6v6l-17 17q0 10 28 17v11l-23 34v6l12 12l-6 5v6l6 6l-6 5l6 40v6 l-12 23q4 80 17 80q-11 165 -68 165h-34l-86 6q-91 -90 -91 -131zM428 -41l11 11l11 -11l-5 -29h-6l-11 12v17z" />
<glyph unicode="d" horiz-adv-x="1170" d="M-202 1398v22q27 87 72 100q0 15 89 44h143q155 -15 155 -28l5 6h17q21 -17 50 -17h49l-5 6v11l5 5v6l-16 16v6l38 -28l17 6v22l-17 33h11l17 -33l-5 -6v-5l33 -6q11 33 22 33h5l17 -38l-6 -6l6 -5h11q0 22 33 22l-11 16l6 6h5l6 -6h5l-5 -27v-6l5 -5v-6q-12 0 -27 -55 q19 -33 38 -33v5l11 11h6v-5l-22 -28l16 -11v11h17l-6 -5v-11q85 -25 144 -78q135 -63 282 -177q34 -11 50 -44q60 -54 182 -215q17 0 33 -39l-5 -6v-5q49 -91 66 -199v-33q0 -182 -72 -276q-23 -74 -171 -216q-124 -94 -210 -94q-69 -33 -155 -33q-195 23 -260 66 q-83 61 -83 89l6 16q-13 0 -22 39q-15 0 -39 61q-35 27 -77 121q-20 19 -50 105q-41 50 -77 144q-62 19 -83 50l-11 -11l-11 11v5l60 44l6 6v6l-11 16l11 17v5q-50 90 -55 133q-13 0 -50 94l6 16q-23 9 -100 210q-8 0 -22 50q-31 28 -44 66q-9 0 -28 39zM-168 1116v22h11 l5 -22l-5 -5h-6zM-152 1083h6l16 -17v-5l-11 -11zM-141 1144v5l11 -11v-5zM-130 1100l6 16l22 -27v-28q-9 0 -28 39zM-102 1044l6 6h5l39 -66q-50 31 -50 60zM-36 939v11l17 -16v-11zM47 1348q0 -107 66 -193q14 -93 39 -133q16 -61 116 -248l22 -111h-6q35 -120 127 -254 q88 -199 139 -199l66 -22l6 5h5l83 -11q0 11 66 22l6 -5v-6q218 93 276 166q78 42 78 94l16 72l-5 50l5 16q0 92 -39 177q-43 136 -176 216l-139 99q-41 30 -243 127l-16 -11h-17v11q-44 -20 -44 -33v-39l-6 -49l6 -6v-5l-6 -50l6 -127l-6 -6h-5l-6 6h-5l5 27v6l-11 44v77 l-11 139q-17 -4 -44 -67v-22l11 -16v-11l-11 -12q-17 22 -17 78q6 45 33 66v6q-35 54 -149 99q-60 50 -182 50h-22q-11 0 -11 -17zM102 1293v6l11 16l-11 17l6 5l22 -11q-13 -33 -22 -33h-6zM450 702v116l11 11l6 -6l-6 -83v-38h-11zM450 845v45h6l16 -17q-5 -33 -16 -33z M500 1055v6l22 22l6 -5v-6l-6 -17h-22zM511 1171v6l17 17l5 -6v-5l-17 -12h-5zM550 1481v11h5l11 -11h-16zM555 1520h6l11 -11h-6zM561 1536v6l11 11v-6zM588 1531h6l11 -11h-6zM594 1459v5l5 6h6l5 -6v-5l-5 -6h-6z" />
<glyph unicode="e" horiz-adv-x="686" d="M-26 442q2 10 39 47l8 -8l17 4l9 -9v5l-9 47l9 8l-5 26l5 21l-9 26v8l30 129l-13 56q13 0 35 133q76 206 197 206h4q45 0 99 -44q61 -77 111 -123q0 -12 30 -56l26 -108l-5 -17l13 -102l-4 -26l4 -61v-72l-8 -9l4 -4v-4l-17 -51l4 -5v-4q-4 -26 -13 -26l5 -4v-4l-60 -112 q-7 0 -77 -85l-4 -5q0 -17 -48 -17l-30 -4q-15 -18 -26 -18l-30 5l-4 -13q29 -114 99 -163q40 -34 56 -34q13 0 25 -21q52 0 103 55q23 6 56 51q21 0 35 22l17 8h4q4 -7 77 -25l4 -5v-17q0 -20 -21 -34q0 -27 -39 -59q0 -16 -17 -34l4 -13q-10 0 -12 -30q-31 -59 -52 -73 q-56 -55 -112 -60l-4 -5l-107 56q0 9 -99 95q0 22 -107 127l-68 111q-35 131 -103 228q-19 21 -26 90zM159 613q8 -48 8 -166v-35q5 -48 34 -48l22 -8h47q10 15 103 43l13 -5q14 40 34 65q17 27 17 47q9 0 13 56h4l-4 4v73l8 13l-8 9l4 4l-4 4v35q0 168 -121 223l-25 8 q-29 0 -51 -47q-32 -39 -43 -39q0 -24 -34 -60v-64z" />
<glyph unicode="f" horiz-adv-x="1216" d="M-72 1142v17l35 40l-12 11v6l12 11h5l6 -5l17 5l-5 29q11 0 11 23l5 5h6l6 -5v-12l-12 -17v-11q31 -69 52 -74h5v5l-11 17v18l11 11q12 0 12 -57q32 -4 137 -80l28 6l52 -12h114l131 -17q0 17 69 23l6 6h5l6 -6h6q0 15 80 28l11 12q12 0 12 -17l57 -6q28 29 80 29 q20 0 28 68l-17 57l-6 6v23h12l17 -69l6 -5v-52h11v29h12q0 -29 22 -35q30 30 103 52q0 12 109 80q0 24 120 80q0 29 80 80l40 34h45l46 -46q0 -73 -63 -154q0 -27 -86 -177l6 -6v-5l-17 -23v-52l29 -34v-11q-23 -40 -75 -40l-11 -69v-29l11 -17v-28l-11 -17v-35h-11v75 q0 111 -23 154l-12 34v46q52 59 52 154l-6 6h-6l-80 -80l-63 -34l-45 -18l-17 6v-6l-12 -11l-6 6h-5l-17 -17h-6l-6 5h-5q-29 -34 -80 -34l-12 -23v-17l12 -23h5l17 12l-5 -35h-6l-17 12q-17 -31 -17 -57h-6l-17 17v17l17 17l-6 29v22h-17l-46 -34l-34 12h-28q-26 0 -63 -29 l-23 6l-6 -17l-28 5h-75l-22 -17h-69l-6 6h-5l-12 -34l6 -6v-6l-6 -34l97 -166l40 -45l23 17h17l6 -6h6q0 9 137 63h28l35 -34v-18q-63 -85 -63 -108q0 -27 -12 -40l6 -34h-17v85l-12 29h-5q-10 -14 -92 -40l-11 -17q11 0 17 -63l91 -154q23 -103 75 -155v-5l-6 -6v-6 q19 0 40 -171q16 -3 29 -74l5 -6v-40q-5 -162 -63 -200h-28q-69 48 -69 109q-14 45 -131 177q-4 32 -103 108l-11 12h-12q0 34 -80 34l-11 11h-114q-35 16 -35 40l120 115q80 137 120 137q23 -24 23 -46q0 -55 -40 -74l-11 -29q0 -31 74 -63q80 -60 143 -143l6 6v6l-18 28 v23l29 40v6q-64 96 -97 200q-26 15 -69 86q-34 14 -34 51q-40 8 -40 17v6q17 0 17 11l-85 160q-16 5 -63 86q-13 0 -57 74q-141 166 -183 166l-12 -57h-11v45q-20 66 -40 69q-11 0 -11 17h-17v-11h-17v23l5 5v6zM408 907l28 -28h6v28l-6 6v6l-5 -6h-6l-17 6v-12zM859 1353v6 l17 23v28l-17 23h6l17 -6v35l11 11l12 -17v-46l-17 -23v-17l28 -34v-12l-11 -28q-12 0 -12 34h-11v-17h-12q0 27 -11 40z" />
<glyph unicode="g" horiz-adv-x="672" d="M-32 -211q21 34 21 58v26q12 18 29 121q10 6 30 70q15 9 59 84q11 10 41 76q25 33 59 33q34 -27 34 -58v-30q0 -11 -30 -54q-62 -103 -92 -134l-25 -54l4 -38q-9 0 -21 -88v-4q58 -59 101 -59h50q39 -21 67 -21h54l46 -21q69 0 76 34q42 2 71 38q20 19 38 96v17 q-17 46 -21 92q-17 0 -17 49v38l4 17l-4 17v12h-8l-17 46v9l4 4v4l-8 9v21q-16 0 -55 29h-12q-25 -29 -72 -29h-12q-13 11 -75 33l-13 -4q0 12 -63 46q-23 0 -88 42q-8 0 -8 25q-20 0 -42 105l4 4v4q-21 70 -21 126q0 132 101 247l121 110l59 37l41 5h13l17 8l38 -4l8 8h4 l4 -4h5q0 21 37 21q84 0 114 -59q8 0 8 -46l29 -34v-4l-4 -4l4 -4l-4 -126v-30q0 -21 -8 -21l4 -4v-17l-17 -50q34 -17 34 -38l-13 -58l4 -26q0 -7 -58 -58v-172l21 -46v-67l-5 -4v-4q21 0 26 -172q10 0 21 -54l8 -8v-4l-8 -93l8 -8v-84q-14 -38 -71 -80q0 -27 -68 -38 l-151 9l-37 -4l-29 8l-42 -4l-4 4v4l-4 -4h-76l-12 8h-26q-72 0 -117 55q-46 17 -46 67q-10 0 -17 51zM199 555q8 0 12 -30l-4 -42q21 -21 46 -79l59 -42l4 4h4q15 -12 50 -12h29q50 58 68 113q12 0 12 33q-12 0 -21 59l4 46q0 42 -16 109v42l-9 8l4 5v16l-16 59l-9 42 l-42 13l-16 -9l4 -4v-4q-17 -45 -46 -59q-38 -30 -58 -84q0 -29 -17 -29v-17q-17 -42 -21 -88q-8 0 -21 -50z" />
<glyph unicode="h" horiz-adv-x="707" d="M-7 596q8 35 21 35q15 13 44 24l19 16q0 8 16 36v45l5 8v60l-11 18v98l8 27q5 0 20 29v12l-22 40q-5 20 -22 38q-8 51 -26 51q-28 27 -33 41l70 53q0 7 41 60q18 0 45 16h44q48 -14 48 -35q0 -8 14 -16l-4 -46v-43q-11 -84 -29 -84q0 -9 -8 -19v-5l3 -27l-14 -5v-16 l-5 -9v-70l16 -25v-32l-13 -59q-12 -6 -19 -30v-22l8 -32l3 -3v-43q11 0 16 -11v-16h18l8 5h47l8 6h21l13 -3l20 3l35 -3l81 16l18 14v30l-5 8v51q-5 4 -5 30l-16 26v41l-6 8v79l-5 8v97l5 8v51l8 28l3 2v24l5 8v24l-24 47q0 37 -13 70v13q0 37 35 57l54 19q26 -16 37 -52 q22 0 22 -73q-8 -16 -8 -42v-138l27 -29v-20l-8 -37v-19l5 -17h3l-3 -13q-2 -100 -8 -100l6 -35l-3 -9l3 -29v-16l5 -8v-84q11 -16 11 -25h21l13 -10h47q14 -11 62 -22q24 -16 24 -21v-22q-44 -45 -78 -51q0 -6 -38 -19l-19 -22v-8l5 -8v-108q0 -33 28 -67l5 -17v-3l-5 -8 v-16l5 -8v-51l8 -32l3 -3v-24l16 -36v-26q10 0 10 -6v-30l8 -32l3 -2v-146l-11 -21q-32 -22 -56 -30q-6 -17 -11 -17q-41 20 -56 52q-6 11 -6 33q-6 0 -19 43q-13 14 -16 102l-5 13l2 57v62l-5 8v29l-13 39l-3 2v46l-5 8v46l-8 27l-3 2v31q-6 0 -13 67q0 11 -33 11l-6 5 h-188q-5 0 -15 -18v-185l7 -8v-29q14 -13 21 -36v-67l21 -56v-49q-33 -34 -75 -49h-32q-18 8 -28 22q-15 32 -24 78q-13 15 -13 46l-5 5v57l-6 8v57q-5 7 -10 46l-11 16v113l5 11q0 17 -35 46l-22 8h-24q-27 9 -27 19q-19 35 -19 68z" />
<glyph unicode="i" horiz-adv-x="340" d="M-7 -94q0 77 60 202l-5 5v11l5 61l-5 5v6q12 115 27 115l-5 38v11l5 5v6q-9 0 -16 33l5 76v11l11 11l-5 6v27l5 33l-5 27l5 6q-16 3 -16 44v71l22 82l-11 11v11q27 0 27 49l6 6l-17 32l6 17h-17v5q0 11 17 11l5 6v5q0 44 -71 44v11l33 11h5l17 -11h11v6l-11 21l11 33v6 h-22v5q0 9 44 28v11l-11 32h5l6 -5h5q13 50 44 88q22 0 22 -77l-6 -22l6 -5v-6l-6 -16q11 0 11 -28l6 6h5q11 0 17 -66h-11v-66q-17 -17 -22 -71l-28 -77v-104q0 -60 -16 -60q16 -34 27 -131l-16 -93l11 -11l-11 -33l5 -22l-33 -164l6 -17l-6 -5q10 0 17 -28l-17 -27l11 -17 l-16 -27q16 -5 16 -33v-22l-16 -16l5 -5v-27q-10 -22 -32 -33l5 -28v-27h-11v16l-55 -44h-11q-13 0 -27 61zM20 946v5l6 6h5l6 -6v-5l-6 -6h-5zM26 1132v5h27v-21h-5q-22 8 -22 16zM53 1285l55 33l-5 6v5l16 33h11v-22l66 60q-18 50 -39 50q0 19 -27 60q0 26 -38 71v11 l11 11h16l27 -16l-5 -6v-11l93 -131l11 11q0 26 -38 33v16q33 -6 33 -16l5 5h6l16 -5q12 19 71 54q4 33 17 33v-5l5 5h6l16 -16v-11q-18 -39 -44 -60q0 -39 -11 -39h-5v6l5 16h-5q-32 -29 -55 -82h11q3 22 16 22h6l-22 -38l16 -6v-16l-5 -33l60 -93q0 -21 33 -83v-5l-11 -11 h-5q-21 0 -33 77l-66 49l-16 55q-11 0 -11 -22l-6 -6h-11q7 44 22 44l-5 28q-22 -9 -22 -17l11 -16q-17 0 -17 -17l-5 -5h-6l-5 5v6l11 11l-6 5v6l11 11v5h-5q-61 -33 -61 -82q-11 0 -11 -33h-5l-6 6h-5v-28h-11v11l11 44l-5 5h-6l-44 -11zM64 -100v-5l17 16v6z" />
<glyph unicode="j" horiz-adv-x="1000" d="M5 709v18q42 107 101 168h5q23 0 57 -23l31 18q9 -8 88 -18l9 10h36q6 -10 87 -18q0 13 41 13q42 -22 70 -22l17 9l27 -5l22 23h22l66 -58l-4 -22q16 -96 49 -132q13 -67 65 -115q0 -73 221 -374q39 -70 66 -198q-15 -75 -22 -75l4 -4v-22l-13 -40h-4l4 -4v-5 q0 -17 -101 -105q0 -16 -62 -49l-5 4h-4q-7 -14 -66 -31q0 -7 -110 -44l-14 -8l-4 4h-4l-36 -18h-53l-8 10l-49 -10l-4 5l-22 -5h-75l-31 18l-22 -4q-35 14 -44 26l-4 -4h-5q-154 106 -167 106q-12 17 -49 31q0 8 -40 44q-26 67 -26 88h-5q-8 0 -13 -53h-8v26l8 36v4 q-8 10 -8 30h-9v5l17 35q-13 0 -17 52q9 76 43 172l-4 22l9 27l-5 13q18 0 31 70q8 0 27 62q53 84 53 97l-14 27v13q11 12 14 53q0 27 -27 48q-2 31 -13 31l-9 -9q-65 11 -110 57zM142 0v-13q13 -17 13 -39l-5 -5q7 0 27 -43q93 -91 190 -106q15 0 93 -40l25 -9h67l9 -9 l44 5h13l22 -5q9 15 93 27l79 35l97 88l-8 14l12 13h5l-5 4v13l9 13l-9 40l5 39l-27 31l-4 4h-5l-8 -8l-14 12l10 19q-23 30 -31 70q-22 7 -45 83l-75 111q-59 47 -87 114q-25 49 -41 54l5 4v17q-18 39 -66 58q-59 35 -159 43l-18 5l-9 -9h-12l-14 14l-75 -18l-13 13h-31 q-26 -14 -26 -48v-71l12 -18v-8l-12 -27q33 0 48 -44q13 0 26 -22q12 0 14 -22l4 -4v-5l-9 -13l5 -13q-70 -86 -70 -128l-41 -111v-56z" />
<glyph unicode="k" horiz-adv-x="980" d="M-77 1091q16 0 38 59l5 5h6l5 -5l5 5h6l85 -91q11 0 11 16l-22 43v16h11q32 -61 54 -172q19 0 37 -80q14 -11 65 -118q48 -26 48 -54l37 -80l6 -6h11q0 17 42 54q0 23 49 54l10 10l11 -10h11v5q-7 21 -27 21l5 22l-10 32v22l37 37h6l64 -48h5q4 52 43 59l-10 16v59h10 q3 -22 16 -22l38 38v21l-5 27l5 6h5q11 -25 22 -27q30 73 75 107q27 39 27 91l5 22q11 0 11 21q39 16 48 43q21 0 21 27l54 32l5 -5h6l27 21h5l27 -21v-38l-6 -5q-49 -65 -53 -108h-6l6 -16l-6 -16l16 -10q-5 -72 -16 -81v-5l16 -22l-10 -32h-6l6 -5v-70l-22 -37l-5 5l16 43 l-11 32v16l11 43q-11 0 -11 43l-10 11l5 26q-16 0 -16 33h-11v-27q-59 -90 -59 -124l-16 -16l5 -16l-177 -209v-32q30 -38 65 -129q36 0 91 -128l-5 -6q0 -9 59 -53q0 -22 75 -124h37q0 11 -21 11v43l-6 27l22 16v80l16 16l5 -5v-102h11v11h11v-199q0 -8 21 -16 q0 -29 70 -128q25 -67 75 -123v-16l-21 -22l-17 11h-16v-21h-10v26q-23 70 -38 70h-11v-5l6 -6v-5h-6q-13 0 -26 43q-15 0 -27 26l10 16v6h-5l-16 -16v-91h-5l-6 5h-5l-5 -27l-11 11v38l5 5v5q-11 0 -27 86l-10 32l-6 5l11 16q-11 0 -21 86q-89 59 -118 140q-13 0 -97 96 l-5 5v11l5 5v6q-10 0 -43 53q-18 0 -48 43q-16 0 -16 16h-6q-13 0 -26 -53h-6l-5 5v6l5 59v5l-21 16v11h-6q-48 -24 -48 -70h-11v21h-21v-101q-11 -7 -11 -65h-5l16 -27l-5 -5v-5q10 0 21 -43l-5 -54l48 -182h5l22 91v16l-6 5v6l6 5h5l6 -5v-16l-11 -43v-11l11 -16v-37 l-6 -6v-5l16 -16v-32l-16 -48h-5l11 -91l-11 -11v-5l21 -38v-32l-16 -22v-10l11 -16v-17h-11v11l-16 -11l-11 11l-10 -27v-43h-11q-14 108 -43 108l-5 5v5l5 65l-91 262q0 38 -11 48v38q-39 122 -80 187l-11 38h-11q0 -32 -10 -32l-11 11l-22 -33h-10l-22 54v5q24 44 54 65 q-22 34 -27 86q-13 0 -48 166l-32 59q-11 0 -22 32q-17 13 -43 75h-5l-6 -5l-63 69q21 9 21 38q-38 20 -38 70zM-23 865l5 16l-5 17l5 5h6l15 -27l-15 -16l-6 5h-5zM347 511q0 -12 32 -42v-6h5l11 27v32l-11 11zM878 1133h10v38l-10 11v-49zM915 93q11 -12 11 -37h5l11 10 v17l-22 32l-5 -6v-16z" />
<glyph unicode="l" horiz-adv-x="645" d="M-12 1453v6l16 18l-16 65v47q9 85 38 112l-11 18l11 17v6l-11 18v29l22 24h22l16 -12l17 6q93 -62 93 -71l-6 -23q27 0 38 -83v-59l11 -17q0 -12 -32 -24l5 -41v-12l-11 -18q4 -53 16 -53l-5 -29q33 -13 33 -118h5q-5 -94 -22 -159l6 -6l-6 -30v-29q10 -24 22 -24l-5 -29 l11 -83l-11 -29q11 -289 32 -289l6 -6v-29q34 0 49 -95q11 0 16 -59q48 -53 132 -53q0 -11 32 -11q31 0 104 53h49q55 0 98 59l44 5q102 0 153 -100q0 -35 11 -47q-37 -147 -87 -147q0 -26 -93 -36l-148 -82h-218q-37 0 -87 35h-6l-16 -12l-33 6l-38 -41v-6l5 -23 q-8 -24 -16 -24h-6l-5 59l11 12v12q-38 25 -38 88q-71 60 -88 130l-5 6q-20 103 -49 165q-39 122 -39 171v123l11 71l-5 6v6l5 18l-11 11l22 36v76l-32 65q4 71 10 71l-5 18l5 135l-5 195z" />
<glyph unicode="m" horiz-adv-x="1080" d="M-32 1589v23l24 24h23q11 -2 52 -59q49 -67 94 -105l6 18h6v-41l17 11h18l-6 -52h12v17h11l-6 -29l76 -93q0 -18 18 -18l152 -170l94 -81l5 5v24l-5 35l5 17h12v-58l12 -18v-29l58 -35q32 21 65 100q8 0 17 23q12 0 12 23q35 0 93 94q44 69 59 129l23 29v70 q-35 -43 -35 -82l-6 -6h-11v12l29 64v6l-12 18l6 35l-6 6v5h6l-6 6v6l6 18h-6l-17 -12h-6v6l11 17l-17 47h-41v12l23 11l24 -5l11 11v6h-11l6 35l29 -6h6l17 12l6 -6v12q18 0 18 23q17 0 17 65q12 0 12 17l6 6h17l-6 -29v-18l6 -6l-6 -5v-24h6l29 18q12 -24 35 -24l6 6 q0 -17 12 -17q8 52 23 52l6 -6v-11l-11 -18v-52q17 0 17 -30l-6 -6q29 -5 29 -40h6l6 5h6v-5q0 -12 -18 -12l6 -6v-12q-17 0 -17 -11v-18l6 -29l-59 -35l6 -6v-29q-31 0 -41 -76l6 -18l-29 -88l6 -23q-53 -154 -53 -187q-18 -44 -18 -111v-64q0 -50 -17 -71v-128l12 -18v-47 q0 -53 23 -70v-17l-12 -47l82 -175l18 -18l-6 -6v-6l58 -105l12 -23v-41l-29 -29h-18q-93 50 -93 99q-60 47 -76 123l5 29q0 37 -40 105l-41 100v11l23 47q-13 0 -18 82q-11 0 -11 35l17 64l-6 6v6q6 44 18 58l-12 65q17 0 35 99h-5q-69 -56 -129 -169q-19 0 -88 -111v-100 l-11 -12l-6 6v117q-18 0 -47 29h-6q0 -29 -17 -29l-6 6v6l11 12l-11 17l6 6v6l-24 35l12 12v5q-28 0 -59 76q-31 14 -58 59q-45 43 -88 64l-17 -6l-12 12q-18 -6 -18 -35v-12l12 -17v-53l-6 -23l18 -29v-53q-70 -92 -70 -170q0 -79 -53 -216q0 -20 -53 -134 q-48 -163 -81 -205q-12 -59 -30 -81l6 -30l-6 -93v-65h-11q0 22 -23 47v24l23 41l-12 81l6 35q-17 37 -23 105l11 12l-11 35q17 41 23 111l-23 6v6q0 12 17 12v5l-11 18l17 64l6 6v82h11v-111l6 -41h6l12 35l-6 18q30 0 47 111l58 122l41 141v87l-6 30q18 0 18 11v6 q-41 72 -41 193h-12v-29l-23 -35l-12 11l23 30v6l-5 35l11 23q0 94 -52 164q0 77 -129 292zM9 -129v-18l12 -12v30h-12zM26 69l12 -12h6v18l-12 11l-6 -5v-12zM927 1420q17 0 17 23l-5 17h-12v-40zM991 1712v12h18l-12 -12h-6zM1009 1688h11v18l-11 -12v-6z" />
<glyph unicode="n" horiz-adv-x="805" d="M1 1275l6 7q0 7 9 8q-1 19 6 20l67 5q57 -12 80 -48l70 -73q12 -11 34 -57l1 -10q18 1 25 -25q7 0 9 -23q20 -14 41 -58q28 -53 60 -87q11 -8 12 -32q16 -9 74 -82q15 1 38 -61q29 -32 53 -74q29 -23 69 -79q6 1 29 -28l4 -3v-3h10v4l-9 73q-6 0 -22 25l2 11l-6 46l-2 23 q-47 84 -52 114l-3 4l-1 13l-13 124l-32 65l-3 33l-6 6l1 34l-2 27l-7 6l-10 90l-2 21l-7 9l-6 73q-3 38 48 85l37 6h6q46 -31 48 -60l8 -13l3 -47l-6 -10l2 -27l-2 -14l3 -3v-40l4 -57l11 -100q16 -17 30 -79l3 -3l6 -77q1 -10 22 -32l8 -64q8 -7 27 -102l2 -16l7 -10 l6 -73q1 -18 29 -75q10 -47 32 -66q4 -17 22 -29q2 -29 41 -104l19 -32l6 -74q-32 -42 -42 -117q-6 -4 -17 -45l-19 -19h-7q-47 0 -96 40q-3 33 -60 120q-2 26 -31 62l-24 52l-5 23h-1q-13 0 -50 50l-4 3l-28 65q-12 9 -31 49q-15 -1 -23 45q-42 19 -45 68q-24 12 -69 72 q-45 15 -48 53q-58 96 -119 156q-63 52 -92 67h-7l-8 -20l2 -37l10 -3l3 -91q6 -78 41 -132l10 -130q6 -89 66 -221l8 -107q12 -11 20 -46l12 -29q6 1 13 -39l4 -3l8 -107q-25 -45 -50 -47l-14 3l-7 -1l-10 -7l-6 -1q-98 50 -101 96l-4 4l-45 608q-9 6 -21 62q-5 0 -19 30 l3 3l-5 17l-4 60v12q0 30 7 83l-8 103q-4 52 -22 110z" />
<glyph unicode="o" horiz-adv-x="910" d="M-36 575v16l9 8l-9 17q21 73 21 106v21l12 12l-4 4v4l28 86q10 7 17 33q23 0 49 90l94 123q21 32 78 49q28 29 122 45v4l21 -4h200q31 0 119 -29q29 0 115 -81q24 -72 41 -95v-45q24 -27 24 -98q11 0 25 -90q12 0 12 -8v-8l4 -58l-16 -32l8 -13v-33q0 -8 -33 -28l-16 -78 l12 -20v-17l-29 -37v-49q-24 -59 -41 -78l5 -16q-13 -16 -21 -65q-10 0 -41 -70q-56 -56 -69 -98l-54 -29l-12 4q0 -16 -49 -28v-8q16 0 16 -8v-5q-17 -28 -53 -28h-16q-31 28 -62 28h-24l-57 17q-21 12 -21 24h-24l-62 41q-44 26 -65 78q-19 8 -21 16l4 4v4q-13 0 -94 103 l-16 12l4 4q-34 70 -57 156l-4 4l-41 90q0 17 -29 53zM181 575q19 -122 41 -152q16 -17 24 -57q14 0 17 -24q38 0 82 -78q62 -62 126 -86h17l69 24l13 -4q0 7 24 21q0 9 53 61v4l-4 12h4l45 46v36l9 13l-9 12v8q29 60 29 74l-4 53l12 29v221l-8 12l4 4v4q-8 0 -8 21 q-12 2 -29 61l-82 62l-4 -4h-4l-24 4q-62 -70 -78 -70v-4l8 -12v-4l-61 -33q0 -11 -21 -21h-77q-17 -12 -45 -12v4l-45 -8l-9 20q-28 0 -28 -36q-15 0 -29 -123q-7 0 -8 -78z" />
<glyph unicode="p" horiz-adv-x="1085" d="M-287 1055q78 68 89 118l-6 24v6q65 64 65 77q-23 29 -41 82v24l24 24l82 -30q9 -23 18 -23h24q12 11 53 11q20 51 83 83l29 -6h18l160 54q63 29 213 29l11 12h30l18 -12h89l118 6q218 -35 384 -124q73 -55 83 -83v-53l18 -6l-6 -30v-83q-41 -63 -41 -88q-43 -61 -95 -89 q-50 -49 -83 -65q0 -28 -77 -42q-20 -22 -159 -65q-13 -14 -172 -65q0 -25 -89 -47v-36l77 -112q37 -43 118 -225q44 -35 83 -136l24 -30v-29l-12 -18q59 -64 59 -89l18 -47l-30 -12q-38 59 -53 59l-23 -6q-28 23 -125 184q0 16 -65 83l-41 76q0 65 -77 125q0 30 -95 130 q-7 47 -41 47l-24 6l-35 -12h-18l-12 12q-75 -10 -89 -23h-23l-6 5l-6 -5h-48l-23 23q10 0 18 42l47 29h83l17 12h12l6 -6h6l6 6q0 11 -118 136q0 49 -54 83q-9 38 -153 166l-12 29q-55 -12 -94 -65q-23 0 -101 -65h-12zM86 1220q17 -35 106 -136q0 -32 95 -142 q26 -53 101 -130q15 -47 29 -47l172 59q201 124 278 124h35l178 119q47 72 53 106v6q-10 9 -18 77q-74 92 -278 160q0 15 -71 17h-77l-47 -11h-12l-89 17h-23l-18 -11h-65l-148 -54q-8 -18 -112 -65q0 -24 -30 -35q0 -21 -59 -36v-18z" />
<glyph unicode="q" horiz-adv-x="1040" d="M-52 892v55q3 60 17 71l-6 6v11q0 13 22 16l-11 17l6 16h-6l-11 11l11 17l-5 27l5 5h6l5 -5v-60h11q115 214 335 302q47 55 88 55l6 -6l11 44h11v-27l16 -28l17 11l38 -11l11 11l17 -11q53 17 54 33v44l-10 17v27l10 33h11v-22l6 -22l-6 -22l11 -16v-72h11v39h11v-28 l11 -11h17l16 11h6q159 -62 159 -110q13 0 17 -60h5q42 137 127 137h11q23 -11 38 -55v-16q-48 -74 -99 -225q-60 -123 -93 -253q-15 -23 -44 -165l-39 -181v-28l182 -77h11l16 61l-5 5l5 39h11v-55l-11 -17l17 -16h5q0 22 83 77h5l6 -6l5 6h6q20 0 49 -39v-22 q-23 -36 -93 -82l5 -61h-11v-11h11q2 18 66 33h61q8 0 27 -38v-22l-11 -22l6 -38q-28 -24 -77 -44l-50 5l-33 -55v-44h-11v83l-16 16q-33 -22 -50 -22l6 -16l-6 -28v-44h-11v72l-11 11q-125 -70 -236 -176l-33 -93q-23 -29 -99 -39q-2 12 -60 50q0 24 -22 38l-6 28l6 22 l-6 22q0 139 93 269q0 25 11 38v49l-11 17v16h11q0 -17 28 -33h5l-5 28v5l5 28l-22 5l-16 -5v5l5 17h-5q-16 0 -16 22h-11v-121h-11v77l-11 16l11 17l-6 27q-71 0 -71 -38v-6h-11v17h-11l-6 -17l-5 6h-6q-13 0 -49 -44v-28l11 -16v-77h-11v49l-22 77l-6 -5h-27 q-44 18 -44 27v33l104 61q43 23 88 77l50 5h22q61 -44 120 -44l6 -5l5 5v44q0 124 50 203v6h-6q0 -9 -60 -44q0 -10 -121 -49q0 -22 -280 -22l-22 -6q-209 38 -209 82q-54 0 -99 149zM69 985l11 -44h-6q0 -36 39 -49q0 -51 93 -66l88 -33h88l17 16v55l22 61v38h11l5 -27 l-5 -33v-6l11 -16l-22 -33v-17l11 -22h38q159 48 159 72v60l11 17v22l-33 38v17q16 34 83 82l27 71v55l-16 17h-6v-28h-11q0 39 -16 39h-17v-28l-11 -16v-39h-11v61l11 16v6h-44v-50l-16 -66l-5 -5v-33h-11v66l11 16v83h-6l-55 -17l-5 -5h-11l-28 22q-15 0 -22 -61l-5 -5 v-50l-11 -16l5 -16h-5l-28 5l-16 -5v10q22 0 33 33v17l-11 16v39h11v11h-11v-11h-39q-22 -22 -154 -88q-78 -74 -93 -115zM415 1095h6l11 -11v-22h-11zM448 381l6 16h11v-11l-11 -11zM564 1458v16h11v-16h-11zM618 276h11v33h-11v-33zM651 881l77 66l11 22l-16 16h-22 l-39 -11l-5 6l-6 -28v-71zM662 35h6q34 39 187 132q1 23 77 55v11h5l17 -6l16 33q-11 13 -11 38l-5 -5h-6q-100 69 -192 99h-6q0 -17 -16 -17v-126l-44 -143l-28 -55v-16zM970 276l11 -32h17q3 27 49 27v33l6 27l-6 6h-5l-72 -55v-6z" />
<glyph unicode="r" horiz-adv-x="1350" d="M-52 913l6 36v37q57 87 150 129q100 95 176 109l26 21l21 -5q0 14 114 36q28 31 212 31h94q70 0 207 -93q25 -31 78 -63q77 -70 77 -176v-5l-10 -78l5 -36q-97 -193 -150 -218q-16 -25 -21 -78l-5 -5v-20l10 -11h26l16 11h72l21 15h156v5l-5 37h5l10 -11v-31q18 0 31 -15 v15h-10v5l10 11q-15 29 -15 57h10q5 -31 16 -31h5v51h10l26 -26q31 6 31 16l-5 16h-5l-5 -6h-6l-15 21v5l10 31h5q11 0 11 -15h5q0 21 10 21v-16h11q0 23 15 52h11v-16l-31 -72v-5h5q0 17 26 26v-6l-21 -26l5 -26h10v37h16l10 -47l-10 -10v-11q47 35 47 52h10v-15 q0 -11 -21 -11q0 -29 -67 -57l-5 -15l20 -11q0 31 16 31h5l-10 -15h10q0 15 16 15q14 42 26 42v-5l-6 -31l6 -6h10l5 6h5q38 -47 57 -47l16 -21l-5 -5h-5l-94 52v5l-20 -5v-5q0 -11 31 -16l-6 -36h-5v10h-5v-10l5 -16q-10 0 -10 16h-5v-5l5 -6v-5l-5 -15h10q0 15 10 15l6 -5 l-6 -5v-10h6q0 20 20 31l6 -6v-31q-32 -31 -42 -67l-10 -10h-5q3 -24 67 -83v-6h5l16 11h5l-10 -21q-19 0 -42 21l-5 -5q-7 17 -42 31v-11l21 -51l5 5h5l11 -16v-10h-5q-31 19 -31 46h-6l-20 -31v-5l15 11h11v-32h-6l-20 16l-6 -5h-5l-5 5v-21h-10l-5 21h-11v-10 q-10 0 -10 20h-5q-9 0 -37 -72q-17 -2 -129 -192q-38 -83 -83 -140h-11q-36 33 -36 73q31 30 88 197q44 57 73 197v15q-47 47 -109 47h-114l-36 -5l-6 5l-10 -16l10 -15l-10 -31h-10v26l5 5l-5 20q-105 -25 -260 -98q0 -10 -15 -10v-6q13 -42 114 -166q0 -14 62 -62l10 -36 v-41q-10 -47 -25 -47h-11q-78 0 -78 42q-57 81 -155 186q-59 83 -130 83h-15q-49 0 -73 -21l-5 5h-5q0 -10 -63 -41l-15 -78h-10v62l-6 -5h-10v16h-5q-11 0 -11 -16h-10v26q-15 19 -15 36v26q0 50 145 78l15 16h5l6 -6h5l10 16q0 33 -67 83q-41 64 -114 145q-31 75 -31 104 q-64 97 -68 145h-10v-78q-16 5 -16 31v73l-10 10l5 26v5h-10q0 -24 -26 -77v-26l10 -16v-5h-5q-16 5 -16 31v36l6 5q-11 14 -11 52q-25 0 -62 47zM78 649v15l10 -10v-5h-10zM207 892l42 -114h10v5q0 26 -10 26l5 37v160l-5 21l10 31l-15 11l-37 -63v-114zM264 763l5 -16h6 v26h-6v-10h-5zM269 1079l6 -197l10 -31v-119l-10 -16q10 -12 20 -88q69 -93 73 -130q11 0 67 -67q10 0 26 -42h21q19 19 67 37q26 31 109 88q163 109 213 202q78 117 78 161q0 145 -31 145q-21 35 -21 57q-47 36 -47 47l-5 -6h-16l-5 6l-41 25h-11l-20 -5l-47 11l-5 -6h-5 l-47 11q-134 0 -379 -83zM835 514l5 -5h36q0 15 10 15h26v5l-10 63h-5q0 -23 -62 -73v-5zM918 566h10v20h-10v-20zM1265 643v6l10 10l6 -5v-11h-16zM1301 706v5l11 10h5l10 -10l-15 -16zM1312 742v10l10 11l5 -6v-10l-10 -10zM1332 255h6l10 10h-16v-10zM1332 597h6l5 15v5 h-5l-6 -15v-5zM1343 571h10l11 21v20q-11 0 -21 -41zM1353 296q0 -16 31 -16v-20l21 15v5q-36 0 -36 26h-5zM1374 602q5 -17 21 -21v26h-21v-5zM1395 286h15v20h-10zM1405 503l5 -5h5q12 0 16 26zM1446 675v10l11 10l5 -5l-5 -15h-11zM1457 379v5l5 5h5l5 -5v-5l-5 -5h-5z M1462 327v16l21 26h5v-26l-21 -21z" />
<glyph unicode="s" horiz-adv-x="985" d="M-57 1060q0 175 48 235q82 140 245 186q63 12 85 32l-5 32l10 133h11l11 -21l-11 -16v-38l-11 -42q0 -80 53 -80q235 -51 277 -117l128 -101l5 -70q-24 -69 -53 -69q-101 17 -101 101q-27 51 -229 112l-48 -5l-5 5l-5 -21h-16v16h-11v-11l16 -21v-5l-11 -16l6 -48 l-11 -11l5 -5v-38l-10 -16v-16q12 -11 16 -58l-6 -64l6 -5l-6 -6h-5l11 -32v-74l-6 -5v-6q28 -50 85 -80l139 -48q85 0 207 -58q102 -27 155 -69l101 -70q76 -42 128 -170l5 -43v-42q0 -103 -112 -128q-54 -20 -106 -64q-91 -37 -208 -37q0 -14 -282 -38q0 -10 -27 -10 l-32 5l-53 -32q-16 -12 -16 -53l-5 -5l-5 -16l5 -5v-6q-5 -16 -32 -16q-17 61 -64 80l-16 6v5l6 5v5q-12 0 -75 85l-43 54l-5 -6h-5q-36 7 -64 43v21q25 80 37 80q25 0 53 59v5l-5 5v6q27 0 27 37l95 69l6 -5l74 21v-5l16 5v5l-5 27l11 11v32l-22 64l6 5h5l5 -5v5 q-17 43 -133 64q-114 68 -133 122q-15 0 -37 38l5 5v5q-69 125 -69 197zM193 970q0 -40 75 -75h10l6 6h5v-16h5l22 31l-22 54l6 42l-11 48l16 38v21q-16 19 -16 37l5 69l-5 43l16 16l-21 32l-16 5q-75 -58 -75 -96v-255zM310 320q11 -90 69 -90q52 -6 86 -27h5l21 5l16 -5 q63 37 171 37q12 16 111 48q101 31 101 75l-5 26l5 27q-13 50 -138 101l-16 -5q-8 19 -186 90q-84 48 -213 48l-5 -5v-5q0 -25 16 -48v-64q-13 -12 -22 -91l-10 -10v-16l16 -22q-16 -21 -22 -69z" />
<glyph unicode="t" horiz-adv-x="715" d="M-242 901v32q0 54 120 79v-5l5 5h230q7 12 78 50q0 21 60 42l78 87l33 -23l4 5h5l37 -23l4 4q35 0 102 -60q0 -20 32 -36h51q152 56 152 87q73 79 97 79q20 0 27 18l32 -5h65q8 0 23 -36v-47l-9 -13v-14l9 -14v-55q-20 -37 -92 -74h-42l-13 -9l-37 23l-46 -10 q0 10 -46 19h-5q-9 -12 -69 -32l-88 -46q0 -33 -50 -42l-28 -18v-5q44 -74 55 -138v-23q19 0 19 -33l4 -36l9 -10v-4l-23 -33v-4q33 -38 33 -111v-189q19 -27 32 -69v-51l-5 -4l5 -5l-28 -87v-60l19 -23v-74q-30 -29 -46 -83q-37 -17 -37 -64q-13 -33 -23 -33q-38 0 -51 51 q-29 19 -69 120q-29 32 -42 32q-46 18 -50 33q25 45 55 45h14l23 -4l18 18q-18 13 -18 65l-23 23v13q9 7 14 74q9 0 9 28l-9 28v27l9 14l-23 51l4 4v5l-4 18l4 5v5l-18 32v28q-18 0 -18 27l4 5v4l-14 14l19 23l-9 42q13 3 23 32l-5 28l5 4q-23 0 -56 56l-23 41v14l10 18 l-5 56l-23 9l-5 -5h-4l-33 14h-23l-13 -9h-14q-17 14 -33 14h-50l-170 -33q-6 -18 -42 -18h-60l-23 42v18l10 14v9z" />
<glyph unicode="u" horiz-adv-x="930" d="M-52 869v47l5 18l-5 19v5q34 256 99 367q2 14 61 43v4q44 0 108 -51l24 -38v-19q-47 -88 -85 -217l5 -28l-5 -4h-5l5 -24l-5 -71q15 -17 15 -33v-18l-5 -5l5 -5v-85q45 -134 84 -179q32 -50 43 -108l4 -28l15 -14v-14h-5l-5 4h-5q0 -39 -18 -56v-5l61 -66q9 -50 80 -132 q14 0 14 -18q61 -71 94 -71q143 0 188 75q52 80 52 160q43 59 43 142l4 14q0 48 -47 188l-4 47v14l4 57l-4 56v5l-19 28l4 5v5q-14 69 -51 146q0 28 -47 155h4l-14 38l5 4l-5 5h-5l-4 -5v-28h-10q0 24 -9 24q-19 -7 -19 -14v-48h-9v5l-5 85h-9v5l9 14v9h-5v-14q-9 0 -9 28 l-5 -4h-5l-4 14l4 4h5l10 -9h4v5l-14 23v19q10 0 10 -14l4 -5h5l9 14q-20 0 -28 19l5 5h9v-9h5l9 9l-4 5v4l18 5l-4 5v4l4 5v5h-9v14h5q9 0 9 -14h10l4 19h-9v9l19 5l4 -5l5 5l5 -14q9 0 9 19l24 -5l9 9l14 -9l5 14q33 -6 33 -14h-9v-5h4l19 5l10 -19l4 5h5l14 -33h-14v4 l5 5v5h-5l-9 -10l18 -18l10 9h5v-38l-10 -14v-14l10 -9l-5 -24q0 -21 14 -42l-5 -52q13 -15 24 -56q9 0 19 -66l18 -38v-42q15 -13 19 -71q21 0 29 -90l-5 -18v-33l14 -47l5 -5l-5 -5v-5q11 0 14 -70l5 -5l-5 -38l33 -70v-43l-9 -14v-42l-19 -61l4 -66l-14 -24v-52l-56 -108 q-12 0 -43 -80q-27 -31 -80 -65q-5 -22 -89 -57l-57 -38h-23q-34 21 -127 48l-90 61l-33 32h-4v-37h-5q-11 0 -14 56l-38 24q0 -22 -9 -33v-5l4 -19l-4 -18v-14l4 -5v-5l-4 -4h-5l-9 9l9 89q-23 22 -23 75q-19 5 -19 19h-10l-4 -28h-5l-14 14l9 14q-17 0 -28 94 q-21 64 -80 127q-57 148 -57 208q-12 0 -18 61q-38 39 -38 146q-19 55 -19 85zM188 520q19 -14 33 -61q8 0 19 -38q21 -37 28 -37l14 14v14q0 23 -9 23l5 24v9q-29 0 -29 62q-8 0 -9 23l-24 5q-19 -7 -28 -24v-14zM320 -35h5l9 -9v-38l-9 -10h-5v57zM593 1325l9 -9h5v5 l-5 14h-9v-10zM607 1264l14 -9h10v4q0 7 -19 14l-5 -4v-5zM607 1382h24l-10 9h-4zM715 1410l24 -9v4l-14 14zM758 1349h5l14 5v9h-10l-9 -9v-5zM767 1297l10 9v5h-10v-14z" />
<glyph unicode="v" horiz-adv-x="980" d="M-87 1285l6 23l-6 5q35 34 74 40q81 -49 90 -68l-6 -17q23 -8 23 -17v-79l-6 -28l23 -23v-6l-6 -5v-6q63 -39 63 -85q11 0 11 -34q33 0 96 -107q25 0 57 -96q147 -184 215 -345q95 -108 107 -176q51 -53 91 -147q11 0 11 -34q17 0 17 -39q14 0 23 -45h5q8 0 29 73v85 l-17 85v17l17 84v114l-12 17v67l-11 23l6 6v5q-41 209 -57 244v39q-34 133 -34 289v102q20 26 79 67h51q72 -50 96 -101v-80l-11 -45q11 -25 11 -73v-85q0 -19 17 -40v-170l63 -135l11 -29v-435l-17 -68l6 -23q-16 -29 -63 -299l6 -28l-62 -85l-23 -12h-34q-62 39 -62 68 q0 24 -51 80q-51 197 -102 271q-66 113 -181 265q0 23 -28 23l-40 51q0 20 -79 85l-119 192q-27 129 -79 204q-30 81 -57 102q0 34 -67 130q-35 149 -51 158q-2 31 -23 51z" />
<glyph unicode="w" horiz-adv-x="1015" d="M-37 737q0 112 46 138q47 33 74 33h28q69 -6 69 -60v-42l-9 -97q28 -170 74 -273v-28h14l9 9l-4 19h4l-4 4v5q0 18 37 93v32q0 15 51 79l51 83q0 14 27 28h5l5 -5l23 14h4q74 -23 74 -79q-7 -58 -18 -69v-79q0 -39 -9 -60q9 -45 9 -125l-5 -4v-5q21 -9 23 -19l-4 -4l4 -5 l-4 -23q0 -9 14 -9l4 -5v-60h19v23q0 8 37 23l-5 23v14l19 23v135q18 30 18 115v28q19 30 19 51l-5 14l9 9v23q0 61 37 134q0 17 61 125l18 42l-5 5v9q14 10 28 83q49 60 111 93q1 7 42 32h28q55 -10 55 -56l23 5l5 -5v-9q-27 0 -56 -78l-13 -5l4 -5v-9q-41 -44 -41 -79 q-12 0 -19 -50q-13 -18 -46 -135q-20 0 -60 -175q14 0 14 -10l-24 -23l5 -14l-19 -9v-32q-20 -27 -37 -107l5 -18q-18 -5 -18 -28v-88q-18 -15 -37 -111l4 -14q-20 0 -28 -111l-9 -9v-83q-9 -15 -32 -153v-120q-44 -56 -74 -56h-10q-83 26 -83 84l-28 37l5 4 q-42 120 -42 176l-27 106q-22 226 -42 250h-5q-6 0 -18 -69l-9 -33l4 -28v-32l-23 -79q-14 0 -14 -18l-41 -28q-92 0 -130 79v190q0 43 -28 134q0 46 -69 152q-25 15 -46 98q-19 38 -19 74z" />
<glyph unicode="x" horiz-adv-x="1230" d="M-23 139q12 51 80 55q25 40 87 62q9 14 264 159l140 104l55 31q9 17 43 39l2 10l-53 89l-57 110q1 6 1 13q0 48 -66 128q5 25 -53 89l-4 6q-7 1 -10 41q-11 2 -26 35q-9 2 -12 -12q-7 -29 12 -51l-11 -7q-11 2 -12 51l-6 -4l-9 2q3 13 -11 41l-14 -1l1 5l8 17l5 18l-14 4 l17 34l-1 15q43 44 60 44h3q26 14 61 11l8 17l10 -2q-5 -20 16 -33q88 -66 117 -171q34 -136 72 -177q19 -29 25 -83q7 -36 103 -188h1q8 0 55 55q109 72 145 84q3 16 130 63q81 44 102 84l37 15l19 -4l3 -6l5 -1q2 10 16 7l5 3l1 5q43 -10 76 -75v-20l-2 -9 q-16 -69 -174 -126q-120 -85 -165 -89q-154 -87 -189 -146l80 -183l110 -287q33 -32 37 -95l78 -168v-24q-13 -55 -68 -62l-4 1q-97 22 -167 183l5 4q3 12 -63 212q4 19 -69 147q-41 31 -52 113l-4 6l-24 20l-1 -5l-6 -3l-17 8q-59 -1 -87 -19q-105 -8 -139 -56l-91 -81 q-7 -31 -165 -108q-57 -59 -122 -70l-11 -7l-28 6q-64 15 -88 127z" />
<glyph unicode="y" horiz-adv-x="1084" d="M-83 -188q0 27 89 122q133 300 133 383q29 38 78 38l22 -5q0 22 11 22q0 58 -78 72q-61 49 -100 122h-11v6l6 5l-6 17l6 17l-22 39v5l5 6l-55 183v16l5 6v6h-10q10 121 27 155l-6 5v6q26 84 122 244q11 0 17 45q19 36 72 83v39h6l16 -11q56 23 56 44h11q0 -18 -22 -44v-6 l16 -28l-11 -33l6 -22l-11 -11v-6q27 -44 27 -127q-29 -178 -61 -178l-5 -56l5 -55v-28l12 -16v-62l-12 -16l6 -6l-6 -27v-45l28 -100q15 -22 28 -22q128 26 128 56l22 33q14 0 27 33q28 14 28 56q40 19 95 161v77q0 79 16 150v33q55 84 78 84l61 11q44 -42 44 -122v-106 l-39 -183v-72q0 -86 50 -222q62 -114 161 -167q218 -116 278 -116l5 -6q39 -18 39 -27v-23q-34 -61 -117 -77q-97 -26 -255 -117q-22 0 -155 -72q-31 0 -200 -105l-327 -150q0 -11 -33 -11v-50l-12 -17l6 -22l-6 -5v-6l6 -17h-17v28l6 67l-6 5h-5l-11 -11h-11l-28 22h-72 l-33 -33l11 -61h-6q-11 0 -17 45q-11 0 -55 72q-38 0 -50 22v61zM117 866l27 -89q9 0 67 -100q17 0 17 -27h11l11 11v33l-11 17v44l11 33l-11 11v28l11 17v5l-11 17v172q-39 83 -61 83l-34 -61l6 -16q-7 -1 -33 -78v-100zM167 -88l27 -28h28q69 44 155 61q159 62 278 138 q66 39 150 61l155 84l17 22l-183 139q-115 111 -145 172l-50 66q-41 -74 -188 -183h-95q-51 -22 -61 -50l12 -16v-12l-12 -16q17 -2 50 -122q-18 -67 -38 -67l-6 -28l6 -22l-12 -16l12 -12v-5l-23 -33v-6l11 -17v-38l6 -28h-17q-5 55 -16 66v28q16 20 16 39l-5 6h-17 q-17 0 -17 -56q-38 -38 -38 -127z" />
<glyph unicode="z" horiz-adv-x="1455" d="M-22 870v35q0 41 93 104h12l5 -6h6l6 6v87l12 41h11l-5 -70l5 -23l-5 -23v-29l11 -12q12 18 12 47h11v-6l6 -64q115 130 169 139q17 14 93 29q55 43 180 88l6 34h11v-17l88 35q31 0 192 116l81 35h17l88 -6l52 6q11 -18 93 -58q17 -29 46 -29l59 -82v-5q-32 -42 -105 -82 q-8 -19 -105 -69q-20 -39 -46 -59l-6 6h-6q-17 -24 -64 -40q0 -14 -29 -30l-93 -93q-66 -145 -99 -145q-15 -43 -87 -75q-16 -53 -41 -53q0 -17 -23 -17l-52 -58q-204 -187 -204 -209l58 -35h35l58 5l6 -5v-6l47 11l17 -5q0 8 64 23l12 12h11q155 -59 192 -59l24 18h29 q11 0 11 -18h82q94 0 191 -34q82 -12 146 -41q17 15 17 35q29 15 29 35h12v-12q23 10 41 46h11v105h12v-99q29 35 87 35l23 -35v-133l12 -18v-128l-12 -46v-52l-23 -23q-53 0 -128 69l-11 -34v-41h-12v64l-6 -6h-11q0 47 -41 47h-47q-99 63 -180 63l-35 12h-29l-215 17h-76 l-63 12h-41q-29 -12 -29 -24h-18q-55 -23 -162 -40l-30 6l-17 -6l-81 6q-64 -16 -64 -30l-29 6h-6l-47 -11h-40l-18 11l-11 -11v-41l5 -23l-5 -6l5 -29v-23l-11 -12l-6 6l6 29v6l-12 18v133q-29 47 -29 99v29l12 17l-12 64v47l-12 17v52l12 18v64l-12 17v116h12v53h-12v-53 l-11 12v93zM65 701l6 -6h6v12h6l-6 17h-6zM77 358h11v23h-11v-23zM88 248h12q6 44 81 116q76 58 187 180q11 0 58 53q23 0 23 29l87 87q93 48 93 93q58 122 122 122q20 33 93 99q0 40 70 64v5l-35 6q0 -11 -17 -11l-82 5q-49 -2 -69 -23l-6 6h-6l-6 -6v-6l12 -17l-6 -6v-6 l6 -35v-17h-18l6 29l-12 12v34h-11q-70 -35 -70 -98h-6l-6 5h-5l-12 -11h-6l6 29q0 12 -17 12q-157 -112 -198 -117q-14 -22 -99 -75q-7 -25 -64 -70l-35 -81v-18l6 -29l-23 -29v-116l-12 -12l-11 12v87l5 6l-5 6v17l5 6l-11 29h-12l-12 -35v-105l12 -46v-157l-12 -17v-6z M88 719l12 -64h6l6 58l-6 6h-18zM141 666l11 12v29h-11v-41z" />
<glyph unicode="{" horiz-adv-x="684" />
<glyph unicode="|" horiz-adv-x="532" />
<glyph unicode="}" horiz-adv-x="684" />
<glyph unicode="~" horiz-adv-x="1196" />
<glyph unicode="&#xa1;" horiz-adv-x="682" />
<glyph unicode="&#xa2;" />
<glyph unicode="&#xa3;" />
<glyph unicode="&#xa4;" />
<glyph unicode="&#xa5;" />
<glyph unicode="&#xa6;" horiz-adv-x="532" />
<glyph unicode="&#xa7;" />
<glyph unicode="&#xa8;" horiz-adv-x="682" />
<glyph unicode="&#xa9;" horiz-adv-x="1509" />
<glyph unicode="&#xaa;" horiz-adv-x="758" />
<glyph unicode="&#xab;" />
<glyph unicode="&#xac;" horiz-adv-x="1196" />
<glyph unicode="&#xad;" horiz-adv-x="682" />
<glyph unicode="&#xae;" horiz-adv-x="1509" />
<glyph unicode="&#xaf;" horiz-adv-x="1131" />
<glyph unicode="&#xb0;" horiz-adv-x="819" />
<glyph unicode="&#xb1;" horiz-adv-x="1124" />
<glyph unicode="&#xb2;" horiz-adv-x="682" />
<glyph unicode="&#xb3;" horiz-adv-x="682" />
<glyph unicode="&#xb4;" horiz-adv-x="682" />
<glyph unicode="&#xb5;" horiz-adv-x="1180" />
<glyph unicode="&#xb6;" horiz-adv-x="1100" />
<glyph unicode="&#xb7;" horiz-adv-x="569" />
<glyph unicode="&#xb8;" horiz-adv-x="682" />
<glyph unicode="&#xb9;" horiz-adv-x="682" />
<glyph unicode="&#xba;" horiz-adv-x="748" />
<glyph unicode="&#xbb;" />
<glyph unicode="&#xbc;" horiz-adv-x="1708" />
<glyph unicode="&#xbd;" horiz-adv-x="1708" />
<glyph unicode="&#xbe;" horiz-adv-x="1708" />
<glyph unicode="&#xbf;" horiz-adv-x="1251" />
<glyph unicode="&#xc0;" horiz-adv-x="1366" />
<glyph unicode="&#xc1;" horiz-adv-x="1366" />
<glyph unicode="&#xc2;" horiz-adv-x="1366" />
<glyph unicode="&#xc3;" horiz-adv-x="1366" />
<glyph unicode="&#xc4;" horiz-adv-x="1366" />
<glyph unicode="&#xc5;" horiz-adv-x="1366" />
<glyph unicode="&#xc6;" horiz-adv-x="2048" />
<glyph unicode="&#xc7;" horiz-adv-x="1479" />
<glyph unicode="&#xc8;" horiz-adv-x="1366" />
<glyph unicode="&#xc9;" horiz-adv-x="1366" />
<glyph unicode="&#xca;" horiz-adv-x="1366" />
<glyph unicode="&#xcb;" horiz-adv-x="1366" />
<glyph unicode="&#xcc;" horiz-adv-x="569" />
<glyph unicode="&#xcd;" horiz-adv-x="569" />
<glyph unicode="&#xce;" horiz-adv-x="569" />
<glyph unicode="&#xcf;" horiz-adv-x="569" />
<glyph unicode="&#xd0;" horiz-adv-x="1479" />
<glyph unicode="&#xd1;" horiz-adv-x="1479" />
<glyph unicode="&#xd2;" horiz-adv-x="1593" />
<glyph unicode="&#xd3;" horiz-adv-x="1593" />
<glyph unicode="&#xd4;" horiz-adv-x="1593" />
<glyph unicode="&#xd5;" horiz-adv-x="1593" />
<glyph unicode="&#xd6;" horiz-adv-x="1593" />
<glyph unicode="&#xd7;" horiz-adv-x="1196" />
<glyph unicode="&#xd8;" horiz-adv-x="1593" />
<glyph unicode="&#xd9;" horiz-adv-x="1479" />
<glyph unicode="&#xda;" horiz-adv-x="1479" />
<glyph unicode="&#xdb;" horiz-adv-x="1479" />
<glyph unicode="&#xdc;" horiz-adv-x="1479" />
<glyph unicode="&#xdd;" horiz-adv-x="1366" />
<glyph unicode="&#xde;" horiz-adv-x="1366" />
<glyph unicode="&#xdf;" horiz-adv-x="1251" />
<glyph unicode="&#xe0;" />
<glyph unicode="&#xe1;" />
<glyph unicode="&#xe2;" />
<glyph unicode="&#xe3;" />
<glyph unicode="&#xe4;" />
<glyph unicode="&#xe5;" />
<glyph unicode="&#xe6;" horiz-adv-x="1821" />
<glyph unicode="&#xe7;" horiz-adv-x="1024" />
<glyph unicode="&#xe8;" />
<glyph unicode="&#xe9;" />
<glyph unicode="&#xea;" />
<glyph unicode="&#xeb;" />
<glyph unicode="&#xec;" horiz-adv-x="569" />
<glyph unicode="&#xed;" horiz-adv-x="569" />
<glyph unicode="&#xee;" horiz-adv-x="569" />
<glyph unicode="&#xef;" horiz-adv-x="569" />
<glyph unicode="&#xf0;" />
<glyph unicode="&#xf1;" />
<glyph unicode="&#xf2;" />
<glyph unicode="&#xf3;" />
<glyph unicode="&#xf4;" />
<glyph unicode="&#xf5;" />
<glyph unicode="&#xf6;" />
<glyph unicode="&#xf7;" horiz-adv-x="1124" />
<glyph unicode="&#xf8;" horiz-adv-x="1251" />
<glyph unicode="&#xf9;" />
<glyph unicode="&#xfa;" />
<glyph unicode="&#xfb;" />
<glyph unicode="&#xfc;" />
<glyph unicode="&#xfd;" horiz-adv-x="1024" />
<glyph unicode="&#xfe;" />
<glyph unicode="&#xff;" horiz-adv-x="1024" />
<glyph unicode="&#x152;" horiz-adv-x="2048" />
<glyph unicode="&#x153;" horiz-adv-x="1933" />
<glyph unicode="&#x178;" horiz-adv-x="1366" />
<glyph unicode="&#x2c6;" horiz-adv-x="682" />
<glyph unicode="&#x2dc;" horiz-adv-x="682" />
<glyph unicode="&#x2000;" horiz-adv-x="911" />
<glyph unicode="&#x2001;" horiz-adv-x="1822" />
<glyph unicode="&#x2002;" horiz-adv-x="911" />
<glyph unicode="&#x2003;" horiz-adv-x="1822" />
<glyph unicode="&#x2004;" horiz-adv-x="607" />
<glyph unicode="&#x2005;" horiz-adv-x="455" />
<glyph unicode="&#x2006;" horiz-adv-x="303" />
<glyph unicode="&#x2007;" horiz-adv-x="303" />
<glyph unicode="&#x2008;" horiz-adv-x="227" />
<glyph unicode="&#x2009;" horiz-adv-x="364" />
<glyph unicode="&#x200a;" horiz-adv-x="101" />
<glyph unicode="&#x2010;" horiz-adv-x="682" />
<glyph unicode="&#x2011;" horiz-adv-x="682" />
<glyph unicode="&#x2012;" horiz-adv-x="682" />
<glyph unicode="&#x2013;" />
<glyph unicode="&#x2014;" horiz-adv-x="2048" />
<glyph unicode="&#x2018;" horiz-adv-x="455" />
<glyph unicode="&#x2019;" horiz-adv-x="455" />
<glyph unicode="&#x201a;" horiz-adv-x="455" />
<glyph unicode="&#x201c;" horiz-adv-x="682" />
<glyph unicode="&#x201d;" horiz-adv-x="682" />
<glyph unicode="&#x201e;" horiz-adv-x="682" />
<glyph unicode="&#x2022;" horiz-adv-x="717" />
<glyph unicode="&#x2026;" horiz-adv-x="2048" />
<glyph unicode="&#x202f;" horiz-adv-x="364" />
<glyph unicode="&#x2039;" horiz-adv-x="682" />
<glyph unicode="&#x203a;" horiz-adv-x="682" />
<glyph unicode="&#x205f;" horiz-adv-x="455" />
<glyph unicode="&#x20ac;" />
<glyph unicode="&#x2122;" horiz-adv-x="2048" />
<glyph unicode="&#x25fc;" horiz-adv-x="1295" d="M0 0v1295h1295v-1295h-1295z" />
</font>
</defs>
</svg>
