<?xml version="1.0" standalone="no"?>
<!DOCTYPE svg PUBLIC "-//W3C//DTD SVG 1.1//EN" "http://www.w3.org/Graphics/SVG/1.1/DTD/svg11.dtd" >
<svg xmlns="http://www.w3.org/2000/svg">
<metadata></metadata>
<defs>
<font id="bigmedium" horiz-adv-x="528" >
<font-face units-per-em="2048" ascent="1638" descent="-410" />
<missing-glyph horiz-adv-x="739" />
<glyph horiz-adv-x="0" />
<glyph horiz-adv-x="682" />
<glyph unicode=" "  horiz-adv-x="739" />
<glyph unicode="&#x09;" horiz-adv-x="739" />
<glyph unicode="&#xa0;" horiz-adv-x="739" />
<glyph unicode="!" horiz-adv-x="749" d="M63 911q-5 26 9.5 97t27.5 88q18 12 54.5 21t62.5 24q50 27 129 39q107 17 171.5 12.5t64.5 -29.5q0 -17 34 -51q31 -32 55 -139t15 -170q-13 -98 -32 -161t-54 -132q-25 -49 -31.5 -61.5t-10.5 -47.5t0 -60.5t17 -102.5q9 -62 -8 -107q-10 -27 -25 -35t-65 -14 q-111 -12 -155 24q-14 9 -10 67t24 120q11 46 2 61q-8 14 -12 144q-1 107 -21 159.5t-80 112.5q-64 64 -84.5 79t-42.5 15q-14 0 -21 3.5t-8.5 6t-3 16.5t-2.5 21zM102 965q-4 -31 3 -42.5t38 -23.5q76 -32 141.5 -119t84.5 -180q7 -36 22 -42q7 -2 9 10q1 4 1 10 q0 57 -20 153t-37 121q-25 36 -25 49q0 10 -38 44.5t-76 60.5q-19 11 -41 17.5t-37 6t-16 -9.5q0 -2 -4 -22t-5 -33zM183 1081q-1 -4 7 -8q2 -2 8 -4q2 -1 3 -2q23 -13 84.5 -73.5t97.5 -104.5q29 -34 44.5 -125t12.5 -191q-2 -34 -2 -53t2 -29.5t6 -13.5t11 -2t25 2.5t24 3 t18 5.5t19 11.5t14 18.5q30 54 62 164t32 164q0 64 -28.5 140.5t-65.5 115.5q-37 40 -97 44.5t-169 -26.5h-1l-1 -1h-1h-1l-1 -1h-1h-1h-1l-1 -1h-1h-1q-95 -28 -97 -34zM351.5 162q4.5 -14 27.5 -22.5t57 -8.5q60 0 82.5 8.5t22.5 32.5q0 17 -10.5 20t-45.5 -2 q-50 -7 -82 9q-27 13 -43 -6q-13 -17 -8.5 -31zM395 272q15 -21 59 -27t66 11q24 19 19.5 30.5t-33.5 4.5q-35 -8 -35 12q3 16 -18 19q-31 4 -54 -14q-19 -16 -4 -36zM420 383q4 -3 41 -4q51 0 51 20t-25 20t-53 -20q-19 -14 -14 -16z" />
<glyph unicode="&#x22;" horiz-adv-x="563" d="M61 975q1 2 14.5 28.5t19 36.5t17 30t21.5 31.5t19 18.5q31 21 62 19.5t42 -23.5q17 -32 20 -159.5t-12 -170.5q-37 -107 -91 -56q-40 38 -81 159zM119 918q0 -24 17 -66.5t26 -42.5q10 0 0 39q-9 36 -27 67q-15 18 -16 3zM154 992q10 -60 30 -74q7 -5 13 2q8 11 18 79.5 t6 81.5q-14 33 -53 -6q-27 -11 -14 -83zM306 1022q9 95 26 123q23 35 58.5 35.5t66.5 -33.5q19 -21 29 -49t14 -82q4 -65 -1 -93t-30 -81q-37 -76 -59 -76t-58.5 41.5t-44.5 73.5q-10 46 -1 141zM356 1055q0 -40 15 -74q9 -23 16.5 -29t16.5 2t24 33q23 38 23 71t-23 50 t-32.5 17t-24.5 -15t-15 -55z" />
<glyph unicode="$" horiz-adv-x="839" d="M61 258q0 33 4.5 56.5t10.5 23.5t10 4.5t4 9.5q0 17 31 57t45 40q12 5 61.5 -52.5t53.5 -58.5q8 0 4 76q-4 54 -12.5 68.5t-45.5 31.5q-118 57 -112 193q1 30 -3 60.5t-10 41.5q-34 63 20.5 163.5t145.5 143.5q39 17 55 31.5t21 36.5q3 15 11.5 27t15.5 12q15 0 26 20.5 t11 50.5q0 22 15.5 26t37.5 -11q6 -4 12 -15t12 -27.5t10.5 -31t10.5 -33.5t8 -26q58 -3 113.5 -15t81.5 -31q34 -26 46.5 -78.5t-1.5 -107.5q-17 -66 -17 -123q0 -46 -4 -56.5t-24 -10.5q-19 0 -83 57.5t-87 52.5q-23 0 -29 -9t-6 -44t8 -47.5t39 -22.5q46 -17 100.5 -70 t85.5 -110q67 -125 27 -319q-18 -88 -54.5 -129.5t-111.5 -67.5q-16 -5 -36 -8.5t-29.5 -6t-17.5 -10.5t-11 -24q0 -17 -37.5 -66t-50.5 -49q-53 0 -72.5 33.5t-30.5 130.5q-3 16 -47 16q-36 0 -84.5 24t-87.5 62q-20 17 -26.5 39t-6.5 72zM118 218q4 -28 32 -42 q119 -63 159 -65q37 -3 49 -41q13 -35 26 -36q12 0 3 32q-8 32 -8 38q0 11 -64.5 46.5t-85.5 35.5q-16 0 -49 28t-45 28q-20 0 -17 -24zM145 336q0 -24 15 -38t73 -44q88 -48 99 -37q6 6 -10 25t-39.5 36.5t-36.5 18.5q-19 0 -19 10q-2 14 -34 49t-39 29q-9 -9 -9 -49z M150 940q-8 -45 9 -96.5t46 -71.5q5 -3 51 -37.5t88.5 -62t58.5 -29.5q9 1 12.5 -3t2.5 -11t-3.5 -14.5t-5 -14.5t-1.5 -10q-2 -6 -22.5 -32t-35 -53t-10.5 -42q0 -28 2 -28.5t12 24.5q6 12 16 21t17 9q16 0 34 -41t22.5 -79.5t-7.5 -51.5q-14 -8 -41.5 9t-27.5 34 q0 6 -4.5 15t-10.5 12q-17 9 -16 -13q2 -39 37 -85q25 -33 28.5 -88t26.5 -90q1 6 2.5 17.5t2.5 15t2.5 12t3.5 11t5 8.5t7 8.5t9.5 6.5t13 7t17 6.5t21.5 7.5q60 20 123.5 68.5t85.5 91.5q19 36 12 81.5t-39 86.5q-43 59 -93.5 103t-80.5 48q-30 3 -46 33.5t-18.5 65.5 t-5.5 87t-8 78q-9 54 -5.5 73t18.5 34q38 37 94.5 18t107.5 -86q18 -24 36.5 -42.5t23.5 -18.5q8 5 7 33.5t-10 66.5t-20 49q-7 7 -26 12.5t-48 9t-54.5 5.5t-57.5 4.5t-45 3.5q0 104 -12 113q-11 8 -20 -14q-8 -21 -1 -39q11 -31 -11.5 -54.5t-62.5 -23.5 q-54 0 -125.5 -54.5t-80.5 -103.5zM168.5 650q8.5 -22 52.5 -60q55 -45 75.5 -48t37.5 31q11 25 8 33.5t-29 20.5q-14 6 -72 49t-71 47q-10 -51 -1.5 -73zM242 920q0 34 31.5 90t54.5 65q10 1 23.5 4t20 4.5t14.5 0.5t11 -6t6 -16.5t2.5 -30t-2.5 -46.5q-3 -80 11 -166 q7 -42 2.5 -57t-19 -3.5t-39.5 48.5q-32 52 -77 61q-25 4 -32 14t-7 38zM283.5 947q1.5 -29 27.5 -42q23 -12 30 -3t17 69q6 37 -7 43t-44 -19q-25 -19 -23.5 -48zM416 2q-13 -52 3 -49q15 3 33 38q9 18 11 32q0 24 -14 23q-16 -1 -28 -27q-3 -8 -5 -17zM424 553q1 1 6 3 t13 6l14 7q31 17 49.5 13.5t64.5 -37.5q43 -31 50.5 -47t7.5 -74q0 -27 -2 -45.5t-7 -33.5t-9 -23t-16 -17t-20 -14t-27.5 -16t-33.5 -19q-25 -15 -41 -23t-25.5 -10t-14.5 0.5t-7 9.5q-3 9 3.5 26t19.5 30q37 40 39.5 98.5t-31.5 108.5q-34 56 -33 57zM489 965 q0 -45 23 -45q7 2 84 -33.5t82 -34.5q5 5 -25 70q-26 62 -75 86q-54 27 -71.5 18.5t-17.5 -61.5zM499 139.5q-8 -13.5 13 -41.5q19 -24 59 -16q42 7 92 55.5t50 81.5q0 22 -9 30t-25 0t-36 -30q-12 -13 -38 -28t-50 -23q-48 -15 -56 -28.5zM521.5 467q-1.5 -54 1.5 -108 t9 -50q14 0 35 37t21 62q0 19 -23 63t-35 47q-7 3 -8.5 -51z" />
<glyph unicode="%" horiz-adv-x="1316" d="M61 649q-1 34 4.5 71.5t11 59.5t17.5 62.5t15 50.5q12 47 91 122.5t132 88.5q16 4 67 0q19 -2 46.5 -3.5t38.5 -3.5t28.5 -7.5t32.5 -18t35 -33.5q66 -71 74.5 -146.5t-40.5 -166.5q-40 -72 -67 -131q-38 -75 -100.5 -124.5t-118.5 -49.5q-50 0 -124 31t-102 63 q-28 31 -34.5 53t-6.5 82zM102 616q0 -37 28.5 -60.5t107.5 -49.5q61 -21 82.5 -21.5t56.5 17.5q22 10 42.5 15t29 11t24.5 29q23 31 0 29q-19 -1 -33 -13q-12 -12 -67 -15t-90 7q-44 14 -84.5 33.5t-40.5 28.5q0 5 -8.5 11t-18.5 9q-17 5 -23 -1.5t-6 -29.5zM156 707 q53 -81 196 -84q114 -2 177.5 60.5t62.5 176.5q-2 76 -22.5 116t-71.5 62q-94 38 -186 2t-144 -133q-65 -119 -12 -200zM242 821q0 34 23.5 74t53.5 57q46 23 79.5 -0.5t35.5 -77.5q0 -26 -26 -60t-46 -34q-10 0 -10 -14q-2 -10 16 -11q10 0 39 3q46 6 48 -2q5 -7 -10 -17.5 t-39.5 -19t-45.5 -8.5q-32 0 -75 40.5t-43 69.5zM311 827q20 -14 51 12l9 9q32 27 11 46q-18 17 -45 4q-15 -6 -24 -21q-23 -36 -2 -50zM449 303q0 41 41.5 134t58.5 93q10 0 10 21q0 8 14 26t33 35q78 68 78 189q0 41 23 103.5t51 101.5q43 56 112 117.5t99 70.5 q45 14 58 11.5t40 -29.5q35 -35 49 -35q7 0 8.5 -16t-2 -42.5t-10 -57.5t-16.5 -65t-21 -61q-13 -32 -24 -65t-16.5 -46.5t-20.5 -33.5t-45 -47l-56 -54l56 25q92 40 146.5 28t98.5 -81q37 -59 40.5 -144.5t-25.5 -244.5q-19 -112 -19 -115q0 -12 -58 -31.5t-112 -23.5 q-52 -5 -81 -1t-62 21q-18 9 -27 14.5t-20.5 12t-16.5 14.5t-11 15.5t-8 22t-4.5 26t-2.5 36.5v45v58q1 108 7 150t24 73q25 40 16.5 46t-39.5 -28q-24 -28 -55 -41q-18 -8 -24 -19t-5 -38q2 -40 -2 -62.5t-17.5 -57.5t-21.5 -64q-20 -74 -76 -151.5t-94 -86.5 q-49 -10 -61 33.5t-10 218.5zM500 236q7 -20 31 2q11 9 26 26q69 74 101 154.5t22 181.5q-14 0 -62.5 -57t-54.5 -80q-8 -37 -39 -90q-45 -77 -24 -137zM517 127q-3 -25 13 -25q15 7 56 75q42 69 22 64q-13 -3 -51 -40q-35 -35 -40 -74zM717 659q9 -6 39 17q108 71 192 153 q43 40 59 67.5t31 86.5q13 56 14 80t-10 45q-27 55 -102 16q-37 -20 -88 -82t-76 -116q-25 -56 -47 -156.5t-12 -110.5zM770 608q8 -9 73 38t87 77q21 30 8 28q-14 -1 -55 -36q-69 -60 -82 -68q-41 -29 -31 -39zM864 467q0 -28 25 -94q15 -43 29 -57.5t55 -28.5 q126 -42 178 35q128 185 -25 299q-45 33 -82 31.5t-94 -38.5q-28 -17 -57 -67.5t-29 -79.5zM866 231q5 -56 44 -80.5t122 -23.5q59 2 78.5 7.5t40.5 29.5q31 37 31 72q-1 18 -13 18t-26 -18q-29 -34 -111 -28t-119 46q-28 31 -39.5 25.5t-7.5 -48.5zM936.5 447 q-11.5 46 28.5 83q26 24 39 26.5t40 -11.5q25 -13 27 -46.5t-20 -56.5q-15 -15 -18 -22.5t4 -10t26 -1.5q59 5 59 -10q0 -3 -2 -7q-13 -23 -48.5 -28t-67.5 10q-56 28 -67.5 74zM997 492q-10 -16 11 -17q19 -2 22 13q3 13 -12 16q-12 2 -21 -12z" />
<glyph unicode="&#x26;" horiz-adv-x="1335" d="M62 314q3 106 20 112q16 6 16 49q-1 76 76 155t174 109l-37 72q-34 63 -35.5 109.5t29.5 99.5q29 53 29 67q0 17 42.5 51t90.5 58q46 22 145.5 26.5t139.5 -14.5q14 -5 34 -23.5t33 -39.5q27 -40 32 -100t-9 -118t-46.5 -107.5t-74.5 -69.5q-58 -28 -71.5 -49.5 t5.5 -55.5q23 -47 29 -72q9 -37 52 -53t71 8q48 41 4 115q-43 75 -4 147.5t125 81.5q35 5 64 0t67 -26q44 -23 59 -39.5t25 -54.5q10 -42 8.5 -125t-12.5 -121q-6 -20 -25 -4q-17 13 -54.5 6.5t-37.5 -21.5q0 -18 -41 -84q-34 -55 -30.5 -80.5t44.5 -25.5q10 0 21 -5t14 -11 q10 -13 76 49q88 82 122 58.5t38 -169.5l4 -131l-43 -41q-38 -35 -108 -59.5t-134 -24.5q-90 0 -205 98q-21 17 -41 13t-98 -41q-75 -36 -109.5 -43.5t-117.5 -5.5q-79 2 -114.5 9.5t-100.5 39.5q-61 31 -80 48t-25 46q-8 45 -24 61q-15 20 -12 126zM98 264q0 -51 7.5 -71 t37.5 -50q34 -34 72 -61q69 -42 192 -43t219.5 36t96.5 91q0 33 -8 33q-3 0 -90 -35q-76 -32 -140.5 -32.5t-158.5 30.5q-62 21 -92 39.5t-66 60.5q-55 65 -64 74q-4 4 -6 -56v-16zM147 453q0 -43 8 -69.5t33 -61.5q54 -77 147.5 -113t192 -21t166.5 78q21 20 42 27.5t35 0 t15 -27.5q3 -44 59 -76.5t125 -36t132 22.5q40 19 79.5 61.5t39.5 67.5q0 33 -9 33q-23 0 -57.5 -28.5t-52.5 -59.5q-22 -41 -40 -47.5t-46 18.5q-46 39 -88 62q-62 37 -77.5 84t21.5 90q16 19 25 45.5t25 42.5q17 17 28 53q11 44 42 72t71 28q50 0 46.5 25.5t-58.5 62.5 q-115 76 -185 0q-31 -34 -31.5 -49t25.5 -61q31 -55 27 -96t-47 -88q-50 -56 -80 -48q-35 8 -84 65t-74 120q-21 52 -22 67t14 31q23 27 39 27q21 6 162 131v106q1 73 -4.5 93.5t-30.5 48.5q-26 28 -98 31.5t-138 -12t-82 -36.5q-18 -18 -30 -18q-14 0 -45.5 -62t-38.5 -108 q-6 -37 3 -55.5t56 -65.5q28 -28 44.5 -52.5t12.5 -31.5q-12 -16 -104 -47q-68 -23 -113 -59.5t-45 -67.5q0 -6 -5 -13t-11 -8q-19 -8 -19 -75zM293 442q0 22 24 76.5t33 54.5q8 2 13.5 23t17.5 22q60 25 145 -63q22 -25 27 -49t2 -98q-2 -92 1 -102q6 -17 34 3 q8 13 35.5 13t27.5 -13q-14 -26 -60 -48.5t-85 -10.5q-40 5 -71 19.5t-50 19.5q-22 4 -36 20t-29 51q-29 77 -29 82zM348 453q0 -37 26 -80.5t54 -50.5q37 -9 61.5 16t24.5 74q0 42 -3 66t-15.5 39t-22 20t-37.5 16q-22 8 -55 -30t-33 -70zM451 965.5q12 61.5 63 81.5 q51 21 115 -46q43 -45 37 -85t-66 -91q-30 -25 -45.5 -35t-30.5 -8.5t-24.5 14.5t-26.5 44q-34 64 -22 125.5zM504 914q10 -57 39 -59q15 -2 32 15q30 20 33.5 33t-10.5 49q-9 26 -40 35t-48 -8q-15 -15 -6 -65zM776 158l23 -41q25 -43 95 -71.5t132 -20.5 q114 13 159.5 40.5t51.5 84.5q6 55 -26 40q-17 -8 -46 -38q-60 -60 -154.5 -66t-185.5 45zM908 391q11 0 46 55q50 76 41 93q-3 6 -18 -4q-27 -16 -58 -89q-23 -55 -11 -55zM1026 604q0 -36 8.5 -44t44.5 -3q24 3 31.5 11.5t9.5 33.5q2 28 -5.5 34.5t-41.5 6.5 q-32 0 -39.5 -6.5t-7.5 -32.5z" />
<glyph unicode="'" horiz-adv-x="438" d="M62.5 947.5q-3.5 44.5 21.5 129.5q13 49 27 68t47 37q45 24 54 25t50 -17q55 -24 80.5 -64.5t32.5 -119.5q9 -98 -13.5 -162.5t-85.5 -124.5q-64 -64 -73 -64q-21 0 -44.5 35.5t-54.5 114.5q-38 98 -41.5 142.5zM102 995l9 -67q8 -53 42.5 -128t51.5 -75q7 3 7 21 t-9 48.5t-23 53.5q-12 21 -42.5 79.5t-35.5 67.5zM135 1049q8 -42 31 -69t35 -56q20 -42 26 -41q4 0 9 16q9 20 57 80q6 7 15 17t12 14t9 11.5t6.5 10.5t2.5 8.5t-0.5 9.5t-4 9.5t-7.5 11.5t-11.5 12.5t-15.5 16.5q-34 34 -73.5 39.5t-71.5 -19.5q-29 -20 -19 -71z M256 766.5q2 -0.5 16 13.5q26 27 46 63t24 66q7 37 -4 37q-15 0 -41.5 -40t-26.5 -64q0 -35 -10 -58q-6 -17 -4 -17.5z" />
<glyph unicode="(" horiz-adv-x="630" d="M63 553q-8 36 3.5 118.5t33.5 141.5q22 60 81.5 114.5t113.5 61.5q19 2 35.5 5.5t21.5 5t14.5 1t18.5 -3.5t29 -10q44 -15 67.5 -76.5t3.5 -107.5q-21 -48 -26 -191q-2 -10 -16 -26t-33 -27q-47 -27 -76 -94q-22 -46 -22.5 -63.5t16.5 -63.5q20 -62 131 -182 q45 -46 77.5 -88.5t32.5 -53.5q0 -31 -23.5 -102.5t-35.5 -79.5q-26 -17 -135 31t-162 98q-75 72 -100.5 147t-32.5 250q-8 159 -17 195zM115 586q5 -109 14 -142t59 -118q49 -84 125.5 -174.5t98.5 -90.5q11 0 39 -28q25 -29 50 -28q13 0 13 11t-86 101q-148 157 -190 307 q-10 40 -10 71t10 83q23 108 43 141t75 55q64 21 82 43q16 17 10.5 46.5t-30.5 47.5q-52 37 -104.5 30t-97 -45.5t-75.5 -100.5q-22 -43 -26 -77t0 -132zM126 284.5q0 -24.5 4 -58.5t11 -60q15 -55 70.5 -129t81.5 -74q23 0 34.5 -7.5t28.5 -24t43 -29.5q48 -25 59 -26.5 t25 15.5q18 25 12.5 45.5t-32.5 24.5q-13 -2 -87.5 61.5t-82.5 65.5q-1 -2 -19 21q-19 25 -76 107q-64 93 -67 93q-5 0 -5 -24.5zM289 500q27 22 49.5 58t52.5 56q25 19 32.5 33.5t4.5 40.5q-3 38 -24.5 47t-47.5 -16q-28 -28 -40 -57t-19 -89z" />
<glyph unicode=")" horiz-adv-x="598" d="M63.5 101q6.5 57 25.5 77.5t61 20.5q32 0 43 10.5t32 56.5q21 49 29 111t16 92q13 60 -2 113q-39 128 -102 219q-23 33 -29 60.5t-6 94.5q0 108 12 129q15 31 71 14.5t122 -71.5q45 -41 55 -41q30 -20 146 -256v-282q0 -231 -12 -306t-70 -200q-23 -49 -43.5 -73 t-57.5 -48q-42 -27 -66 -32t-81 1q-81 9 -108 38.5t-33 113.5q-9 101 -2.5 158zM102 82q0 -34 43.5 -61.5t81.5 -18.5q45 10 99.5 56.5t76.5 91.5q54 111 73.5 180.5t19.5 158.5q3 198 -41 281q-21 42 -21 55q0 8 -20.5 38t-48.5 61q-80 88 -89 76q-4 -5 13 -35 q31 -55 56 -149t30 -167q2 -39 6.5 -71.5t5.5 -44.5t-1.5 -37t-12.5 -72q-31 -149 -72.5 -217.5t-93.5 -56.5q-37 9 -71 -12.5t-34 -55.5zM113 -92q4 -32 19.5 -40t92.5 -20q69 -11 139 42t70 116q-1 14 20.5 78.5t18.5 83.5q-4 19 -17 -9q-4 -8 -10 -22q-22 -52 -83.5 -110 t-108.5 -72q-56 -12 -88 -4q-40 11 -49.5 3t-3.5 -46zM177 981.5q0 -29.5 10 -74t24 -69.5q7 -14 29 -57t35 -70t27.5 -67t19.5 -73q6 -37 8 -38q3 -1 0 66q-1 13 -2 30q-5 92 -15.5 132.5t-52.5 127.5q-64 127 -74 127q-9 -5 -9 -34.5zM307 393q-4 -69 6 -69q11 0 11 69 q0 43 -3 60t-7 0t-7 -60z" />
<glyph unicode="*" horiz-adv-x="755" d="M63 649q1 34 8 65t15 40q19 22 14 110q-5 71 6.5 101t49.5 43q83 31 96 8q10 -18 36.5 -14t26.5 24q0 22 23.5 52.5t52.5 45.5q40 23 72 7.5t51 -66.5q9 -27 37 -18q34 9 66 -8t51 -52q20 -36 24.5 -211.5t-12.5 -204.5q-12 -21 -56 -28t-98 2q-40 8 -49.5 4t-15.5 -31 q-15 -84 -105 -84q-44 0 -64 21t-20 67q0 25 -9 28t-62 -5q-74 -12 -107 4q-25 12 -29.5 27.5t-1.5 72.5zM106 631q1 -24 21.5 -36.5t50.5 -9.5t58 21q35 23 35 27.5t-54 3.5h-27q-84 0 -84 -6zM135 836q2 -28 21 0q5 14 -7 14q-12 -1 -14 -11v-3zM137 727q5 -39 41.5 -51.5 t67.5 14.5q16 14 23 32t2.5 31t-19.5 13q-7 0 -14 4.5t-7 9.5q0 6 -2 9t-8.5 2.5t-17.5 -3.5t-31 -10q-24 -7 -31 -18t-4 -33zM162.5 912q6.5 -21 34.5 -21q18 0 40.5 -26.5t22.5 -47.5q0 -22 37 -23t65 21q18 14 36 13t34 8q11 12 21.5 8t19 -2t8.5 20q1 16 -7.5 22.5 t-17 6.5t-13 9t2.5 30q19 62 20 105.5t-13 49.5q-21 13 -31.5 11t-34.5 -25q-25 -25 -30.5 -72t14.5 -84q9 -17 8.5 -24t-10.5 -14q-8 -13 -43 16.5t-70.5 63t-40.5 30.5q-14 0 -39 -29q-20 -25 -13.5 -46zM332 522q-1 -16 19 -22t40 0t19 22q3 14 -5 18.5t-34 4.5t-34 -4.5 t-5 -18.5zM358 617.5q3 -30.5 17 -35.5q17 -6 47.5 19t30.5 46q4 14 -16 19t-43 2t-27 -9q-12 -11 -9 -41.5zM406 776q-12 -28 3 -35q11 -4 15 11q2 10 -2 24q-2 8 -3 11t-2 5.5t-2.5 0t-3 -5.5zM481 815q0 -22 29 -64t51 -53q24 -10 33 -8.5t20 15.5q19 25 7 46t-58 44 q-78 40 -82 20zM496 922q0 -19 8.5 -25t36.5 -6q44 0 66.5 23t10.5 57q-11 29 -41 30.5t-55.5 -22.5t-25.5 -57zM521 617q-2 -20 26 -31q6 -3 12 -4q30 -8 52 4t22 37q0 20 -55 20t-57 -26zM598 850q-3 -5 1 -9.5t11 -4.5q23 -1 21 9q-1 10 -16 12q-11 2 -17 -7z" />
<glyph unicode="+" horiz-adv-x="993" d="M61.5 531.5q0.5 52.5 29 83.5t89.5 36h57.5t51 1t40 15t23.5 42q11 34 0 64t-10 58q0 26 10.5 46.5t38.5 48.5q31 31 51.5 40t65.5 9q78 0 112.5 -48.5t18.5 -113.5q-12 -46 -12 -102q0 -44 7 -57.5t40 -28.5q34 -17 42 -16.5t25 20.5q28 33 63 25t64.5 -35.5t48 -65 t13.5 -61.5q-7 -22 -12 -93q-6 -102 -44 -102q-11 0 -34 -23q-13 -17 -54 -19t-69 13q-15 16 -61 -3q-35 -14 -35 -29q1 -8 18 -13q22 -6 14 -61q-7 -62 -27.5 -88.5t-70.5 -44.5q-55 -19 -99.5 -13t-64.5 37q-17 24 -22 99.5t6 111.5q8 22 2 25t-35 -10q-27 -12 -69.5 3.5 t-67.5 0.5q-20 -10 -32.5 -8t-41.5 18q-30 18 -41 37.5t-20 77.5q-9 71 -8.5 123.5zM111 518q2 -12 16 -35q20 -29 32.5 -32t49.5 14q21 9 33.5 8t27.5 -14q26 -22 68 -33q26 -4 36.5 1.5t22.5 27.5q7 13 19 23.5t20 10.5q26 0 10 -36q-6 -12 -16 -29q-19 -32 -13.5 -56.5 t40.5 -74.5q13 -19 4 -31t-43 -26q-15 -4 2 -31q15 -28 63 -31.5t68 21.5q13 15 11 22.5t-23 20.5q-54 34 -11 71q22 19 22 58t-22 59q-13 14 -12.5 21t14.5 22q13 13 22.5 13.5t22.5 -11.5q8 -4 26 -17t30.5 -20.5t30.5 -5t34 20.5q18 20 27 21.5t16 -11.5q17 -30 49 -31 t60 27q32 32 32 53.5t-32 56.5q-32 34 -53 33.5t-47 -35.5q-19 -26 -28 -28.5t-24 14.5q-11 11 -27.5 17.5t-30.5 8.5t-36.5 4.5t-34.5 4.5q-19 3 -17 29t21 34q19 6 20 46t-16 57q-9 9 -5.5 20t20.5 35q51 75 -23 102q-44 17 -98.5 5.5t-73.5 -40.5q-17 -26 -10 -54t33 -40 q32 -14 33.5 -29.5t-29.5 -29.5q-26 -10 -35 -50t10 -59q9 -9 12.5 -24.5t1 -28t-11.5 -12.5q-11 0 -47 28q-27 23 -58.5 27t-41.5 -14q-12 -16 -64 -6q-37 6 -48 2t-21 -29q-10 -23 -8 -35zM145 340q23 -27 47.5 -15.5t24.5 48.5q0 23 -8 29t-39 6q-84 0 -25 -68zM260 360 q0 -34 16.5 -43.5t61.5 -1.5q47 8 47 37q0 15 -9 21t-32 6q-13 -3 -30 0.5t-27.5 7.5t-18.5 -1.5t-8 -25.5zM412 109q0 -22 22.5 -30t79.5 -7q55 1 79.5 19.5t24.5 55.5q0 48 -43 -4q-24 -27 -62.5 -34.5t-68.5 6.5q-20 8 -26 7t-6 -13zM606 338q0 -43 22 -40q20 2 37 30 q10 16 7 24q-1 7 -13 14t-24 9q-20 1 -24.5 -4.5t-4.5 -32.5zM725 356q-6 -31 6 -39t64 -8q40 0 49.5 6t9.5 29q0 22 -9.5 28t-49.5 9q-41 4 -53 -0.5t-17 -24.5z" />
<glyph unicode="," horiz-adv-x="368" d="M61.5 282.5q-5.5 35.5 44.5 67.5q52 29 66 29q31 0 57.5 -11t26.5 -24q0 -8 7 -17.5t16 -13.5q22 -12 28.5 -75t-8.5 -119q-15 -58 -70.5 -100t-111.5 -37q-34 3 -40.5 10t-6.5 41q0 31 10.5 46.5t48.5 41.5q23 14 40 31t17 24q-2 8 -18.5 20.5t-40.5 22.5 q-60 28 -65.5 63.5zM105 41q2 -8 32 -8q13 0 35 10.5t37 24.5q33 29 30 30q-4 2 -69 -20q-69 -22 -65 -37zM119 305q-9 -11 0.5 -22.5t48.5 -32.5q16 -8 33 -17.5t25.5 -14.5t9.5 -5q11 26 1.5 53t-40.5 35q-40 22 -52.5 22.5t-25.5 -18.5z" />
<glyph unicode="-" d="M67.5 523q11.5 58 41.5 85q33 31 54 32t77 -26q66 -28 110 -28q51 0 74 -8.5t35 -32.5q15 -30 -2 -98t-47 -97q-24 -22 -45.5 -26t-102.5 -2q-97 3 -138 22.5t-54 71.5q-14 49 -2.5 107zM128 417q1 -11 22 -22q23 -12 48 -5t25 26q0 18 -47 18q-48 0 -48 -17zM133 545 q-10 -45 7 -58.5t67 0.5q31 9 45 8.5t27 -12.5q34 -31 79 -17.5t45 54.5q0 34 -47 25q-34 -7 -62 -7t-28 7q0 10 -55 24q-52 18 -61.5 15t-16.5 -39zM283 387q4 -9 22 -18q28 -13 55 1t29 42q0 9 -8 6q-2 0 -11 -1t-21.5 -2.5t-22.5 -2.5q-24 -3 -35.5 -9.5t-7.5 -15.5z" />
<glyph unicode="." horiz-adv-x="344" d="M63 125q-8 23 6 102t31 99q11 17 45 36q82 48 127 -32q15 -27 8.5 -110.5t-26.5 -104.5q-31 -37 -104 -32.5t-87 42.5zM110 161q1 -16 27 -30q22 -11 47 -6t25 20q-4 8 -18 11.5t-32.5 5t-25.5 4.5q-24 10 -23 -5zM134 238q12 -25 46 -25q41 0 51 29t-24 55 q-23 17 -33.5 22t-17.5 0t-17 -22q-17 -34 -5 -59z" />
<glyph unicode="/" horiz-adv-x="645" d="M61 207q0 68 4 92.5t15 24.5q8 0 17.5 12t13.5 29q9 43 49.5 114.5t91.5 134.5q88 107 109 189t-1 231q-8 55 -5 72t24 35q53 45 106.5 15t81.5 -120q15 -48 16.5 -71.5t-10.5 -61.5q-14 -41 -37 -201.5t-55 -218.5q-32 -59 -32 -92q1 -23 -19.5 -72.5t-21.5 -64.5 q-9 -24 -47.5 -70.5t-49.5 -68.5q-25 -54 -86 -66.5t-127 21.5q-27 13 -32 32t-5 105zM111 135q8 -31 58 -40t69 18q16 23 63 77q60 74 83.5 121.5t23.5 96.5q0 39 33.5 104.5t35.5 73.5q0 6 -4.5 10t-9.5 4q-12 0 -41.5 -63.5t-91.5 -225.5q-25 -64 -41.5 -89t-44.5 -40 q-31 -17 -44.5 -19t-35.5 9q-31 17 -46 6t-7 -43zM154 254q5 -34 10.5 -41.5t25.5 -1.5q46 14 69 45t48 113q26 86 68 185.5t59 109.5q17 11 44.5 79.5t37.5 128.5q31 177 -39 226q-46 28 -53 28q-13 -1 -14.5 -194t-12.5 -197q-19 -44 -178 -241q-33 -39 -53 -114t-12 -126 z" />
<glyph unicode="0" horiz-adv-x="868" d="M74 639q34 216 88.5 323.5t152.5 151.5q100 46 209 -16q46 -24 111 -45q45 -15 61.5 -31t40.5 -66q65 -138 69.5 -241t-48.5 -217q-47 -103 -47 -127q0 -8 -5.5 -17t-11.5 -10q-18 -7 -100 -111q-33 -41 -71 -78.5t-58 -48.5q-34 -17 -49.5 -17t-65.5 17q-70 25 -84 15 q-6 -3 -12.5 2.5t-7.5 15.5q-3 10 -20.5 24t-39.5 23q-78 34 -109 159t-3 294zM123 403q6 -58 16 -83.5t39 -57.5q43 -49 80 -49q31 0 69 16t38 29q1 5 58 70.5t52 79.5q2 20 23 45t26 41q8 32 27 51q26 29 51 120.5t25 155.5q0 75 -33 152q-18 43 -30 39q-2 -1 -3 -2 q-11 -8 -37 18q-40 35 -78 49q-35 13 -48 11.5t-48 -19.5q-12 -6 -26.5 -13.5t-27.5 -13.5t-17 -8q-19 -6 -56.5 -62t-62.5 -114q-19 -41 -32 -205t-5 -250zM211 599.5q-1 67.5 14 94.5q15 26 15 56q-4 20 48.5 53t73.5 33q25 0 54.5 -32.5t29.5 -60.5q0 -33 -35.5 -107.5 t-54.5 -82.5q-20 -7 -20 -24q0 -11 12 -11q13 0 62 49q50 50 69 39q16 -11 -14 -56q-12 -17 -29 -36q-53 -57 -113 -59.5t-94 51.5q-17 26 -18 93.5zM244.5 601q-0.5 -8 0.5 -17.5t3 -18.5q7 -13 25.5 -11.5t42 16.5t32.5 34q23 45 34 90.5t5 63.5q-15 36 -57 14 q-43 -22 -65 -76q-4 -12 -7 -24q-1 -5 -4 -17t-4.5 -18.5t-3 -17t-2 -18.5zM356 170q12 -12 56 -12q70 0 202 168q82 103 118 242t5 233q-36 111 -39 119q-5 -68 -9.5 -106t-18 -95.5t-35.5 -106.5q-34 -75 -58 -122t-35.5 -67t-40 -64t-50.5 -80q-13 -21 -26.5 -36.5 t-18.5 -15.5q-14 0 -34 -23.5t-16 -33.5z" />
<glyph unicode="1" horiz-adv-x="595" d="M62.5 976q0.5 13 15.5 38q21 33 45 53t65 39q53 25 117.5 20t104.5 -36q60 -46 75 -114t9 -259q-8 -228 -17 -293q-9 -75 6 -90q13 -17 19.5 -55t17.5 -58q4 -7 6.5 -13t4 -10t1.5 -10t0.5 -8.5t-1.5 -10t-3 -10.5t-4.5 -14t-5.5 -16q-26 -80 -207 -84q-51 0 -131.5 33.5 t-89.5 58.5q-11 18 8 101q14 53 24 67.5t38 18.5q30 4 36.5 19.5t14.5 98.5q24 251 49 379q6 35 1 40t-40 -1q-42 -7 -84.5 15.5t-62.5 62.5q-12 25 -11.5 38zM135.5 993.5q-20.5 -32.5 9.5 -59.5q36 -29 117 -10l47 12q-18 -100 -34.5 -302.5t-16.5 -301.5q0 -52 5 -77.5 t24.5 -39.5t50.5 -13t92 11q7 0 -12 16l-6 4q-40 31 -41 181.5t39 320.5q18 79 19 161t-17 105q-21 22 -35.5 34t-39 24t-55 10t-67.5 -18q-59 -25 -79.5 -57.5zM154 160q0 -15 66.5 -36.5t115.5 -21.5q51 0 93 14t42 31q0 3 -5 5t-13.5 2.5t-20.5 -2.5q-66 -14 -107.5 -14 t-84.5 14q-27 9 -43 13.5t-26 5t-13.5 -2t-3.5 -8.5zM154 250q-4 -17 20 -21q24 -5 30 8q2 4 1 9q-5 12 -17.5 17.5t-23 2t-10.5 -15.5zM422 545q-7 -36 1 -36q11 0 26 51q1 4 2 9q9 39 -6 45q-8 3 -15 -12q0 -7 -8 -57z" />
<glyph unicode="2" horiz-adv-x="866" d="M61 846q0 79 25 115q63 94 135 139q25 15 61 20.5t113 5.5q87 0 115.5 -5t56.5 -25q42 -33 72.5 -65t30.5 -44q3 -12 16.5 -58.5t23 -90t9.5 -72.5q0 -69 12 -127q8 -37 2 -46.5t-47 -31.5q-58 -30 -55 -38q3 -7 41 1q81 17 110.5 -46.5t18.5 -229.5q-8 -101 -14.5 -125 t-36.5 -51q-37 -35 -46 -37q-10 -2 -38 18q-14 10 -25 17q-29 21 -49 26t-53 0q-44 -7 -91.5 -30t-89.5 -33q-45 -10 -65 -9t-51 15q-66 31 -93 49.5t-34 36.5q-15 37 -11 137.5t21 134.5q28 53 77.5 107.5t69.5 54.5q25 5 76.5 45.5t61.5 46.5q74 39 59 127q-6 37 -15 43.5 t-51 5.5q-39 -1 -53 -10t-31 -43q-25 -51 -71 -72q-53 -22 -82.5 -17.5t-63.5 38.5q-26 28 -33.5 49.5t-7.5 73.5zM108.5 789.5q-3.5 -5.5 6.5 -15.5q15 -19 44.5 -25.5t35.5 7.5q8 18 -14 28.5t-50 10.5q-19 0 -22.5 -5.5zM117 909q0 -40 35 -59q32 -18 43 -7.5t14 64.5 q3 56 30.5 83t90.5 34q58 8 60 -5q1 -13 -52 -24q-40 -9 -41 -23t37 -7h2q56 11 118 -33t72 -103q11 -62 -4.5 -109.5t-62.5 -92.5q-61 -57 -88 -64q-26 -6 -37.5 -21t-32.5 -26q-81 -39 -105.5 -116t25.5 -126q27 -27 50.5 -31t78.5 7q39 7 44 23q3 7 -9 9q-4 1 -10 1 q-12 0 -24.5 41.5t-12.5 87.5q0 10 28 43.5t68 72.5q223 214 223 308q0 72 -53.5 143t-122.5 90q-72 22 -162.5 8.5t-101.5 -45.5q-3 -16 -16 -16q-14 0 -47 -33q-37 -34 -37 -74zM145.5 219.5q4.5 -19.5 20 -48t31.5 -44.5q25 -25 46.5 -31t84.5 -8q86 0 110 21 q34 27 77 43.5t87 10.5t64 -42q22 -33 30 -33q12 0 35.5 44t18.5 58q-3 17 -93 35q-53 13 -89.5 12.5t-114.5 -18.5q-81 -19 -137 -20t-89 8.5t-80 34.5q-6 -3 -1.5 -22.5zM242 813q0 -45 15 -46q11 0 19 26q11 34 40 66t51 32q7 0 12.5 2t7.5 5.5t0 6.5q-17 24 -76 4 q-69 -25 -69 -96zM408 406q0 -52 57 1q15 14 33 35q105 119 149 154q21 18 26 30t1 33q-8 39 -17 39q-11 -2 -54.5 -54.5t-43.5 -65.5q0 -7 -3.5 -13t-8.5 -6q-19 0 -79 -66.5t-60 -86.5zM448 300q0 -20 39 -11q82 19 109.5 18.5t65.5 -22.5q56 -27 71 -21q18 6 21 74.5 t-15 97.5q-21 31 -60 24.5t-75.5 -27.5t-54.5 -42q-29 -33 -60 -47q-41 -22 -41 -44z" />
<glyph unicode="3" horiz-adv-x="837" d="M68 242q-10 132 0 166q13 39 44.5 67.5t61.5 28.5q31 0 78 -42.5t47 -70.5q0 -25 33.5 -45.5t70 -22t60.5 16.5q33 34 8 92t-96 119q-43 37 -52.5 53.5t-5.5 46.5q7 41 0 49t-41 -4q-22 -8 -37.5 -3.5t-43.5 26.5q-40 31 -53 74t-3 120q7 65 52 126t106 91q15 8 45.5 25 t44 22.5t43.5 11.5t70 7q82 0 137 -31t98 -100q30 -49 35.5 -78.5t5.5 -138.5q0 -156 -18 -168q-12 -8 -15.5 -50t-13.5 -50q-5 -3 -9.5 -29t-4.5 -57q0 -75 -22 -180t-48 -154q-31 -58 -108 -148h-144q-73 1 -118.5 3.5t-83.5 12.5t-57 24t-34 42t-21 61t-11 87zM119 352 q0 -79 28.5 -106.5t133.5 -50.5q96 -24 161 -20.5t104.5 31t76.5 91.5q29 51 36 83t7 114q0 85 -6.5 109.5t-38.5 64.5q-82 103 -18 111q5 1 11 1q101 0 101 144q0 107 -55 161t-175 54q-82 0 -120 -15t-46 -49q-3 -18 -16 -25.5t-27.5 -8t-29 -8t-19.5 -25.5 q-9 -25 -7 -35.5t22 -26.5q26 -20 58 -15.5t52 32.5q18 25 66 38q34 10 47.5 8.5t38.5 -18.5q63 -46 53 -112.5t-82 -98.5q-39 -19 -42.5 -25.5t18.5 -19.5q43 -26 84 -97t45 -126q18 -227 -174 -233q-56 -2 -107 32.5t-61 81.5q-8 40 -43 49q-46 11 -61 -6t-15 -84z M121.5 182q-2.5 -4 3.5 -32q11 -43 14 -46q9 -9 115 -26t152 -17q73 0 120 22t49 56q0 13 -51 -12q-97 -51 -280 14q-82 28 -103 37q-17 8 -19.5 4zM188 844q0 -34 24.5 -62t53.5 -28q26 0 71 29.5t71 64.5q12 17 29 30t28 13q23 0 27 17t-15 36q-14 15 -27.5 12t-84.5 -41 q-52 -27 -73.5 -32t-47.5 4q-37 13 -46.5 5.5t-9.5 -48.5zM369 659q0 -28 27.5 -64t49.5 -36q5 0 20 -16.5t28 -38.5q37 -60 50 -55q15 6 -17 84q-12 30 -29 63q-15 30 -36.5 55.5t-35.5 30.5q-37 17 -47 13t-10 -36zM663.5 725.5q-1.5 -9.5 8.5 -27.5q17 -33 31 -17 q13 15 8 48q-3 24 -7.5 26.5t-21.5 -10.5q-17 -10 -18.5 -19.5z" />
<glyph unicode="4" horiz-adv-x="759" d="M65.5 590.5q-3.5 80.5 18.5 128.5q31 50 81 108.5t79 98.5q56 72 131 147q46 45 68.5 56.5t64.5 11.5q31 0 56 -10t43 -30t28 -35.5t22 -39.5q21 -39 26.5 -183.5t-9.5 -170.5q-16 -31 4 -60q20 -33 20 -139q1 -86 -14.5 -117t-52.5 -22q-20 4 -22.5 -5.5t3.5 -62.5 q11 -99 -31 -144t-128 -26q-87 19 -99 150l-6 71q-174 13 -213 27q-22 8 -44 87t-25.5 159.5zM119 483q0 -32 43 -69q27 -23 48 -29t66 -4q51 3 61.5 9.5t10.5 37.5q0 29 -9.5 36t-59.5 13q-78 13 -109 25q-38 15 -44.5 12.5t-6.5 -31.5zM123 631q3 -34 13 -46t46 -24 q71 -24 236 -20q0 -12 -3.5 -92.5t-1 -129t14.5 -57.5q22 -29 56.5 -17.5t47.5 54.5q11 27 8 46t-26 58q-37 61 -29 72q7 14 64 14q60 -4 83.5 15.5t9.5 47t-52 48.5q-41 22 -47 32.5t0 47.5q7 36 30 106q18 56 24.5 110.5t0 101t-32.5 74t-69 26.5q-20 0 -94 -65.5 t-74 -82.5q2 -6 -55.5 -67t-55.5 -68q0 -14 -29 -31q-31 -20 -50 -65t-15 -88zM337.5 800.5q2.5 67.5 24.5 90.5q29 29 64 29q25 0 37 -10.5t24 -41.5q20 -47 13 -82.5t-41 -50.5q-14 -6 -24.5 -18.5t-10.5 -22.5q0 -17 -13 -23t-30 1.5t-27 25.5q-19 35 -16.5 102.5z M397 813q0 -33 27 -33q17 0 23 8t6 33q0 18 -5.5 30.5t-13.5 12.5q-21 0 -29 -11.5t-8 -39.5zM443 176q2 -16 38 -32q2 0 4 -1q29 -10 51.5 4t28.5 46q7 32 -8 32q-9 0 -54 -25q-31 -18 -42 -14q-19 0 -18 -10zM563.5 411.5q3.5 -18.5 32.5 -26.5q63 -15 63 37 q0 20 -15.5 23.5t-55.5 -7.5q-28 -8 -24.5 -26.5zM600 694.5q1 -10.5 12 -10.5q8 0 13.5 7.5t5.5 17.5q-2 7 6.5 46t-2.5 40q-5 0 -14 -17t-15 -39q-7 -34 -6 -44.5z" />
<glyph unicode="5" horiz-adv-x="880" d="M61 320q0 81 25 147q26 55 49.5 74.5t71.5 27.5q40 6 72 -13t32 -50q0 -19 47 -66q57 -57 112 -47t77 82q14 46 7.5 112t-26.5 81q-18 14 -44.5 19t-63 0t-58.5 -9t-64 -15t-46 -12q29 383 10 389q7 66 47 93.5t148 48.5q66 16 133.5 8.5t122 -29t84.5 -68.5t20 -110 q-25 -168 -30 -179q-3 -9 -13 -9q-24 0 -8 -25q70 -139 25 -375q-10 -58 -28 -98t-56 -96q-42 -63 -64.5 -80.5t-81.5 -36.5q-73 -24 -165 -25t-156 21q-60 22 -90 22q-37 0 -63 68.5t-26 149.5zM117 401q0 -29 10 -45.5t39 -38.5q96 -75 266 -75q94 0 156 34.5t117 118.5 q38 60 47 88t8 82q0 84 -37 154q-31 60 -90 123.5t-96 77.5q-32 11 -29 38q4 16 13 18q14 4 136 -9q54 -7 70.5 -4t26.5 24q34 67 -49 123q-31 19 -61.5 25t-100.5 6q-206 0 -215 -88q-4 -43 12 -62q10 -12 9 -18.5t-15 -14.5q-23 -13 -23 -55q0 -27 6 -32t29 1 q55 13 111.5 -4.5t101.5 -60.5q46 -46 56 -90t10 -154q0 -35 -12 -69.5t-24.5 -54.5t-38 -54.5t-34.5 -48.5q-28 2 -60.5 4t-42.5 0.5t-30.5 6.5t-25.5 11t-26 27.5t-33 42t-46 66.5q-17 24 -55.5 16.5t-46.5 -35.5q-3 -10 -9.5 -18t-11.5 -8t-8.5 -14.5t-3.5 -33.5z M123 215q15 -47 95.5 -75t197.5 -27q167 3 231 88q27 39 21 55q-5 12 -10 8q-1 -1 -1 -4q-2 -17 -70.5 -40.5t-137.5 -29.5q-121 -11 -267 48q-43 18 -55.5 13t-3.5 -36zM303 711q3 0 43 20q35 17 82.5 18.5t79.5 -12.5q39 -17 36 1q-4 19 -35 42q-23 17 -40 15 q-21 -1 -37.5 12t-19.5 14q-62 -11 -79 -21t-24 -44q-8 -45 -6 -45zM680 876q11 -12 47 -12q23 0 32 6t9 21q0 23 -15.5 25t-52.5 -13q-34 -13 -20 -27z" />
<glyph unicode="6" horiz-adv-x="866" d="M61 410q-2 192 23 282q35 129 110.5 221t182.5 136q64 28 120.5 34.5t73.5 -10.5q12 -12 56 -20q74 -11 109 -45.5t42 -108.5q2 -20 10 -54.5t12 -58.5t3.5 -49t-16 -40.5t-46.5 -20.5q-12 -2 -112 -29q-49 -15 -55 -21.5t12 -25.5q23 -27 41 -27q32 0 43.5 -122.5 t-13.5 -202.5q-32 -100 -114 -153.5t-211 -41.5q-68 7 -109 19t-90 34q-9 3 -22.5 20t-22.5 38q-25 54 -27 246zM115 588q-22 -185 53 -269q69 -77 172 -91.5t180 40.5q54 38 70 69.5t18 96.5q2 74 -29.5 106.5t-105.5 32.5q-50 0 -63 -6t-17 -32q-7 -34 21 -56 q22 -15 26.5 -65.5t-14.5 -69.5q-17 -17 6 -33q33 -28 3 -46q-19 -11 -56 -11q-55 0 -88 31.5t-35 85.5q-3 79 78 108q23 8 8 37q-12 21 -12 80q-11 43 65 113t121 77q107 17 153.5 63t24.5 109q-7 23 -24 34t-58 20q-103 24 -173.5 12t-129.5 -63q-104 -90 -104 -127 q0 -9 -4.5 -18.5t-10.5 -10.5q-14 -5 -41 -81t-34 -136zM121 242q2 -27 29 -60q34 -43 86.5 -61.5t138.5 -18.5q62 0 88.5 5.5t50.5 23.5q16 13 36 40t31.5 49t4.5 22l-72 -35q-136 -73 -293 0q-71 31 -88 43q-13 7 -12 -8zM316.5 386q-1.5 -32 11.5 -40q22 -14 38 3t15 52 q-1 37 -14 45t-35 -14q-14 -14 -15.5 -46zM412 641q4 -7 30.5 -5t60 10.5t40.5 17.5q12 15 98 34q76 17 97 33.5t12 52.5q-11 55 -41 25q-13 -10 -123 -55q-76 -31 -125 -62.5t-49 -50.5z" />
<glyph unicode="7" horiz-adv-x="966" d="M62 841q3 24 34 91q71 158 146 143q37 -8 45 12q6 17 51 33.5t102 24.5q91 12 180 -18.5t150 -94.5q61 -61 55 -258q-3 -63 1 -77t26 -17q84 -12 33 -170l-33 -96l-82 -23q-43 -13 -60 -19t-34.5 -12.5t-24.5 -15.5t-12 -17t-14 -28q-43 -92 -79.5 -137t-78.5 -58 q-64 -23 -115 -8.5t-106 72.5q-54 56 -60.5 97t25.5 132q22 61 21 84t-27 23q-23 0 -30.5 38.5t2.5 89.5t34 83q29 41 29 43q0 4 -70 4q-67 -3 -90 26q-21 29 -18 53zM129 846q0 -68 145 -29q-72 18 -114 43q-23 14 -27 12t-4 -26zM172 973q-3 -50 18 -68q34 -28 150 -16 t160 47q15 15 30 0q11 -6 -22.5 -51t-70 -91.5t-31.5 -54.5q0 -21 -13 -34q-22 -12 -60 -95t-44 -131q-8 -63 6 -103.5t57 -80.5q49 -45 92.5 -37.5t108.5 72.5q46 46 117 171.5t84 186.5q14 66 8 175t-25 132q-22 26 -112 66t-131 37q-43 -3 -112.5 -25t-94.5 -43 q-19 -16 -64 -12q-33 3 -40.5 -3.5t-10.5 -41.5zM204 583.5q0 -11.5 15 -26.5q16 -20 31 -2q15 16 6 30q-2 3 -6 5q-18 11 -32 8t-14 -14.5zM254 317q-9 -63 31 -110.5t100 -56.5q34 -6 51.5 -1t42.5 27q37 34 28 47q-7 12 -40 -8q-48 -27 -109.5 -0.5t-83.5 66.5zM259 654 q11 -14 30 3q20 16 20 35q0 12 -6 16.5t-16 -0.5t-21 -18q-18 -21 -7 -36zM330 780q-3 -5 1 -9.5t11 -4.5q23 -1 21 9q-1 10 -16 12q-11 2 -17 -7zM708 438.5q4 -3.5 40 3.5q45 7 59 14t14 21q0 10 -14 9t-28 -4t-21 7q-17 33 -43 -20q-11 -27 -7 -30.5zM754 561.5 q-3 -10.5 2.5 -13.5t25.5 -3q30 0 57 27t19 49q-11 28 -40 20.5t-46 -41.5q-15 -28 -18 -38.5z" />
<glyph unicode="8" horiz-adv-x="821" d="M63 270.5q2 142.5 15 212.5q11 63 55 113q40 46 45 68.5t-20 50.5q-17 19 -17 33t17 65q25 84 30 111q8 37 73 101t120 89q56 26 93.5 24.5t100.5 -32.5q34 -16 53 -26t37.5 -25.5t26.5 -27.5t18 -37t16 -49t15 -69q16 -71 18 -99.5t-5.5 -45t-34.5 -41.5l-45 -41l28 -39 q41 -59 54.5 -180t-15.5 -172q-20 -36 -20 -66q0 -29 -47 -76.5t-107 -78.5q-39 -22 -76.5 -27.5t-136.5 -5.5t-136 6t-75 27q-24 13 -44.5 33t-26.5 34q-11 28 -9 170.5zM111 179q2 -17 12.5 -39t21.5 -29q31 -18 37 -27q8 -11 74.5 -23t124.5 -12q42 0 144.5 33.5 t115.5 52.5q16 25 -6 24q-16 0 -43 -16q-84 -49 -221.5 -43t-200.5 60q-42 39 -53 39q-8 -3 -6 -20zM125 352.5q15 -77.5 43 -106.5q72 -77 179 -92.5t210 36.5q75 39 106 97t25 141q-10 151 -164 279q142 75 142 192q0 27 -7 52t-17 37t-19 7q-8 -4 -29 23t-33 20 q-17 -3 -24 21q-7 26 -53 26t-109 -26q-100 -41 -119 -129q-7 -31 18 -85t60 -83q56 -47 -23 -66q-39 -10 -78.5 -51.5t-66.5 -97.5q-8 -20 -41 -86q-15 -31 0 -108.5zM184 786q-9 -25 21 -52.5t47 -10.5q16 16 0 51q-13 29 -36 33t-32 -21zM291 322q-15 38 0 95.5t47 80.5 q32 21 50 17.5t69 -36.5q55 -35 58.5 -73.5t-44.5 -65.5q-43 -26 -42 -38q1 -5 11 -5t78 33q84 43 113 34q6 -2 6 -8q-2 -17 -94.5 -65.5t-124.5 -48.5q-42 0 -77 22t-50 58zM336 383q3 -26 10 -32t35 -3q76 9 76 60q0 17 -16.5 23t-36 8t-23.5 10q-18 18 -34 -8 q-15 -24 -11 -58zM346 872q0 27 39 84q25 31 37.5 37.5t40.5 1.5q36 -8 64 -34.5t28 -53.5q0 -20 -27.5 -53t-42.5 -33q-18 0 -13 -14q6 -15 28 -21q25 -7 27.5 -27.5t-19.5 -27.5q-35 -14 -98.5 41.5t-63.5 99.5zM416 891q0 -29 5.5 -32.5t33.5 7.5q40 17 55 30.5t8 23.5 q-8 12 -55 12q-32 0 -39.5 -6.5t-7.5 -34.5zM637 692q1 -21 5 -21q3 0 24 25q26 33 26 43q0 15 -10 15q-15 0 -30 -20t-15 -42z" />
<glyph unicode="9" horiz-adv-x="759" d="M61 745q-3 148 17 162q20 16 20 37q0 25 65.5 84t115.5 84q34 12 59.5 11t58 -18.5t55 -35t50 -39t43.5 -29.5q21 -11 38 -28.5t21 -28.5q7 -24 19 -24q3 0 10.5 -14t17 -38t17.5 -49q69 -218 -6 -373q-16 -32 -33.5 -86.5t-24.5 -95.5q-19 -95 -35 -127.5t-69 -79.5 q-72 -66 -155 -66t-132 66q-28 35 -33.5 64t-5.5 133q0 141 25 190q17 31 20.5 45t-4 21t-31.5 12q-32 6 -80 43q-12 10 -17.5 14.5t-11.5 16t-7.5 17.5t-3.5 29.5t-2 41t-1 61.5zM111 707q0 -54 13 -83t44 -44q44 -25 64 -20t28 40q8 43 19 51q28 16 -5 29q-12 5 -30 8 q-48 11 -80 43q-31 31 -42 25.5t-11 -49.5zM138.5 895q-0.5 -71 74.5 -125q40 -29 67 -37t87 -8q112 0 81 -26q-10 -9 -38 -21q-58 -25 -105 -110t-61 -187q-14 -104 30 -149.5t132 -16.5q56 17 98 62t82 129q39 83 46.5 165.5t-14.5 186.5q-19 92 -42 131.5t-72 64.5 q-34 16 -50.5 36.5t-52.5 39.5q-56 28 -96 25t-90 -37q-76 -52 -76.5 -123zM237 138q8 -32 33 -56q60 -60 160 -8q79 42 105 123q7 28 -4 29q-12 0 -50 -33q-41 -37 -92 -50q-41 -11 -83 -5.5t-42 22.5q0 12 -14 12q-21 0 -13 -34zM256 848q-8 45 5 84.5t40 54.5 q30 17 46.5 11.5t58.5 -44.5q43 -40 43.5 -63t-39.5 -66l-29 -34q70 10 144 6q73 -4 -1 -29q-46 -17 -102 -15.5t-103 21.5q-35 13 -46 26.5t-17 47.5zM305 864q28 -57 78 0q19 22 18.5 29t-20.5 20q-43 31 -72 12.5t-4 -61.5z" />
<glyph unicode=":" horiz-adv-x="370" d="M62 610q-1 24 10 88q12 65 22.5 86.5t40.5 38.5q37 23 50 24.5t44 -13.5q60 -31 75 -99t-21 -153q-22 -51 -61 -72.5t-79.5 -8t-66.5 59.5q-13 25 -14 49zM82 236q6 72 13 89.5t38 30.5q35 17 51 12t72 -51q37 -31 45 -48.5t8 -69.5q-3 -152 -131 -152q-66 0 -86.5 40 t-9.5 149zM102 616q0 -26 9 -34.5t41 -14.5q41 -6 63 5t29 44q4 18 -1 21t-30 -2q-35 -7 -74 6q-26 10 -31.5 6.5t-5.5 -31.5zM113 143q-2 -16 27 -27q10 -5 24 -7q38 -6 64 5.5t26 35.5q0 16 -70 16q-67 0 -71 -23zM129 739q0 -28 19.5 -43t44 -8.5t36.5 31.5q34 42 -51 76 q-17 0 -33 -18.5t-16 -37.5zM138.5 243.5q3.5 -10.5 27.5 -20.5q22 -9 31.5 -7.5t23.5 15.5q17 15 16 24t-24 34q-31 34 -43 33t-25 -39q-10 -29 -6.5 -39.5z" />
<glyph unicode=";" horiz-adv-x="344" d="M61 123q10 169 43 205q27 28 61.5 22.5t65.5 -29.5t43 -51q12 -28 6 -98.5t-20 -89.5q-13 -13 -27 -86q-13 -60 -38.5 -90t-53.5 -19q-22 8 -14 52q16 94 -37 114q-19 7 -25 21.5t-4 48.5zM71 572.5q-3 17.5 3 86.5q4 64 13 87.5t36 52.5q28 29 60 30.5t57 -12.5 q1 -1 3 -6.5t6.5 -16t8.5 -18.5q17 -40 16 -120.5t-18 -94.5q-22 -19 -78.5 -24.5t-81.5 8.5q-22 10 -25 27.5zM110 136q-4 -12 9 -23q13 -14 29 -5t16 31q-1 23 -25 19q-23 -4 -29 -22zM121 606q0 -16 25.5 -19t52.5 6t30 25q2 9 0 15.5t-6 5.5q-1 0 -11.5 -1t-18 -2 t-20.5 -3t-21.5 -4.5t-17 -5.5t-12 -7.5t-1.5 -9.5zM128 248q8 -14 36 -21q21 -4 28.5 -17t12.5 -52q12 -105 33 18q10 52 -15 80q-17 20 -30.5 22.5t-47.5 -6.5q-27 -6 -17 -24zM136.5 731q-0.5 -32 13.5 -41q15 -9 40.5 0.5t32.5 28.5q3 8 -2.5 22.5t-15.5 24.5 q-24 24 -31 25.5t-22 -13.5t-15.5 -47z" />
<glyph unicode="&#x3c;" horiz-adv-x="675" d="M61 530q0 52 7.5 82t27.5 64q36 59 56 69q20 8 20 25q0 7 33.5 30t81.5 48q98 52 147 53t101 -49q26 -25 37 -45t12 -49q5 -74 12 -107q8 -43 -6.5 -82t-38.5 -39q-11 0 -15.5 -5.5t-0.5 -14.5t16 -18q20 -17 41.5 -82t21.5 -105q0 -44 -34.5 -81t-85.5 -46 q-43 -8 -106 6t-91 37q-22 18 -51 25q-24 7 -84 67.5t-82 98.5q-19 30 -19 118zM115 631q-9 -19 1.5 -44t27.5 -51.5t20 -37.5q12 -44 138.5 -100.5t182.5 -47.5q42 10 38 58.5t-31 66.5q-63 47 -91.5 64.5t-62.5 27.5q-35 11 -46.5 24.5t0.5 28t48 27.5q122 43 148 57 t36 41q9 24 4.5 37.5t-30.5 34.5q-78 64 -207 -8q-52 -30 -105 -84t-71 -94zM158 395q0 -15 24 -36.5t90 -65.5q64 -45 138 -55q56 -6 61 19q4 19 -22 33q-10 5 -21 7q-23 3 -79 27.5t-73 27.5q-4 -3 -58.5 24.5t-59.5 18.5zM397 611q6 -6 15 -11.5t30 -17.5 q33 -18 46 -19.5t38 10.5q21 10 26.5 22t0.5 34q-11 46 -30 50q-7 1 -11 -7q-11 -15 -63 -29q-24 -7 -35 -12t-17 -9.5t0 -10.5zM524 227q11 -12 25 21q19 43 6 67q-3 6 -8 9q-10 0 -20.5 -44.5t-2.5 -52.5z" />
<glyph unicode="=" horiz-adv-x="929" d="M63 709q10 43 42.5 79.5t64.5 42.5q37 6 47 21q9 18 131 -21q47 -14 236 -14q125 -1 162 -6.5t59 -24.5q58 -52 62.5 -143t-48.5 -137q-25 -22 -26 -29t16 -16q19 -11 22 -51.5t-14 -51.5q-12 -8 -12 -53q0 -49 -30.5 -91.5t-72.5 -53.5q-48 -14 -95.5 -2t-147.5 65 q-88 46 -108 51t-50 -12q-38 -20 -106 -20q-63 0 -80 25t-17 118q0 143 54 182q12 9 15 12t0 4.5t-15 2.5q-24 0 -64.5 49t-24.5 74zM109.5 690.5q1.5 -11.5 13.5 -22.5q26 -22 118 -19.5t138 25.5q107 55 250 -10q65 -29 107 -34t58 14.5t5 62.5q-9 38 -61 56.5t-126 10.5 q-84 -11 -160.5 -7t-109.5 21q-67 32 -86 5q-3 -6 -15.5 -8t-25.5 1q-34 9 -61 -6.5t-39 -52.5q-7 -25 -5.5 -36.5zM141 322q5 -10 35 -23q22 -10 41.5 -7.5t61.5 19.5q58 25 94 21.5t78 -39.5q31 -26 103.5 -53t113.5 -27q28 0 61 27t33 49q2 5 -8.5 9.5t-27.5 7.5t-38.5 6 t-43.5 6t-40 6t-29.5 6.5t-11.5 7.5q-6 8 -49 13.5t-49 13.5q-10 13 -39.5 12t-56.5 -15q-28 -16 -127 -16q-113 -2 -101 -24zM154 471q0 -31 12.5 -46t50.5 -30q28 -11 46.5 -10t51.5 18q72 35 114.5 36t111.5 -33q51 -25 81.5 -32t82.5 -5q46 2 64 7.5t19 18.5 q4 26 -43 45t-133 27q-92 7 -143 29q-45 22 -59 8q-15 -12 -43 6q-36 24 -87 26t-88.5 -16.5t-37.5 -48.5zM375 573q0 -5 12 -9.5t25 -4.5q17 1 88 -13t92 -11q20 4 3 15q-8 5 -24 13q-24 12 -72 19t-86 4.5t-38 -13.5zM737 567q4 -8 21 -14q34 -19 45 0q9 15 -6 26 q-10 8 -27 7q-19 0 -28 -5.5t-5 -13.5z" />
<glyph unicode="&#x3e;" horiz-adv-x="798" d="M61.5 642.5q0.5 35.5 4.5 117.5q5 88 11 109t34 36q26 13 34.5 12t22.5 -18q13 -17 23.5 -16.5t50.5 20.5q56 27 79.5 25t96.5 -39q138 -69 190 -114t103 -140q22 -41 25 -67.5t-5 -84.5q-12 -88 -34.5 -122t-102.5 -85q-117 -74 -234 -109t-163 -11q-7 3 -14 11.5 t-14 23.5t-12 26.5t-12.5 34t-10 31t-10 32.5t-7.5 25l73 135l-61 35q-29 17 -41 27.5t-19.5 40t-7 65zM102 655q-7 -39 8.5 -60.5t71.5 -51.5q41 -22 58 -22.5t71 18.5q118 40 17 55q-20 3 -110.5 52t-100.5 52q-4 0 -15 -43zM117 805q7 -31 43.5 -69t58.5 -38 q13 0 130 -56t132 -56q49 0 33 -45q-10 -23 -59 -23q-51 0 -142.5 -41.5t-113.5 -73.5q-36 -93 28 -111q59 -17 181 40q46 20 67 20q15 0 67.5 37.5t96.5 79.5q27 26 27.5 79t-24 106.5t-64.5 80.5q-50 32 -56 47q-10 14 -108 56q-78 32 -105.5 35.5t-62.5 -11.5 q-31 -14 -66 -6q-32 8 -50.5 -7t-12.5 -44zM209 223q-3 -12 37 -20q34 -8 135.5 25t148.5 67q21 15 46.5 27.5t41 23t29.5 31.5q5 7 7 14t0.5 12t-5.5 5q-5 0 -11 -4.5t-7 -8.5q-2 -5 -40 -29t-85 -49q-68 -36 -113 -51t-98 -20q-80 -6 -86 -23z" />
<glyph unicode="?" horiz-adv-x="720" d="M61 825q0 116 14 159.5t60 66.5q14 7 47 26.5t60.5 33.5t48.5 19q147 41 274 -65q69 -55 85 -128.5t-1 -248.5q-9 -92 -29 -117.5t-85 -25.5q-43 0 -72 -29t-27 -70q0 -63 -8.5 -172t-17.5 -149q-2 -5 -17 -14.5t-35 -16.5q-34 -13 -48.5 -12t-45.5 18q-30 17 -36.5 32.5 t-6.5 62.5q0 110 -86 157q-49 28 -56.5 91t30.5 120q26 38 25 52t-32 14q-25 0 -33 39t-8 157zM102 885q0 -55 33 -88q37 -34 71 -28.5t77 52.5q41 46 64.5 47.5t43.5 -41.5t7.5 -70t-83.5 -93q-63 -60 -73.5 -80t-5.5 -62q2 -19 6 -33t10 -23.5t13.5 -15.5t17.5 -9.5 t21.5 -5t25.5 -1.5h30h19q-6 114 27 201q19 49 33.5 62t60.5 24q68 17 88 41t18 88q-1 58 -37.5 119.5t-79.5 83.5q-29 13 -102 24q-130 15 -233 -84q-32 -32 -42 -52t-10 -56zM123 709q-14 -24 12.5 -31.5t43.5 9.5q5 5 7 11q0 12 -28 17t-35 -6zM136.5 463.5 q1.5 -13.5 15.5 -37.5q29 -42 35 -16q3 17 1 71q-4 78 -14 78q-11 0 -29 -49q-10 -33 -8.5 -46.5zM233 358q-9 -25 2 -30t37 12q47 29 101 10q22 4 20 11q-3 13 -58 16h-16q-46 2 -63 -2t-23 -17zM244 711h28q25 0 54.5 38t15.5 52q-10 9 -20.5 7t-10.5 -13q0 -9 -11 -23.5 t-33 -37t-23 -23.5zM272 154q5 -15 45 -16t45 14q1 3 -4 6.5t-16 6t-25 3.5q-47 1 -45 -14zM291 274q-8 -19 6.5 -40t34.5 -21q19 0 34.5 21t4.5 32q-22 20 -48 22.5t-32 -14.5zM434 586h47q62 0 91.5 16.5t29.5 52.5q0 34 -14 38t-68 -13q-22 -7 -39.5 -23t-26.5 -31 t-20 -40z" />
<glyph unicode="@" horiz-adv-x="1269" d="M63.5 554.5q-0.5 82.5 8.5 92.5q23 30 39.5 109t27.5 104q41 98 66 135t67 62q19 11 56.5 35.5t42.5 27.5q62 42 223 66q63 9 169.5 -17.5t168.5 -66.5q69 -46 100 -62q22 -9 78.5 -95t56.5 -111q0 -16 23 -39q12 -11 15.5 -48.5t2.5 -138.5q0 -169 -10 -192 q-7 -22 -89.5 -85t-102.5 -63q-22 0 -39.5 -34t-12.5 -68q5 -40 -6 -62t-47 -43q-42 -20 -90 -19t-263 24q-25 3 -38 4q-163 15 -268 120q-61 62 -108.5 129.5t-57.5 108.5q-12 44 -12.5 126.5zM124 532q-14 -5 14 -100q0 -2 1 -4q18 -62 78.5 -133t132.5 -118t123 -46h51 q-71 26 -137 76q-49 35 -68 35q-22 0 -22 12l-61 83q-62 83 -72 114q-28 86 -40 81zM174 643q5 -85 13 -116t42 -83q205 -311 555 -243q55 10 76.5 28t7.5 41q-17 23 -192 -14q-38 -7 -61.5 -1.5t-77.5 30.5q-76 39 -99 39q-17 0 -76 72.5t-88 129.5q-35 70 -32 134.5 t47 154.5q31 64 55.5 93t77.5 65q62 43 146.5 70.5t156.5 27.5q65 0 123.5 -28.5t97.5 -77t62 -107.5t20 -126.5t-33 -127.5q-34 -69 -87 -97t-115 -11q-27 7 -33 19t-6 60q0 44 7.5 66.5t33.5 52.5q35 40 39 62t-21 45q-14 14 -28 19.5t-22.5 0t-8.5 -19.5q0 -22 -23.5 -20 t-28.5 20q-7 20 -56.5 21.5t-84.5 -17.5q-31 -17 -64.5 -81.5t-33.5 -107.5q0 -42 20 -85t47 -56q35 -18 95 -13.5t84 27.5q49 46 49 -40q0 -24 11.5 -30t59.5 -9q134 -9 220 96q30 36 42 68t23 100q9 48 9.5 77t-3 40.5t-12.5 34t-14 46.5q-10 46 -75 102.5t-159 102.5 q-121 60 -230.5 60t-226.5 -60q-19 -10 -42 -21t-31.5 -16t-20.5 -12t-20.5 -16.5t-20 -22.5t-30.5 -37q-47 -59 -58.5 -117.5t-5.5 -191.5zM301 601q2 0 10 28q17 60 43 104.5t76 100.5q55 63 104.5 80.5t165.5 17.5q72 0 99.5 -7t70.5 -36q65 -42 72 -35q8 9 -26 49.5 t-74 69.5q-49 34 -121 37q-115 6 -210 -38t-155 -130q-35 -53 -44.5 -81t-10.5 -89q-3 -70 0 -71zM363 513q0 -12 6.5 -23.5t9.5 -15.5t16.5 -16.5t18.5 -17.5l-4 121q-4 83 1 112t31 72q35 60 23 63q-12 2 -50 -56q0 -1 -1 -2q-36 -56 -47 -156q-4 -29 -4 -49v-32zM465 396 q8 -30 37 -34q9 -4 39 -15.5t43 -16.5q52 -25 69 -19t17 47q0 34 -5 40.5t-28 0.5q-12 -6 -49.5 5t-77.5 28t-41 17q-12 -23 -4 -53zM532 616q0 42 11.5 60.5t56.5 46.5l47 29q5 -4 27 -19.5t36.5 -29t14.5 -21.5q0 -13 -16.5 -47.5t-22.5 -34.5q-42 -14 -42 -29 q0 -9 11 -18q11 -14 11 -22.5t-11 -20.5q-18 -21 -30.5 -17.5t-49.5 37.5q-24 21 -33.5 40t-9.5 46zM588 623q0 -40 49 -1q3 2 6 5q21 17 23 26.5t-9 22.5q-18 22 -30 22q-11 0 -25 -27t-14 -48zM649 104h107q21 2 47 2.5t39.5 1t26.5 4.5t17.5 14.5t2.5 29.5q-3 20 -7.5 22 t-17.5 -12q-25 -23 -215 -62zM731 350q-12 -20 4 -19q7 1 23 7q27 6 12 15q-16 9 -32 4q-6 -2 -7 -7zM820 556q18 -18 71 9q32 18 58 55.5t26 67.5q0 21 -29 70q-36 61 -56 47q-11 -8 -11 -41q0 -40 -35 -100q-50 -83 -24 -108zM879 335q1 -10 28 -16q48 -13 108.5 11.5 t102 71.5t41.5 94q0 56 -14 59q-7 3 -13 -2t-6 -14q0 -31 -77.5 -102.5t-120.5 -78.5q-50 -9 -49 -23z" />
<glyph unicode="A" horiz-adv-x="1052" d="M64 169q-1 12 -1 35q0 33 3 89q3 74 20 144t43 146.5t37 121.5q16 66 72 175.5t84 137.5q33 30 85 51.5t117 26.5q10 1 20 0q55 0 105 -23q125 -57 217 -202.5t105 -311.5q5 -55 13 -96q8 -39 7 -52q0 -6 -6 -114q-11 -108 -29.5 -151.5t-76.5 -92.5q-34 -29 -61.5 -35 t-131.5 -6q-97 0 -131.5 5.5t-69.5 27.5q-36 21 -49.5 22t-36.5 -14q-30 -20 -106 -20q-94 0 -131 13.5t-68 57.5q-26 37 -30 65zM119 321q13 -22 39 -24q25 0 34 -6t9 -23q0 -18 14 -22t76 -4q76 0 94 16q7 6 7 17q0 16 -17 42q-22 32 -22 66.5t20 83.5q19 46 12.5 60 t-47.5 22q-41 10 -41 31q0 25 23.5 30t58.5 -14q30 -15 43 -13.5t51 25.5q33 23 50.5 26.5t41.5 -5.5q15 -4 23.5 -13.5t5.5 -15.5q-12 -16 -31 -6q-3 1 -6 1q-24 0 -84 -65q-42 -45 -53.5 -68.5t-11.5 -62.5q0 -91 70 -135q56 -36 145 -35q22 0 47 2q98 7 145 29t70 72 q32 68 32 152v19q-4 95 -49 236q-24 71 -97 163t-132 122q-31 15 -104 17h-19q-59 0 -88 -11q-75 -34 -144.5 -166.5t-125.5 -345.5q-39 -153 -39 -191v-6zM125 190q-2 -7 -2 -13q0 -24 30 -46q39 -28 107 -35q24 -3 44 -3q37 0 57 10q32 15 32 55q0 25 -13.5 30.5 t-84.5 6.5q-108 0 -131 10q-30 11 -39 -15zM375 740q-2 6 -2 14q0 19 10 51q47 139 182 140q7 0 15 -1q7 1 13 1q47 -1 91 -51q50 -58 68 -116q13 -43 13 -83q0 -22 -4 -43q-7 -25 -16 -23q-11 8 -8 18q5 14 -15 60.5t-30 46.5t-37 -23q-29 -25 -85 -30q-12 -1 -22 -1 q-42 0 -71 15q-35 15 -56 15q-6 0 -11 -1q-28 -7 -35 11zM464 832.5q0 -9.5 13 -33.5q20 -34 54 -44q13 -4 26 -4q22 0 45 11q34 17 43.5 43.5t-10.5 54.5q-24 36 -60.5 36t-85.5 -36q-25 -18 -25 -27.5zM468 186q-4 -7 -4 -15q0 -19 20 -47q8 -10 18 -20q27 -24 54 -31 t114 -10q37 -1 64 -1q44 0 58 3q24 5 64 39q38 32 64 78t26 80q0 19 -10 19q-4 0 -9 -2q-12 -5 -36 -25q-79 -63 -199 -87q-47 -9 -84 -9q-57 0 -88 22q-40 28 -52 6z" />
<glyph unicode="B" horiz-adv-x="1024" d="M63 111q-3 16 -3 39q0 31 5 74q8 76 17 85q7 6 38.5 72t45.5 72q22 18 51.5 67.5t36.5 85.5q4 17 4 37q0 31 -10 70q-10 45 -19 54t-32 -1q-33 -13 -55.5 -0.5t-45.5 57.5q-25 49 -25 92q0 134 244 213q87 25 193 25h8q96 0 162 -23q69 -24 129 -83q41 -40 80.5 -109 t44.5 -109q10 -25 20 -88q9 -57 9 -118v-12q-1 -67 -23 -81q-26 -26 -59 -26q-31 0 -34 -9.5t19 -37.5q8 -11 14.5 -38t6.5 -54q0 -79 -27.5 -139t-91.5 -120q-45 -44 -73 -59t-68 -20q-54 -9 -129 -29q-43 -14 -98 -14q-33 0 -70 5q-100 13 -205 56q-31 12 -43.5 25.5 t-16.5 40.5zM96 182q2 -32 57 -74t119 -59q50 -15 151 -15h7q94 0 102 13q7 14 29 14q27 0 113 46.5t86 60.5q0 28 -29 5q-6 -3 -12 -9q-28 -25 -128 -50.5t-169 -25.5q-69 2 -146.5 25t-123.5 57q-47 33 -54 25q-2 -3 -2 -13zM140 862q4 -18 20 -33q29 -29 41 -20q6 5 0 20 q-4 9 -4.5 30.5t-6.5 34t-24 11.5q-16 -1 -24 -13q-5 -8 -4 -17q0 -6 2 -13zM152 289q0 -28 27.5 -52.5t96.5 -56.5q64 -30 146 -34q12 -1 25 -1q69 1 129 17q72 20 126.5 60.5t69.5 92.5q18 71 18 97t-14 63q-20 49 -44 75.5t-64 43.5q-34 14 -42 31t12 29t62 14 q69 5 127 46t58 87q0 25 -24.5 75t-41.5 60q-9 5 -24 22.5t-25 36.5q-25 46 -97.5 74t-154.5 28t-160 -20q-35 -10 -98 -24q-26 -4 -67 -36t-41 -46q0 -10 32 -10q43 0 81 -101t38 -217q0 -83 -6.5 -106t-42.5 -62q-43 -48 -72.5 -101t-29.5 -85zM368 394q-2 13 -3 24 q0 42 32 57q13 7 30 7t35 -6q40 -12 66 -44q21 -24 21 -52q0 -9 -2 -18q-7 -34 6 -40q9 -4 20 14q4 7 26.5 21t43.5 24t21 6q0 -24 -27.5 -55t-63.5 -49q-54 -27 -86 -27h-1q-31 0 -56 25q-52 52 -62 113zM385 822v9q1 15 5 31q6 22 11.5 35.5t15.5 34.5t11 22q12 14 46 16 h14q28 0 56 -6q36 -8 65 -24t30 -33q1 -9 1 -18q0 -27 -10 -47q-12 -26 -57 -78q-49 -56 -53 -78q-1 -5 0 -11q0 -22 12 -63q6 -25 -7.5 -32t-32.5 12q-17 18 -22 62q-1 13 -1 25q0 29 8 54q6 20 2 24.5t-26 0.5q-22 -5 -34 2t-22 31q-10 13 -12 31zM432 355q2 -2 4 -3 q12 -9 23 -10q13 0 25 12q22 21 5 49q-14 21 -45 29q-30 6 -30 -25q0 -33 18 -52zM428 842q-1 -11 9 -17t20.5 -3t11.5 14q0 11 49 22q49 8 49 29q0 12 -16 28q-15 15 -25 16h-2q-9 1 -14 -5q-6 -6 -17 -14t-24 -7q-19 0 -30 -17t-11 -46zM521 804l3 -3q13 -5 14 6 q0 12 -10 14h-4q-11 0 -11 -5q0 -4 8 -12zM770 610q-6 -2 -6 -8q0 -9 20 -27q20 -17 35 -19q4 -1 8 -1q13 0 33 6q10 4 25 8q21 5 23 11q1 2 0 6q0 9 -4 31q-2 12 -3 20l-10 57q-94 -75 -121 -84z" />
<glyph unicode="C" horiz-adv-x="1142" d="M70 471q-8 80 -8 146q0 83 12 141q22 104 94 192q76 91 143 123q65 31 176 31h7q122 0 139 -17q16 -16 51 -16q6 1 14 1q46 4 105 26q72 28 127 29q24 0 44 -6q68 -18 79 -89q4 -25 15 -48q10 -24 12 -34v-5q0 -14 -5 -50q-16 -58 -16 -94q0 -55 -35.5 -73.5 t-140.5 -20.5h-22q-67 -1 -91 5q-28 6 -84 42q-49 31 -77.5 39t-84.5 8q-54 0 -77 -6t-44 -27q-36 -36 -36 -66q1 -21 -22 -38t-13 -48q9 -31 46 -91t48 -62q7 0 76 -43q64 -40 112 -40h2q48 1 101 44q31 26 68 43.5t106 43.5q13 4 20 7q10 4 20 4q30 0 59 -34 q38 -46 48 -91q5 -26 6 -56q0 -53 -18 -114q-27 -96 -61 -96q-27 0 -52 -18q-33 -23 -223 -23q-4 0 -8 -1q-183 0 -250 22q-84 27 -112.5 41.5t-94.5 62.5q-66 49 -107.5 118t-47.5 138zM138 674q16 -104 60.5 -188.5t96.5 -125.5q93 -74 187 -98q63 -16 163 -16q50 0 109 4 q99 6 127 13.5t61 35.5q37 33 44 59q2 7 2 15q0 22 -15 53q-20 44 -57 44q-6 0 -12 -1q-46 -8 -150 -84q-67 -48 -118 -55q-10 -1 -21 -1q-45 0 -107 23q-89 34 -147 96.5t-68 137.5q-5 39 -5 77q0 73 20 137q30 97 93 140q26 17 77 17q9 -1 19 -1q65 -4 121 -28 q114 -52 180 -63q17 -3 30 -3q38 0 46 23q12 20 48 20q71 0 71 85v7q-4 52 -6 54q-34 13 -73 13q-59 0 -128 -30q-40 -17 -70 -17q-3 1 -5 1q-32 2 -156 26q-52 10 -96 10q-109 0 -174 -61q-23 -21 -41 -33.5t-25 -17t-18.5 -20.5t-30.5 -52q-36 -70 -37 -146q1 -25 5 -50z M148 411q0 -10 22 -51q35 -64 53 -85t37 -21q17 1 31.5 -19.5t25.5 -21.5q8 0 84 -37q48 -26 86 -30.5t187 -6.5q131 0 175 5t73 22q34 20 55 45.5t12 34.5q-1 1 -4 1q-15 0 -72 -28q-44 -21 -80.5 -27t-125.5 -6q-312 0 -445 127q-52 52 -61 52q-7 0 -13 14l-12 28t-14 13 q-15 0 -14 -9zM379 817q38 19 126 22q16 1 32 1q67 0 114 -11q42 -11 90 -43q71 -46 149 -45q25 0 50 4q31 6 41 16t16 42q3 19 3 37q0 4 1 7q0 12 -2 13q-1 1 -3 1q-12 0 -58 -23q-36 -18 -62 -21q-8 -1 -19 -1q-26 0 -71 5q-83 9 -137 33q-115 62 -167 64q-1 0 -2 1 q-51 0 -79 -57z" />
<glyph unicode="D" horiz-adv-x="976" d="M62 792q-2 8 -2 27q0 23 3 62q12 168 72 180q30 6 68 6q79 -1 191 -27q168 -40 327 -116q49 -25 97 -80.5t67 -108.5q21 -70 28 -200q2 -36 2 -68q0 -59 -7 -107q-11 -72 -48 -165q-15 -41 -80 -80.5t-151 -61.5q-61 -14 -103 -15h-10q-41 0 -106 7q-50 5 -84 10 t-62 12.5t-43.5 12.5t-34 18t-27 20t-30 27t-35.5 33q1 78 8 229.5t9 208.5q1 49 1 81q0 35 -2 47q-4 22 -24 26t-24 22zM102 836q6 -20 26 -19t38 27q17 25 17 33.5t-19 21.5q-28 22 -38.5 20t-21.5 -30q-5 -19 -5 -34q0 -10 3 -19zM147 453v-9q0 -30 12 -51q4 -7 7 -6 q12 0 16 45q3 25 -0.5 34t-15.5 9q-17 6 -19 -22zM158 233q0 -31 35.5 -66.5t66.5 -35.5q25 0 72 -14q38 -13 146 -15q11 0 21 -1q91 0 132 12q54 16 84 22q28 6 77.5 62t63.5 96q9 27 -5 30q-11 2 -15 -12q0 -12 -64 -55.5t-113 -65.5q-60 -19 -156 -19q-3 1 -5 1 q-99 0 -199.5 20.5t-122.5 47.5q-10 14 -14 12.5t-4 -19.5zM162 994q10 -28 39 -58q35 -40 38.5 -61.5t-22.5 -36.5q-35 -20 -45 -86q-4 -26 -4 -53q0 -44 10 -92q16 -79 55 -132q24 -35 32.5 -59.5t0 -37.5t-32.5 -13q-35 0 -43 -30.5t21 -53.5q33 -29 171 -43 q61 -6 111 -6q62 0 103 10q84 17 115.5 34t72.5 68q69 82 80 204q2 20 2 39q0 95 -47 156q-39 57 -39 62q-1 22 -97.5 75.5t-186.5 82.5q-68 21 -170 44t-150 23q-18 0 -18 -16q0 -8 4 -20zM365 766q0 22 27 41q15 10 29 10l13 -2q5 -1 27 -6.5t31 -7.5q43 -11 71 -69 q22 -46 22 -96q0 -13 -1 -26q-11 -116 -95 -116q-11 0 -24 2q-49 8 -73 40q-18 24 -19 56q0 11 2 22q10 60 26.5 78.5t57.5 18.5q38 0 39 7q0 5 -9 15q-15 20 -45 20q-12 0 -26 -3q-16 -4 -27 -4q-25 0 -26 20zM422 600q0 -41 76 -41q23 0 28.5 11.5t5.5 58.5q0 68 -8 68h-1 q-4 0 -11 -13q-3 -5 -16.5 -9.5t-26.5 -4.5q-47 0 -47 -70z" />
<glyph unicode="E" horiz-adv-x="1081" d="M94 987q26 52 86.5 98t130.5 68q51 15 111 15q41 0 86 -7q112 -17 221 -71q29 -14 74 -27t77.5 -21t65 -27.5t49.5 -49.5q16 -26 21 -58q4 -27 4 -81v-23q-1 -84 -7 -108.5t-28 -43.5q-25 -19 -56 -19q-11 0 -23 2q-46 9 -81 46l-30 39q1 -11 1 -24q0 -49 -21 -121 q-27 -90 -52 -132q-13 -13 -13 -21q0 -13 35 -13q12 0 24.5 -3t27.5 -9.5t23.5 -10t25.5 -13t20 -10.5q-13 -255 -30 -299q-11 -22 -115 -53q-78 -23 -168 -23q-25 0 -51 2q-120 8 -221 52q-23 10 -61.5 23t-60 22.5t-45 25.5t-33.5 41.5t-9 61.5q2 40 24 74.5t47 34.5 q20 0 28 6.5t1 14t-27 11.5q-37 6 -53 38q-9 17 -9 36q0 16 7 33q5 15 11.5 67t7.5 103q1 35 1 61q0 38 -2 58q-4 32 -22 61q-25 41 -25 75q0 36 33 99zM99 219q0 -18 39 -54q35 -32 61 -34q26 0 110 -43q79 -41 197 -51q33 -3 63 -3q80 0 146 19q52 15 65 25t13 35 q0 37 18 102q-19 -11 -36.5 -23t-27 -19t-22 -14t-25 -10.5t-31 -7t-46 -4.5t-64 -1t-90.5 1h-223l-66 45q-59 43 -75 43q-6 0 -6 -6zM105 900q-6 -4 -6 -12q0 -13 15 -36q3 -5 7 -10q12 -15 19 -17.5t18 6.5q10 11 8.5 20t-16.5 26q-30 33 -45 23zM135 407q2 -3 4 -4 q9 -7 16.5 -3t7.5 13.5t-5 18.5q-11 19 -21 4q-6 -9 -7 -17q1 -6 5 -12zM177 755q-3 -13 -3 -34q0 -37 8 -100q14 -130 33.5 -183.5t67.5 -113.5q-18 -10 -52 -31t-51 -31q73 -54 139 -70q41 -10 106 -10q39 0 87 4q147 10 195 31q67 36 83 83q4 11 4 20q0 27 -32 38 q-9 3 -21 4h-8q-41 0 -67 -28q-34 -37 -67.5 -51.5t-84.5 -14.5q-86 2 -136 80q-38 59 -38 131q0 25 4 51q14 90 96 90q25 0 56 -8q63 -16 69 -41q16 -47 58 -47h9q50 5 83 62q22 36 22 70q0 39 -28 75q-21 26 -29.5 29t-30.5 -10q-23 -15 -81 -41.5t-97 -40.5l-33 34 q-35 36 -55 88q-14 38 -14 67q0 12 2 22q7 38 58 72.5t120 49.5q35 7 56 8q7 1 13 -1q22 -4 76 -29q84 -39 103 -76q17 -29 61.5 -61.5t67.5 -32.5q14 0 42 19q18 13 18 23q0 7 -9 13q-19 19 -19 43q0 23 -39.5 51.5t-70.5 28.5q-33 0 -128.5 46t-119.5 52q-110 29 -191 29 h-9q-84 -2 -158 -41q-77 -39 -77 -89q0 -25 19 -52q28 -40 54 -53q14 -8 11 -16.5t-28 -35.5q-37 -37 -44 -72zM398 492v-5q0 -10 3 -12q10 0 35 25q15 14 26.5 15t35.5 -9q38 -17 41.5 -8.5t-27.5 39.5q-26 26 -57 34t-39 -8q-6 -11 -11.5 -33t-6.5 -38zM406 431.5 q0 -10.5 22 -48.5q29 -51 65 -60q9 -2 19 -2q31 0 72 21q55 29 55 42q0 5 -7 8t-22 3q-20 0 -46.5 12.5t-56 31.5t-34.5 22q-20 15 -47 -6q-20 -13 -20 -23.5zM442 899q-5 -13 -4 -21q0 -8 5 -8q10 -1 53 15q55 19 101 20q63 0 110 -37q36 -27 51 -27q4 0 7 2q6 5 -13 27 q-19 23 -58 50q-47 34 -117 34q-13 0 -27 -2q-88 -8 -108 -53zM446 774q8 -36 25 -43q18 -1 49 12t65 31t46 23q37 15 38 29q0 10 -20 10q-9 0 -39 6q-5 2 -15 2q-21 0 -65 -8q-66 -10 -79 -19q-9 -4 -9 -20q1 -9 4 -23zM580 463q2 -11 44 -13h8q34 0 36 13q3 5 -11 9 q-18 4 -34.5 4t-33.5 -4q-11 -2 -11 -6q0 -1 2 -3zM794 794q1 -15 37 -49q31 -29 63 -40q16 -6 28.5 -5.5t21.5 5.5q15 10 15 20q0 14 -23 14q-19 0 -38 8t-45 24.5t-32 19.5q-16 9 -23 9q-5 0 -4 -6z" />
<glyph unicode="F" horiz-adv-x="1230" d="M62 890v14q0 56 28 116q31 64 64 80q27 13 88 13q15 0 32 -1q86 -3 148 -3q136 0 156 15q11 8 77.5 24.5t124.5 25.5q35 5 70 4q74 0 150 -20q114 -31 145 -85q25 -41 25 -133.5t-25 -177.5q-7 -28 -61 -50q-43 -17 -84 -17q-10 0 -19 1h-55v-98q-2 -105 -20.5 -155.5 t-69.5 -84.5q-36 -24 -62 -30q-17 -4 -50 -3q-18 0 -40 1l-96 4v-84q0 -54 -7.5 -76t-33.5 -53q-37 -44 -102 -44h-3q-67 1 -108 42l-45 41v563q-11 1 -39 3.5t-38 3.5t-31 5t-31.5 9.5t-24 15.5t-23.5 24q-36 48 -40 110zM117 879q0 -31 26.5 -56t89.5 -53q36 -17 54 -17 q5 -1 9 1q16 6 15 47q0 32 -7.5 40.5t-37.5 14.5q-45 11 -88 37t-52 24t-9 -38zM162 1054q0 -6 8 -14q16 -16 16 -53q0 -31 27.5 -47.5t99.5 -28.5q45 -8 57.5 -20.5t-5.5 -34.5q-16 -23 -19 -274v-69v-54q1 -47 4.5 -85.5t8 -57t15 -30.5t22.5 -15t32 -3q58 0 94.5 46 t36.5 120q0 38 -8 53t-39 33q-47 27 -47 48q-1 31 35 28q30 -2 71 -33q81 -63 149 -71q10 -1 19 -1q55 0 88 41q48 56 48 96q0 24 -17 42q-38 40 -126 48q-18 2 -34 2q-62 0 -94 -26q-23 -19 -31 1q-10 22 13 48l2 2q31 33 34 71v9q0 35 -20 80q-21 48 -21 66q0 4 1 6 q7 12 31.5 9.5t41.5 -17.5q22 -19 153 -62t167 -43q41 0 96 44.5t55 78.5q0 32 -35 62t-90 45q-86 25 -167 25q-59 0 -115 -13q-115 -29 -197 -37q-47 -5 -101 -5q-40 0 -85 3q-52 3 -89 3q-84 0 -85 -16zM352 182q0 -20 9 -29t34 -14q30 -6 54 -6q83 0 83 74q0 28 -9 30.5 t-40 -14.5q-22 -13 -61 -13q-8 0 -16 1q-36 2 -45 -3t-9 -26zM600 379h100q55 0 77.5 4.5t37.5 18t37 51.5q14 25 -2 23q-12 -2 -39 -21q-25 -17 -75 -17q-44 0 -107 13q-8 2 -13 -2t-7.5 -13t-4 -18t-2.5 -21.5t-2 -17.5zM688 854q3 -26 51 -29q47 -3 84 -28 q38 -27 121 -43q44 -9 73 -9q25 0 38 7q22 10 37 39q9 17 9 27q0 7 -5 11q-2 3 -13 3q-18 0 -61 -7q-32 -5 -65 -5q-90 0 -197 38q-50 18 -66 18q-5 0 -6 -2q-2 -2 -2 -7t2 -13z" />
<glyph unicode="G" horiz-adv-x="1339" d="M62 406v17q0 86 28 169q20 62 20 86q0 6 -1 10q-6 13 15 37.5t21 32.5q0 30 45.5 103t99 134.5t75.5 61.5q14 0 32 18q54 41 186 57q52 7 98 7q69 0 122 -15q62 -15 127 -77q42 -39 64.5 -50.5t54.5 -9.5h7q49 0 98 -27q51 -28 73 -71q32 -60 41 -91q7 -21 7 -32 q0 -5 -1 -8q-4 -10 -12.5 -35.5t-8.5 -63.5t-35.5 -76t-72.5 -38q-22 0 -77.5 26.5t-61.5 28.5q-11 0 -15 -184q-2 -69 -5.5 -110t-10.5 -74t-22 -52t-34.5 -32.5t-52.5 -26.5q-69 -26 -286 -31h-67q-163 0 -228 19q-88 26 -120.5 49.5t-64.5 83.5q-35 69 -38 164zM118 446 q-8 -2 -8 -20q0 -20 10 -60q7 -30 19 -63q29 -82 50 -102.5t96 -42.5q68 -21 118 -24h27q58 0 182 7l226 13q26 18 60 70q24 34 24 49q0 8 -9 10q-9 0 -94 -45q-61 -31 -94 -38t-123 -7q-356 0 -446 202q-23 51 -36 51h-2zM175 644q-3 -30 -3 -58q0 -76 21 -127 q20 -51 76.5 -102.5t121.5 -77.5q62 -25 212 -27h17q136 0 181 24q87 42 125 148q20 54 20 103q0 48 -18 91q-21 47 -52 69.5t-98 37.5q-47 11 -74 11t-65 -11q-53 -14 -66 -32t5 -58q15 -34 49 -43q9 -2 19 -2q25 0 52 16q44 23 50 23q6 -7 4.5 -50.5t-10 -100t-17.5 -72.5 q-26 -54 -150 -54q-79 0 -119.5 19.5t-72.5 74.5q-39 66 -39 150q0 88 41 149q63 93 159 147t199 54q43 0 136.5 -52t124.5 -93q14 -20 36 -40.5t41 -29.5q31 -17 43.5 -17t38.5 17q48 31 48 70q0 42 -56 102q-31 32 -47.5 37.5t-60.5 -0.5q-25 -3 -45.5 -9t-22.5 -11 q-4 -11 -15 -14t-20.5 3t-9.5 17q0 12 -35.5 70.5t-36.5 60.5q-3 10 -116 23q-82 8 -127 8q-18 0 -31 -1q-43 -6 -107.5 -27t-81.5 -34q-47 -36 -98.5 -94.5t-77.5 -104.5q-38 -66 -48 -183zM399 604q2 -2 6 -2q14 0 53 30q50 39 56 62q0 30 48 55t107 31q25 3 48 3 q33 0 63 -5q34 -8 54.5 -15t29 -11.5t29.5 -17.5t39 -23t34 -27.5t19 -28.5q6 -22 25 -18q15 6 61 -14q42 -23 71 -23q38 0 52 41q8 24 8 36q0 6 -2 9q-7 8 -41 -4q-20 -8 -41 -8q-67 0 -149 80q-144 137 -258 137q-49 0 -135 -43t-123 -86q-28 -33 -47 -90q-12 -33 -12 -51 q0 -12 5 -17zM422 518q0 -22 28.5 -60t53.5 -48q34 -15 78 -15t59 15q21 22 13.5 29.5t-46.5 4.5q-27 -2 -46 7t-29.5 20.5t-18 37.5t-10 41.5t-6.5 49.5q-3 -3 -26 -23.5t-36.5 -35.5t-13.5 -23zM562 524q-1 -2 -1 -4q0 -9 17 -26q16 -16 50 -16h4q37 1 44 20q2 5 2 9t-2 7 q-6 4 -23 4q-29 0 -61 8q-11 3 -18 3q-10 0 -12 -5z" />
<glyph unicode="H" horiz-adv-x="1122" d="M61 178q0 47 17 101t41 83q39 48 39 110v12q-4 70 -58 186q-24 49 -30 82q-4 21 -3 62q0 22 1 50q3 93 16 135.5t39 42.5q18 0 31 21q10 17 90 43q45 13 91 13q28 -1 56 -5q76 -12 137.5 -44t77.5 -64l19 -35q20 66 80 137q34 39 53 49.5t61 13.5q27 2 48 2q37 1 61 -5 q36 -8 61 -35q37 -39 37 -100q0 -48 -22 -109q-28 -81 -28 -150v-17q4 -76 44 -151q38 -72 41 -130q0 -6 1 -11q0 -57 -26 -156q-26 -111 -56 -159t-85 -70q-37 -14 -58 -15t-55 9q-44 14 -69 52.5t-37 113.5q-6 39 -12.5 47t-26.5 2q-16 -6 -96 -19q-50 -6 -60.5 -14 t-13.5 -43q-9 -109 -61 -161q-50 -50 -139 -50h-7q-98 1 -148.5 46t-50.5 130zM118 870q0 -5 -1 -10q0 -32 8 -75q9 -51 25 -97q41 -111 58 -111v0q6 1 6 16q0 26 -18 94q-8 27 -18 58q-33 105 -33 132q0 28 -14 28q-11 -1 -13 -35zM144 258q0 -5 -1 -9q0 -57 27 -81 q22 -20 80 -24q10 -1 19 0q44 0 71 14q23 12 52.5 69t29.5 88q0 23 -35 99q-22 44 -22 66q0 16 12 19q10 3 29 -7t108 -21q25 -3 46 -3q40 0 70 10q48 14 58 46q26 33 39 17q11 -14 4 -62q-3 -19 -6.5 -39t-5 -27t-1.5 -20t2 -26t7 -37q10 -41 50.5 -64.5t96.5 -23.5 q46 0 67.5 26.5t41.5 108.5q16 71 16 94t-14 51q-24 59 -45 137q-19 69 -19 96.5t17 96.5q22 82 26 157q1 13 0 24q0 54 -14 69q-15 15 -86 22q-20 2 -34 2q-22 0 -32 -4q-16 -6 -50 -41q-40 -43 -58 -101q-11 -35 -11 -67q0 -21 5 -41q10 -39 29 -89t30 -68q15 -24 -7 -25 q-22 0 -56 25q-44 32 -103 32l-1 -1q-60 0 -87 -31q-9 -12 -23.5 -21.5t-23.5 -9.5q-32 0 -18 47q12 38 51 86q52 67 65.5 96.5t4.5 55.5q-25 65 -129 91q-45 11 -88 11q-57 0 -111 -20q-67 -25 -67 -31q0 -16 57 -178q47 -132 57 -204q4 -26 3 -50q1 -43 -11 -81 q-18 -59 -78 -140q-32 -45 -34 -109zM158 90q0 -12 39 -27.5t71 -15.5q56 0 88 22q24 16 24 42q0 9 -3 18q-78 -31 -110 -39t-62 -2q-20 5 -33 5.5t-14 -3.5zM451 401q1 -2 6.5 -12t8 -13.5t8 -12t9.5 -12.5l10.5 -10.5t12.5 -9t14 -5t17 -2.5q37 0 78.5 21.5t41.5 41.5v31 q0 9 -6 12t-13.5 0t-10.5 -12q-1 -10 -31 -14q-26 -3 -70 -4h-14q-54 0 -61 1zM546 822q0 -13 13 -14q9 0 12.5 7t0 14t-12.5 7q-13 0 -13 -14zM602 905q-1 -6 3 -19.5t10.5 -23.5t11.5 -6q-2 29 -18 51q-3 5 -5 5t-2 -7zM738 200q-5 -2 -5 -9q0 -10 8 -29q0 -24 45 -30 q20 -3 41 -2q25 0 51 4q48 8 56 22q26 22 26 30q0 5 -7 6q-13 1 -44 -10q-28 -10 -48.5 -9t-59.5 15q-41 13 -57 13q-4 0 -6 -1z" />
<glyph unicode="I" horiz-adv-x="874" d="M61 219q0 71 14.5 131.5t30.5 71.5q21 15 74 81t84 85q24 14 43.5 34t24.5 33q2 6 2 14q0 25 -18 65q-22 52 -48 71q-18 12 -22 34q-3 15 -3 52q0 16 1 37q2 62 6 85t16 27q9 3 18.5 0.5t10.5 -8.5q4 -15 24 -15.5t27 13.5q4 6 1 16.5t-11 18.5q-16 20 -20 85 q-1 15 -1 27q0 43 9 62q15 27 53 43q34 20 57 22h9q22 0 57 -10q47 -11 53 -2q4 8 18 8q25 0 83 -28q88 -42 118 -84q22 -31 22 -64q0 -7 -1 -14q-4 -45 8 -47q12 -8 12 -39q0 -14 -2 -33q-6 -59 -19 -77.5t-47 -18.5q-36 0 -43 -10q-8 -5 -12 -121q-2 -83 -8 -104t-39 -48 q-21 -18 -32.5 -30t-8.5 -13q6 -6 76 -51q48 -33 63 -52.5t25 -66.5q9 -40 8 -70q0 -33 -12 -87q-17 -76 -38.5 -104.5t-84.5 -59.5q-40 -20 -80.5 -25.5t-152.5 -5.5q-194 0 -269.5 37.5t-75.5 134.5zM119 295q-5 -24 -5 -45q0 -30 10 -56q16 -45 60 -63q42 -19 220 -20h19 q161 0 200 16q30 12 60 50.5t30 64.5q0 12 -47 -19q-48 -35 -125 -53q-53 -12 -100 -13q-22 0 -42 3q-41 5 -55 6.5t-32 7.5t-23 10t-30 19l-50 30zM176 399q-1 -10 -1 -19q-1 -42 25 -70q32 -34 109 -60q69 -22 129 -22t135 20q83 22 118 72q20 29 20 58q0 22 -11 43 q-26 51 -104 77q-37 10 -63.5 53.5t-28.5 93.5q0 25 47.5 95t77.5 89q14 8 12.5 41t-18.5 56q-8 11 -31 24.5t-47 20.5q-51 15 -107 17h-11q-46 0 -54 -13q-3 -5 -1 -11.5t7 -9.5q13 -7 35 -82t24 -118q0 -4 1 -8q0 -35 -17 -81q-18 -51 -33 -51q-29 -15 -80.5 -60 t-91.5 -75q-32 -26 -41 -80zM297 893q0 -26 10 -44t22.5 -26t25.5 -20.5t18 -28.5q4 -12 6.5 -15.5t4.5 -1t5 12.5v5q0 26 -31 87q-39 76 -51 76q-10 0 -10 -45zM383 1126q0 -37 14 -48t71 -27q17 -4 26 -7q69 -19 118 -49q69 -43 118 -43q24 0 24 15q0 7 -6.5 13.5 t-14.5 6.5t-26 12t-33 27q-34 34 -62.5 46t-126.5 34q-22 4 -48 9.5t-39.5 8t-14.5 2.5zM397 1210q3 -23 111 -43q103 -21 162 -61q34 -23 46.5 -27.5t20.5 4.5q7 12 7 29q0 11 -3 25q-8 34 -28 41q-31 10 -56 32q-12 10 -49 19.5t-87.5 18t-55.5 9.5q-4 2 -9 2 q-14 0 -34 -14q-28 -20 -25 -35zM562 634q-1 -5 -1 -9q0 -9 4 -11q25 0 51.5 28t26.5 56q0 38 -15 38q-12 0 -32 -21q-11 -13 -21.5 -38t-12.5 -43z" />
<glyph unicode="J" horiz-adv-x="983" d="M61 184q6 69 9 98t16.5 72.5t36.5 71.5l41 63h86q71 0 95 -13.5t24 -55.5q0 -34 28 -70q2 -3 6 -7q19 -21 24 -19q4 2 16 19l1 1q15 19 14.5 24.5t-14.5 8.5q-12 3 -15 11t1 28q4 16 4 30q0 19 -8 34q-12 25 -53 50l-49 31l8 107q8 108 47 196t94 119q33 17 40 31t7 61 q0 63 16.5 94t57.5 48q47 18 94 18q12 0 24 -1q58 -6 105 -40t57 -82q4 -17 12.5 -29t16.5 -12q17 0 17 -30.5t-17 -90.5q-14 -48 -32 -67.5t-42 -10.5q-11 5 -11 -1q0 -5 9 -29q13 -40 13 -103v-24q-2 -75 -25.5 -121.5t-66.5 -56.5q-25 -6 -33.5 -25t-20.5 -94 q-5 -34 -43 -164q-22 -69 -37 -95.5t-43 -43.5q-75 -43 -161 -58q-36 -6 -71 -6q-49 0 -96 11q-82 21 -132 77zM129 227q0 -11 10 -34q14 -32 78 -54q24 -9 46 -14.5t37.5 -9t36.5 -3.5h30t32.5 4.5t29.5 6t35 9t36 9.5q-26 -2 -51 -2q-69 0 -140 17q-97 24 -153 63 q-26 27 -27 8zM147 354q0 -42 25 -65t104 -56q70 -28 125 -28q14 0 27 2q57 9 117 42.5t69 63.5q11 34 11 334q110 85 133 125q7 13 7 29q0 31 -25 72q-38 64 -72 73q-17 4 -39.5 7.5t-56.5 6t-56 -4t-22 -23.5q0 -10 -6.5 -18.5t-14.5 -8.5q-40 -5 -46 -71q-2 -18 -2 -37 q0 -48 11 -96q16 -67 31 -87q9 -6 35 -98q15 -61 16 -86q1 -3 1 -6q0 -25 -11 -64q-11 -40 -32 -63.5t-44.5 -26.5t-46.5 13.5t-39 52.5q-33 79 -45.5 96t-34.5 17q-34 0 -80 -31q-40 -28 -40 -56q0 -4 1 -8zM369 645q0 -37 4.5 -48t21.5 -11q19 0 21 8t-8 39q-19 56 -30 56 h-1q-8 -3 -8 -44zM520 158q-13 -7 -13 -11t17 -4q21 0 31 15q8 15 -5 13q-10 -1 -30 -13zM575 1063q0 -22 68 -57q46 -25 65 -25q10 0 13 6q3 5 -7.5 15.5t-33.5 24.5t-53 28q-50 19 -52 8zM606 1155q3 -20 25 -38t78 -46q85 -46 109 -46q3 0 5 1q23 8 15 48.5t-37 68.5 q-38 36 -79 45q-10 2 -19 2q-26 0 -37 -19q-10 -17 -17 -17.5t-24 13.5q-15 14 -19 13q-1 -1 -1 -8q0 -6 1 -17zM677 592q-4 -11 -4 -19q0 -13 11 -20q2 -1 4 -1q14 0 50 39q43 46 50 75q12 41 -10 33q-17 -6 -53 -42q-37 -37 -48 -65zM758 947q3 -3 14 -7q16 -6 32 -6 q8 0 16 2q24 5 30 22q1 2 1 4q0 9 -15 11q-4 1 -8 1q-22 0 -52 -13q-13 -5 -16 -8q-3 -2 -3 -3q0 -2 1 -3z" />
<glyph unicode="K" horiz-adv-x="1118" d="M61 218v8q0 50 35 110q20 32 30.5 74.5t35.5 70.5q17 19 36.5 55t29.5 64.5t1 28.5q-11 6 -28.5 42.5t-36.5 43.5q-13 4 -23 15.5t-10 19.5q0 16 -16 16t-6 47q1 4 7.5 45t10.5 60q9 51 37.5 79.5t97.5 53.5q39 11 78 11q28 0 55 -6q66 -14 115 -58.5t49 -98.5 q0 -23 17 -16q15 6 53 37q48 41 65 41t17 14q0 15 72.5 48.5t107.5 33.5q43 0 90.5 -20.5t60.5 -45.5q15 -30 15 -174q0 -53 -1 -79.5t-8 -52.5t-15.5 -35.5t-32.5 -17.5t-48 -9t-73 -2q-186 -4 -202 -11q-7 -3 -7 -14q0 -17 50.5 -62t70.5 -45q15 0 30 -26q3 -15 62.5 -54 t62.5 -51q4 -13 32.5 -64t31.5 -89q3 -23 3 -40q-1 -15 -3 -25q-6 -20 -35 -54q-31 -38 -49.5 -45.5t-81.5 -7.5q-56 0 -82 7t-60 32q-55 39 -72.5 64t-25.5 71q-14 78 -82 115q-22 11 -31 13t-12.5 -2.5t-3.5 -19.5q0 -26 -20.5 -108.5t-34.5 -110.5q-25 -46 -99 -66 q-32 -9 -63 -9q-39 0 -76 14q-13 4 -35 25.5t-41 47.5q-42 58 -45 112zM131 164q0 -12 50 -51t73 -45q11 -3 22 -2q24 0 50 12q38 18 51 47q17 40 13 42q-4 1 -23 -9q-26 -14 -117.5 -14t-91.5 14q0 7 -6.5 11t-13 2.5t-7.5 -7.5zM148 810q4 -19 38 -48q34 -28 49 -28 q11 0 11 15q0 26 -31 103q-10 26 -20.5 37t-20 6t-16.5 -25q-12 -32 -12 -50q1 -6 2 -10zM150 291v-6q0 -24 28 -52q37 -37 93 -37h5q60 2 97 42q32 35 43 69q4 17 4 37q0 22 -4 48q-8 50 -29 71q-21 23 -21 37t19 22q4 2 13 1q24 0 78 -14q74 -20 97 -38q17 -12 49.5 -82.5 t32.5 -95.5q0 -10 37 -57q25 -28 43 -32q10 -2 33 -3q21 0 53 2q87 4 109 20q11 8 11 25q0 14 -9 35q-19 43 -43 57q-19 10 -114 84t-116 84q-53 26 -81 89q-17 38 -16 70q0 21 7 40q8 22 70.5 34.5t163.5 12.5q82 0 107.5 4.5t47.5 23.5q58 58 58 125q0 29 -37.5 61.5 t-71.5 32.5q-37 0 -103 -26t-89 -51q-54 -57 -172 -150q-37 -28 -50 -30.5t-38 14.5q-45 29 -45 75q0 34 24 76q8 13 14.5 27t9 22t1.5 9t-6 3.5t-13.5 7.5t-15.5 9q-28 13 -87.5 13t-82.5 -13q-15 -9 -15.5 -22t13.5 -62q28 -98 28 -190q0 -30 -3 -59q-12 -119 -72 -208 q-13 -19 -21.5 -34t-14 -32.5t-7.5 -24.5t-6 -31.5t-6 -32.5zM463 428q0 -49 90 -49q13 0 13 4q0 5 -36 37q-47 38 -58 38h-2q-7 -3 -7 -30zM474 822q12 -23 29 -8q5 4 9 11q1 5 1 11q0 28 -19 75l-15 -30q-11 -18 -11 -35q0 -12 6 -24zM618 676q-4 -11 -4 -18q0 -10 6 -12 q11 -4 39 11q34 19 175 19q142 3 153 22q7 10 7 19q0 3 -2 7q-4 12 -16 12.5t-26 -13.5q-18 -18 -139 -21q-162 -4 -178 -10q-11 -3 -15 -16zM705 137q41 -25 76 -37q28 -9 65 -9q10 0 20 1q44 3 59.5 9t22.5 26q6 16 6 24q0 5 -3 5h-1q-16 -2 -245 -19z" />
<glyph unicode="L" horiz-adv-x="1005" d="M62 258q2 10 10 10q6 0 10 6.5t4 14.5q0 18 49 71q50 56 56 86q1 5 1 10q0 28 -28 74q-16 25 -28 53t-30 46q-20 23 -20 178q0 111 5 143.5t28 65.5q29 42 66 64q25 15 45 15q9 0 18 -3q13 -4 16 -7t-2 -8.5t-22 -15.5q-72 -49 -98 -106q-21 -46 -20 -117q0 -17 1 -35 q3 -56 18 -97.5t70 -146.5q34 -62 34 -95q0 -6 -1 -11q-11 -39 -36 -84t-52 -72q-33 -33 -17 -39q7 -1 12 -11.5t5 -21.5q0 -30 63 -55q41 -16 73 -20q15 -2 39 -2q28 0 68 2q36 2 73 8t57.5 11t58 16t49.5 14q17 1 100.5 51t98.5 53q38 5 54 39q8 16 8 33t-9 33 q-20 37 -46.5 59t-51.5 22q-19 0 -63.5 -24.5t-59.5 -44.5q-4 -5 -56 -34.5t-55 -37.5q-10 -12 -62 -12h-22q-34 2 -72.5 38t-38.5 68q0 27 64.5 99.5t89.5 72.5q8 0 28 13.5t36 31.5q62 66 71 114q2 9 2 17q-1 39 -35 77q-42 46 -145 106q-72 41 -114 68t-57.5 41t-12.5 20 q6 9 13 9h2q8 -2 26 -19q21 -12 75 -25.5t91 -40.5q67 -46 120 -72q24 -10 38 -24.5t14 -26.5q0 -21 12 -33q21 -10 47 -110q20 -76 20 -116q0 -12 -2 -21q-8 -43 -48 -79.5t-89 -45.5q-34 -6 -84.5 -45.5t-50.5 -61.5q0 -25 52 -4q58 23 100 68q19 22 44.5 31t39.5 24 q19 20 75 20h2q53 0 80 -20q77 -57 77 -146q-1 -6 -1 -12q-6 -96 -94 -168q-84 -68 -136 -92.5t-184 -58.5q-93 -24 -190 -25h-8q-91 0 -152 21q-59 20 -75.5 39t-22.5 71q-2 36 -17 92q-2 10 -2 18q0 5 1 9zM127 131q58 -59 174 -71q28 -3 56 -2q90 0 184 30q99 33 115 52 q8 9 -28 1l-10 -2q-164 -43 -258 -48q-13 -1 -25 -1q-77 0 -136 27q-51 25 -66 25q-4 0 -5 -2q-1 -3 -1 -9zM430 424q6 -11 11 -11q7 0 12 19q9 28 65.5 71t95.5 50q39 9 62 49q14 26 14 46q0 11 -5 20q-4 7 -10 7q-9 0 -22 -16q-11 -18 -53.5 -44t-50.5 -33 q-29 -29 -66 -52q-60 -42 -60 -80q0 -13 7 -26z" />
<glyph unicode="M" horiz-adv-x="1353" d="M64 664q0 13 -1 25q0 145 17 202q7 26 41 80.5t39 68.5q10 24 63 46q36 15 67 15q14 0 27 -3q91 -23 134.5 -51.5t115.5 -120.5q15 -19 33.5 -41.5t28 -34t10.5 -12.5t5 3.5t9.5 15t10.5 22.5q17 45 63 106q66 92 178 109q22 3 43 3q84 0 144 -55q6 -6 31 -27t36 -32 q23 -22 30.5 -33.5t15 -30t24.5 -42.5q63 -91 65 -217v-8q0 -122 -55 -234q-27 -60 -37 -115q-10 -75 -38.5 -110t-84.5 -43q-27 -4 -67 -4q-28 0 -62 2q-82 5 -94 16q-8 8 -8 133q0 45 -1 67t-3 36.5t-7 14.5t-12 -1q-59 -25 -162 -44q-82 -15 -127 -15q-12 0 -22 1 q-15 1 -28 1q-91 0 -91 -74q0 -37 -21.5 -60.5t-70.5 -42.5q-29 -11 -54 -11q-37 0 -65 23q-48 39 -53 101q0 44 -45 156q-20 51 -22 215zM118 722.5q0 -111.5 21 -181.5q7 -22 14.5 -61.5t17 -60t30.5 -32.5q11 -3 19.5 -14t8.5 -21q1 -32 27 -34h4q26 0 66 24 q49 28 65.5 75.5t18.5 164.5q1 55 2.5 82.5t5.5 46t11 23.5t20 5q28 0 43 -22t8 -53q-3 -13 -4 -25q0 -39 35 -63q45 -32 139 -31q144 0 245 76q65 50 89 50q7 0 10 -4q3 -3 3 -9q0 -22 -48 -80q-49 -57 -49 -109q0 -46 -13 -76q-9 -17 -9 -37q0 -13 4 -26q9 -35 34 -47 q17 -8 38 -8q23 0 53 9q57 18 91 56q88 101 100 275q2 24 1 47q0 142 -62 237q-30 46 -53 66.5t-84 58.5q-47 29 -88 29q-4 -1 -8 -1q-44 -4 -111 -46q-33 -21 -51 -44.5t-35 -68.5q-30 -93 -33 -139q-6 -81 -51 -84q-2 0 -7 9t-10.5 26t-9.5 34q-9 43 -58.5 114t-57.5 91 t-18.5 27t-27.5 13.5t-32 21.5q-27 28 -77 44q-38 13 -68 12q-9 0 -17 -1q-33 -4 -67.5 -49.5t-53.5 -108.5q-21 -69 -21 -180.5zM202 263q-1 -6 17 -21q12 -10 38 -10q14 0 32 3q51 8 51 25q0 16 -70 16q-68 -2 -68 -13zM477 459q1 -20 2.5 -31t8.5 -16.5t11 -7t21 -3 t27 -2.5q4 -1 9 -1q33 0 123 22q104 26 142 45q42 23 17 30q-19 5 -96 5h-48h-43q-114 0 -135 14q-12 10 -20 10q-12 0 -16 -22q-3 -15 -3 -43zM907 221q0 -13 20 -17t95 -9q9 -1 18 -1q25 0 41 7q22 9 29.5 20.5t17.5 36.5q0 10 -12 10t-22 -10q-17 -17 -68 -28 q-30 -6 -52 -6q-16 0 -28 3q-39 11 -39 -6z" />
<glyph unicode="N" horiz-adv-x="1067" d="M98 1042q22 24 46 30q20 5 86 5h26q93 -2 121 -8t76 -39q75 -53 98.5 -77.5t54.5 -84.5q35 -70 49 -70q8 0 10 22q1 8 1 20q0 71 24 147t76 98q6 2 17.5 7t14.5 6.5t11 4.5t10 3h9q2 0 3 1q4 1 7 -1t10 -4t13 -4.5t16 -7.5q27 -12 43.5 -34.5t40.5 -78.5q44 -100 44 -216 q0 -111 -40 -237q-42 -125 -68 -215q-29 -91 -50.5 -120.5t-76.5 -57.5q-50 -24 -96 -24q-12 0 -25 2q-66 11 -87 37t-21 98q0 47 -9 82.5t-34 85.5q-52 102 -69 114q-16 11 -38 -20q-3 -3 -6 -8q-13 -20 -13 -48q0 -17 5 -38q8 -38 12 -154v-14q0 -83 -22 -116 q-24 -36 -109 -67q-60 -23 -77 -23h-1q-17 0 -53 19q-30 16 -40 36t-6.5 59t23.5 122q23 92 27 244v23q0 77 -6 119q-7 49 -33 131q-32 99 -32 151q0 54 38 100zM108 904q6 -85 46 -173q31 -69 31 -206v-25q-3 -156 -40 -277q-5 -15 4.5 -19.5t45.5 -4.5q95 0 129 54 q17 28 17 68q0 37 -15 85q-29 96 -29 163q0 62 25 99q31 44 52 52q5 2 10 2q20 0 52 -20q77 -52 103 -192q6 -30 24.5 -83t18.5 -87q0 -25 30 -56t62 -38q9 -2 20 -3q26 1 60 15q49 20 49 39q0 13 55 129q79 161 79 341q0 34 -3 69q-15 167 -88 206q-21 12 -32 12 q-3 0 -6 -2q-11 -4 -44 -44q-43 -51 -51 -129q-7 -63 -7 -131v-30q2 -84 13 -126q6 -19 6 -32q0 -20 -12 -30q-20 -14 -32.5 -1.5t-29.5 65.5q-7 25 -36.5 98.5t-36.5 104.5q-15 67 -90.5 136.5t-157.5 92.5q-33 9 -81 9q-13 -1 -29 -1q-68 -4 -87 -18q-27 -22 -27 -85 q1 -13 2 -27zM127 131q-3 -3 -3 -6q0 -8 21 -16q7 -2 18 -3q31 0 95 18q88 24 88 42q0 9 -2.5 13t-9 4t-17 -4.5t-26.5 -14.5q-32 -17 -79 -17h-15h-11q-45 0 -59 -16zM345 610q0 -36 16 -34q5 0 12 6t22.5 7.5t29 1t23.5 2t7.5 13.5t-19.5 33q-18 21 -42 27q-8 2 -14 2 q-14 0 -24 -9q-11 -5 -11 -49zM583 204q-2 -2 -2 -5q0 -9 19 -25q24 -19 64 -22q7 0 13 -1q33 0 64 13q53 22 58 39q1 2 1 3q0 4 -8 4h-4q-8 0 -20 -3q-41 -11 -79 -11q-35 0 -68 9q-31 9 -38 -1z" />
<glyph unicode="O" horiz-adv-x="968" d="M70 457q14 58 14 127q0 55 26 144.5t60 156.5q24 43 74.5 86.5t115.5 75.5q50 25 104 25q77 0 163 -50q50 -30 82.5 -44t81.5 -46q64 -41 90 -103.5t26 -173.5q0 -81 -11.5 -119.5t-68.5 -154.5q-42 -86 -85 -127t-109 -61q-68 -19 -188 -21q-8 0 -16 -1q-108 0 -169 19 q-198 61 -198 204q0 30 8 63zM126 393q2 -23 12.5 -54t21.5 -42q55 -61 283 -62q11 0 22 1q115 2 185.5 18.5t70.5 42.5q0 9 -5 12t-13 0t-17 -12q-18 -17 -104 -25q-42 -4 -82 -5q-42 0 -82 5q-78 9 -130.5 34t-109.5 79q-39 35 -47 35q-5 -3 -5 -18v-9zM153 627 q-2 -22 -2 -41q0 -36 7 -56q2 -5 7.5 -24t8.5 -27q15 -49 125 -103.5t209 -62.5q23 -2 41 -2q27 0 41 4q24 6 78 37q24 14 42 27t33.5 30t23.5 26.5t25.5 34t26.5 36.5q25 31 35 104q5 37 5 72q0 33 -5 63q-15 88 -139 175q-53 39 -67 39q-2 0 -4 -1q-5 -4 -5 -18 q0 -23 -14 -22q-18 2 -29 32q-9 24 -50.5 51t-70.5 27q-22 -2 -67.5 -17.5t-55.5 -25.5t-30 -10q-32 0 -79 -69.5t-69 -147.5q-16 -64 -21 -131zM293 662q0 32 11 53.5t48 58.5q58 58 78 66q25 10 52 10q38 0 78 -20q69 -32 83 -91q4 -16 3 -32q0 -67 -66 -134 q-38 -38 -38 -50q0 -6 9 -7q1 0 2 1q18 1 65 24q52 26 58 11q1 -2 1 -4q0 -10 -20 -30q-31 -31 -123 -38q-20 -2 -37 -2q-64 0 -100 20q-46 25 -75 71t-29 93zM348 655q0 -22 9 -33t34 -20q42 -15 73 -15q10 0 20 2q36 7 77 44q42 39 46 63v6q0 22 -27 46q-44 40 -78 47 q-8 2 -16 2q-26 0 -52 -17q-86 -54 -86 -125z" />
<glyph unicode="P" horiz-adv-x="878" d="M61 489q-1 35 -1 64q0 81 4 122q6 56 28 134q26 106 26 143q0 7 -1 11t-1 8q0 28 34 56q40 32 112 54q57 16 118 16q68 1 140 -19q138 -38 223 -128q52 -52 65 -102q8 -31 8 -86q0 -34 -3 -78q-9 -171 -104 -272q-24 -26 -82 -44.5t-125 -23.5q-43 -2 -56 -11.5 t-26 -51.5q-25 -75 -56.5 -99t-103.5 -24q-140 0 -178 96q-6 14 -13 84.5t-8 150.5zM123 528q1 -75 9 -99t44 -64q52 -57 95 -56q40 0 73 49q30 45 30 81q0 30 -22 53q-14 16 -15.5 33.5t9 26t27.5 1.5q70 -30 134 -30q21 0 39 3q82 12 144 74q34 34 46 57.5t18 69.5 q4 26 4 46q0 16 -2 27q-6 27 -33 77q-30 57 -52 75t-110 54q-97 40 -147 46q-11 1 -23 1q-40 0 -86 -15q-68 -22 -88.5 -39t-13.5 -45q8 -34 -13 -43q-40 -15 -56 -103q-12 -66 -13 -192q1 -41 2 -88zM139 268q1 -20 51 -38q43 -15 81 -15h12q37 3 48.5 10t12.5 27 q3 22 0 24.5t-22 -6.5q-26 -14 -68.5 -14.5t-50.5 12.5q-5 9 -20.5 12t-29.5 0t-14 -12zM288 850q16 48 72 76q25 12 52 18q10 2 21 3q17 0 33 -6q28 -9 40 -36q17 -38 17 -63q0 -5 -1 -10q-4 -28 -39 -58l-43 -39l52 13q48 7 48 -3q1 -2 -1 -6q-7 -23 -61 -37 q-32 -9 -57 -8q-17 0 -32 4q-61 18 -89 62q-18 28 -17 57q-1 16 5 33zM350 831q-1 -10 -1 -17q1 -10 3 -14q4 -6 29 -5q41 0 65.5 16.5t24.5 44.5q-1 28 -17 32q-4 1 -9 2q-18 0 -56 -11q-36 -9 -39 -48zM446 438q3 -27 14 -33.5t58 -9.5q11 -1 21 -1q144 0 163 120 q1 6 1 10q1 5 -1 6h-2q-4 0 -12 -8q-15 -15 -74 -31t-104 -16q-50 0 -58 -5q-6 -4 -6 -19q-1 -6 0 -13z" />
<glyph unicode="Q" horiz-adv-x="1159" d="M64 624q-1 5 -1 13q0 10 2 24q3 26 15 76q17 63 36 97.5t60 80.5q72 78 129 105q44 20 101 20q17 0 36 -2q23 -2 42 -2q49 0 69 15q26 19 39 19t96 -17q36 -7 74 -22t55 -27q36 -29 49 -29q17 0 90.5 -82.5t81.5 -110.5q13 -38 25 -47q23 -13 33 -171q3 -54 3 -97 q0 -82 -12 -123q-9 -33 -48 -78t-78 -67q-4 -5 -12.5 -7t-16 -2t-22.5 1t-21 2q-20 3 -29 3t-17.5 -2.5t-4.5 -12t20 -25.5q15 -15 16 -32t-10 -63q-14 -57 -40.5 -83.5t-71.5 -26.5q-54 0 -124 50t-122 126q-20 28 -33.5 35t-36.5 2q-6 -1 -14 -1q-44 0 -138 35 q-113 43 -151 81q-23 23 -38 87.5t-17 143.5q-1 43 -6 73.5t-8 40.5zM131 600q22 -53 79.5 -130t76.5 -77q6 0 51 -31q39 -29 121 -32q56 -2 71.5 -8.5t30.5 -36.5q32 -62 57.5 -91t67.5 -51q43 -22 54 -22.5t30 18.5q17 17 18 30t-10 46q-15 54 -47 90q-33 36 -33 60 q0 3 1 6q1 9 10 10q7 2 100 6q71 5 103 26.5t69 90.5q19 35 27 108q3 30 3 53q0 35 -7 58q-20 69 -116 154t-188 114q-66 22 -86 23h-1q-20 0 -46 -17q-28 -16 -139 -16q-161 0 -197 -74q-7 -14 -49.5 -68t-54.5 -96q-16 -49 -16 -70t20 -73zM131 451q-3 -14 -3 -28 q0 -33 18 -62q27 -41 80.5 -68t104 -43.5t109.5 -28.5q37 -7 43.5 -3.5t3.5 26.5q-3 22 -18 29.5t-70 11.5q-87 9 -127 39q-32 24 -46.5 43.5t-45.5 44.5zM324 546q-6 22 -6 45q0 33 12 68q14 41 41.5 66.5t99.5 60.5q38 18 81 18q21 0 44 -4q68 -15 123 -67 q30 -28 39.5 -47t9.5 -49q0 -37 -26 -85t-46 -48q-13 0 -49 41q-32 37 -73 39q-2 1 -5 1q-36 0 -55 -30q-10 -15 -6.5 -24.5t24.5 -26.5q21 -15 24.5 -25t-7.5 -20q-11 -12 -53 -12q-10 0 -21 1q-60 3 -98 23q-40 22 -53 75zM386 629q20 4 54 26q22 17 49.5 23t90.5 6 q62 0 83 4.5t21 16.5q0 8 -15 18t-36 14q-47 14 -88 14q-31 0 -59 -8q-64 -18 -99 -75q-14 -22 -14 -32q0 -9 13 -7zM414 542q-1 -6 -1 -11q0 -10 4 -17q7 -10 23 -10q20 0 13 26q-7 23 10 56q16 28 6 28h-1q-12 -2 -36 -36q-14 -18 -18 -36zM629 78q0 -14 62 -43 q51 -24 72 -24q4 0 7 1q17 6 30 28t5 30q-8 4 -41 -11q-23 -10 -36.5 -8.5t-39.5 15.5q-54 28 -58 17q-1 -2 -1 -5zM797 304q-2 -2 -2 -6t4 -9q5 -5 36.5 -14.5t73.5 -16.5q6 -1 12 -1q30 0 66 24q27 18 36 38.5t15 75.5q5 43 5 66q0 24 -6 24q-1 0 -2 -1q-6 -4 -15 -33 q-10 -33 -76 -80t-102 -47q-15 0 -28 -6t-17 -14z" />
<glyph unicode="R" horiz-adv-x="1099" d="M65 966q-6 14 -6 30q0 21 12 43q20 38 62 48q23 5 56 5q25 0 56 -3q71 -7 97 -24q56 -35 104 -40q9 -1 19 -1q44 0 108 18q103 29 195 29q65 0 90 -8t72 -43q34 -26 46.5 -42t23 -48t20.5 -53q17 -36 17 -138q0 -28 -1 -60q-6 -152 -32 -171q-22 -17 -64 -17h-4 q-46 1 -96 21q-64 24 -83.5 27.5t-33.5 -7.5q-17 -10 -5 -25q13 -15 79 -65q88 -63 88 -154q0 -18 -4 -38q-19 -118 -78 -144q-56 -24 -107 -24h-11q-56 3 -97.5 36.5t-50.5 86.5q-10 53 -25.5 70.5t-32 -5.5t-28.5 -80q-3 -16 -33 -59q-23 -29 -40 -36t-69 -7 q-84 0 -135.5 31.5t-62.5 87.5q-8 36 -2 61t38 86q43 84 47 142q1 7 1 15q0 54 -29 122q-30 68 -30 147q0 48 11 101q8 37 4.5 44t-30.5 7q-42 0 -56 34zM110 1009q-4 -7 -5 -13q0 -8 6 -12q11 -10 41 -9q37 0 54.5 -13t24.5 -47q6 -22 3 -30t-15 -8q-23 1 -31 -37 q-3 -16 -3 -38q0 -28 5 -64q10 -64 35 -142q21 -59 21 -97q0 -39 -27 -100q-32 -73 -37 -94.5t6 -46.5q10 -21 25.5 -26t69.5 -5q52 0 72.5 6t43.5 29q25 25 29 43q2 9 3 25q0 18 -3 45q-3 29 -13 59.5t-18 40.5q-22 23 -22 46.5t22 23.5q23 0 81.5 -32.5t80.5 -57.5 q17 -10 98 -166q0 -6 58 -13q18 -3 33 -3q29 0 49 12q18 11 18 32q0 14 -8 31q-17 39 -41 51q-40 13 -93.5 54t-68.5 69q-15 26 -16 38.5t10 35.5q19 34 56.5 46.5t121.5 12.5q107 -1 169 39q52 33 52 82q0 9 -2 19q-9 49 -38.5 105.5t-57.5 80.5q-19 17 -45 23t-84 6 q-46 -1 -118 -11q-70 -9 -122 -17q-28 -4 -59 -5q-27 -1 -56 3q-63 6 -112 34q-68 37 -98 41q-5 1 -10 1q-24 0 -48 -16q-27 -16 -37 -31zM297 144q4 0 10 1q17 0 47 13q22 9 22 10.5t-22 1.5q-27 0 -47 -12q-13 -9 -13 -12q0 -2 3 -2zM311 740q-17 22 -17 47q0 36 36 77 q25 27 39 33.5t41 3.5q8 -1 18 -1q28 0 64 7q32 6 65 6q18 0 37 -2q106 -9 165 -51q44 -31 44 -70q0 -14 -6 -28q-7 -18 -26 -20.5t-28 12.5q-8 14 -31 14q-42 0 -134 -43q-87 -41 -117 -41q-108 2 -150 56zM354 801q-2 -6 -2 -11q0 -16 22 -30q28 -18 77 -21q8 -1 19 1 t21 5t23.5 8.5t24 10t26 13t24.5 13.5t25 14.5t22 13.5t21 13.5t17 10.5l-56 10q-45 7 -77 7q-17 0 -31 -2q-40 -6 -61 -32q-11 -14 -16 -15t-13 11q-10 17 -34.5 10t-31.5 -30zM489 381q3 -42 39 -68q14 -11 30.5 -36.5t23.5 -49.5q15 -52 50 -69q23 -11 60 -11q20 0 43 3 q54 8 61.5 12t14.5 33q6 22 -1 25.5t-50 -3.5q-13 -2 -26 -2q-56 -1 -108 39q-64 48 -71 98q0 24 -25 45q-28 24 -36 21q-6 -2 -5 -24v-13zM653 580q0 -21 22 -11q18 8 19 20q1 10 -20 11q-8 0 -14.5 -6.5t-6.5 -13.5zM799 592q5 -2 31.5 -13.5t40 -16.5t35.5 -11t38 -6 q26 0 33.5 7.5t7.5 33.5q-1 26 -11 38q-9 9 -22 10h-6q-18 -2 -36 -9.5t-38.5 -15t-31.5 -7.5z" />
<glyph unicode="S" horiz-adv-x="921" d="M63 264q-1 6 -1 12q0 29 24 68q26 42 43 96q18 59 51 92t90 56q-2 1 -15.5 8t-19 10t-17.5 10t-17.5 12.5t-13 13.5t-10.5 16.5t-3 17.5q0 30 17.5 106.5t33.5 102.5q3 9 9 30.5t12.5 35.5t17.5 26q49 53 78 74.5t73 39.5t156 54q17 5 31 5q8 0 15 -2q20 -4 88 -36 q66 -31 99 -54.5t47 -59.5q9 -24 9 -51q0 -13 -2 -27q-7 -42 -31 -115q-7 -22 -16 -49t-13.5 -40t-4.5 -14q-4 -5 -27.5 -5t-55 5.5t-42.5 12.5q-35 22 -36 3q-1 -18 32 -52q38 -38 94 -144q35 -69 42 -96q4 -15 4 -35q0 -18 -3 -41q-18 -132 -101 -231q-52 -63 -162 -75 q-27 -3 -55 -3q-84 -1 -173 29q-118 38 -195 116q-46 46 -52 78zM129 274q0 -40 73 -86q72 -46 170 -74q72 -20 127 -21q20 0 38 3q45 8 100.5 40.5t64.5 58.5q10 28 -2 28q-11 -1 -45 -24q-26 -19 -53.5 -25t-87.5 -6q-83 0 -148.5 18.5t-150.5 67.5q-68 39 -80 39h-1 q-5 -2 -5 -19zM180 408q0 -56 32.5 -82.5t145.5 -63.5q112 -34 173 -34q1 0 2 -1q60 0 110 35q78 53 78 135q0 76 -68 176q-114 166 -172 166q-81 0 -81 116q0 15 1 32q2 24 12.5 45.5t26 34t32.5 18t32.5 -0.5t25.5 -23q6 -11 29.5 -30t48.5 -34q39 -24 61 -28.5t58 3.5 q34 8 49.5 18.5t22.5 33.5q6 10 6 21q1 27 -37 63q-52 50 -96 71q-47 19 -82 19q-50 -2 -121.5 -32t-122.5 -71q-47 -39 -56 -56t-9 -67q0 -49 9.5 -72.5t49.5 -70.5q28 -35 54.5 -58t62 -49t57.5 -44q43 -39 90 -68q40 -28 47.5 -48t-16.5 -42q-11 -9 -24 -7t-36 19 q-43 32 -125.5 59t-140.5 27q-69 0 -99 -25t-30 -85zM217 680q5 -14 23 -27q31 -25 50 -24.5t19 26.5q0 21 -14.5 32t-18.5 32q-6 34 -28 32.5t-31 -36.5q-2 -10 -2 -19t2 -16zM309 580q3 -2 5 -2q6 0 7 13q1 21 -9 23h-3q-14 -2 -14 -12q0 -16 14 -22zM467 883 q-3 -14 -3 -24q0 -13 6 -19q11 -10 60 -11q54 -3 125 -47q51 -32 67 -35h5q13 0 21 15l7.5 13.5t6.5 13t4.5 12.5t0.5 10.5t-4 9t-10.5 5t-18 2.5t-27.5 -3q-10 -2 -21 -2q-40 -1 -97 19q-73 24 -73 47q0 10 -20 22q-3 1 -6 1q-15 0 -23 -29z" />
<glyph unicode="T" horiz-adv-x="1175" d="M63 809q1 12 7.5 50t7.5 56q4 59 28.5 102t63.5 60q44 20 87 20q5 -1 10 -1q48 -2 261 -39q53 -9 79 -9h9q24 2 64 23t70 25q11 1 28 2q30 0 80 -4q133 -10 188 -58t66 -162q2 -25 2 -44q0 -22 -3 -34q-6 -22 -36 -67q-61 -88 -123 -94h-8q-57 0 -94 72q-20 37 -34 45.5 t-60 11.5l-68 4q19 -94 27 -229q12 -148 80 -240q16 -30 16 -74q1 -21 -3 -45q-12 -75 -36 -119q-309 0 -346 17t-58.5 56.5t-21.5 88.5q-2 7 -2 14q0 26 22 58q28 41 64.5 80.5t42.5 56.5q15 44 31 186q9 80 9 118q0 29 -5 32q-15 11 -59.5 -11t-86.5 -61q-48 -45 -108 -61 q-32 -9 -61 -9q-26 0 -52 7q-43 11 -63 63q-16 41 -16 88q0 12 1 25zM111 764q0 -25 31 -59.5t53 -34.5q23 0 73.5 22.5t50.5 32.5q1 7 41.5 37.5t85.5 54.5t54 14q30 -8 35.5 12t-15.5 60q-5 11 -11 21.5t-10 16t-5 5.5q-9 0 -38 -31.5t-46 -60.5q-12 -21 -20.5 -31 t-13.5 -12.5t-16.5 -11t-25.5 -21.5q-19 -17 -36.5 -21t-57.5 1q-63 3 -97 16q-32 8 -32 -10zM129 877q9 -31 61 -59q38 -20 65 -20q10 0 19 3q20 6 51.5 38t100.5 113q30 36 71 36h3q44 -2 63 -42q8 -18 9 -96q0 -58 -6 -152q-10 -218 -27 -264q-1 -16 -60.5 -87.5 t-62.5 -80.5q0 -28 78 -41q42 -7 89 -7q40 0 83 5q55 4 68.5 10.5t13.5 28.5q0 32 -15 43q-6 3 -18.5 22.5t-22.5 43.5q-16 39 -22.5 98t-7.5 203q-1 76 -1 126q-1 58 1 81q4 43 22 65q26 29 56 29q8 1 15 -1q38 -10 99 -73q56 -57 98 -73q16 -6 28 -6q22 0 36 16 q22 26 22 94q0 37 -7 50t-36 26q-51 23 -129 37q-50 9 -81 9q-18 0 -31 -3q-43 -11 -80 -37q-28 -19 -50 -21h-7q-25 0 -89 10q-45 7 -85.5 10.5t-64 8t-63.5 18.5q-50 18 -63 18h-2q-12 -1 -43 -24q-60 -40 -76 -71q-9 -17 -9 -39q0 -20 7 -45zM430 158q0 -5 15 -15.5 t36 -19.5q43 -20 120 -20q16 0 34 1q70 4 97.5 16.5t29.5 39.5q5 7 -81 9q-34 1 -69 1q-50 0 -102 -2q-86 -3 -80 -10zM714 844q10 -8 56 -8h66l-37 34q-37 35 -59 35q-17 0 -25 -22q-6 -17 -6 -27q1 -8 5 -12zM897 737q12 -45 52 -45h2q42 1 71 47q6 9 6 14.5t-6 7.5 q-10 4 -59 5q-49 0 -60 -5q-8 -3 -8 -13q0 -5 2 -11z" />
<glyph unicode="U" horiz-adv-x="972" d="M66 735q9 3 9 86q0 28 -1 64q-2 50 -2 82q0 28 2 42q4 30 18 48q15 17 37 22.5t78 5.5q62 -2 85 -9t52 -34q100 -90 100 -233q0 -75 8 -100t33 -25q15 0 19 14t2 60q-1 13 -1 26q0 134 87 236q37 43 55.5 53t59.5 12q39 0 58 -9.5t52 -43.5q34 -35 46.5 -67t29.5 -127 q11 -58 15 -88q3 -23 4 -45v-15q-2 -29 -5 -42.5t-14 -55t-19 -78.5q-45 -195 -104 -244q-20 -17 -20 -37t-48 -49t-114 -49q-41 -13 -104 -13q-22 0 -46 2q-94 6 -194 32q-46 11 -87.5 54.5t-56.5 98.5q-17 55 -31 239q-8 103 -8 149q0 37 5 38zM139 1006q-9 -23 -9 -78 q0 -112 36 -355q8 -57 12.5 -85t11.5 -56t10.5 -36.5t14 -22t18 -17.5t26.5 -18.5t36 -28.5q21 -18 51.5 -22t124.5 -4h139q144 131 160 184q12 37 21 37q2 0 4.5 4t6.5 13l8 18t10 24.5t11 26.5q25 64 25 139q0 42 -8 87q-22 127 -72 175q-38 36 -72 36h-2q-34 -1 -73 -42 q-74 -74 -74 -176q0 -43 21 -121t38 -100q16 -19 -10 -37q-28 -21 -39.5 -16.5t-36.5 45.5q-15 27 -29 37t-36 12q-25 2 -45 2q-88 0 -113 -31q-15 -17 -23 -17.5t-20 13.5q-9 15 0 30t53 62q53 53 62 73q7 15 7 51q0 12 -1 26q-3 69 -16.5 95.5t-65.5 67.5q-55 43 -101 44 h-2q-44 0 -59 -39zM199 250q20 -30 74.5 -46.5t160.5 -27.5q25 -2 49 -3q79 1 137 27q76 34 111 103q-1 1 -3 1q-8 0 -42 -18q-40 -22 -47 -32q-9 -18 -85 -30q-54 -9 -100 -8q-18 0 -36 1q-81 7 -152 45q-54 28 -72 28q-10 0 -10 -7q0 -11 15 -33z" />
<glyph unicode="V" horiz-adv-x="956" d="M61 969l62 14q28 6 66 6q39 0 87 -6q98 -12 125 -35q25 -18 52 -74q24 -49 39 -50t22 44q9 44 90 131q58 61 78.5 73.5t62.5 12.5q78 0 114 -61.5t36 -198.5q0 -93 -24 -155.5t-83 -122.5q-56 -59 -65 -115t-32.5 -96.5t-78.5 -97.5q-52 -55 -86 -62q-6 -1 -13 -1 q-30 0 -71 24q-34 19 -66 102.5t-44 99.5q-17 25 -37.5 57.5t-32 50t-35 46t-57.5 63.5q-92 92 -92 103q-2 14 -8 117t-9 131zM162 778l114 -114q109 -109 143 -152.5t48 -89.5q15 -49 27.5 -61t31.5 4q19 15 53.5 88t43.5 116q5 16 30.5 51t55.5 64q77 75 105.5 124 t29.5 107v17q0 30 -6 42q-8 16 -39 38q-42 29 -55 29t-48 -25q-17 -12 -34.5 -22t-23.5 -14.5t-18 -19.5t-32 -45q-28 -43 -37.5 -72.5t-9.5 -72.5q0 -69 -13 -82q-7 -7 -28 14t-46.5 59t-43.5 77q-24 50 -52 71t-90 31q-28 5 -48 5q-26 0 -38 -9q-20 -16 -20 -82v-76z M340 510q-2 -5 10 -24.5t27 -34.5t20 -9q2 5 -10 24.5t-27 34.5t-20 9zM477 258h5q12 0 12 15q0 19 -15 23q-4 2 -8 1q-15 0 -15 -13q0 -19 21 -26zM539 260q3 -3 8 -3q9 1 21 9q20 14 41 44.5t34 64.5q30 77 72.5 160t60.5 88q20 8 49 57q26 44 26 56q0 5 -4 5h-3 q-26 -6 -100 -95q-26 -32 -52 -68q-39 -55 -66.5 -128t-52.5 -116q-35 -57 -35 -71q0 -2 1 -3z" />
<glyph unicode="W" horiz-adv-x="1458" d="M62 652v12q0 29 6 86q11 90 28 174t27 96q3 4 16 -2.5t25 -18.5q23 -20 24.5 -27.5t-14.5 -17.5q-25 -18 -20.5 -42t45.5 -111q49 -100 49 -121q-3 -9 61.5 -111.5t63.5 -107.5q0 -20 57 -58t88 -38q34 0 51.5 21t30.5 81q7 37 36 64.5t58 27.5q25 0 80 -54t55 -79 q0 -27 27 -64.5t64 -62.5q31 -21 44.5 -22.5t24.5 12.5q21 21 21 33q-3 3 30 83.5t29 83.5q-5 0 19.5 33t63.5 80t73 82q48 50 75 116.5t27 135.5q-1 50 -25 66q-11 8 -26 7q-18 0 -41 -10q-38 -15 -97 -79.5t-67 -98.5q-7 -30 -45 -147q-41 -125 -65 -125q-2 0 -3 1 q-7 3 -12 19q-24 78 -96 181q-31 43 -67.5 63t-49.5 0q-3 -11 -66 -52.5t-67 -49.5q-18 -34 -35 -3q-11 19 -16 60q-5 40 -12 60.5t-18.5 43.5t-20.5 48q-18 53 -103 101q-72 40 -119 40q-7 0 -14 -1q-29 -4 -29 -30q0 -29 -20 -27q-19 1 -39 31q-12 17 -12 30q0 29 59 40 q17 3 36 3q51 -1 115 -21q88 -28 122 -68q42 -54 71 -106t29 -78q0 -32 17.5 -37.5t39.5 20.5q23 31 65 45q27 9 51 9q13 0 26 -3q32 -7 57 -32t78 -101l39 -53l28 68q51 111 78.5 156.5t67.5 84.5q57 54 89 67q14 6 32 6q21 0 47 -9q75 -28 85 -120q1 -14 1 -30 q0 -87 -45 -225q-25 -77 -62.5 -137.5t-81.5 -120.5t-71 -119q-46 -98 -66 -121q-21 -24 -74 -30q-16 -2 -33 -2q-39 0 -81 10q-58 12 -93 33.5t-55 58.5q-11 23 -21.5 19.5t-56.5 -42.5l-4 -4q-45 -38 -68.5 -46.5t-78.5 -8.5q-60 0 -81 10t-81 70q-64 66 -94.5 121 t-108.5 139q-30 36 -55 80q-20 34 -22 62zM120 662q14 -69 66 -121q40 -39 62 -80q17 -30 67 -92.5t78 -89.5q33 -29 79 -47q33 -13 55 -13q9 0 16 2q12 5 38.5 26.5t49.5 47.5q41 43 50 63.5t9 73.5q0 62 -13 62q-16 -1 -56 -97q-29 -71 -46 -85.5t-69 -14.5 q-37 0 -57.5 12t-69.5 64q-53 57 -92.5 125t-82 156t-73.5 141q-15 -41 -15 -84q-1 -24 4 -49zM733 387q0 -40 10.5 -59.5t51.5 -57.5q24 -23 52 -40t40 -17q16 0 16 5q0 8 -45 56q-23 25 -47 60.5t-33 58.5q-21 53 -33 53h-1q-12 -2 -11 -59zM991 200q2 -1 6 -1 q17 0 35.5 15.5t18.5 29.5q0 19 -23 5q-13 -7 -27 -22q-13 -17 -13 -23q0 -3 3 -4zM1075 360q15 4 52.5 50.5t81.5 107.5t46 64q27 35 27 62v7q1 11 -4 11q-10 0 -42 -32q-48 -48 -60 -73q-2 -4 0 -4q0 -18 -23 -37q-22 -18 -55 -84q-25 -50 -25 -66q0 -5 2 -6z" />
<glyph unicode="X" horiz-adv-x="1241" d="M61 686v141q0 101 7 128.5t43 78.5l47 64q26 1 51 1q87 1 163 -13q98 -18 136 -60q16 -17 51 -41.5t57 -64.5q11 -23 26.5 -39.5t23.5 -16.5q9 -3 30.5 27.5t42.5 63t27 32.5q11 8 47 38.5t71.5 56t59.5 32.5q62 19 94 22q6 1 12 1q26 0 50 -11q52 -28 72 -140 q10 -54 10 -108q0 -60 -12 -120q-22 -116 -74 -158q-22 -17 -22.5 -25.5t18.5 -37.5q37 -57 37 -128q0 -49 -17 -104q-27 -87 -27 -98q0 -29 -46.5 -60.5t-98.5 -37.5q-22 -3 -44 -3q-109 0 -204 72q-21 15 -29.5 21.5t-19 11.5t-14 4t-8.5 -8t-7 -16t-6 -29 q-19 -88 -127 -88q-52 0 -123.5 32t-107.5 70q-24 27 -28 48q-2 11 -3 35q0 21 2 52q3 86 29 148q14 33 14 53q0 8 -2 14q-8 20 -51 39q-50 21 -150 121zM120 755q0 -13 13 -53q9 -28 33.5 -45.5t54 -32.5t43.5 -34l31 -33l41 31q41 30 41 44q0 8 -14 10q-7 1 -19 1 q-34 0 -99.5 36.5t-94.5 63.5q-30 30 -30 12zM145 918q0 -78 15.5 -108t70.5 -56q83 -38 182 -74.5t119 -36.5q10 0 19.5 -6t9.5 -12q1 -10 1 -19q0 -32 -14 -46q-18 -18 -44 7q-20 17 -45 17q-36 0 -84 -35q-78 -61 -78 -168q0 -44 11 -61.5t57 -43.5q45 -27 93 -27 q8 1 14 1q54 4 97 29t67 73q19 37 19 79q0 12 -2 24q-4 26 -4 42q0 23 8 27q17 10 36.5 -9.5t19.5 -47.5q0 -33 59 -98q36 -38 64.5 -55.5t68.5 -28.5q37 -10 66 -9q114 0 114 146q0 36 -11.5 57t-53.5 60q-67 67 -129 82q-59 16 -66 41q-5 17 23 26q43 15 176 164 q46 52 62 108q8 27 8 53t-9 50q-7 22 -18 28.5t-39 6.5q-72 0 -189 -108.5t-134 -192.5q-6 -28 -30 -51q-32 -30 -46 14q-5 15 -8 34t-7.5 31.5t-15.5 26.5q-28 28 -57 70q-70 94 -242 112q-32 4 -57 4q-49 0 -68 -15q-29 -22 -29 -105zM268 244q0 -26 21 -42t82 -38 q53 -19 104 -19q9 1 17 1q58 4 73 28q20 35 -9 36q-17 1 -46 -11q-24 -9 -51 -9q-66 0 -152 54q-32 19 -35 19.5t-4 -19.5zM678 322q-2 -7 -2 -14q0 -20 16 -46q22 -35 64 -67q29 -21 96 -27q19 -2 38 -2q44 0 84 10q56 14 56 37q0 8 -61 4q-10 -1 -20 -1q-45 0 -98 22 q-65 26 -114 75q-19 19 -27 26.5t-15 8.5t-10 -5t-7 -21zM934 666q24 -21 66 -33q25 -7 40 -7q10 0 17 3q19 11 37 64t28 132q2 14 2 24q0 23 -10 27h-2q-13 0 -37 -36q-5 -16 -71 -88.5t-70 -85.5z" />
<glyph unicode="Y" horiz-adv-x="1175" d="M64 804q-1 13 -1 32q0 27 3 67q5 64 11.5 92t22.5 39q13 10 18.5 27t11.5 27t24 10q25 0 34 14q7 14 52 14h4q48 -1 121 -16q53 -10 78 -25.5t69 -62.5q56 -61 106 -136.5t50 -97.5q0 -20 12 -28q14 -7 14 6q-2 8 55 74t56 73q1 13 28.5 43.5t38.5 30.5q14 0 48 43 q35 41 77 41q17 0 30 -3.5t13 -8.5q0 -8 37 -51q29 -30 35 -68q1 -13 1 -31q0 -37 -7 -96q-10 -81 -84.5 -181.5t-136.5 -117.5q-45 -12 -189 -137v-115q-1 -29 0.5 -51.5t-2.5 -40t-6 -30t-12 -22t-19 -15t-27 -9t-36 -5.5t-47 -3q-25 -1 -44 -1q-29 0 -45 3q-25 4 -50 23 t-32.5 36.5t-10.5 63.5v18q0 55 16 62q18 7 59 63q27 39 27 60q0 10 -6 16q-15 35 -23 59q-9 43 -69.5 84.5t-132.5 53.5q-76 14 -98.5 30t-51.5 78q-18 39 -22 69zM113 809q0 -52 40 -85.5t95 -47.5q13 -4 45 -12t47 -12t39.5 -13t37.5 -18.5t25.5 -24.5t18.5 -33 q4 -13 11.5 -23t12.5 -10q17 0 -7 52q-26 58 -50 69q-186 95 -246 158q-48 55 -59 55q-10 0 -10 -55zM168 954q0 -40 43 -95.5t94 -80.5q128 -62 169.5 -92.5t62.5 -81.5q18 -43 18 -87q0 -71 -47 -144q-50 -76 -62 -82q-14 -11 -14 -43q0 -21 8.5 -29t38.5 -14q20 -3 39 -3 q62 0 109 38q21 17 23 27t-9 34q-16 32 -16 72q0 46 77.5 143t155.5 150q72 50 72 65q0 22 10 25q8 3 55 61q28 35 36.5 58.5t8.5 62.5q0 77 -43 77h-2q-54 -2 -135 -112q-92 -118 -112 -141q-54 -58 -54 -68t-18 -10q-16 9 -63.5 102t-65.5 103q-32 32 -41 63 q-5 23 -37.5 50.5t-76.5 48t-94 29.5q-19 4 -37 4q-28 0 -52 -9q-17 -4 -29 -39.5t-12 -81.5zM608 152q4 -2 8 -2q10 0 17 13q9 14 0 17q-6 3 -21 -8q-9 -7 -9 -13q0 -4 5 -7zM782 518q23 0 88 43.5t99 81.5q86 100 86 129q0 10 -7 10t-23 -13q-22 -18 -48 -54 q-24 -34 -107.5 -108.5t-87.5 -88.5z" />
<glyph unicode="Z" horiz-adv-x="1042" d="M61 799v129l54 59q56 67 120 67q35 0 72 -20q28 -15 67 -14h24q55 6 94 33q41 23 79 32q52 13 91 13q26 0 46 -6q48 -15 119 -86l47 -48l-6 -157q-3 -59 -3.5 -88t1.5 -45t9 -20.5t15 -6t24 -10.5t32 -27q28 -28 32 -55q3 -16 3 -64q0 -32 -2 -79q-2 -49 -3.5 -76 t-5.5 -54t-9 -39t-16 -25t-23.5 -20t-34.5 -16q-43 -18 -90 -20q-9 0 -18 -1q-42 0 -103 9q-23 2 -43 2q-51 0 -88 -14q-58 -20 -124 -20h-21q-78 4 -146 33.5t-80 70.5q-6 23 -24 65q-5 10 -5 23q0 21 13 49q22 47 71 96q193 199 193 214q0 1 -1 2q-2 0 -7 -3 q-58 -32 -119 -53q-62 -23 -103 -23h-10q-44 3 -86 37q-25 19 -30 41.5t-5 114.5zM111 750q0 -34 30 -64.5t64 -30.5q35 0 203 82q109 53 140.5 74.5t41.5 52.5q11 29 11 43t-11 14h-2q-33 -4 -158 -116l-59 -55q-181 12 -230 24q-22 5 -26 1.5t-4 -25.5zM123 907 q0 -32 43.5 -64t89.5 -34q31 -2 52 -2q24 1 36 3q23 6 53 32q46 41 119 102q48 40 88 44q5 1 9 1q33 0 40 -31q4 -15 4 -32q-1 -57 -45 -135q-58 -101 -141 -150q-38 -22 -130.5 -124.5t-96.5 -106.5q-24 -24 -28.5 -37.5t3.5 -36.5q9 -25 25.5 -33.5t62.5 -13.5 q28 -3 80 -3t121.5 2t124.5 4t131.5 6t99.5 5l27 55q30 60 30 131q0 10 -1 21q-5 73 -40 73h-1q-22 0 -52 -34q-26 -30 -37.5 -82t-33.5 -78t-43 -34t-80 -13q-34 -2 -54.5 -2t-29.5 2q-17 5 -41 37q-22 28 -26.5 45t1.5 45q7 29 15.5 45.5t27.5 39t27 34.5q17 25 102 86.5 t101 81.5q24 28 41.5 74t17.5 81q0 23 -33 59t-73 58q-24 15 -57 15q-8 -1 -16 -1q-43 -4 -142 -41q-57 -20 -110 -22h-17q-42 0 -75 8q-39 10 -91 31q-4 -5 -21 -23.5t-27.5 -30.5t-20 -29t-9.5 -28zM289 215q0 -13 78 -29q52 -11 82 -11q15 0 24 3q47 13 77 27t30 22 q0 6 -1.5 8t-9 2t-18.5 -3l-33 -9q-10 -7 -68 -7h-46q-34 1 -58 2q-48 0 -57 -5zM524 471q0 -24 12 -23q15 2 35 39q17 34 63.5 72.5t84.5 48.5q37 10 53 25.5t16 38.5q0 24 -13 26h-3q-11 0 -22 -18q-13 -17 -45 -35q-42 -22 -111.5 -88.5t-69.5 -85.5zM582 399q1 -1 8 0 q16 0 63 4q52 6 69 23t32 76q8 27 0 38q-5 8 -17 8q-3 0 -9 -2q-18 -4 -31 -9t-29 -13q-22 -13 -57 -65q-30 -44 -30 -57q0 -2 1 -3zM636 230q0 -10 42 -21q33 -9 70 -9q36 0 74 8q78 16 77 48q-1 10 -7 12q-3 1 -5 1q-4 -1 -10 -3q-9 -4 -15 -12q-6 -11 -78 -11 q-16 0 -36 1q-26 2 -46 2q-66 0 -66 -16z" />
<glyph unicode="_" horiz-adv-x="944" d="M63 -8q-3 57 1 83t18 44q17 21 32 23t72 -9q86 -17 149 -13t197 32q148 28 218 32q43 1 58 -6t44 -41q26 -31 28 -70t-10.5 -69.5t-31 -71t-23.5 -61.5q0 -22 -48.5 -41t-98.5 -17q-51 4 -140 25q-74 17 -115.5 16.5t-146.5 -22.5q-53 -10 -78.5 -10t-50.5 10 q-43 17 -56 47.5t-18 118.5zM123 -61q0 -53 49 -69t121 13q64 25 119.5 24.5t124.5 -26.5q82 -28 125 -28q37 0 74.5 18t37.5 35q0 10 -100 10q-41 0 -146.5 21t-152.5 10q-140 -36 -185 -4q-31 22 -49 20.5t-18 -24.5zM137 61q0 -12 23 -34.5t57 -44.5q22 -14 39.5 -14.5 t67.5 9.5q41 9 84.5 10.5t76 -2t83.5 -9t89 -7.5q73 -4 96 -0.5t40 21.5q14 15 17 32.5t-3 51.5q-9 43 -18 51t-50 14q-26 3 -30.5 2.5t-17 -7t-27.5 -9.5q-213 -51 -369 -51q-42 0 -79.5 -2t-58 -5t-20.5 -6z" />
<glyph unicode="`" horiz-adv-x="514" d="M63.5 930.5q-3.5 16.5 2.5 70.5q7 66 21 97t46 59q53 48 143 -33q19 -17 34.5 -26t22.5 -11.5t16.5 -13t21.5 -33.5q19 -40 55 -67q31 -28 26.5 -77t-26 -96t-39.5 -55q-25 -11 -59.5 10t-51.5 58q-20 40 -41.5 52t-70.5 12q-43 0 -76 22q-21 15 -24.5 31.5zM142 946.5 q0 -14.5 14 -14.5t14 14.5t-14 14.5t-14 -14.5zM154 1104q-3 -21 1.5 -52.5t10.5 -37.5q7 -7 47 -12t72 -5t37 4q0 10 -37 56q-18 20 -50 36.5t-54.5 19.5t-26.5 -9zM225 950q0 -9 73.5 -82t82.5 -73q10 0 10 26q0 29 -32.5 65.5t-73.5 53.5q-54 22 -58 18q-2 -2 -2 -8z" />
<glyph unicode="a" horiz-adv-x="858" d="M66 346q9 45 9 64q0 5 -1 8q-1 12 12 18q12 6 12 24q0 15 28 78q28 65 28 78q8 21 23.5 36t42.5 32.5t42 30.5q49 41 109 41h1q60 0 101 -41q30 -30 37 -31.5t22 16.5q22 24 64 24q1 0 3 1q41 -1 74 -21q34 -20 34 -49t-29 -92q-19 -42 -19 -72q1 -11 3 -21 q10 -36 49 -36q38 0 61 -32q22 -34 24 -78v-10q0 -40 -16 -83q-18 -49 -55 -79q-45 -38 -91 -40h-7q-44 0 -109 31q-43 21 -66 23q-4 0 -9 1q-22 0 -60 -9q-30 -7 -60 -7q-21 -1 -43 3q-50 8 -157 49q-37 13 -53 53q-9 23 -9 50q0 19 5 40zM123 311q-1 -4 -1 -8 q0 -19 18 -37q22 -22 58 -38q38 -16 78 -24q28 -6 53 -5q13 0 25 1q38 4 54 21q25 24 18 28q-6 4 -59 3h-7q-48 0 -124 26q-82 28 -82 48q0 16 -13 11q-13 -6 -18 -26zM154 457q0 -28 11.5 -47.5t47.5 -49.5q73 -61 128 -61q6 0 13 1q59 8 103 93q25 46 37 45.5t16 -47.5 q4 -49 33.5 -71.5t89.5 -22.5q38 0 63 7q26 6 34 18q7 9 6 20v6q-2 14 -17.5 27.5t-40.5 23.5q-43 18 -53 33t-13 62v15q0 52 19 89q15 31 10 48.5t-33 27.5q-17 6 -39 -12.5t-32 -49.5q-9 -28 -25 -23.5t-33 40.5q-9 18 -29.5 37t-39.5 26q-41 17 -50 17t-47 -17 q-58 -26 -108.5 -100.5t-50.5 -134.5zM259 525q9 48 32 61q22 14 42 14q9 0 18 -4q27 -10 31 -36q1 -5 1 -10q0 -23 -16 -52q-26 -41 -9 -47q25 -7 16 -19q-10 -12 -46 -12q-48 0 -64 29q-9 17 -9 41q0 16 4 35zM294 509q-1 -1 -1 -2q1 -3 3 -3q4 -2 15 2q26 4 33 22 q4 16 -7 16h-1q-13 -1 -31 -22q-9 -10 -11 -13zM498 266q1 -9 2.5 -24t2 -19t4 -13t8.5 -11.5t15 -7t23.5 -6.5t34.5 -5q34 -5 59 -6q21 0 35 4q31 8 37 39q0 3 0.5 5.5t-0.5 4.5q-1 4 -7 5.5t-16 1t-26 -2.5q-7 -1 -15 -1q-56 0 -157 36z" />
<glyph unicode="b" horiz-adv-x="768" d="M63 326q4 38 20 68.5t17 74.5q0 58 29 172q23 87 23 119q0 33 -19 135q-24 134 -24 195q-1 35 4.5 47t27.5 18q33 11 61 11q1 0 2 1q27 0 51 -10q25 -10 42 -20t40.5 -27.5t35.5 -24.5q56 -33 100 -138q38 -91 38 -170q0 -13 -1 -25q-3 -32 -3 -50q0 -14 2 -20 q4 -12 34 -18q40 -8 82.5 -39t42.5 -54q0 -17 20 -71q20 -46 19 -128q0 -88 -19 -134q-20 -46 -62 -82.5t-91 -49.5q-96 -27 -162 -27q-15 -1 -29 1q-73 8 -141 63q-26 21 -47.5 30t-35.5 18t-34 36q-25 33 -25 76q0 11 2 23zM100 309q0 -27 61.5 -71t131.5 -68 q72 -23 98 -24h3q27 0 98 18q87 21 122.5 39.5t42.5 50.5q2 10 2 16q0 13 -9 11q-11 -1 -27 -23q-31 -43 -70.5 -57.5t-124.5 -14.5q-89 0 -149.5 22.5t-114.5 76.5q-39 39 -55 39q-9 0 -9 -15zM137 434l35 -59q40 -69 129 -106q73 -30 158 -30q18 0 37 1q37 2 89.5 59 t59.5 104q2 14 2 28q0 41 -20 83q-27 56 -75 87q-39 26 -79 26q-10 0 -20 -2q-16 -3 -28 -3q-27 0 -35 12q-12 18 24 46q28 20 33 38q3 12 3 43q0 19 -1 44q-1 64 -22 130t-38 66q-7 0 -67 56q-60 55 -107 55q-44 0 -51 -10q-2 -6 -2 -17q0 -30 14 -98q19 -84 20 -177 q0 -9 -1 -18q-2 -103 -17 -189.5t-41 -168.5zM289 420q-3 14 -3 27q0 28 15 51q24 35 56 35q5 -1 11 -1q38 -6 72 -57q27 -41 27 -60q0 -8 -4 -12q-20 -20 -16 -29t32 -9q15 0 31 -11.5t24 -25.5q4 -7 4 -13q0 -5 -3 -8q-4 -4 -20 -4q-24 0 -73 10q-82 17 -106 35 q-37 28 -47 72zM338 473q-18 -18 -18 -33q0 -19 28 -32q14 -7 28 -7q15 0 29 8t14 17q0 7 -7 14q-36 33 -48 39q-4 2 -9 2q-8 0 -17 -8z" />
<glyph unicode="c" horiz-adv-x="727" d="M63 322q0 14 -1 26q0 14 1 24l3 66q5 114 11 156.5t27 83.5q81 167 213 201q51 12 98 12q49 0 93 -13q88 -26 131 -94q25 -40 27 -88v-6q0 -45 -25 -86q-5 -9 -12 -43.5t-16 -62.5t-23 -31q-7 -3 -22 -6t-21.5 -5.5t-5.5 -11t16 -22.5q19 -19 20 -59.5t-16 -53.5 q-9 -6 -35 -86q-17 -53 -28 -67.5t-43 -24.5q-31 -11 -70 -11q-24 0 -51 4q-71 10 -146 46l-43.5 21t-31.5 20t-24 19t-14.5 23.5t-9 29t-2.5 39.5zM102 356q0 -39 39 -82.5t95 -68.5q40 -17 130 -18q5 0 10 -1q81 0 97 17q33 33 -2 43q-19 5 -63 6q-72 1 -148.5 30 t-105.5 66q-34 43 -47 27q-5 -6 -5 -19zM129 553q0 -106 79 -175t200 -69q56 0 71.5 6t24.5 31q8 19 11.5 29.5t2.5 20.5t-5.5 13.5t-19 6.5t-31 3.5t-48.5 0.5q-69 0 -92 6t-48 29q-30 31 -34 89q0 7 -1 14q0 49 23 79q21 29 21 47q0 28 32 55t66 27q40 0 74 -23t34 -51 q1 -54 41 -72q13 -6 26 -6q25 0 48 25q23 24 23 52q0 45 -58 100q-69 67 -143 69h-5q-73 0 -161 -61q-43 -29 -63 -54t-37 -71q-31 -79 -31 -121zM283 551q0 -45 59 -61q45 -12 102 -12q18 0 37 1q-71 57 -88 92q-16 29 -55 29q-35 0 -45 -9t-10 -40zM328 661q6 -6 24 -6h2 q18 0 92 -69q72 -67 90 -67q2 0 3 1q28 4 28 17q0 16 -39 28q-44 13 -73 72q-28 57 -51 71q-9 6 -20 6q-15 0 -32 -12q-18 -13 -24 -24q-3 -6 -3 -10t3 -7z" />
<glyph unicode="d" horiz-adv-x="835" d="M63 387q6 109 41.5 184t92.5 103q48 22 74 22q1 0 1 1q26 0 78 -21q47 -18 66 -18q5 0 8 1q14 4 13.5 15.5t-15.5 40.5q-25 55 -25 149q0 70 6.5 95t34.5 59q23 26 42 42.5t45 29.5q17 8 35 8q10 0 20 -2q29 -7 59 -33q32 -29 74 -108t57 -140q3 -13 3 -34q0 -34 -8 -88 q-13 -88 -42 -189q-62 -218 -80 -260.5t-61 -67.5q-64 -36 -100 -44q-32 -7 -102 -7h-18q-79 0 -111 7t-81 34q-76 40 -94 78q-15 30 -14 101q0 20 1 42zM116 279q-1 -1 -1 -4q0 -9 28 -29q18 -13 39 -23q46 -23 79.5 -30t105.5 -7q89 0 125 6t36 21q0 3 -6.5 4t-18.5 -0.5 t-26 -5.5q-37 -11 -83 -11q-28 0 -60 4q-84 10 -137 42q-58 35 -75 35q-4 0 -6 -2zM125 496q-6 -23 -6 -46q0 -39 18 -77q28 -48 106 -78q63 -24 134 -25q16 0 33 2q67 6 114 22.5t47 33.5q0 13 41 75q54 80 70 124t23 137q3 40 3 76q0 189 -75 259q-41 38 -68 41h-5 q-26 0 -68 -26q-19 -13 -26.5 -18.5t-13 -21.5t-6 -32.5t-0.5 -60.5q0 -70 15.5 -126.5t19.5 -88.5q5 -37 1 -51.5t-23 -24.5q-17 -11 -27.5 -10.5t-23.5 12.5q-25 23 -71 43t-69 20q-38 0 -82 -48.5t-61 -110.5zM266 506q12 24 48 25h4q34 0 73 -21q33 -17 39 -36.5 t-12 -53.5q-14 -27 6 -27q22 0 29 -16t-7 -33q-14 -19 -53 -10q-34 7 -77 29t-52 36q-11 16 -11 47q0 35 13 60zM307 455q0 -15 20.5 -27.5t30.5 -3.5q2 2 1 12.5t-5 18.5q-4 13 -16 19q-6 3 -12 3q-6 -1 -10 -3q-10 -6 -9 -19zM545 223q0 -3 2 -4q3 -2 5 -2q10 0 23 23 q9 15 9 20q0 4 -4 4q-7 0 -23 -16q-5 -6 -8 -12q-4 -8 -4 -13z" />
<glyph unicode="e" horiz-adv-x="847" d="M70 399q17 64 44 125.5t38 61.5q9 0 28 43q25 45 95 108q67 60 114 60h4q12 -1 44.5 -3t49.5 -3t48 -4.5t49.5 -7.5t43.5 -11t41 -16t31.5 -22.5t24.5 -29.5q27 -48 47 -144q13 -58 13 -89q0 -20 -5 -29q-5 -8 -30.5 -23.5t-53.5 -27.5q-58 -25 -59 -30q0 -3 9 -7 q2 -1 16 -6q50 -19 118 -133q-15 -37 -28 -59t-34.5 -40.5t-45.5 -26.5t-68 -12q-29 -3 -62 -3q-16 0 -32 1q-50 2 -133 7q-82 6 -108 16t-87 58q-82 66 -106 120q-14 31 -14 67q0 29 8 60zM106 365q-1 -4 -1 -8q-1 -29 39 -81q46 -60 108 -100q42 -29 77 -37t140 -14 q47 -5 82 -5q23 0 39 2q44 5 61.5 15.5t44.5 42.5q32 38 2 43q-24 3 -45 -12q-35 -31 -103 -43q-32 -5 -62 -5q-35 0 -70 7q-114 25 -196 81t-83 111q0 29 -12.5 30t-20.5 -27zM194 458q-1 -27 -2 -48q0 -56 9 -72q12 -20 113.5 -66.5t146.5 -52.5q15 -2 32 -2q35 1 77 9 q62 12 73 30q5 4 2 16t-10 19q-13 17 -37.5 17t-122.5 -19q-10 -2 -22 -2q-33 1 -75 17q-58 22 -67 50q-3 10 -10.5 17.5t-15.5 7.5q-15 0 -15 39q0 15 2 35q7 77 25 87q5 2 13 3q26 0 87 -21q69 -24 125 -24q24 0 46 5q72 15 94 75q15 40 15 68q1 22 -9 38q-22 34 -113 61 q-69 20 -116 20q-19 1 -35 -3q-54 -12 -114.5 -72t-76.5 -100q-15 -34 -19 -132zM322 459q1 -20 15 -27.5t58 -15.5q39 -6 88 -6q38 0 82 4q101 8 140 28q34 16 41 40q2 6 2 12q0 18 -17 34q-17 18 -28.5 13.5t-47.5 -43.5q-49 -50 -123 -60q-16 -2 -32 -3q-58 0 -115 28 q-49 25 -60 25q-2 0 -3 -1q-2 -2 -2 -9t2 -19zM368 632q-3 16 -3 27q0 24 12 29q29 10 57 10q10 0 20 -2q38 -4 63 -26t18 -49q-7 -22 -1 -28.5t33 -6.5q41 0 41 -16q0 -13 -35 -25q-36 -14 -81 -14q-9 1 -19 1q-57 4 -74 25q-23 25 -31 75zM417 640q-2 -5 -3 -11 q0 -10 10 -19q16 -13 35 5t8 32q-6 7 -23 8q-20 1 -27 -15zM430 338q0 -12 9.5 -12t37.5 12q18 7 18 9q0 1 -4 2q-6 1 -22 1q-39 0 -39 -12z" />
<glyph unicode="f" horiz-adv-x="839" d="M61 711q0 26 40.5 61.5t80.5 42.5q32 6 38.5 17t6.5 63q0 75 28 123t91 80q71 38 193 55q20 0 90 -39q47 -24 68 -45.5t46 -67.5q36 -72 36 -103t-29 -83q-21 -36 -37 -46t-56 -15q-40 -4 -51 -11t-8 -24q4 -27 4 -62q0 -25 -2 -53q-5 -68 -16 -76q-17 -10 -133 -10 q82 -163 90 -242q3 -27 3 -44q0 -15 -2 -23q-5 -16 -32 -37q-25 -21 -46 -24q-8 -2 -19 -2q-20 0 -50 4q-79 12 -96 20q-17 11 -57.5 118.5t-40.5 145.5q0 10 -6.5 19.5t-14.5 9.5q-22 0 -50 38.5t-28 69.5q1 20 -20 72t-21 68zM117 719q0 -37 44.5 -56.5t102.5 -23.5 l-6 -113q-1 -27 -1 -52q0 -33 2 -62q4 -51 14 -79.5t24 -25.5q17 -1 38 -14t36.5 -19t58.5 0q44 9 51.5 15t1.5 30q-7 37 -49 93q-42 60 -50 128q-1 13 -1 25q0 51 25 82q27 37 69 37q28 0 43.5 17.5t3.5 37.5q-3 5 -19.5 10t-35.5 5q-46 0 -68 23.5t-22 74.5 q0 60 35.5 91.5t101.5 31.5q40 0 59 -6.5t39 -28.5q28 -29 54 -33.5t43 17.5q11 14 -9.5 46.5t-83.5 98.5q-13 15 -63 21q-25 3 -52 3t-57 -3q-64 -7 -165 -113l-9 -217h-55q-54 -1 -77 -11t-23 -30zM154 602q-3 -5 -3 -13q0 -14 9 -36q13 -35 26 -35q14 0 11 43 q-4 41 -23 51q-12 6 -20 -10zM411 194q8 -1 15 -1q26 0 50 10q14 6 13 12q0 9 -16.5 9t-50.5 -9q-23 -10 -23 -15q0 -4 12 -6zM424 874q8 -10 45 -10q42 0 93.5 -20t51.5 -35q0 -20 31 -14.5t53 30.5q27 31 27 33q-8 1 -33 2.5t-40 3t-34 7.5t-28 16q-52 39 -94 39 q-32 0 -58 -23q-17 -14 -17 -23q0 -3 3 -6zM434 571q0 -19 17 -21h8q22 0 78 7q7 0 7 21q0 8 -1 20q-4 38 -38 41h-8q-30 0 -49 -27q-14 -18 -14 -41z" />
<glyph unicode="g" horiz-adv-x="1036" d="M61 53q0 60 8 84.5t42 67.5q52 63 61 63q5 0 11.5 13.5t9.5 31.5q10 41 53 84q38 39 28 49q-25 17 -63.5 80t-38.5 86q0 70 36.5 137.5t106.5 112.5q64 41 140 41h14q71 -3 144 -23.5t83 -41.5q7 -13 14.5 -14t20.5 10q24 19 77 30q32 7 57 7q16 0 30 -3q80 -15 80 -170 q0 -91 -23 -129t-84 -45q-13 -1 -36.5 -3.5t-28 -2.5t-17.5 -4.5t-14.5 -7.5t-9 -15t-10 -22.5t-9.5 -34.5q-24 -83 -48 -106q-18 -17 -58 -17q-13 0 -27 2q-18 2 -34 2q-44 0 -77 -16q-28 -13 -7 -23q15 -7 53 -8q52 0 91 -14.5t83 -50.5q43 -34 47 -70v-9q0 -35 -27 -97 q-26 -69 -26 -90q0 -35 -77.5 -67.5t-173.5 -43.5q-44 -5 -86 -5q-49 0 -95 7q-69 13 -96.5 27.5t-73.5 60.5q-34 34 -42 55t-8 82zM117 8q0 -21 31.5 -50.5t76.5 -51.5q72 -34 191.5 -34t175.5 34q49 31 49 41q0 6 -14 6h-3q-14 0 -40 -6q-35 -9 -95 -9q-44 0 -102 5 q-82 5 -121.5 13t-75.5 30q-56 31 -68 31q-2 0 -3 -1q-2 -2 -2 -8zM145 131q0 -38 10 -51.5t56 -38.5q88 -44 213 -49q16 -1 32 -1q103 0 171 32q38 20 54.5 35t23.5 42q11 44 -5 60q-26 26 -88 40q-51 12 -114 12q-13 0 -27 -1q-17 -1 -31 -1q-85 0 -85 21q0 13 30 39 q35 31 35 64q0 24 -19 49q-20 23 -22 23q-75 -19 -106 -58q-15 -19 -15 -37q0 -19 18 -37q22 -23 6 -39.5t-77 -33.5q-43 -11 -51.5 -20.5t-8.5 -49.5zM248 643q0 -77 18 -106.5t90 -67.5q15 -9 26 -21t11 -20q0 -14 17.5 -18.5t45.5 2t56 22.5q52 25 80 25h6h11q53 0 81 37 q21 26 21 61q0 19 -6 41q-14 46 -5 56t68 10q81 0 111 26q33 30 43.5 55t-0.5 42.5t-43 27.5q-10 3 -21 3q-28 0 -64 -20q-49 -28 -83 -67q-28 33 -43 49t-45 39t-56 29q-47 12 -88 12q-28 0 -53 -6q-63 -14 -123 -68q-40 -37 -47.5 -56t-7.5 -87zM336 610q-4 14 -4 27 q0 44 43 90q17 19 53 23q8 2 16 2q24 0 41 -11q6 -4 21.5 -30.5t30.5 -26.5q26 0 31 -36q1 -7 1 -14q0 -28 -18 -48q-11 -12 -17.5 -31.5t-5.5 -32.5q4 -28 -5 -30h-2q-14 0 -83 28q-85 34 -102 90zM389 627q7 -24 39 -32.5t61 5.5q28 13 28 25q0 17 -65 32l-15 3 q-14 3 -17 4q-9 3 -16 3q-9 0 -13.5 -5.5t-4.5 -15.5q0 -8 3 -19zM567 393q-1 -2 -1 -3q0 -7 18 -11t34 -4q22 0 41 7q5 2 9 5q19 13 1 16q-11 1 -38 0q-57 0 -64 -10zM772 590q1 -14 39 -21q8 -1 15 -1q27 0 57 14q38 17 47 43q1 2 1 5q0 5 -6 9t-14 4q-3 0 -5 -1 q-12 -1 -19 -9q-16 -11 -60 -17q-55 -8 -55 -26z" />
<glyph unicode="h" horiz-adv-x="763" d="M61 348q0 135 25 195q24 57 24 153v12q-2 105 -28 199q-10 41 -14.5 75t0.5 38q15 15 57 37q47 25 133 25h4q84 0 158 -20q76 -21 94 -52q26 -43 26 -99q0 -68 -38 -155l47 -23q43 -22 85.5 -88t55.5 -135q13 -62 13 -163q0 -62 -5 -138l-59 -33q-59 -33 -135 -37h-18 q-61 0 -80 25q-18 24 -18 64q0 34 13 81q6 24 6.5 39.5t-6.5 22.5q-20 20 -30 -19q-5 -20 -9 -61q-5 -51 -13 -71t-34 -38q-44 -31 -117 -31t-104 31q-21 21 -26 47.5t-7 118.5zM126 470v-19q0 -52 9 -107q6 -36 16 -46.5t42 -16.5q19 -4 36 -4q46 0 68 31q16 21 15.5 50 t-15.5 66q-20 47 -20 73q1 3 1 5q2 26 33 67q29 38 63 44q7 1 14 1q30 0 69 -20q46 -24 49 -78v-9q0 -54 -35 -167q-9 -31 -6 -42t24 -24q25 -15 37.5 -14t44.5 21q55 33 69 71q7 18 6 49q0 31 -7 74q-11 68 -31 129q-12 25 -45.5 50.5t-70.5 39.5t-70 18t-43 -14 q-12 -21 -30.5 -14t-14.5 31q3 31 51 45q44 13 78.5 52.5t34.5 76.5q0 41 -9.5 69.5t-23.5 28.5q-13 0 -51 19q-37 20 -109 26q-20 2 -38 2q-45 0 -74 -10q-35 -10 -41.5 -21.5t-4.5 -62.5q6 -223 7 -301q0 -11 -1 -19q-1 -66 -12 -77q-13 -13 -15 -73zM145 211 q7 -12 47 -12q8 1 16 1q54 2 77 19q23 18 12 20q-9 2 -33 -12q-15 -9 -49 -9q-11 0 -25 1q-46 3 -46 -6q0 -1 1 -2zM210 855q-8 17 -8 34q0 28 21 55q12 16 32 16q23 0 56 -22q27 -18 32 -49t-12.5 -55.5t-47.5 -24.5q-53 0 -73 46zM252 900q0 -4 10 -15q15 -17 32 -12 q12 5 3 20q-12 12 -31 12q-14 0 -14 -5zM343 472q13 -34 50 -43.5t50.5 1.5t13.5 51q0 26 -7.5 39.5t-27.5 22.5q-32 14 -39 14h-1q-6 -1 -28 -25q-16 -17 -16 -37q0 -11 5 -23zM447 206q0 -2 2 -5q9 -13 39 -14h6q28 -1 58 7q34 8 62 24.5t33 33.5q1 5 1 8q0 7 -6 7h-1 q-14 -1 -59 -34q-27 -20 -48 -25.5t-49 -0.5q-38 7 -38 -1z" />
<glyph unicode="i" horiz-adv-x="559" d="M63 215q-1 13 -1 23q0 24 5 38q7 18 37 48q48 48 48 99q0 43 -35 89q-37 47 -37 102q0 41 20 88q10 27 28.5 42.5t55.5 29.5q63 25 63 38q0 9 -32 9q-46 0 -63 31q-13 23 -13 70q0 17 2 36q6 60 15.5 82t38.5 47q47 42 124 52q37 -21 45 -31q14 -18 14 -77q0 -16 -1 -36 q-1 -61 -7 -86.5t-20 -36.5q-20 -14 -14 -32.5t31 -18.5q23 0 55.5 -38t32.5 -64q0 -24 -28 -71.5t-28 -82.5t9.5 -54.5t40.5 -47.5q37 -34 45 -56q5 -16 5 -55q0 -16 -1 -35q-1 -40 -20.5 -85.5t-33.5 -45.5q-12 0 -38 -26q-37 -34 -166 -42q-25 -1 -47 -2q-88 0 -113 25 q-14 14 -17 74zM137 602q0 -23 35 -72.5t35 -68.5q0 -10 4.5 -16t9.5 -3q16 10 16 38q0 14 -4 34q-13 58 -51 102q-25 28 -35 24.5t-10 -38.5zM148 308q-9 -17 -8 -29q0 -16 14 -25q20 -12 63 -12q40 0 128.5 28t98.5 45q8 11 10 33q1 8 1 16q-1 14 -3 26q-4 18 -10 18 t-49 34q-34 35 -34 105q0 73 24 119q14 27 17 53t-13 45t-53 16q-31 -2 -79.5 -20t-64.5 -21q-40 0 -28 -31q9 -25 47 -57q41 -33 49.5 -53t13.5 -84l7 -86l-62 -45q-49 -35 -69 -75zM177 893q0 -7 15 -13q10 -4 27 -6q10 -1 20 -1q23 1 45 7q32 10 33 23q0 10 -69 10 q-71 -2 -71 -20zM179 177q1 -1 8 -1q18 0 73 4q110 6 135 27q14 14 14 16.5t-18 1.5q-28 -4 -79.5 -20t-90.5 -21zM207 1008v-6q0 -26 14 -35q12 -8 27 -8q15 1 34 9q36 16 52 43q8 13 8 26t-8 24q-17 17 -17 0q-1 -13 -11.5 -16.5t-20.5 2.5t-9 18q0 21 -11 21 q-8 0 -22 -12q-7 -5 -14 -13q-20 -21 -22 -53z" />
<glyph unicode="j" horiz-adv-x="952" d="M63 73q4 105 23 146q20 45 74 61q25 8 49 8q26 0 51 -10q45 -18 45 -63q0 -25 12.5 -51t29.5 -38t28 -1q6 6 6 30q0 34 -12 103q-23 119 -23 200q0 13 1 24q4 88 38 161q23 51 37 66.5t37 15.5q40 0 43.5 11t-25.5 40t-33 78q-1 8 -1 14q0 37 22 45q20 12 20 27 q1 21 41 48.5t64 27.5q49 0 130 -21t118 -45l53 -35l-6 -102q-6 -90 -23 -117q-13 -22 -44 -22q-9 0 -19 2q-28 6 -29 2q-1 -2 4 -6q23 -15 26 -72q1 -8 1 -16q0 -43 -17 -60q-22 -22 -22 -96q0 -52 -8 -69.5t-47 -51.5q-35 -29 -46.5 -49.5t-15.5 -64.5 q-8 -54 -35.5 -127.5t-40.5 -73.5q-10 0 -20 -39q-20 -98 -129 -113q-41 -6 -81 -6q-68 0 -132 18q-102 29 -133 87q-12 23 -12 93q0 19 1 41zM94 26q0 -27 21 -60q13 -21 26 -23q31 -14 47 -29q25 -25 127 -30q20 -2 38 -2q71 0 98 18q34 23 34 34q0 9 -129 9q-75 1 -109 7 t-59 21q-28 17 -63 52q-31 35 -31 3zM147 211q-21 -29 -21 -60q0 -41 38 -85q44 -52 120 -74q45 -13 89 -13q31 0 61 7q74 15 109 63q18 27 23 61q3 28 3 94v32v28q0 110 21 156q15 31 58 67.5t75 47.5q22 7 29.5 47t-9.5 55q-39 33 -158 42q-25 2 -47 2q-78 0 -102 -26 q-33 -69 -33 -138q0 -99 68 -200q37 -56 41 -85v-8q0 -28 -20 -72q-39 -88 -113 -88q-11 0 -23 2q-27 4 -41 18.5t-34 52.5q-31 68 -31 82q0 16 -20.5 21t-45.5 -3t-37 -26zM418 303q-2 -19 -2 -35q0 -47 13 -72q6 -12 14 -12q5 0 12 6q3 13 -37 113zM501 835q0 -5 17 -18 q23 -19 23 -33q0 -10 98 -20q54 -6 82 -6q22 0 27 4q4 11 -11 18t-42 11t-55 6.5t-54.5 7t-36.5 10.5q-48 30 -48 20zM543 918v-7q0 -29 29 -44q34 -17 102 -17q62 0 102 -29q25 -17 34.5 -18t20.5 12q10 12 10 34q0 9 -1 19q-6 37 -23 37q-14 0 -41 27q-23 23 -74 32 q-26 4 -51 4q-27 0 -55 -5q-30 -6 -41 -15t-12 -30zM638 364q-5 -27 -5 -43t6 -20q3 -2 5 -2t4 1q3 3 3 9q0 13 35 62t35 65t-9 22.5t-22 2t-24 -18.5q-17 -21 -28 -78zM807 735q3 -1 4 -2q7 -2 11 -2q9 0 9 9q-1 11 -13 14h-7q-20 -4 -20 -7t16 -12z" />
<glyph unicode="k" horiz-adv-x="747" d="M64 304q4 106 14 205t14 205q1 27 1 51q0 71 -9 114q-9 46 -5 58.5t27 20.5q18 5 40 23.5t45.5 32.5t52.5 14q46 0 107 -27t67 -51q1 -4 22 -52q18 -40 18 -58q0 -4 -1 -6q-7 -11 -11 -55q-2 -28 -3 -53q0 -14 1 -28q71 52 140 62q34 6 49 2t29 -21q19 -21 21 -43 q0 -5 1 -13q0 -28 -6 -91q-1 -17 -4 -31t-10 -26.5t-10.5 -20t-16 -19.5t-15.5 -15t-19.5 -16.5t-18.5 -14.5q27 -28 34.5 -36t28.5 -37.5t25.5 -49t4 -52.5t-14.5 -67q-27 -66 -53.5 -92t-80.5 -33q-15 -2 -28 -2q-32 0 -54 14q-32 20 -57 74q-17 37 -34.5 50.5t-30.5 0.5 t-19 -49q-7 -49 -24.5 -64t-65.5 -20q-20 -2 -38 -2q-94 0 -105 55q-9 44 -9 118q0 21 1 45zM104 186q0 -19 34 -32q31 -12 66 -12h5q38 1 49 18q15 25 9.5 30t-36.5 -6q-22 -8 -39 -8t-30 8q-27 14 -42.5 14.5t-15.5 -12.5zM104 350q0 -66 54 -102q28 -19 56 -19 q26 0 50 17q35 23 35 61q0 29 -20 66t-20 61q0 30 32 37q9 2 19 2q31 1 64 -21q44 -28 54 -71q24 -94 102 -135q29 -17 53 -10t39 21t23 32q0 15 -36.5 62t-53.5 55q-22 9 -70.5 61.5t-48.5 67.5q0 54 119 88q78 22 86 41q8 23 -12 41.5t-45 11.5q-31 -9 -87 -46t-81 -65 q-30 -32 -68 -34q-2 0 -4 -1q-36 0 -61 29q-16 21 -16 44.5t13.5 50t27.5 45.5t26 30q26 28 38 46.5t9.5 49.5t-31.5 66q-32 38 -46.5 46.5t-53.5 8.5q-40 0 -53.5 -7.5t-28.5 -39.5q-23 -50 -23 -205q0 -83 -20.5 -207t-20.5 -178zM319 659q6 -6 48.5 32t42.5 50q0 5 -4 9 t-9 4q-13 0 -49 -44q-30 -37 -30 -48q0 -2 1 -3zM334 365q6 -42 23.5 -69.5t39.5 -27.5q11 0 11 13q0 20 -27 71q-33 63 -45 63h-2q-4 -2 -4 -14.5t4 -35.5zM424 211q2 -41 45 -63q23 -12 46 -11q19 0 38 8q33 15 33 26q0 15 -60 24q-60 7 -69 20q-7 13 -20 11.5t-13 -15.5z M510 535q-1 -5 -1 -9q0 -18 26 -18h5q35 0 64 24q20 16 20 33q0 6 -3 13q-3 2 -9 2q-16 0 -50 -14q-47 -19 -52 -31z" />
<glyph unicode="l" horiz-adv-x="522" d="M84 201q4 71 18 96q12 24 12 133q0 29 -1 64q-4 166 -21 237q-30 121 -30 206q0 108 49 157q25 25 43 29q7 1 21 2q24 0 69 -5q45 -4 74 -11.5t53.5 -24t38.5 -40t24 -65.5t15 -93t8 -130q4 -97 4 -146q0 -24 -1 -36q-3 -36 -28 -82q-30 -58 -49 -82q-19 -20 -15 -32 t40 -42q32 -25 36 -41q2 -6 1 -17q0 -20 -5 -59q-12 -93 -46 -119t-144 -26q-108 0 -138 24q-28 21 -28 89v14zM115 967q14 -128 14 -215q0 -16 4.5 -28.5t9.5 -12.5q6 0 10.5 19.5t4.5 47.5q-2 69 -43 189zM129 213q-1 -10 -1 -19q0 -38 20 -54q26 -20 96 -25q14 -1 27 -1 q34 0 59 8q35 10 35 28q0 13 -46 10h-8q-56 0 -182 53zM148 1042q6 -12 15 -38t15 -50q2 -9 8.5 -33t8 -29t5.5 -23.5t4.5 -24.5t2 -22.5t1 -27t-0.5 -29.5t-2 -38t-4 -45q-5 -70 -31 -270q-11 -69 -11 -95q1 -3 1 -6q2 -23 18 -43q46 -52 106 -58q6 -1 13 -1q50 0 78 41 q19 28 11 40t-54 27q-66 22 -74 99q-1 11 -2 23q0 70 43 161q49 107 64.5 161.5t15.5 123.5q0 92 -24.5 131t-90.5 53q-42 9 -62 13q-18 4 -34 4h-4q-16 0 -19 -4q-3 -3 -2 -13q-1 -14 5 -27zM315 465q-5 -22 -6 -35q0 -22 14 -22h1q18 0 34 28q7 11 9 23q3 19 22 63 q15 34 15 79q0 12 -1 24q-4 65 -8 65q-3 1 -12 -16q-13 -23 -19 -56.5t-18 -56.5q-21 -43 -31 -96z" />
<glyph unicode="m" horiz-adv-x="1146" d="M63 436q-2 14 -2 30q0 56 19 142q15 66 29.5 98t42.5 60t42.5 35t36.5 2q21 -5 35.5 0.5t34.5 25.5q40 40 75 51t118 11q77 0 125.5 -12.5t48.5 -32.5q0 -12 26 10q28 24 64 35q28 9 67 9q28 0 61 -4q81 -10 109 -36q31 -28 59.5 -96.5t30.5 -116.5q1 -18 1 -44 q0 -65 -7 -181q-4 -109 -11 -144.5t-26 -52.5q-26 -23 -68 -33q-23 -5 -47 -6q-20 0 -42 4h-4q-29 0 -53 39q-26 42 -38 92.5t-12 88.5q0 69 -28 74q-11 3 -25 -11q-15 -15 6 -57q22 -43 22 -101q1 -17 -1 -33q-8 -80 -45 -110q-35 -30 -81 -36q-10 -1 -21 -1q-33 0 -56 17 q-33 22 -47.5 56.5t-14.5 92.5q0 37 -7.5 54.5t-33.5 35.5q-42 29 -49 29q-6 0 -6 -58q-1 -31 -19 -71q-15 -33 -15 -55q0 -5 1 -9q1 -5 1 -9q0 -26 -23 -62q-27 -42 -60 -52q-25 -9 -51 -9q-19 0 -39 5q-48 11 -67 39q-14 24 -24.5 78t-31.5 219zM106 379q13 -41 37 -70 t43 -22q20 4 58 -6q18 -5 33 -5q27 0 37 18q12 21 12 79q0 21 -2 47l-7 110l50 50q44 44 78 45h2q33 0 71 -39q30 -32 34 -48q2 -6 1 -20q0 -20 -4 -55q-4 -31 -4 -57q0 -42 10 -70q19 -54 65 -71q15 -5 27 -5q22 0 34 17q14 19 7 51q-25 115 -26 185v6q0 65 21 99 q22 34 71 41q44 7 62.5 -1t35.5 -42q10 -22 10 -44.5t-10 -73.5q-9 -46 -9 -85q0 -23 3 -41q8 -52 38 -74q15 -11 32 -12q17 0 36 11q37 20 50.5 81t15.5 204v41q0 85 -4 107q-4 28 -29 56q-36 42 -77 60q-24 10 -50 10q-19 0 -39 -6q-48 -12 -94 -59q-39 -41 -53.5 -46.5 t-24.5 13.5q-29 50 -55 64t-88 14q-126 0 -203 -74q-22 -19 -47 -19q-9 0 -18 2q-7 3 -15 3q-31 0 -61 -56q-38 -70 -54 -167q-8 -49 -8 -86q0 -35 8 -60zM162 221q-3 -9 -3 -16q0 -27 38 -41q19 -7 39 -8q29 0 59 16q31 17 24.5 32t-43.5 15q-41 0 -77 12q-28 10 -37 -10z M362 481q4 -15 37 -21t41 -18q28 -26 37.5 -16.5t9.5 63.5q0 70 -6 70q-9 0 -24 6q-3 1 -6 1q-17 0 -50 -28q-39 -34 -39 -57zM557 213q0 -10 27 -18q10 -1 16 -1q13 0 12 5q-1 10 -26 18q-23 8 -29 -4zM715 535q8 -8 8 0q3 3 10.5 2t24.5 -7q14 -4 24 -4q12 0 18 6 q6 7 5 21q0 12 -4 29q-4 13 -12.5 22.5t-16.5 9.5q-14 0 -40 -35q-19 -26 -19 -38q0 -4 2 -6z" />
<glyph unicode="n" horiz-adv-x="858" d="M61 725q0 57 7 77.5t34 49.5q34 36 90 38q3 0 6 1q52 0 98 -24q48 -25 69 -60q8 -20 22.5 -19.5t61.5 27.5q24 13 47 19t37.5 7t38.5 -6.5t31.5 -10.5t36 -19t34.5 -19q34 -18 47 -37t24 -61q12 -37 12 -67q-1 -3 -1 -7q-2 -34 -19 -108q-19 -76 -19 -105v-9 q4 -23 50 -46q21 -10 26 -24q4 -10 4 -37q0 -10 -1 -23q-4 -72 -38.5 -101.5t-111.5 -29.5q-70 0 -106 12q-31 10 -61 64q-22 39 -22 61q0 9 3 15q24 44 24 65q0 9 -5 14q-3 3 -7 3q-17 1 -39.5 22t-32.5 41q-23 -95 -59 -133q-13 -13 -23 -32t-10 -30q-1 -33 -35 -61 q-27 -22 -51 -22q-7 0 -14 2q-37 10 -52.5 27.5t-22 58t-7.5 131.5q-1 40 -1 71q0 93 9 105q2 3 2 6q0 16 -33 49q-29 26 -35 45t-8 80zM143 649q12 -6 13 11q2 20 -9 24q-2 1 -4 0q-14 -2 -14 -12q0 -17 14 -23zM138 768q12 -23 40 -29q40 -8 48 -24t-9 -56 q-31 -73 -38 -117q-4 -23 -4 -55q0 -28 3 -63q6 -71 12.5 -88.5t30.5 -26.5q18 -7 34 -7q36 0 60 36q35 50 35 162q0 42 17 71.5t49 61.5l41 -25q52 -33 69 -64.5t20 -90.5q0 -73 -16 -107q-8 -23 -4.5 -33t23.5 -22q29 -20 81 -29q26 -4 46 -4.5t33 4.5q26 7 29 27 q-1 18 -21 20q-32 1 -48 31q-12 23 -12 56q-1 12 1 24q6 50 32 104q20 42 24.5 65.5t-1.5 47.5q-14 52 -36 78t-67 51q-32 14 -68 14q-10 0 -22 -1q-48 -6 -88.5 -31.5t-40.5 -53.5q0 -22 -4 -23.5t-29 7.5q-22 11 -22 49q0 25 -24.5 51t-56 41.5t-65 15.5t-49.5 -22 q-8 -12 -8 -25q0 -10 5 -20zM170 242q0 -19 36 -32t50 1q17 17 -23 31q-35 14 -49 14t-14 -14zM393 502q11 -28 45 -51q48 -31 56 -31q7 0 7.5 24.5t-4 51t-12.5 32.5q-21 15 -49 22q-13 3 -21 3q-10 0 -14 -4q-12 -12 -12 -28q0 -9 4 -19zM559 199q47 -13 106 -13 q21 0 17 4q-6 6 -82 13q-30 4 -42 4q-9 0 -9 -2q0 -3 10 -6zM699 193q0 -1 1 -3q2 -4 7.5 -4t15.5 4q10 3 10 5t-5 3q-3 1 -9 1h-7q-13 1 -13 -6z" />
<glyph unicode="o" horiz-adv-x="784" d="M61 430q0 93 7 128t38 97q28 56 54.5 84.5t87.5 69.5q78 53 121 63q12 3 24 3q33 0 70 -19q38 -21 101.5 -84t70.5 -90q12 -27 22 -27q18 1 44 -69q21 -56 21 -89q0 -7 -1 -14q-13 -66 -24 -106.5t-30 -78.5t-41 -59t-60 -41t-85.5 -31.5t-118.5 -23.5q-59 -10 -87 -10 q-7 0 -12 1q-25 3 -81 30q-54 26 -78.5 53.5t-33.5 73.5t-9 139zM129 379q49 -92 188 -107q11 -1 24 -1q45 1 109 17q82 22 121 50q49 34 81 116q17 44 18 69q0 22 -13 30q-9 14 -21.5 41.5t-27.5 49t-41 40.5q-25 18 -41 38t-14 28q3 8 -8.5 21.5t-30.5 23.5q-41 26 -86 26 q-52 0 -111 -35q-56 -34 -80.5 -65.5t-58.5 -110.5q-31 -75 -31 -136q0 -52 23 -95zM132 267q0 -5 20 -25q25 -24 95 -40q36 -8 57 -9q21 0 28 8q6 6 -9 9q-10 3 -28 3q-38 0 -102 29q-50 26 -59 26q-2 0 -2 -1zM215 508q-1 8 -1 16q0 57 48 109q19 21 38 36t24 15 q12 0 70.5 -52.5t70.5 -74.5q3 -6 4 -14q0 -19 -20 -45q-27 -37 -17 -50q7 -8 31 -8q13 0 31 2q50 9 51 -3q0 -3 -2 -7q-10 -31 -102 -37q-18 -1 -34 -1q-69 0 -118 20q-66 28 -74 94zM266 534q2 -14 19 -42q24 -39 36.5 -41.5t49.5 26.5q36 28 36 64q0 40 -40 43 q-13 1 -26.5 8t-22 12.5t-16.5 7.5h-3q-7 0 -13 -8q-7 -10 -14 -31q-6 -20 -6 -32q-1 -4 0 -7zM365 205q0 -2 12 -2q8 0 20 1q12 0 29 1q86 4 90 18q7 16 30 22.5t34 16.5q14 15 14 18q0 1 -1 1h-1q-22 0 -62 -25.5t-67 -26.5q-44 -5 -76 -16q-21 -6 -22 -8z" />
<glyph unicode="p" horiz-adv-x="919" d="M64 756q6 21 20 43t20 22q9 3 55 37t68 37q41 6 73 7h10q26 0 48 -4q25 -6 43 -13.5t35 -23t28.5 -30.5t27.5 -38q19 -27 30 -31.5t51 0.5q24 3 46 3q34 0 61 -7q45 -13 86 -49q50 -43 70.5 -87.5t21.5 -113.5v-31q0 -122 -20 -247q-24 -142 -50 -142q-8 0 -47 -31 q-73 -60 -198 -60q-11 0 -23 1t-23 1q-45 0 -63 -11q-21 -13 -12 -49q6 -23 -24 -54.5t-58 -31.5q-66 0 -85 63q-14 48 -14 169q0 38 1 83q1 36 1 74q0 96 -7 202q-10 149 -25 189q-3 9 -12 15.5t-17 6.5q-19 0 -56 23t-54 45q-10 8 -10 21q0 5 2 12zM123 757q0 -6 15 -25 q16 -21 36 -34t27 0q12 12 23 12q27 0 44 -79q24 -110 27 -363q2 -173 13 -239t40 -66q40 0 47 51q1 10 1 20q0 45 -25 105q-23 51 -5 57q6 2 14 2q23 0 71 -12q34 -6 67 -6q94 0 176 53q61 40 90 165q14 59 14 107q0 55 -18 97q-28 66 -92 92q-32 13 -63 13q-34 0 -68 -15 q-39 -17 -60.5 -21.5t-31.5 3t-10 28.5q0 37 -34 85.5t-69 60.5q-22 12 -47 12q-19 0 -41 -7q-50 -16 -94 -47q-47 -33 -47 -49zM350 470q7 28 27 50.5t41 32.5q30 11 65 11h6q39 -1 123 -13q45 -6 74 -51q30 -43 30 -72q0 -26 -20 -63q-29 -57 -80 -67q-11 -3 -21 -3 q-40 0 -77 35q-6 6 -12.5 10.5t-11 8.5t-11 7t-10 5t-11 4t-10 3t-11.5 2.5l-12 2t-14.5 2t-15.5 2.5q-5 0 -16.5 12t-20.5 25q-15 20 -15 40q0 8 3 16zM406 442q18 -22 77 -22q44 0 58 -33q22 -45 53 -45h2q32 2 49 49q6 17 6 35q0 16 -4 32q-9 35 -31 48q-16 9 -63 9 q-18 0 -39 -1q-81 -5 -96 -20q-19 -19 -19 -35q0 -9 7 -17zM434 106q0 -4 6 -10q34 -42 104 -42q43 0 99 16q63 17 80 29t37 55q24 53 24 70q0 8 -6 8h-1q-8 -1 -25 -19q-40 -43 -107.5 -69.5t-136.5 -26.5q-74 0 -74 -11z" />
<glyph unicode="q" horiz-adv-x="882" d="M65 414q9 38 44 112q49 100 49 115q0 22 52 72t99 75t119 32q20 3 35 3q39 0 47 -14q9 -9 47 4q28 10 43.5 5t54.5 -36q33 -26 49.5 -51.5t28.5 -68.5q22 -76 41 -95q40 -42 46 -124q1 -12 1 -24q0 -67 -30 -118q-25 -45 -82 -102q-46 -43 -51 -75q-1 -4 -1 -9 q0 -30 27 -82q22 -40 22 -72q0 -7 -1 -14q-6 -37 -50 -86q-62 -69 -199 -77h-29q-118 0 -189 56q-57 46 -68 78q-4 12 -4 27q0 21 9 47q16 45 48 74q12 11 24 30.5t15 34.5q4 21 21.5 37t56.5 37q68 37 68 47t-107 10q-70 0 -100.5 7t-73.5 32q-44 25 -57 50q-9 15 -9 35 q0 13 4 28zM117 385q0 -28 48 -48t132 -24l111 -8q0 90 -2 98q0 10 -91 25q-60 10 -90 26.5t-65 51.5q-2 -6 -22 -56t-21 -65zM198 610q-2 -10 -2 -18q0 -25 15 -47q31 -43 104 -61q29 -6 52 -6q37 0 61 16q16 12 18 25t-9 16t-29 -7q-11 -6 -24 -6q-18 0 -40 11 q-39 19 -61 55q-14 25 -12 40t26 48q26 38 52 47t38 -16q9 -18 50.5 -41t51.5 -45q13 -26 12.5 -35.5t-16.5 -20.5q-36 -25 -17 -33q5 -2 15 -2q14 0 17 -7.5t-4 -35.5q-11 -39 -19 -217q-2 -8 -29 -40.5t-63 -65.5q-63 -60 -76.5 -78.5t-7.5 -42.5q9 -37 44 -52.5 t106 -15.5q39 0 71.5 10t47.5 19.5t46 32.5q-1 13 -4.5 50.5t-5.5 69.5t-3.5 67t2 59t11.5 30q40 59 48 240l8 111l-51 51q-41 44 -46 37q-2 -3 -2 -13q2 -38 -25 -25q-24 11 -40 36q-4 7 -4 10q0 16 -32 20q-12 2 -24 2q-24 0 -53 -6q-44 -8 -73 -26q-21 -12 -37.5 -27 t-16.5 -21q0 -18 -32 -36q-31 -22 -38 -56zM227 -49q0 -58 83 -87q49 -17 110 -17q40 0 86 8q73 10 95 25t40 59q9 22 11 33.5t-3.5 14t-18 -5t-34.5 -24.5q-60 -45 -152 -45h-15q-102 4 -146 57q-22 26 -39 20t-17 -38zM330 635q-3 -7 -3 -14q0 -16 14 -29q20 -20 50 -17 q28 3 36.5 16t-3.5 32q-13 21 -50 25q-8 1 -14 1q-25 0 -30 -14zM645 232q3 -5 10 -5q17 0 50.5 31.5t33.5 46.5q0 7 5 13t10 6q13 9 13 72q0 10 -1 22q-2 83 -16 92q-10 13 -16 13q-4 0 -6 -5q-4 -8 -9 -37q-15 -98 -23.5 -129.5t-27.5 -54.5q-25 -35 -25 -55q0 -6 2 -10z " />
<glyph unicode="r" horiz-adv-x="696" d="M62 232q0 36 18 47q13 5 36.5 82t26.5 81q15 20 21 43q6 20 -1 30t-38 22q-34 14 -42.5 28t-14.5 68q-6 41 -6 71q0 24 4 41q9 36 49 59q38 22 83 22h4q47 -1 89 -25q36 -24 41 -19q2 4 7 15t8 15.5t8.5 13t12 12.5t15.5 8.5t21.5 6t27.5 1.5q7 4 18 6q4 1 10 0 q11 0 29 -2q28 -4 48 -24q42 -42 63 -56q25 -17 30 -38.5t5 -114.5q0 -94 -6 -122t-37 -71q-40 -54 -74 -62q-6 -2 -12 -2q-28 0 -57 31q-32 36 -44 36q-5 0 -6 -8q0 -6 2 -15q1 -4 1 -9q0 -37 -42 -163q-48 -144 -71 -160q-24 -17 -58 -17q-27 0 -57 10q-72 24 -94 79 q-18 44 -18 80zM117 647.5q0 -6.5 0.5 -19t2 -19.5t4.5 -15.5t8 -13.5t11 -7q19 -9 24 -6t5 27q-1 24 -18 50.5t-37 43.5v-19.5v-21zM126 193q-1 -3 -1 -7q0 -16 24 -41q11 -11 25 -20q32 -21 54.5 -21t43.5 23q26 29 21 36.5t-51 4.5q-10 -1 -19 -1q-40 0 -55 15 q-36 29 -42 11zM146 754q-1 -2 -1 -3q-1 -1 1 -3t10 -5q10 -5 17.5 -32.5t25.5 -30.5q14 -3 20 -12t5 -33.5t-6.5 -54t-18.5 -86.5q-7 -31 -19.5 -68.5t-18.5 -57.5t-6 -49.5t11 -62.5q9 -27 21 -35t42 -8q38 0 61.5 20.5t45.5 73.5q12 28 12 65q0 71 -45 173 q-28 60 -29.5 77.5t15.5 41.5q22 34 59 34h2q38 -1 72 -36q40 -43 63 -51t54 12q36 24 36 71q0 41 -32 62q-37 21 -82 30q-15 2 -27 2q-10 0 -18 -2q-16 -5 -37 -26q-34 -34 -62 -34h-5q-15 2 -15 19q0 21 -63 30q-21 3 -37 3q-32 0 -43 -12q-6 -8 -8 -12zM328 633 q-2 -5 -2 -12q0 -21 18 -57q24 -47 49 -54q15 -1 64 -45.5t61 -44.5q24 0 64 110q12 33 12 47q0 11 -8 10q-6 -1 -17 -12q-15 -14 -65 -17q-10 -1 -19 -1q-36 0 -57 10q-15 7 -24 35.5t-31 36.5t-31 8l-1 -1q-9 0 -13 -13z" />
<glyph unicode="s" horiz-adv-x="745" d="M63 246q15 272 84 272q21 0 25 17t-6 61q-5 22 -5 46q0 32 8 66q14 62 38 68q10 6 29.5 17.5t30 17t31 14.5t44.5 17q59 18 105 18q19 0 35 -3q56 -10 116 -58q28 -24 32 -43q1 -7 1 -18q0 -20 -4 -54q-3 -31 -11 -57t-16 -31q-19 -10 -18.5 -23.5t20.5 -13.5 q38 0 72 -131q10 -37 10 -61q0 -5 -1 -11q-3 -26 -28 -106q-38 -117 -55 -137q-32 -37 -180 -49q-49 -4 -93 -5q-88 0 -155 17q-66 18 -90 54q-19 30 -20 89q0 13 1 27zM122 161q0 -7 21 -20q10 -6 27 -14q50 -23 139 -24q33 0 73 4q142 12 179 53q31 35 12 32 q-8 -1 -24 -10q-14 -8 -105 -8q-49 0 -120 2q-46 1 -81 1q-121 0 -121 -16zM123 369v-30q1 -49 3 -68q4 -24 17 -33q16 -10 161 -10h42q184 2 207 14q8 4 17 13t19.5 26t15.5 25.5t17.5 31.5t12.5 24l-35 93q-29 78 -57 104.5t-92 26.5q-24 0 -42.5 12t-27 25t-22 39 t-19.5 36l33 29q30 25 53 25h6q24 -4 64 -41q44 -40 64 -40h2q20 3 20 52q0 36 -7 45.5t-38 17.5q-59 12 -111 14q-10 0 -19 1q-35 0 -40 -8q-13 -13 -39 -13q-25 0 -66 -31t-41 -51t25.5 -59t42.5 -47q25 -8 112 -19q76 -10 112 -40t48 -93q2 -13 2 -25q0 -37 -24 -61 q-32 -30 -101 -30q-55 0 -106.5 25.5t-61.5 58.5q-7 25 -43 41q-24 11 -46 11q-11 0 -21 -3q-25 -6 -30 -19t-7 -69zM228 554q-2 -1 -2 -4q0 -4 3 -13q20 -29 28.5 -39.5t30 -28.5t50 -24.5t68.5 -6.5q92 0 92 11q0 25 -37 47.5t-94 33.5q-99 18 -115 23q-20 3 -24 1z M416 374q22 -5 35 -5q12 0 16 4q6 14 -18 25q-23 10 -49 10q-25 0 -25 -12q-1 -12 41 -22zM397 688q-1 -1 -1 -3q0 -3 2 -5q4 -6 12.5 -13t19.5 -14q28 -18 45 -18q8 0 13 4t5 9q0 10 -20 25q-2 2 -4 3q-31 20 -51 20q-13 0 -21 -8z" />
<glyph unicode="t" horiz-adv-x="585" d="M64 899q4 14 38 49q51 51 84 58q25 7 50 8q26 0 54 -10q52 -16 86 -56q32 -39 32 -85q0 -42 26 -43q34 0 50.5 -23.5t29.5 -94.5q10 -45 10 -79q0 -42 -16 -64q-28 -41 -115 -41q-38 0 -38 -19t40 -65q26 -29 37.5 -63t24.5 -54q20 -31 20 -102q0 -66 -20 -94 q-21 -29 -75 -38q-22 -4 -44 -4q-33 1 -67 9q-57 14 -81 45q-26 32 -29.5 135t-6 212t-25.5 149q-14 25 -30.5 114t-26.5 113q-9 21 -9 34q0 5 1 9zM143 756q5 -42 34 -106t44 -64q11 0 0 26l-17 43q-50 139 -60 140q-3 0 -4 -12zM148 906q6 -26 53 -54q48 -27 56 -53 q2 -18 -21 -19q-21 0 -21 -10q1 -13 29 -59q24 -40 24 -120q0 -83 -26 -210q-10 -45 -11 -65q0 -21 19 -54q18 -32 30.5 -40.5t45.5 -8.5q49 0 75 29q18 19 18.5 29t-16.5 44q-10 21 -16.5 38.5t-9 24t-11.5 18.5t-28 32q-31 32 -36 50q-2 8 -2 24q0 18 3 47q11 86 30 113.5 t68 27.5q36 0 45 6t15 33q1 10 1.5 17.5t-3.5 11t-8 5.5t-11.5 1.5t-13.5 -2t-14 -4t-13.5 -5t-12 -5t-9.5 -3.5q-30 -10 -40.5 6.5t7.5 45.5q13 22 18.5 39.5t4.5 35.5t-15 33t-41 27q-46 21 -71 24q-5 1 -10 1q-22 0 -52 -11q-30 -12 -30 -32q-1 -4 0 -8zM249 165 q0 -2 13 -13q28 -22 81 -22t60 22q10 28 -2 30q-6 1 -14 -12q-7 -11 -40 -11q-17 0 -42 3q-56 7 -56 3zM373 582q-1 -4 -1 -7q0 -13 22 -15h5q32 0 56 22q15 15 19 24q2 3 2 6q0 6 -4 10q-6 6 -26 11q-30 7 -45 7h-6q-14 -2 -14 -17q0 -17 -8 -41z" />
<glyph unicode="u" horiz-adv-x="798" d="M64 648q-1 28 -1 50q0 55 7 72q6 11 17.5 15.5t21.5 0.5q2 -1 8 -1q21 -1 87 21q84 28 87 28h5q26 0 44 -25q20 -28 23 -68v-13q0 -34 -13 -69q-14 -33 -30.5 -75t-28.5 -70q-14 -37 -15 -69q0 -6 1 -12q3 -38 26 -60q19 -18 28 -18.5t34 16.5q71 47 71 145q0 18 -2 37 q-4 37 -4 69q0 74 22 124q32 72 105 85q13 2 25 2q36 0 61 -18q33 -24 33 -70q0 -18 4.5 -35t9.5 -20q8 -5 11.5 -34t1 -56t-10.5 -27q-3 0 -5.5 -15.5t-4.5 -43t0 -59.5q1 -43 2 -63t4 -34.5t8 -17.5t15 -4q23 -3 26 -29q1 -5 0 -12q0 -30 -10 -96q-17 -104 -64 -136 q-24 -16 -57.5 -16t-77.5 16l-71 27l-60 -31q-57 -31 -140 -33q-7 0 -13 -1q-73 0 -111 26l-39 23v81v65v47q0 37 -1 97.5t-4.5 97t-8.5 52.5q-12 37 -16 134zM104 550l5 -13q4 -4 11 0.5t9.5 12t-2.5 15.5q-3 7 -10 14t-11 7q-8 -2 -8 -9t6 -27zM130 722q-4 -8 -4 -19 q0 -24 24 -58q39 -55 44 -103q1 -9 1 -19q0 -42 -17 -95q-2 -6 -8.5 -27.5t-8.5 -29t-7 -26.5t-5 -27.5t-1 -24.5t3 -24.5t9 -20t14.5 -20t22.5 -15.5q42 -23 81 -23q20 0 41 6q59 18 91 83q23 47 45.5 48.5t36.5 -44.5q14 -45 52 -61q17 -7 35 -7q24 0 50 12q44 22 44 38 q0 4 -2 7q-7 11 -40 11q-46 0 -62.5 20.5t-17.5 83.5v9q0 66 41 153q29 59 35 87q3 14 3 33t-3 42q-7 59 -25.5 74t-56.5 -3q-76 -36 -76 -225q0 -104 -20 -154q-26 -63 -82 -81q-18 -6 -36 -5q-38 0 -75 25q-40 26 -40 81q0 64 54 169q56 112 56 159q0 23 -13 31 q-16 10 -24 10h-2q-9 -1 -64 -18q-78 -24 -93 -52zM150 133q0 -35 47 -47q21 -6 48 -6q32 0 72 8q123 28 123 94q0 16 -9 16q-11 0 -58 -34q-38 -28 -99 -34q-15 -2 -28 -2q-42 0 -70 15q-17 9 -21.5 7t-4.5 -17zM542 116q32 -14 58 -14q22 0 49 25t27 47q0 8 -6.5 10.5 t-15 -1.5t-13.5 -13q-6 -10 -34 -10q-18 0 -44 4q-24 3 -40 3q-29 0 -28 -11q0 -19 47 -40zM588 362q6 -9 13 -9q11 0 25 23q24 40 24 83v10q-2 23 -13 35q-11 0 -33 -65q-17 -50 -17 -68q-1 -6 1 -9z" />
<glyph unicode="v" horiz-adv-x="759" d="M68 564q-5 20 -6 45q0 31 8 71q12 60 28.5 85t73.5 69q37 30 75 30l93 -47l47 -47l70 27q68 26 122 25q15 0 27 -1q64 -8 86 -53q7 -12 7 -34q1 -26 -9 -62q-18 -68 -54.5 -133t-70.5 -84q-48 -26 -129 -123q-14 -14 -26 -49q-11 -38 -49.5 -105t-49.5 -72q-2 -1 -3 -1 q-8 1 -16 13q-10 14 -18 41.5t-10 59.5q-3 37 -15 65.5t-32.5 59t-30.5 53.5q-21 46 -65 86q-41 37 -53 81zM121 592q-3 -1 -4 -5q0 -9 18 -33q25 -34 31 -22q-2 26 -26 53q-14 15 -19 7zM154 727q0 -38 15 -90.5t30 -67.5q28 -28 54 -71t36 -80q18 -53 26 -53q11 0 60 86 q18 34 35.5 57t26.5 31t38 28t41 29q37 33 62 45q27 13 49 55q16 31 16 52q0 8 -2 14q-5 12 -24 16q-10 2 -29 1q-16 0 -39 -1q-64 -4 -85 -18t-81 -92q-25 -28 -33 -70q-4 -26 -24.5 -42t-32.5 -5q-1 1 -1 7q0 17 11 73q3 12 8 33q18 77 18 100q0 4 -1 6q-2 10 -24 19 q-3 1 -5 2q-32 18 -61 18q-32 0 -58 -25.5t-26 -56.5zM381 347q0 -7 6 -9h1q6 0 10 8q4 10 2.5 20.5t-5.5 12.5q-1 1 -7 -9q-8 -14 -7 -23zM401 416q0 -16 8 -16q3 0 7 2q14 7 61 49q8 7 42.5 35.5t59.5 52.5t31 39q-4 3 -10 3q-28 1 -104 -59q-94 -74 -95 -106z" />
<glyph unicode="w" horiz-adv-x="1206" d="M63 600q0 145 5.5 174.5t40.5 61.5q29 27 69 45q42 18 88 21h10q41 0 76 -21q31 -17 73 -73t42 -81q0 -20 15 -15q14 5 26 27q12 24 75.5 53t102.5 29q41 0 98 -51q47 -38 59 -38h1q12 1 24 36q0 8 74 33q53 17 71 18t52 -14q49 -23 69 -80q13 -35 12 -76q0 -26 -5 -55 q-9 -49 -32 -104.5t-34 -55.5q-81 -43 -104 -141q-31 -128 -91 -191q-59 -61 -145 -61h-6q-32 0 -45 9.5t-33 47.5l-28 58l-35 -37q-60 -67 -106 -85q-24 -10 -54 -9q-27 0 -57 8q-65 17 -89 69q-20 44 -21 140q0 16 1 34l4 136q-67 27 -135 88.5t-68 99.5zM122 660 q-1 -6 -1 -12q0 -21 8 -54q6 -23 65 -69q42 -33 55 -33q4 0 5 3q2 9 -27 46q-53 64 -57 123q0 4 -8 9t-17 7q-19 4 -23 -20zM125 778q1 -7 16 -12.5t33 -5.5q46 -1 57.5 -16.5t-2.5 -55.5q-11 -30 -0.5 -53t76.5 -109l92 -118q0 -198 13 -209q3 0 10.5 2t21 6t21.5 6 q35 12 74 80t49 137q11 70 35 70h2q28 -3 48 -88q3 -13 5 -27q10 -60 36 -101.5t52 -41.5q23 0 44 33.5t32 86.5q10 70 28 101q10 21 56.5 58.5t60.5 37.5q9 0 59 37q28 22 37 38.5t9 49.5q0 32 -7.5 48.5t-29.5 29.5q-23 15 -37.5 16t-46.5 -10q-50 -19 -82.5 -56.5 t-32.5 -78.5q0 -50 -15 -83.5t-36 -29.5q-14 2 -18 15.5t-3 50.5q1 9 1 18q1 50 -19 96q-22 55 -57 70q-23 10 -37.5 8t-46.5 -18q-53 -30 -81 -63.5t-40 -84.5q-6 -27 -17 -44t-22 -19q-14 -2 -21 17t-16 79q-7 55 -18.5 89.5t-34 56.5t-43 32t-62.5 25q-1 -1 -13 -5 t-28 -8.5t-31.5 -10t-25.5 -11t-8 -8.5q0 -5 -7.5 -7t-15.5 -3t-13 -5q-3 -2 -3 -6q0 -2 2 -6zM306 197q2 -27 16 -62q13 -36 20.5 -40.5t22.5 11.5q16 16 16.5 23.5t-16.5 26.5q-14 18 -17 38q-1 7 -1 19q0 20 3 53q5 43 5 69q0 36 -9 40h-2q-12 0 -26 -70q-2 -6 -3 -14 q-9 -58 -9 -86v-8zM433 105q8 -10 30 -13q3 -2 8 -2q21 0 60 52q47 62 47 81q0 26 -19 15q-15 -8 -31 -35q-9 -17 -28 -33.5t-37 -22.5q-22 -8 -30 -20q-4 -6 -4 -11.5t4 -10.5zM634 237q-1 -1 -1 -3q0 -4 3 -6q4 -4 11 -9q11 -5 12 7q1 14 -9 16h-3q-11 -1 -13 -5zM674 199 q0 -31 23 -71t40 -40q18 0 22 23.5t-6 52t-30 41.5q-22 15 -32 18.5t-13.5 -2t-3.5 -22.5zM828 170q0 -39 10 -39q11 2 47 84.5t43 124.5q4 29 19.5 50t49.5 48q90 69 93 97q0 10 -12 10q-10 0 -27 -7q-15 -6 -31 -16q-59 -39 -87 -78t-52 -112q-35 -103 -43 -111 q-10 -12 -10 -51z" />
<glyph unicode="x" horiz-adv-x="817" d="M63 147q-2 12 -2 25q0 67 62 150q52 69 59.5 91t-14.5 42q-30 29 -34 59q-1 5 -1 11q0 31 14 91q21 103 21 134q0 29 7 36.5t38 12.5q40 5 70 5q44 0 66 -10q38 -18 48 -81q9 -61 22 -73t50 7q61 32 109 80q34 33 61 42.5t44.5 5.5t55.5 -21q11 -11 15 -73q2 -24 2 -49 q0 -39 -4 -79q-4 -44 -13.5 -59t-40.5 -27q-45 -18 -82 -18q-31 0 -31 -9q0 -13 31 -81q1 -3 2 -5q23 -50 33 -96q7 -34 7 -64v-20q-4 -38 -29.5 -61.5t-71.5 -26.5q-10 -1 -19 -1q-34 1 -72 9q-48 10 -48 23q0 7 -5.5 23t-14 37t-11.5 28l-35 -45q-34 -42 -102 -64 q-42 -13 -80 -13q-24 0 -45 5q-34 9 -46 20t-16 39zM113 190q0 -33 17 -52q6 -7 13 -5q23 -9 24 20q0 32 -17 51q-8 9 -15 7q-22 8 -22 -21zM168 283q0 -25 7 -35.5t28 -13.5q38 -9 58.5 3.5t43.5 61.5q29 63 57 79q11 7 23 6q18 0 39 -15q31 -24 43 -60q11 -48 26 -62 t56 -13q37 0 44.5 5t6.5 33t-22 56.5t-95 107.5q-39 39 -39 53q0 18 31 43.5t62 34.5q5 2 32 9t47 14t43.5 17.5t34.5 25t6 31.5q0 24 -6.5 34t-23.5 11q-22 3 -46 -12.5t-96 -78.5q-51 -45 -94 -45q-31 0 -41.5 11t-23.5 63q-9 29 -25 59.5t-29 43.5q-21 20 -31 21h-1 q-10 0 -35 -13q-31 -15 -37.5 -30t-1.5 -58q3 -34 15 -53.5t61 -71.5l51 -58q-114 -127 -150 -153q-18 -11 -18 -51zM175 558q-4 -3 -4 -10q0 -10 9 -28q17 -31 38.5 -46t33.5 -3q4 4 4 10q0 17 -31 49q-35 38 -50 28zM223 144q19 -1 46 19q6 4 10 9q32 29 17 28 q-14 -1 -52 -28q-26 -19 -26 -25q0 -3 5 -3zM364 292q2 -10 9.5 -9t17.5 10q17 9 5 28q-11 16 -22 10q-6 -3 -7 -14q-3 -10 -3 -18q-1 -4 0 -7zM500 152q0 -18 29 -22q8 -1 16 -1q21 1 41 9q28 12 22 32q-5 13 -24 2q-11 -12 -29.5 -7t-36.5 4.5t-18 -17.5zM514 489 q-1 -2 -1 -4q0 -5 11 -7h5q11 0 28 3q45 7 94 32.5t54 43.5q1 4 1 7q0 8 -10 8h-2l-20 -9q-17 -17 -80 -33q-68 -20 -80 -41z" />
<glyph unicode="y" horiz-adv-x="1005" d="M61 -14v27q0 64 4 80q5 19 39 50q46 43 94.5 43t73.5 -43q28 -46 58 -57q10 -3 22 -3q23 0 54 13q36 15 43.5 25.5t1.5 38.5q-18 98 -129 149q-53 25 -85.5 52.5t-64.5 76.5q-14 24 -17 48q-1 10 -1 25q0 19 2 48q9 75 29 115t61 65q46 27 89 27q96 0 183 -131l27 -37 q25 70 81.5 130t116.5 77q53 14 80 14q1 0 2 -1q27 0 60 -17q43 -23 55 -77q5 -25 5 -62q0 -43 -7 -101q-15 -124 -64.5 -183.5t-156.5 -84.5q-21 -4 -31 -17t-16 -43q-13 -78 -60.5 -206t-72.5 -154q-32 -32 -95 -76q-43 -28 -71 -34.5t-109 -6.5q-48 1 -76 3.5t-52.5 12 t-36 23t-20.5 42t-11.5 61t-4.5 88.5zM117 -116q2 -8 6 -19q10 -29 64 -51q35 -13 60 -13q14 0 25 4q28 12 56 9h4q31 0 110 50q82 52 82 75q0 9 -8 9q-13 0 -49 -26l-8 -6q-54 -38 -167 -44q-16 -1 -32 -1q-86 0 -121 29q-24 17 -24 -2q0 -5 2 -14zM124 39q6 -42 40 -76 q43 -41 112 -42h3q67 0 147 40q79 40 115 92.5t43 139.5q9 94 50.5 170t104.5 116q42 27 76.5 71t52.5 86q17 40 17 74q0 3 -1 6q-1 37 -26 50q-23 13 -49 13q-70 0 -158 -93q-40 -43 -53.5 -77t-19.5 -111q-3 -33 -28 -47q-24 -11 -32 14q-1 4 -5.5 19.5t-11.5 40t-12 44.5 q-17 60 -29 77.5t-52 37.5q-49 24 -76 26h-6q-26 0 -58 -16q-22 -9 -28.5 -22t-6.5 -45q0 -42 30 -76t128 -100q29 -20 43.5 -34t32.5 -42t25 -37q14 -21 19 -90q1 -20 1 -37q0 -42 -8 -68q-13 -45 -65 -85t-97 -40q-21 0 -39 12.5t-43 43.5q-38 45 -62 53.5t-53 -18.5 q-22 -23 -22 -55q0 -7 1 -15zM207 506q0 -32 52 -83.5t116 -84.5q22 -11 40.5 -20t29 -13.5t10.5 -3.5q0 11 -67.5 74.5t-88.5 70.5q-14 6 -29.5 21.5t-23.5 30.5q-16 35 -29 33q-10 -1 -10 -25zM690 365q0 -25 16 -27h2q16 0 50 18q58 33 97 90q38 57 38 120v3 q-2 0 -11 -12q-11 -13 -26 -31.5l-30 -37t-27 -30.5t-15 -9q-22 0 -58 -32.5t-36 -51.5z" />
<glyph unicode="z" horiz-adv-x="739" d="M66 684q8 94 26 164q4 11 16 14q6 1 12 1q8 1 18 -1q18 -4 38 -10.5t40.5 -16t35 -16t24.5 -12.5l84 29q79 27 127 27q3 -1 5 -1q49 -2 92 -33q51 -34 63 -34q20 0 29 -146q3 -51 3 -89q0 -72 -11 -101q-3 -11 -16.5 -24t-26.5 -19q-22 -12 -28 -21t3 -19t35 -24 q23 -11 29 -18q6 -8 10 -34q2 -11 2 -25q0 -22 -4 -52q-4 -109 -13 -123q-28 -30 -154 -32h-26q-112 0 -220 15q-120 17 -142 34q-15 15 -15 106q0 41 6.5 66.5t13.5 38t32 47.5q23 34 84.5 84.5t80.5 79.5q7 13 16.5 23.5t14.5 10.5q4 0 8 4t4 9q-5 7 -33.5 3.5 t-67.5 -15.5t-52 -23q-23 -20 -63 -20q-6 1 -13 1q-50 4 -63 29q-7 17 -7 58q0 27 3 65zM98 600q0 -20 19 -26.5t45.5 2.5t46.5 30q29 28 71 40q17 5 30 5q20 0 32 -10q20 -17 28 4q10 22 -8 45q-21 21 -26 21q-11 -2 -66 -30t-65 -38q-4 -8 -23.5 -11t-39.5 -3t-34 -7 q-11 -5 -11 -16q0 -3 1 -6zM114 733q-2 -8 -2 -16q0 -11 6 -21q8 -16 36 -12q35 0 92 41q48 35 33 45q-1 1 -3 2q-66 22 -132 34q-41 7 -23 -7q2 -2 6 -4q12 -7 12.5 -14t-10.5 -17q-9 -10 -15 -31zM167 268q0 -39 23 -47q13 -5 58 -5q54 0 150 6q180 12 188 24q17 17 9 54 q-7 34 -27 33q-11 -1 -23 -14q-34 -33 -83 -47q-26 -7 -48 -8q-20 0 -37 6q-35 12 -52 37t-14.5 53t24 57t58.5 48q74 37 107 66t61 83q36 69 36 112q0 40 -30 60q-35 22 -67 26q-8 1 -17 1q-26 0 -59 -8q-82 -19 -85 -26q-1 -5 13 -14q4 -2 13 -7q64 -34 64 -98 q1 -22 -7 -48q-30 -100 -156 -194q-49 -34 -76 -74q-23 -35 -23 -76zM299 137q-1 -11 127 -17q51 -2 88 -2q55 0 78 5q12 3 24 14t15 23q10 31 -3.5 40.5t-35.5 -12.5q-13 -13 -46.5 -19t-111.5 -11q-135 -7 -135 -21zM360 340q6 -2 22.5 7t31.5 22q39 31 100 57h1l1 1h1 l1 1h1h1l2 1q88 36 103 50q14 13 14 50v11v9q0 28 -2 43q-1 16 -5 20q-2 2 -5 3q-3 0 -6 -3q-7 -5 -13 -13.5t-17 -24.5q-13 -19 -20 -29q-60 -79 -90 -90q-47 -21 -100 -74q-25 -26 -25 -36q0 -4 4 -5zM445 325q3 0 5 -1q17 0 32 12q2 1 3 2q17 10 17 15q0 3 -4 3h-3 q-12 0 -36 -12q-20 -11 -20 -16q0 -2 6 -3z" />
<glyph horiz-adv-x="587" d="M61 735q-3 53 5.5 88t39.5 90q22 38 32.5 65t20.5 44t42 55q41 50 68 59t44 -22q17 -32 14 -69t-26 -66t-27 -56.5t13 -37.5q14 -7 14 -43q0 -24 -14.5 -42.5t-14.5 -45.5q0 -45 -45 -64t-116 -2q-28 6 -38.5 15.5t-11.5 31.5zM106 782q0 -14 23.5 -35.5t38.5 -21.5 t43 20q21 15 15 18q-4 2 -31 3q-17 0 -34 4.5t-20 9.5q-5 9 -13.5 12.5t-15 0.5t-6.5 -11zM156 852q10 -29 30 -38t43 5q10 9 8 18t-16 35q-17 31 -14.5 45.5t31.5 57.5q41 64 29 74q-8 7 -36 -23q-44 -44 -65 -93t-10 -81zM348 850q6 93 27.5 167.5t48.5 96.5q64 52 75 -4 q7 -36 -3 -121q-8 -65 -6.5 -90t16.5 -51q25 -49 18 -93t-44.5 -67t-82.5 -4q-34 13 -44 47t-5 119zM387 836q0 -13 23 -19q7 -2 14 -2q31 0 39 19q2 8 -8 12t-31 4q-38 3 -37 -14zM412 741q0 -11 14.5 -13.5t30 3.5t18.5 17q4 11 -13 14q-26 4 -45 -10q-7 -5 -5 -11z M438 963q-12 -29 1 -31q10 -1 18 15q1 3 2 7q10 26 1.5 30t-22.5 -21z" />
<glyph horiz-adv-x="548" d="M62.5 962q-2.5 42 11.5 76q8 19 20 33t21 14t17 6.5t11 14.5q7 17 17.5 18.5t56.5 -6.5q52 -10 58 -78.5t-33 -210.5q-22 -78 -41 -104.5t-56 -26.5q-46 0 -63 17q-19 19 -16.5 56.5t24.5 47.5q11 5 13 16t-2.5 22t-8 24.5t-0.5 21.5q1 6 -2 11.5t-8 5.5q-17 0 -19.5 42z M109 965q0 -9 20 -37q18 -26 20 -10q1 10 -8 34q-7 20 -22 23q-10 2 -10 -10zM121 760q0 -22 24 -19q14 3 19.5 11t0 16t-19.5 10q-24 3 -24 -18zM151.5 1031.5q0.5 -8.5 22.5 -36.5q12 -15 21.5 -35.5t9.5 -31.5q0 -22 6 -21q13 3 24 61q2 8 3 15q5 37 1.5 52t-20.5 22 q-23 13 -49 -4q-19 -13 -18.5 -21.5zM172 827q3 -1 10 2q8 3 17 12t12 17q7 20 -6 19q-16 0 -29 -27q-10 -23 -4 -23zM295 768q-10 31 1.5 67t37.5 58q19 14 21 24.5t-9 24.5q-34 46 -37.5 74.5t12 42.5t56.5 33q61 29 89.5 -3t16.5 -114q-15 -96 -79 -177q-52 -65 -86 -56 q-16 4 -23 26zM371 1013q-2 -29 18 -57q15 -20 23.5 -14t25.5 49q11 31 -1 47t-42 9q-22 -5 -24 -34z" />
<glyph unicode="&#xad;" d="M67.5 523q11.5 58 41.5 85q33 31 54 32t77 -26q66 -28 110 -28q51 0 74 -8.5t35 -32.5q15 -30 -2 -98t-47 -97q-24 -22 -45.5 -26t-102.5 -2q-97 3 -138 22.5t-54 71.5q-14 49 -2.5 107zM128 417q1 -11 22 -22q23 -12 48 -5t25 26q0 18 -47 18q-48 0 -48 -17zM133 545 q-10 -45 7 -58.5t67 0.5q31 9 45 8.5t27 -12.5q34 -31 79 -17.5t45 54.5q0 34 -47 25q-34 -7 -62 -7t-28 7q0 10 -55 24q-52 18 -61.5 15t-16.5 -39zM283 387q4 -9 22 -18q28 -13 55 1t29 42q0 9 -8 6q-2 0 -11 -1t-21.5 -2.5t-22.5 -2.5q-24 -3 -35.5 -9.5t-7.5 -15.5z" />
<glyph unicode="&#xc0;" horiz-adv-x="954" d="M61 109q9 551 31 579q14 14 14 37t56 133q86 182 213 215q86 23 27 54q-21 12 -60 22q-124 34 -98 244q4 13 30 39q21 21 55 22t66 -14.5t59 -45.5t35 -65q8 -40 23.5 -66t32.5 -26q38 0 -4 -88q-20 -41 -13.5 -66.5t35.5 -25.5q22 0 101 -69.5t79 -88.5q0 -6 39 -70 q50 -76 69.5 -129.5t22.5 -126.5q2 -49 13 -100t2 -131q-8 -78 -18 -101t-62 -75q-83 -83 -133 -108t-135 -25q-69 0 -135.5 20.5t-81.5 46.5q-8 13 -60 -18q-46 -31 -61.5 -31.5t-75.5 27.5zM113.5 225q-6.5 -4 1.5 -35q8 -37 24.5 -55.5t50.5 -25.5q30 -7 60.5 19.5 t44.5 70.5q1 2 2 6q5 21 -1 22q-8 2 -71 -19q-10 -3 -16 -5q-28 -8 -42 -7t-24 11q-23 22 -29.5 18zM118 309.5q2 -28.5 8.5 -35t20.5 -4.5q20 3 39 -8q29 -18 86 12q46 24 50 49q2 10 -5 17q-16 16 -16 96q0 53 -7 72.5t-38 48.5q-27 27 -30 36t12 15q24 10 47 -12 q44 -42 106 0q14 9 32 12.5t30 -0.5q27 -8 28 -22q0 -13 -24 -13q-31 0 -66 -35.5t-43 -72.5q-6 -34 7 -80.5t30 -46.5q11 0 18 -25q9 -29 76.5 -57.5t128.5 -28.5q49 0 69 9.5t60 52.5q71 75 86.5 182t-30.5 205q-35 80 -35 86q0 9 -41.5 71t-54.5 72q-8 5 -19 31 q-5 11 -28.5 28.5t-53.5 30.5q-75 35 -132.5 33.5t-111.5 -41.5q-91 -66 -129.5 -164.5t-58.5 -318.5q-7 -82 -10 -124t-1 -70.5zM279 788q19 59 65 84q31 17 79.5 17t70.5 -17q23 -17 46 -54.5t23 -55.5q-20 -45 -49.5 -61.5t-107.5 -16.5q-101 0 -117 16q-29 29 -10 88z M287 1247q0 -15 84.5 -60.5t111.5 -45.5q9 0 19.5 4.5t13.5 9.5q3 6 -5 9t-22 3q-29 1 -63 37.5t-51 42.5q-36 14 -61.5 14.5t-26.5 -14.5zM303 1342q6 -28 37 -35q16 -3 48 -20.5t46 -18.5q5 6 -9.5 57t-23.5 55q-17 10 -52 14.5t-40 -1.5q-12 -23 -6 -51zM319 745 q3 -16 31.5 -16.5t66 6t48.5 4.5q31 0 38 21.5t-18 40.5q-33 20 -74.5 18t-72 -24.5t-19.5 -49.5zM365 197q-12 -60 41 -82.5t186 -14.5q110 6 153 80q21 33 41.5 47.5t40.5 40.5q29 42 11 40q-16 -1 -38 -28q-3 -3 -5 -6q-58 -84 -137 -100t-181 31q-88 37 -90 37 q-10 0 -22 -45z" />
<glyph unicode="&#xc2;" horiz-adv-x="1003" d="M63 364v39q2 145 19 221.5t63 139.5q41 59 41 70q0 15 83 101t106 95q23 10 102 6q146 -5 285.5 -133t173.5 -289q12 -76 1 -172.5t-42.5 -187.5t-65.5 -115q-28 -20 -133 -57q-101 -35 -190 -34t-129 38q-31 28 -42.5 28t-45.5 -26q-40 -31 -100.5 -28.5t-92.5 36.5 q-26 26 -30 59t-3 209zM119 168q0 -51 88 -51q46 0 63.5 9t38.5 42q18 28 1 31q-16 3 -26 -12q-2 -2 -3 -5q-3 -13 -42.5 -15t-82.5 9q-20 5 -28.5 3.5t-8.5 -11.5zM119 233l78 -4q48 -2 68 3.5t42 25.5q26 25 31 50.5t-14 37.5q-18 11 -9 80q8 72 -6.5 97t-60.5 16 q-28 -5 -37.5 -2.5t-9.5 14.5q0 23 50 29.5t85 -11.5q27 -13 36 -12t27 16q25 25 79.5 34.5t74.5 -7.5q27 -22 21 -34q-4 -7 -21 -1q-25 8 -76 -6q-31 -7 -47.5 -22.5t-34.5 -51.5q-27 -56 -27 -82.5t27 -74.5q28 -52 66 -68t135 -18q80 0 107 6t71 37q40 28 56.5 42 t29.5 41.5t15.5 58.5t3.5 97q0 108 -23 164.5t-100 136.5q-81 86 -146.5 124t-167.5 38q-41 0 -88 -32t-73 -78q-25 -49 -52 -68q-65 -59 -105.5 -254.5t-4.5 -321.5zM265.5 1193.5q2.5 23.5 41.5 55.5q30 25 75 77t91 85q61 42 88.5 44.5t61.5 -32.5q72 -76 98 -172 t-14 -139q-25 -28 -53 -26t-85 34q-55 31 -90.5 26.5t-75.5 -48.5q-71 -77 -110 6q-30 66 -27.5 89.5zM301 707q-12 35 74 90q38 25 92.5 19.5t85.5 -36.5q20 -22 20 -27.5t-20 -25.5q-28 -26 -135.5 -34.5t-116.5 14.5zM319 1147q7 -22 28.5 -20t47.5 28q34 34 88 38 t97 -24q28 -18 49 -25.5t30 -4.5t8.5 13.5t-14 30.5t-37.5 44q-55 53 -101 52t-124 -56q-78 -56 -72 -76zM395 752q-1 -12 56 -11q58 0 56 14q-1 5 -13 11q-20 9 -58 6.5t-41 -20.5zM398 192q-1 -11 1 -26q3 -32 14 -44.5t43.5 -17.5t94.5 0q94 4 168 34t102 73 q10 15 11.5 21t-2 8t-15.5 2q-18 0 -74 -25q-46 -22 -165 -24t-144 18q-33 28 -34 -19zM466 1329.5q4 -6.5 44 -0.5q27 5 46.5 1t43.5 -21q46 -34 42 -8q-1 14 -19 47q-14 25 -27 33t-41 8q-47 0 -68 -25q-25 -28 -21 -34.5z" />
<glyph unicode="&#xc6;" horiz-adv-x="1308" d="M61 414q6 65 56.5 214.5t75.5 172.5q9 8 32 38t46 53.5t40 27.5q8 0 32 17.5t46 41.5q49 49 105.5 78t154.5 57q67 18 209 22.5t191 -8.5q40 -10 71 -61.5t31 -103.5q0 -3 -16 -45t-7 -60q9 -40 -28 -72q-25 -23 -32.5 -55t-11 -74t-16.5 -73q-18 -43 -31 -56.5 t-51 -23.5q-24 -7 -54 -9t-44 3q-50 12 -92 11t-47 -15q-2 -8 13 -29.5t38 -44.5q63 -60 103.5 -54.5t115.5 83.5q48 51 72 66t53 15q46 0 87 -40t42 -87q2 -53 -1 -86t-7 -47t-16.5 -42.5t-20.5 -53.5q-31 -96 -116.5 -134.5t-260.5 -31.5q-98 3 -135 12t-113 48t-98 44 t-53 -8q-101 -42 -217 -2q-65 22 -88 46.5t-23 72.5q-1 25 -19.5 89.5t-15.5 103.5zM125 449q-4 -119 8 -154q10 -26 27.5 -30.5t97.5 -6.5q109 -3 133 14q15 10 15.5 22t-13.5 46q-20 48 -12 92q7 38 -20 70.5t-58 21.5q-25 -8 -35.5 6.5t6.5 34.5q19 22 49 19.5t58 -27.5 l31 -29l43 31q34 25 75 24t72 -26q24 -19 19 -37q-3 -16 -23 -6q-27 12 -72 8q-45 -7 -66 -43t-12 -86t46 -94q25 -30 56 -44t118 -36q288 -72 432 -8q52 23 62 36.5t18 69.5q8 75 -1 110t-38 36q-41 2 -60.5 -8.5t-70.5 -61.5q-46 -46 -67.5 -57.5t-61.5 -11.5 q-143 0 -191 96q-28 54 -25 84.5t40 87.5l40 63h117q99 0 126.5 16.5t10.5 63.5q-13 40 -46 40.5t-99 -36.5q-73 -41 -102 -41q-34 0 -68.5 42t-34.5 83q0 54 29 76t98 19q161 -9 207 -4.5t68 30.5q46 55 10 103q-11 14 -69 26.5t-68 3.5q-1 -1 -142 -12q-140 -9 -201 -26 t-110 -62q-6 -5 -108.5 -85.5t-122.5 -113.5q-71 -118 -90.5 -177.5t-24.5 -151.5zM137 199q0 -13 53.5 -39.5t94.5 -34.5q38 -8 88 10t59 43q12 34 3.5 40.5t-52.5 0.5q-17 -2 -36.5 -5.5t-27 -4t-20.5 0.5t-31 5q-31 7 -81 1t-50 -17zM353 657q-13 15 18 86q26 66 55 66 t37 12t24 13t34 -8t34.5 -23t27.5 -32.5t11 -35.5q0 -38 -33.5 -58.5t-109.5 -27.5q-85 -7 -98 8zM411 702q8 -4 56 -4q33 0 50.5 4.5t20 14.5t-1 20t-14.5 27q-22 22 -47 12t-59 -53q-12 -18 -5 -21zM510 180q0 -8 14.5 -21t32.5 -20q129 -61 255.5 -74.5t225.5 23.5 q80 30 104 57q11 13 -9 13q-12 0 -60 -21q-63 -32 -248.5 -14.5t-273.5 63.5q-25 14 -33 12.5t-8 -18.5zM707 834q-3 -14 16 -21.5t47 -8.5t54 0.5t40 4.5q124 35 137 12q10 -8 26 -11.5t28.5 6t7.5 34.5q1 13 1 20.5t-0.5 12t-2 5.5t-4 1t-6.5 -3t-8 -5.5t-11 -6.5t-14 -6 q-33 -12 -71 -14.5t-173 0.5q-61 3 -67 -20zM779 570q14 -8 83 -17q46 -8 75.5 2t29.5 33q0 5 -5.5 8t-11.5 2q-10 -2 -108 -10q-82 -7 -63 -18z" />
<glyph unicode="&#xc7;" horiz-adv-x="1222" d="M60 522.5q1 11.5 14 22.5q18 14 18 55q0 54 23 162q17 80 33 116t57 85q27 33 33.5 40.5t21.5 22t16 14.5t22.5 12.5t35.5 20.5q69 39 119 55q67 22 151 25t117 -14q14 -7 81 -57t89 -58q22 -6 79.5 14t96.5 49q15 9 24.5 8.5t32.5 -8.5q29 -11 33.5 -47.5t-6 -75.5 t-24.5 -88t-15 -71q-1 -26 -10.5 -51.5t-18.5 -34.5q-34 -32 -135 -28t-127 38q-26 35 -110 62t-109 8q-13 -9 -60.5 -28t-68.5 -40q-12 -13 -26.5 -23t-18.5 -10q-11 0 -34 -43.5t-23 -64.5q-1 -15 18 -41t14 -43q-5 -22 50 -68.5t110 -66.5q69 -25 145 -11t123 60 q98 96 144.5 104.5t93.5 -59.5q31 -44 34 -89t-20 -108q-20 -66 -20 -98q0 -25 -10 -37t-41 -24q-67 -28 -125 -39q-56 -11 -56 -22q0 -3 5 -7q15 -12 6 -61t-29 -103.5t-27 -50.5q-52 -34 -182.5 -51t-185.5 2q-34 11 -55.5 74.5t-14.5 132.5q5 55 1 66t-34 18 q-66 17 -128 58t-72 87q2 0 2 4t-2 11t-6 14q-8 21 -16.5 119t-20.5 122q-13 28 -12 39.5zM141 293q9 -53 20 -68t70 -55q94 -63 207 -72q30 -4 41 -18q14 -21 53 -36q36 -15 33 7q-1 8 -8 21q-11 17 -44 30t-138 41q-46 12 -102 61t-93 109q-25 40 -35.5 34.5t-3.5 -54.5z M158 655q2 -138 16.5 -197t65.5 -126q46 -63 86.5 -94t93.5 -43q59 -13 117.5 -44t72.5 -55q24 -19 7 -68q-14 -41 -38 -47q-10 -3 -18 3q-11 4 -96 18q-40 5 -56 0.5t-7.5 -18t42.5 -33.5q61 -37 154 -25.5t125 60.5q27 40 18.5 60t-59.5 42q-52 22 -61 51t22 72 q7 21 42.5 27.5t72.5 2t61 -13.5q33 -11 101 3t92 38q25 25 29.5 78t-15.5 82q-21 34 -50 31.5t-71 -43.5q-78 -78 -191 -98.5t-214 22.5q-65 28 -91 51.5t-59 85.5q-32 63 -32.5 127.5t28.5 143.5q43 115 127.5 177t198.5 62q84 0 119 -26q82 -65 165.5 -67.5t120.5 60.5 q30 50 23 70q-5 12 -15.5 9.5t-46.5 -23.5t-71 -34.5t-79.5 -11.5t-68.5 33q-30 38 -111 72.5t-137 20.5q-161 -41 -242.5 -90.5t-129.5 -143.5q-27 -53 -34 -87.5t-7 -113.5zM399 764q0 -26 50 14q39 30 128.5 55t143.5 5q93 -30 133 -58q46 -31 95 -39.5t81.5 8t32.5 52.5 q0 28 -14.5 33.5t-36.5 -13.5q-21 -11 -43.5 -3.5t-55.5 22.5t-43 16q-38 13 -77 43q-26 21 -50.5 27t-80.5 6q-87 0 -117 -17q-24 -12 -85 -75.5t-61 -75.5zM401 -113q-6 -7 12 -25.5t43.5 -34t39.5 -15.5q33 0 137 28.5t119 40.5q20 20 20 35q-4 33 -45 -1q-4 -4 -6.5 -6 t-7 -5.5t-6 -4t-5.5 -3t-5.5 -1.5t-4.5 1q-19 -2 -44 -9t-43.5 -12t-47.5 -5t-61 9q-32 8 -63 10t-32 -2zM690 160q0 -17 16.5 -24t73.5 -13q69 -7 139.5 6.5t90.5 38.5q22 28 -19 19q-20 -4 -55 -17q-45 -17 -66.5 -18t-74.5 12q-86 23 -97 19q-8 -2 -8 -23z" />
<glyph unicode="&#xc8;" horiz-adv-x="1093" d="M64 838.5q-9 73.5 12 126.5q13 35 58 84t63 49q23 0 17 -22q-4 -19 -28 -36q-68 -45 23 -239q34 -72 42.5 -108t8.5 -107t-8 -101t-43 -90q-47 -80 -40.5 -118.5t69.5 -69.5q55 -28 204 -33.5t215 16.5q114 38 146 55.5t51 51.5q13 24 19.5 46.5t5 36t-10.5 13.5 q-12 0 -66 -29.5t-73 -46.5q-28 -25 -81 -44t-93 -19q-32 0 -44.5 11t-37.5 61q-74 146 0 223q28 29 70 36t77 -10t44 -51q14 -52 40 -27q29 28 40 108q6 44 1 83q-7 66 -12 66t-82 -43q-101 -57 -182.5 -44.5t-93.5 87.5t5 128.5t69 102.5l61 57h119q87 -2 109 -6.5 t50 -29.5t59 -80t54 -78q33 -37 33 -49q0 -20 12 -19q15 2 23 29q6 20 1.5 65.5t-16.5 88.5q-5 22 -74 69t-108 51q-89 12 -281.5 -8.5t-222.5 -21.5q1 8 2 19t2 15.5t3 12.5t6 9.5t11.5 6t18 2t27.5 -1.5q59 -6 120.5 3.5t61.5 23.5q0 13 -39 6q-46 -9 -99.5 6.5 t-78.5 46.5q-20 23 -29.5 65t-4 75.5t25.5 33.5q25 0 59 19q46 26 78 17t92 -66q42 -40 60 -68t22.5 -48.5t11.5 -84.5h93q64 1 89.5 -6.5t78.5 -44.5q73 -53 100 -85.5t45 -93.5q20 -67 1 -142t-56 -75q-20 0 -31 -18q-17 -28 -42 -29t-48 25q-25 27 -44 26q-12 0 -1 -18 q9 -15 -10.5 -107.5t-40.5 -130.5q-33 -63 -94 -76t-119 46l-39 39q-13 -56 4.5 -101t62.5 -45q27 0 92 28t74 42q8 10 64 43q14 8 29.5 13t27 6.5t29.5 0t26.5 -3t30 -6.5t29.5 -6q4 -115 -19 -176t-102 -152q-53 -62 -107 -77t-213 -15q-165 0 -254.5 25.5t-132.5 83.5 q-24 31 -31 68.5t3.5 83t21 74.5t31.5 77q23 52 29.5 75t3 42.5t-22.5 42.5q-12 12 -67 116q-36 71 -45 144.5zM132.5 804.5q3.5 -26.5 16 -67t25.5 -61.5q38 -65 34 -33q-6 45 -54 159q-17 36 -19 34q-6 -5 -2.5 -31.5zM192 139q-1 -3 13 -14q31 -22 149 -49 q169 -40 304.5 -13t189.5 113q13 23 27.5 41.5t19.5 20.5q12 4 12 18q0 34 -53 -25q-37 -41 -102 -71q-49 -24 -90 -29.5t-177 -7.5q-187 0 -249 12q-43 9 -44 4zM336 1270q-9 -18 26 -51q26 -25 34 -19q7 5 -19 43q-9 11 -18 18.5t-14.5 9t-8.5 -0.5zM367 1352 q0 -29 19 -49.5t79 -59.5q82 -53 92 -33q9 22 -67 95q-6 6 -13 12q-95 85 -108 47q-2 -5 -2 -12zM418 758q11 -28 25 -34t69 -5q75 3 109 29q70 61 127 61q33 0 32 11q0 14 -53 61q-51 46 -91 49t-120 -35q-69 -34 -90.5 -64t-7.5 -73zM469 936q1 -4 14 -4q25 0 68 24 q46 24 94 19.5t90 -35.5q58 -43 43 -19q-8 12 -33 40q-24 27 -42.5 33.5t-71.5 6.5q-63 0 -96.5 -11t-55.5 -36q-11 -14 -10 -18zM506 502q40 -24 88 -60q34 -24 48 -15q10 5 -9 24q-17 17 -17 41q4 15 -23.5 26.5t-45.5 11.5q-6 0 -17 -6t-19 -13t-5 -9zM852 764 q0 -53 22 -53t11 32q-17 61 -26 55q-6 -3 -7 -34z" />
<glyph unicode="&#xc9;" horiz-adv-x="1044" d="M66 219q6 64 15 88.5t40 52.5q29 27 43 57.5t26 45.5q24 21 18.5 51.5t-36.5 58.5q-60 52 -82.5 134.5t-5.5 183.5q15 97 50 126.5t128 26.5q86 -3 146 21q46 18 53 36q-2 10 -15 11q-9 2 -12.5 8.5t-3 14.5t-1 19t-5.5 20q-16 27 22 49q41 28 89.5 74t54.5 63 q3 10 18 27t33 28q40 29 66.5 29.5t60.5 -27.5q36 -28 49 -28t13 -5q0 -9 -25 -57q-11 -23 -18.5 -44.5t-10.5 -30t-13.5 -22t-33.5 -34.5l-49 -41q142 14 242 -86q46 -46 59.5 -156t-14.5 -211q-13 -51 -58 -116.5t-67 -67.5q-5 -3 -42.5 27t-45.5 20q-37 -98 -95 -162.5 t-110 -64.5q-34 0 -41 -14q-7 -12 24 -13q56 -4 106 16q7 4 13 7q25 15 86 76q53 54 94 55t66 -51q17 -37 15.5 -54t-29.5 -75q-30 -63 -42 -86.5t-29.5 -43.5t-29.5 -23.5t-43 -10.5q-51 -11 -106 -35q-74 -39 -146 -54.5t-178 -15.5q-114 0 -155.5 15t-75.5 65 q-22 36 -12 123zM113 160q0 -54 89 -80t206 -6q106 20 133 35q21 10 2 13q-20 3 -123 5q-115 1 -188.5 13.5t-84.5 31.5q-11 17 -22.5 12.5t-11.5 -24.5zM128 785q1 -15 24 -83q9 -30 22 -51.5t21 -21.5q14 0 7 17q-3 8 -12 24q-11 19 -18.5 56t-24.5 54q-19 19 -19 5z M138.5 286.5q0.5 -12.5 21.5 -36.5q68 -83 323 -68q95 5 139 13t95 32q68 30 105.5 68.5t37.5 77.5q0 42 -38 29q-29 -11 -68 -50q-43 -43 -97.5 -70.5t-95.5 -27.5q-30 0 -84 26t-74 50q-18 25 -18 112q-1 87 23.5 115.5t99.5 28.5q61 0 84.5 -18t15.5 -58q-6 -31 3 -32 q9 -2 38 30q34 37 54 82.5t20 85.5q0 44 -23.5 47.5t-74.5 -33.5q-88 -67 -158 0q-63 59 -57.5 128t77.5 128q124 97 258 21q66 -38 94.5 -87t43.5 -153q7 -48 15 -50q4 0 13 11q16 22 27 117q6 59 1.5 88t-28.5 78q-22 46 -40.5 65.5t-55.5 34.5q-47 20 -112.5 31.5 t-90.5 1.5q-14 -5 -65.5 -27t-89.5 -36.5t-86 -32t-81.5 -24t-47.5 -1.5q-51 7 -69.5 -13.5t-10.5 -76.5q10 -58 37 -105q17 -28 24.5 -64t22.5 -62q24 -46 19 -108.5t-38 -121.5q-13 -26 -27.5 -46.5t-19.5 -20.5q-11 0 -28 -39q-14 -27 -13.5 -39.5zM419.5 423 q3.5 -30 18.5 -44q21 -20 24 14v20q0 25 3 31q1 17 -12.5 25.5t-24.5 -2.5q-12 -14 -8.5 -44zM477 766q0 -10 17 -35q24 -35 47.5 -32t74.5 46q60 52 84 52q22 0 23 1l-21 9q-60 25 -121 21t-87 -33q-17 -19 -17 -29zM484 854q10 1 38 16q54 28 115.5 14.5t116.5 -67.5 q30 -29 39 -54.5t20 -109.5q9 -67 19 -64q12 3 6 79q-15 161 -88 231q-24 23 -47.5 31.5t-69.5 13.5q-53 5 -70.5 -1t-48.5 -38q-48 -52 -30 -51zM495 538q-3 -7 3 -20q9 -27 24 -28q13 0 13 24q4 17 -17 27q-18 10 -23 -3zM568 1206q2 -15 65 8q39 14 64.5 30t25.5 24 q0 24 -94 -19q-61 -28 -61 -43zM622 1293q4 -1 11 -1q28 0 60 19.5t38 40.5q12 39 -15 40q-33 2 -74 -45q-2 -3 -5 -6q-36 -43 -15 -48z" />
<glyph unicode="&#xca;" horiz-adv-x="1052" d="M63 979q4 58 33 77.5t115 22.5q264 10 289 31q28 17 75 31q50 15 55 22t-20 27q-26 20 -47 17.5t-67 -31.5q-60 -35 -82 -35q-27 0 -49.5 22t-22.5 49q0 25 84 118t129 118q48 25 59 25q19 0 53 -50.5t54 -107.5q22 -63 22 -91.5t-20 -35.5q-32 -12 -16 -23 q13 -10 49 -10q19 5 48 -11.5t50.5 -36t53.5 -51.5l40 -40q1 -8 4 -53.5t5 -79.5t3.5 -76t-0.5 -68t-8 -32q-14 -14 -14 -43q0 -33 -26 -52t-55 -11.5t-38 38.5q-4 19 -8 19q-6 0 -29 -78q-26 -98 -45 -113q-13 -12 -23.5 -34t-33.5 -40q-24 -20 -46 -23.5t-67 1.5 q-20 2 -33 3t-23 2t-11.5 -1t-3 -3t5.5 -6t11 -7.5t18.5 -10.5t21.5 -12q58 -31 127 -23q45 4 66.5 17t68.5 61q63 63 98.5 69t59.5 -40q21 -41 19 -82t-27 -111q-6 -17 -13 -36.5t-10.5 -29.5t-3.5 -11q0 -11 -80 -59.5t-110 -55.5q-98 -25 -220 -32t-209 7 q-135 23 -174 64.5t-28 148.5q10 87 57 168q1 3 4 8q32 58 33 79q1 22 -30 86l-3 6q-6 14 -10 22q-11 23 -16.5 42.5t-12 35t-24.5 41.5q-28 42 -43 118t-9 150zM129 945q12 -55 43 -89q45 -49 60 -88t26 -133q24 -208 -39 -277q-28 -28 -35 -69q-6 -28 0.5 -39.5 t36.5 -26.5q37 -19 86 -27t195 -18q153 -11 263.5 26.5t147.5 112.5q37 77 15.5 89t-78.5 -54q-57 -68 -125 -87.5t-156 7.5q-63 19 -100 67.5t-37 111.5q0 62 20.5 78t90.5 8q60 -7 82 -20.5t22 -41.5q0 -47 45 -2q30 33 41 203q-5 -5 -19.5 -22.5t-25 -28t-26 -18 t-29.5 -3.5q-45 14 -86.5 56t-50.5 85q-4 18 -15 57.5t-12 41.5q-12 40 6 83t55 60q43 20 105.5 15t112.5 -33q43 -14 83 -83t50 -128q4 -33 16 -33q9 0 12.5 52t-1 114.5t-15.5 87.5q-79 182 -342 98q-73 -23 -182 -36t-158 -7q-58 8 -74 -10q-20 -24 -8 -79zM135 786 q0 -22 17 -55t28 -33q16 0 4 42q-3 11 -8 26q-12 39 -29 42q-8 1 -11 -11q-1 -4 -1 -11zM158 129q9 -15 75 -41.5t95 -26.5q39 0 51 -16q12 -22 174.5 2t232.5 57q32 14 57 36.5t25 33.5q0 20 -50 -7q-5 -3 -11 -7q-47 -26 -268 -29.5t-295 21.5q-42 13 -58.5 14t-23.5 -10 q-10 -17 -4 -27zM396 1199q9 -17 18 -17q14 3 11.5 22.5t-19.5 18.5q-22 0 -10 -24zM446.5 1217.5q-3.5 -18.5 2.5 -21.5q3 0 38 35q25 24 42.5 29.5t52.5 1.5q56 -9 41 6q-11 11 -65 17t-79 -1q-8 -3 -18.5 -25.5t-14 -41zM483 448q13 -14 45 -14q49 0 61 20q6 8 -3 17 q-7 7 -49.5 10.5t-49.5 -2.5q-17 -17 -4 -31zM502 1335.5q7 -14.5 41 -6.5q28 6 75 -16q40 -22 50.5 -14t-6.5 49q-15 35 -33 49t-43.5 8t-61.5 -33q-29 -22 -22 -36.5zM526 821.5q-2 -12.5 9 -43.5q17 -54 88 -121l61 50q6 6 19.5 18t17.5 16t12 13t8 12.5t1 11t-4 13 t-13 13t-20 15.5q-40 29 -87.5 37.5t-72.5 -10.5q-17 -12 -19 -24.5zM528 930q-7 -11 9 -10q4 1 10 2q37 11 96.5 -9t99.5 -57q62 -58 72 -46t-50 76l-5 5q-38 40 -57.5 47.5t-79.5 7.5q-85 0 -95 -16z" />
<glyph unicode="&#xcb;" horiz-adv-x="1140" d="M61 155.5v51.5q0 64 8 82.5t54 56.5q43 36 53 53.5t10 61.5q0 39 -12 69t-51 91q-44 69 -53 97t-9 99q0 75 10.5 111t51.5 108q18 31 36 47t48 25q37 11 56 33.5t9 44.5q-8 14 13.5 93.5t36.5 92.5q57 45 116 -35q24 -35 28.5 -53.5t-3.5 -54.5q-14 -68 -14 -99 q0 -29 6 -37t28 -10q8 -1 27.5 -2t24.5 -2q9 -1 14 15t4 38.5t-10 38.5q-11 24 3.5 78t41.5 90q19 25 30 26.5t39 -11.5q22 -9 30.5 -23t14 -33.5t15.5 -31.5q4 -2 7.5 -7t5 -14t3 -17.5t1 -22t-0.5 -22.5t-1 -24.5t-1.5 -22.5t-2 -21t-1.5 -17h92q91 0 129.5 -27.5 t67.5 -112.5q28 -82 28 -116q2 -26 14.5 -46.5t18.5 -47.5q6 -32 -10.5 -76.5t-41.5 -91.5t-30 -66q-9 -29 -20.5 -40t-30.5 -11q-29 0 -47 15t-18 40q0 29 -15 29q-25 -1 -127 -98q-83 -80 -105 -94.5t-57 -8.5q-47 7 -66.5 23t-19.5 47q0 33 -26 33q-40 0 -22 -39 q11 -23 42 -54q28 -27 49 -37t48 -10q43 0 103.5 23t86.5 49q22 22 50.5 19.5t56.5 -27.5q38 -37 20.5 -158t-68.5 -168q-20 -18 -37.5 -25.5t-75 -12.5t-173.5 -5q-62 0 -131.5 -3t-98 -4t-64.5 4t-62 20t-60 45l-39 32.5t-18 25.5t-9 31.5zM108 814.5q-2 -6.5 1 -15.5 q2 -6 7.5 -32t12.5 -46t16 -23q8 -1 13 -22t14 -21q14 0 14 13.5t-14 21.5q-7 1 -26.5 66t-30.5 65q-5 0 -7 -6.5zM119 164q-7 -8 21.5 -33.5t70.5 -51.5t70 -34q38 -10 58 -9.5t52 11.5q15 14 191.5 20t193.5 13q15 9 43.5 45.5t16.5 52.5q-4 3 -8.5 1.5t-4.5 -5.5 q0 -5 -15.5 -17t-35.5 -20q-33 -17 -82.5 -19.5t-210.5 5.5q-245 10 -297 29q-57 18 -63 12zM131 266q0 -63 240 -84q230 -20 292 -14.5t123 47.5q44 31 59.5 55.5t8.5 51.5q-7 29 -33 28.5t-63 -31.5q-78 -65 -187 -65q-45 0 -88.5 30.5t-68 74.5t-32 93.5t18.5 86.5 q24 38 66 45.5t74 -17.5t32 -69q0 -20 4 -34.5t9 -14.5q20 0 38.5 9.5t18.5 20.5q7 18 48 72.5t74.5 104t29.5 63.5q0 2 -3 3t-8.5 0.5t-11.5 -3.5q-33 -11 -123.5 -30t-116.5 -19q-45 1 -75.5 36.5t-33 83t22.5 95.5q32 51 106.5 67t152.5 -12q62 -20 139 -12 q39 5 59.5 3.5t27 -7.5t13.5 -27q22 -51 31 -102l10 -38q1 1 -2 79q-5 125 -49 211q-32 -1 -122.5 -4.5t-152.5 -5.5t-134 -1.5t-111 6.5q-74 8 -131 21q-43 8 -70 -2t-27 -33q0 -25 -28 -49q-26 -23 -26 -51.5t26 -75.5q35 -69 98 -326q12 -50 -6 -94.5t-70 -93.5 q-20 -20 -34.5 -41.5t-14.5 -30.5zM317 1251q8 -12 31 -12.5t45 12.5q16 7 10.5 25.5t-20.5 38.5t-18 18q-14 0 -34.5 -35t-13.5 -47zM332 1136.5q7 -17.5 28 -20.5q18 -2 26.5 6t12.5 33q8 40 5 44t-37 -3q-22 -5 -32 -23.5t-3 -36zM428 478.5q4 -3.5 47 -3.5q36 0 46 5.5 t7 21.5q-4 26 -33.5 26.5t-52.5 -24.5q-18 -22 -14 -25.5zM490 829q-1 -22 18 -16q65 28 99 30.5t75 -14.5q55 -20 113 -20q36 1 46.5 -7t16 -26.5t21.5 -30.5q20 -17 23 -14t3 37v8.5v7.5q0 75 -11.5 88t-62.5 -2q-39 -11 -60 -8.5t-66 23.5q-69 32 -109 31t-80 -35 q-26 -22 -26 -52zM500 751.5q-6 -7.5 8 -20.5q14 -14 31 -15.5t67 7.5q108 20 109 36q1 10 -33 25l-4 2q-51 21 -62.5 20t-68.5 -28q-41 -19 -47 -26.5zM602 1249q0 -27 15 -32t34 14q14 14 15 22t-9 19q-22 25 -38.5 18t-16.5 -41zM617 1156.5q-6 -19.5 16 -48.5 q19 -27 36 -11q16 15 7 48q-3 15 -9 25.5t-10 9.5q-34 -4 -40 -23.5zM768 571q-4 -10 11 -2q9 4 22 13q35 23 35 34q1 29 -34 -3q-29 -25 -34 -42zM883 655q8 -46 8 -69q0 -28 12 -26q15 3 23 40q7 45 -11 70q-19 31 -29 26.5t-3 -41.5zM1024 711q-6 -12 6 -12q16 2 21 12 q5 14 -7 14q-13 0 -19 -12q-1 -1 -1 -2z" />
<glyph unicode="&#xce;" horiz-adv-x="561" d="M61.5 802q-2.5 73 16 135.5t47.5 74.5q14 5 18 12t-3 13.5t-23 9.5q-18 3 -24 22.5t-7 49.5t-6 42q-10 11 21 59.5t66.5 96.5t33.5 55q0 19 24 29q50 29 114 4t87 -82q21 -53 47 -61q16 -3 20.5 -15.5t4.5 -50.5q0 -20 -4 -35.5t-14 -28.5t-16 -19.5t-22.5 -19 t-21.5 -16.5l-55 33q-50 29 -91 24t-61 -42q-19 -36 -6 -46q7 -6 22 9q32 32 107 -6q57 -28 68.5 -95.5t-25.5 -152.5q-26 -60 -23 -120.5t37 -105.5q26 -37 49.5 -151t12.5 -152q-17 -60 -19 -104q-1 -38 -47.5 -53.5t-106.5 -2t-96 51.5q-29 31 -45 95t-2 95q33 71 38 97 t-7 65q-29 89 -82 174q-24 39 -26.5 112zM113 793q-16 2 5 -43q16 -33 40 -62q27 -34 31 -34q4 -1 8 16q4 13 -13.5 42.5t-39.5 54t-31 26.5zM119.5 938q-3.5 -10 7.5 -23q11 -15 9.5 -46t17.5 -44q51 -49 71.5 -100.5t20.5 -128.5q0 -95 -25 -150q-17 -40 -20.5 -102 t10.5 -84q13 -17 82 -27q46 -6 62.5 -2t35.5 23q31 31 31 53q0 36 -25 118.5t-47 115.5q-31 49 -36.5 131t16.5 145q41 118 0 178q-19 30 -51 34.5t-52 -19.5q-15 -17 -40.5 -24t-43.5 -23q-20 -15 -23.5 -25zM152 1102q5 -5 15.5 3t20.5 25q27 37 82 46q52 7 48 23 q-4 15 -44 19q-24 2 -47 -4q-20 -6 -52 -54.5t-23 -57.5zM191 1246q5 -1 34 14q35 19 61 18t72 -21q50 -22 47 -2q-3 17 -47 66q-37 41 -60.5 50.5t-43.5 -7.5t-45 -68q-24 -48 -18 -50zM369 1178q-2 -4 14 -19q19 -19 47 -13q21 4 12 21q-3 5 -18 10t-29 5q-24 0 -26 -4z " />
<glyph unicode="&#xcf;" horiz-adv-x="618" d="M61 1204q0 39 16 91t34 71q12 12 47.5 2t50.5 -31q25 -32 27 -62t-15 -75q-27 -73 -10 -74q7 0 18 11q18 18 56 18q33 0 89 -59t68 -105q8 -25 19 -241q6 -134 13.5 -175t29.5 -71q31 -43 45 -131q10 -62 7 -86t-26 -70q-29 -57 -61 -71t-139 -15q-55 -1 -80.5 4.5 t-40.5 20.5q-29 30 -43.5 81t-11.5 103q3 45 28.5 108.5t46.5 75.5q4 9 4.5 19t-1.5 17.5t-5.5 21t-5.5 22.5q-6 32 -51 84q-51 59 -65 188t26 179l31 37q-54 2 -77.5 25.5t-23.5 86.5zM123 1243q7 -19 18.5 -19t36.5 19q17 12 18 21t-10 22q-26 31 -52 13t-11 -56z M126 1166q14 -10 30 -4q4 2 6 5q19 19 2 20q-8 1 -25 -5q-27 -6 -13 -16zM172 819q0 -24 19.5 -66t33.5 -48q12 -4 11 13q-2 21 -27 81q-15 38 -29 37q-8 -1 -8 -17zM192 1039.5q-10 -28.5 3 -75.5t53 -130q64 -130 67 -201t-51 -148q-45 -66 -49.5 -109.5t31.5 -76.5 q31 -28 97 -30.5t103 22.5q43 31 48 59t-23 88q-31 68 -42.5 141.5t-14.5 221.5q-2 99 -7.5 135.5t-25.5 69.5q-13 21 -26.5 36t-18.5 15q-4 0 -8 6.5t-4 13.5q0 16 -11 22.5t-29.5 3.5t-43.5 -16q-38 -19 -48 -47.5zM217 240q3 -11 35 -41q32 -24 82 -21.5t97 22t52 38.5 q3 11 0 12.5t-16 -2.5q-150 -44 -207 -15q-46 23 -43 7zM378 1215q5 53 40 75q41 29 45 27q55 -28 69 -41.5t19 -42.5q7 -57 -8.5 -85t-57.5 -42q-52 -18 -82 19t-25 90zM436 1168q-1 -10 11 -12q4 -1 8 -1q23 0 43 9t20 20q0 16 -57 2q-23 -5 -25 -18zM445 1254 q-10 -14 13 -17h3q24 -2 28 14q2 11 -14 14q-2 1 -4 1q-16 2 -26 -12z" />
<glyph unicode="&#xd4;" horiz-adv-x="1071" d="M68 428q12 62 12 139q0 72 27 161t67 149q31 45 108 112.5t97 67.5q15 0 55 20q38 20 103.5 20t91.5 -20q28 -20 84 -20q35 7 95 -26.5t73 -55.5q6 -10 45.5 -62t52.5 -79q39 -77 25 -218.5t-78 -271.5q-4 -9 -26 -54t-30 -65q-23 -52 -73.5 -98t-114.5 -74 q-55 -23 -178 -30q-89 -5 -120.5 0t-88.5 38q-25 14 -58 29.5t-50 24.5t-38 26t-38 41q-29 39 -42 116.5t-1 129.5zM111 344q4 -51 15 -73t46 -56q69 -66 179.5 -106t189.5 -27q56 9 134.5 38t100.5 48q28 26 23 34t-37 -14q-69 -47 -169.5 -56.5t-182.5 24.5 q-74 33 -140.5 86t-99.5 108q-41 70 -53 70q-10 0 -6 -76zM138.5 596q0.5 -71 43.5 -164q23 -50 78.5 -114t75.5 -64q2 0 74 -31q63 -31 148 -29.5t159 33.5q69 31 124.5 92.5t55.5 108.5t12 47q19 0 34 58.5t15 130.5q1 121 -52 202.5t-171 147.5q-21 12 -43.5 6.5 t-34.5 -9.5t-36 19q-28 32 -89 28.5t-124 -40.5q-101 -60 -147 -110.5t-83 -141.5q-40 -99 -39.5 -170zM290 1188q27 54 97 115q20 18 42 52.5t56 51.5q53 23 70 23q31 1 68 -22t45 -48q7 -33 49 -78q21 -23 31.5 -43t8.5 -32t-11.5 -18t-29 -1t-44.5 20q-51 31 -124.5 28.5 t-150.5 -36.5q-82 -36 -82 -47q0 -12 -18 -12q-31 0 -7 47zM313 636q-3 63 24 118t73 75q55 25 130.5 12.5t121.5 -53.5q39 -36 45 -82.5t-19 -113.5q-29 -82 -47 -100q-11 -10 -7.5 -21t25.5 -31q58 -50 1 -48q-28 1 -80 14q-157 38 -230 126q-34 41 -37 104zM371 659 q0 -40 10 -60t45 -54q43 -43 83 -52.5t71 15.5q34 28 58 73t24 81q0 42 -24.5 70.5t-80.5 53.5q-55 24 -83.5 20t-61.5 -40q-24 -26 -32.5 -48t-8.5 -59zM457 1296q13 -4 86 -4q106 0 106 4q-3 4 -21 23t-40 40.5t-29 29.5q-83 -45 -102 -72q-12 -17 0 -21z" />
<glyph unicode="&#xd9;" horiz-adv-x="1222" d="M61 967q0 37 3 60t6 37t14.5 21.5t19.5 10t29.5 6.5t36.5 8q27 10 133 10q68 -1 90.5 -7.5t48.5 -31.5q23 -23 30 -41.5t5 -54.5q-1 -18 -2 -88.5t-2 -101.5q-5 -129 6 -197t41 -98q78 -75 124.5 -86t92.5 35q41 39 48 92.5t-5 206.5q-12 141 -2.5 207.5t49.5 109.5 q29 32 74 32.5t88 -28t66 -76.5q66 -142 96 -317q10 -62 9 -97t-13 -98q-18 -86 -43.5 -134.5t-93.5 -119.5q-23 -23 -37.5 -42.5t-18.5 -26.5t-13.5 -16t-25.5 -16.5t-51 -21.5q-88 -35 -205 -33t-233 40q-97 33 -115 43q-35 21 -51 72q-7 23 -16 67q-29 153 -41 276 q-6 59 -17.5 83.5t-52.5 66.5q-45 47 -58.5 94t-13.5 154zM125 911q-14 -14 3.5 -64.5t47.5 -80.5l45 -43q18 74 4 117q-9 25 -49 53.5t-51 17.5zM137 1018q11 -50 18.5 -60.5t37.5 -13.5q39 -3 59 -45q17 -33 18 -76t-10 -188q-8 -87 -5 -110.5t24 -41.5q28 -25 28 -63 q0 -36 44 -94.5t77 -65.5q49 -10 344 -10l105 63q111 69 159 153t47 206q-1 90 -30 183.5t-71.5 150.5t-80.5 47q-42 -10 -52 -24q-19 -23 -21 -132q-1 -40 -1 -156q0 -202 -4.5 -244t-29.5 -73q-29 -35 -57 -47t-83 -12q-57 0 -107 21.5t-110 72.5q-46 39 -60 59t-14 49 q0 40 18 48t38 -23q9 -14 10 -14q4 0 -18 141q-10 59 16 162q12 45 13.5 77t-4.5 52t-23.5 32.5t-39 18t-55.5 8.5q-39 -5 -110 -8q-59 -5 -67.5 -10t-2.5 -33zM307 266q0 -25 40 -54t106 -52q90 -31 216 -32t179 32q57 37 132 108.5t85 110.5q-6 0 -54 -38.5t-73 -61.5 q-22 -19 -55.5 -29t-65.5 -33q-34 -24 -61 -30.5t-86 -6.5q-96 -1 -196.5 21.5t-131.5 52.5q-31 26 -34 19q-1 -2 -1 -7zM372.5 1270.5q-20.5 89.5 16.5 152.5q12 20 31 36t31 18q54 10 81.5 1t83.5 -55q55 -44 75.5 -77.5t37.5 -108.5q7 -34 -8.5 -77t-40.5 -58 q-19 -11 -85.5 4.5t-143.5 48.5q-58 26 -78.5 115.5zM432 1278q0 -22 20 -48.5t48 -39.5q39 -21 106 -24.5t72 14.5q3 8 -3.5 10.5t-23.5 1.5q-68 -12 -166 78q-36 34 -50 20q-3 -4 -3 -12zM479 1397q-9 -37 3.5 -59.5t52.5 -39.5q46 -17 57 -32q8 -14 49 -14t41 14 q0 15 -51.5 72t-79.5 75q-34 20 -49 16t-23 -32z" />
<glyph unicode="&#xdb;" horiz-adv-x="1077" d="M60.5 478.5q-1.5 73.5 15.5 117.5q17 42 17 140.5t-15 135.5q-13 40 -8 55.5t14 46t6 60.5v60q5 2 30.5 12.5t38.5 15.5t41.5 14t38 9h29.5q38 -10 115 -47q26 -14 29.5 -9.5t-0.5 44.5q-5 40 16 93t45 62q16 7 53 61.5t45 61.5q67 62 209 -117q60 -74 57.5 -138 t-65.5 -101q-31 -17 -52.5 -15t-49.5 27q-14 12 -33 11.5t-70 -17.5q-81 -26 -104 -23q-24 6 -24 -7q-1 -11 22 -64q26 -60 26 -189t-26 -164q-13 -18 -21 -55.5t-0.5 -72t33.5 -37.5q25 -14 65 6.5t50 19.5q47 0 90 101t55 241q9 114 39 172t90 80q38 12 54 11.5t38 -13.5 q30 -21 41.5 -69t18.5 -191q6 -120 -10.5 -196.5t-63.5 -151.5q-33 -53 -33 -64q0 -10 -110 -129q-97 -104 -157.5 -136t-160.5 -30q-108 1 -178.5 28t-130.5 89q-69 69 -90 133q-18 55 -19.5 128.5zM112.5 918.5q0.5 -18.5 14.5 -62.5q18 -52 15.5 -141t-23.5 -127 q-41 -145 34 -261.5t218 -162.5q153 -50 276 31q-225 12 -375 106q-53 33 -67 90q-15 52 -16 136t14 124q12 30 16 174q2 88 -1.5 116t-20.5 46q-28 30 -41 26t-31 -44q-13 -32 -12.5 -50.5zM211 1044q3 -8 16 -24q31 -40 42.5 -107t0.5 -135q-17 -94 -25 -151.5 t-8.5 -108.5t6.5 -79.5t28.5 -55.5t49 -43.5t74.5 -38.5q84 -38 172.5 -43.5t151.5 25.5q26 12 44.5 25.5t18.5 21.5q2 12 36 52.5t34 59.5q0 14 6.5 25t15.5 12q9 2 26 28.5t30 63.5q20 52 26.5 95.5t4.5 119.5q-2 203 -35 235q-27 25 -90 -30q-32 -29 -39.5 -55 t-16.5 -139q-13 -164 -51.5 -241t-136.5 -140q-64 -40 -104 -34.5t-99 64.5q-46 46 -55 65t-6 62q3 57 19 60q13 3 20 -39l8 -41q5 9 14.5 26t13.5 24.5t11 22.5t10 25t6.5 26.5t4.5 32t1 37t-2 46.5q-8 111 -35.5 177.5t-81.5 98.5q-63 39 -72 22q-3 -5 -3 -14t-6 -13.5 t-12.5 -5.5t-11 -3.5t-1.5 -10.5zM465 1133q-36 -22 12 -48q16 -8 32 -4t46 25q89 60 137 6q28 -29 55.5 -23.5t32.5 39.5q3 26 -9 33.5t-69 18.5q-96 19 -141.5 21.5t-66.5 -7.5q-17 -6 -22 -16.5t-3 -21t-4 -23.5zM520 1282q4 -8 51 -20t105 -23t61 -12q30 -6 29 7 q-2 18 -64 79q-67 63 -90 63q-16 3 -46 -40t-36 -44q-10 0 -10 -10z" />
<glyph unicode="&#xdc;" horiz-adv-x="1110" d="M64 832q-5 23 4 69q10 59 24 88q12 24 2 41q-11 18 1 36t32 11q13 -6 57.5 30.5t59.5 25.5q84 -35 84 0q0 13 -10.5 33.5t-14 33.5t7.5 39q9 14 25.5 60t38.5 65q29 25 59.5 24.5t69.5 -28.5q29 -22 39 -41.5t16 -65.5q8 -66 -14.5 -105t-77.5 -58q-39 -13 -53 -34 q-10 -14 8 -14q12 0 45 -67q31 -65 27 -149.5t-41 -161.5q-33 -74 -39 -162q-3 -33 -2.5 -50.5t1.5 -28.5t9 -14.5t14.5 -4.5t23.5 -1t32 -2q56 -8 88.5 23t60.5 117q14 43 47.5 110t40.5 115q3 20 23 66.5t20 70.5q0 26 33.5 85t60.5 81q25 19 61.5 16t76.5 -28 q32 -20 38.5 -36.5t6.5 -80.5q0 -61 -9.5 -94t-48.5 -107q-137 -265 -137 -288q0 -21 -18 -62q-31 -68 -42.5 -95t-21 -51t-11 -30.5t-9.5 -36t-19 -65.5q-15 -52 -29 -68t-59 -37q-53 -22 -151.5 -27.5t-135.5 11.5q-92 44 -130.5 69t-51.5 52q-17 33 -30.5 150.5 t-8.5 187.5q9 123 1 185t-40 122q-29 53 -34 76zM127 821l2 -12q8 -44 18 -42q15 3 15 89q0 88 -12 96q-7 4 -14 -17q-16 -52 -9 -114zM172.5 1030q-0.5 -11 13.5 -43q48 -111 31 -188q-11 -53 -20.5 -165t-8.5 -161q4 -52 39 -125q27 -53 47 -67t103 -41q72 -25 107 -29.5 t91 2.5q80 11 113.5 31.5t52.5 72.5q23 66 66 154q20 43 31 72t14 39t15 32.5t38 63.5q66 109 86.5 207t-14.5 133q-25 25 -40.5 25.5t-47.5 -21.5q-26 -10 -74.5 -153.5t-58.5 -157.5q-27 -42 -27 -70t-37 -116t-63 -122q-19 -23 -84.5 -39t-110.5 -8q-39 7 -84.5 54 t-56.5 90q-8 31 4 55.5t39 28.5q17 9 17 -6q0 -5 -3 -19q-5 -28 4 -29q12 0 23 68q10 61 37 125q34 73 34.5 111.5t-28.5 101.5q-38 80 -86 106q-40 25 -80.5 28t-65.5 -17q-15 -12 -15.5 -23zM199 242q-14 -25 7 -71q14 -29 38 -48q64 -50 117 -70t124 -20q169 0 203 84 q17 38 9 45.5t-52 -4.5q-87 -26 -214 -5t-177 74q-40 42 -55 15zM379 1169q-9 -13 10 -28q28 -23 80.5 5.5t52.5 65.5q0 16 -26 8q-16 -6 -27 -18q-20 -20 -51 -20q-30 0 -39 -13zM383 1270q0 -19 7 -26t26 -7q30 0 61 21t31 42q0 22 -43 19q-49 -1 -65.5 -11t-16.5 -38z M646 1222q-1 77 28 124q23 37 42 41t56 -21q42 -29 54 -55t14 -88q0 -49 -6 -70.5t-27 -44.5q-32 -35 -67.5 -35t-63.5 35q-29 37 -30 114zM709 1167q12 -34 19 -37.5t36 11.5q14 8 24.5 20.5t10.5 22.5q0 22 -3.5 23t-23.5 -11q-11 -12 -29.5 -5.5t-30.5 3.5t-3 -27z M709 1317q-17 -40 12.5 -65.5t58.5 3.5q19 19 12.5 35.5t-34.5 16.5q-26 0 -33 18q-6 15 -16 -8z" />
<glyph unicode="&#xe0;" horiz-adv-x="868" d="M72 199q-22 130 4 178q16 28 16 63q0 43 32 105.5t79 107.5q45 43 80 54.5t112 7.5q29 -1 63 22.5t48 28.5q68 27 124 1t56 -83q0 -32 16.5 -69t20.5 -89q5 -63 1 -83.5t-26 -43.5q-14 -16 -20.5 -24.5t-3.5 -9.5q1 0 7 -1t17 -2t21 -2q29 -1 63 -31t23 -44 q-2 -10 -7.5 -56.5t-13.5 -85t-18 -51.5q-25 -52 -106.5 -55t-172.5 43q-63 32 -63 22q-42 -50 -132 -51t-157 51q-32 25 -44.5 44t-18.5 53zM109 256q0 -8 4 -25q20 -79 108 -102q75 -20 139 2t64 68q0 17 -9.5 18t-49.5 -10q-131 -38 -201 26q-54 50 -55 23zM147.5 451 q-3.5 -22 8.5 -29q15 -20 4 -45q-12 -25 16 -72q22 -37 37.5 -44t77.5 -7q75 0 102.5 16t44.5 70q12 44 29 61q17 11 35 -12t18 -57q0 -39 11 -54.5t49 -33.5q43 -19 88 -16.5t65 24.5q21 25 13 35t-48 10q-42 0 -82 45q-39 42 -42 101.5t30 121.5q25 48 31.5 93.5 t-10.5 56.5q-31 21 -88.5 6t-57.5 -43q0 -17 -20 -45q-7 -10 -11 -14t-10 -2t-10.5 8t-17.5 22q-12 15 -29.5 26t-28.5 11q-26 0 -95 -50t-69 -69q0 -6 -9.5 -27.5t-18.5 -43t-12.5 -43.5zM162 1053q-1 45 16 73t58.5 20.5t76.5 -44.5q29 -32 70 -55q41 -22 61 -56t9 -63 l-15 -35l-82 20q-87 21 -124 36t-52 36q-17 23 -18 68zM203 1061q0 -31 45 -64t96 -39q32 -4 32 8q0 15 -61 68q-83 69 -106 46q-6 -6 -6 -19zM214 461.5q-14 36.5 11 79.5q9 18 22.5 33t22.5 18q43 11 98.5 -20.5t55.5 -67.5q0 -13 -34.5 -58t-29.5 -61q11 -29 -14 -27 q-23 2 -63 29q-55 38 -69 74.5zM258 485q1 -1 5.5 -4t12.5 -8.5t13 -9.5q26 -21 45 -3t2 46q-14 24 -31 24q-8 0 -21.5 -10t-22 -21t-3.5 -14zM494 172q0 -27 27 -40.5t100 -22.5q79 -9 102 8q37 33 2 43q-23 6 -82 6q-102 0 -106 18q-6 20 -24.5 15t-18.5 -27zM631 444 q0 -30 5 -31q4 0 15 11q22 27 19 72q-1 48 -14 46q-15 -2 -22 -56q-3 -20 -3 -42z" />
<glyph unicode="&#xe2;" horiz-adv-x="901" d="M63 309q-6 103 6 160.5t60 155.5q21 42 39 63t45 31q46 20 92.5 20t63.5 -20q14 -17 34.5 -9t61.5 46q31 31 84 47q49 14 81.5 6t59.5 -41q20 -25 25.5 -54t5.5 -116q0 -92 -5 -118.5t-26 -49.5q-41 -43 0 -46q17 -1 47 3q53 9 80 -12q19 -14 20.5 -31t-8.5 -82 q-13 -87 -38 -124t-86 -64q-45 -20 -68.5 -21t-85.5 13q-82 17 -113 43q-18 18 -27.5 17t-35.5 -22q-43 -30 -113 -30q-50 0 -71 9t-60 46l-59 53zM130 475.5q-9 -113.5 56 -182.5q25 -26 44 -32.5t73 -6.5q56 0 75.5 7t47.5 36q16 16 27.5 33t11.5 22q0 22 18 13 q22 -10 30 -40q1 -2 1 -3q7 -38 41 -53t111 -15q46 0 65 6t31 25q21 31 9 42t-58 3q-47 -19 -92.5 28.5t-45.5 92.5q0 36 15 95.5t26 67.5q10 8 26.5 58.5t0.5 62.5q-28 31 -98 9t-92 -68q-17 -38 -38 -39t-59 33q-33 30 -51 36.5t-32.5 -1t-47.5 -37.5q-7 -6 -10 -9 q-76 -70 -85 -183.5zM136 233q-1 -7 3 -22q13 -46 48 -64.5t98 -13.5q110 9 110 76q0 10 -5.5 11t-18.5 -7q-29 -14 -91 -12.5t-92 18.5q-49 29 -52 14zM161 916q4 28 27 38q27 12 73 58.5t73 62.5q41 25 50.5 27t29.5 -15q28 -25 59.5 -90t24.5 -82q-5 -11 -19 -13t-57 5 q-63 11 -113.5 5t-50.5 -27q0 -23 -18 -29.5t-31 12.5q-16 23 -33 23q-19 0 -15 25zM217 469q-4 36 29 72q29 31 57.5 27.5t50.5 -40.5q12 -23 12.5 -38t-8.5 -39q-16 -43 4 -60q15 -12 19 -36.5t-8 -35.5q-7 -11 -41 23q-21 21 -72 61q-39 30 -43 66zM266 963l70 -5 q62 -6 76.5 5t-9.5 45q-22 34 -33.5 33.5t-54.5 -37.5zM272 483q-1 -17 5 -18t7 12q1 9 -3 17q-4 10 -7 1q-2 -5 -2 -12zM494 180q0 -34 9 -41t64 -14q149 -16 174 35q15 29 7 33q-9 6 -74 -3q-30 -1 -45.5 -1.5t-39.5 6t-34 10t-30 11.5t-27 11q-4 0 -4 -47zM626 478 q-2 -17 5 -21q12 -12 20 8q3 8 4 22t0.5 25t-2.5 29t-2 24q-2 -6 -8.5 -24.5t-10.5 -32t-6 -30.5z" />
<glyph unicode="&#xe6;" horiz-adv-x="1056" d="M66 270q-11 85 13 213.5t66 200.5q41 79 43 86q7 23 63.5 44.5t106.5 21.5q46 0 79.5 -20.5t33.5 -49.5q0 -23 -18 -26.5t-35 18.5q-39 48 -123 8q-51 -23 -74 -53t-45 -99q-32 -109 -34 -158.5t26 -105.5q27 -56 66.5 -78t109.5 -22q10 0 20.5 1.5t21 5t18.5 6t19.5 9 t17.5 10t18 11.5t16 11t16.5 11.5t14.5 10.5q30 -37 49 -54t57 -31t93 -14q53 0 75.5 6t48.5 29q52 44 43 53q-11 11 -159 -13h-1h-1h-1h-1l-1 -1h-1h-2q-32 -4 -48.5 3.5t-50.5 41.5q-52 52 -57.5 88.5t29.5 79.5q25 32 38.5 38.5t47.5 2.5q155 -23 180 -20q24 2 48 25l9 9 q43 43 41 84t-49 90q-22 22 -47 39.5t-39 20.5q-41 11 -114.5 -0.5t-114.5 -34.5q-70 -39 -71 -23q0 6 7 21q35 65 152 82q101 13 177.5 -12.5t119.5 -85.5q22 -31 29 -66t-2.5 -75t-19.5 -66.5t-30 -71.5q-34 -73 -34 -90q-1 -13 7 -27q15 -23 -6 -76t-20 -61 q0 -28 -32.5 -77t-66.5 -74q-31 -22 -58.5 -27.5t-108.5 -5.5q-90 0 -113 5.5t-53 35.5q-36 36 -49 39.5t-31 -17.5q-23 -28 -85 -20t-102 43q-29 22 -63 37q-34 17 -43 33.5t-16 80.5zM98 295q0 -30 31.5 -66t74 -60t85.5 -35t65 9q39 33 -18 34q-8 0 -19 -1 q-83 -6 -161 84q-50 59 -56 46q-2 -4 -2 -11zM266 594q0 25 26 55.5t58 46.5q27 15 42 13t18.5 -10t13.5 -19.5t27 -15.5q28 -6 37.5 -22t2 -37.5t-23 -42.5t-35.5 -40q-21 -18 -6 -28q16 -10 20 -45q3 -21 -6.5 -30.5t-21.5 -1.5t-17 29q-10 38 -45 46q-34 9 -62 41t-28 61 zM319 594q0 -15 17.5 -32t32.5 -17t38 20.5t23 34.5q2 14 -61 9q-54 -5 -50 -15zM496 178q-9 -46 41 -71.5t122.5 -17.5t122.5 48q32 25 14 29q-11 2 -36 -6q-31 -11 -116 3t-105 34q-19 19 -28 14.5t-15 -33.5zM599 693.5q4 7.5 22 13.5q30 15 43 28q23 22 88 9.5t65 -39.5 q0 -25 -10.5 -43.5t-24.5 -18.5q-18 0 -22 -16q-8 -21 -53.5 -15t-73.5 31q-22 20 -30 31.5t-4 19zM625 410q0 -18 22.5 -31.5t52.5 -13.5q54 0 53 18q0 12 -26 23q-20 9 -44 12.5t-41 1.5t-17 -10zM625 477q2 -8 14.5 -7t27 6t13.5 7q-2 8 -34 5q-22 -3 -21 -11zM692 676 q0 -13 9 -18t22.5 0t24.5 18q15 20 11.5 24t-34.5 0q-13 -1 -23 -8.5t-10 -15.5zM741 469q2 -1 25.5 -16.5t39 -23.5t25.5 -9q20 0 38 16t18 35q0 8 -3 12.5t-7 3.5q-9 -1 -64 -8.5t-72 -9.5z" />
<glyph unicode="&#xe7;" horiz-adv-x="747" d="M63.5 316.5q-4.5 35.5 10.5 156.5q25 184 113 283t243 116q52 3 72 13q9 11 46 -3.5t60 -37.5q34 -34 45.5 -71.5t5.5 -92.5q-5 -37 -12 -51.5t-20 -14.5q-28 0 -33 -53q-3 -32 -39.5 -81t-40.5 -74q-3 -22 3 -27t32 -2q79 8 111.5 -33.5t25.5 -140.5q-5 -52 -13.5 -67.5 t-45.5 -33.5q-58 -28 -78 -28q-16 0 -20.5 -11.5t-0.5 -48.5q5 -43 -17 -90t-22 -74q0 -21 -9.5 -34t-33.5 -25q-33 -17 -98 -19t-74 13q-6 12 -32 12q-64 0 -64 121q0 83 37 101.5t117 3.5q-23 20 -49 50.5t-29 47.5q0 9 -15 23t-36 24q-22 9 -52 31.5t-47 42.5 q-36 39 -40.5 74.5zM143 395q113 -120 146 -127q17 0 32 -37t15 -77q0 -43 35 -78q49 -46 25.5 -83t-95.5 -26q-22 3 -30 3.5t-12.5 -3.5t-4.5 -16q0 -51 139 -35q68 9 84 37q14 25 9.5 56.5t-21.5 31.5q-8 0 -21.5 15t-23.5 36q-18 33 -20.5 48t8.5 28q22 28 39.5 36.5 t56.5 8.5q50 0 88 41q26 27 29.5 37.5t-9.5 17.5q-20 15 -36 13.5t-60 -25.5q-68 -36 -110.5 -24.5t-112.5 85.5q-29 32 -34.5 54t-2.5 98l4 108l64 33q88 52 146.5 19.5t35.5 -119.5q-15 -51 2 -46q8 2 22 19q18 21 11 70q-5 30 -0.5 43.5t28.5 30.5q22 15 29 31.5t6 48.5 q-3 53 -26 69q-22 15 -85 15.5t-118 -13.5q-43 -11 -100.5 -60t-98.5 -104q-11 -15 -18 -35.5t-10 -51.5t-4 -52t-1 -63v-58zM146 283q-11 -2 16 -25q34 -25 56 -24q7 0 7 4q5 5 -19 20q-44 27 -60 25zM268 -162q0 -11 47 -20q91 -16 103 18q3 8 -12 12q-17 5 -62 5 q-76 0 -76 -15zM303 449q6 -29 54.5 -77t70.5 -48q16 0 22 6.5t0 15.5t-22 16q-26 10 -40 57.5t-3 84.5q5 15 1 20.5t-19 5.5q-30 0 -50.5 -25.5t-13.5 -55.5zM311 588q-2 -15 47 -6q31 4 45 0.5t25 -17.5q15 -22 31 -14.5t16 35.5t-33.5 38.5t-74.5 -3.5q-54 -18 -56 -33z M434 434.5q0 -14.5 12 -14.5q14 0 14 14.5t-14 14.5q-12 0 -12 -14.5zM466 138q2 -9 33 -16q13 -3 17 -1l30 7q30 6 48 15t18 21q-1 31 -30 10l-12 -9q-23 -18 -29 -15q-7 0 -52 -5q-25 -1 -23 -7z" />
<glyph unicode="&#xe8;" horiz-adv-x="716" d="M67.5 451q15.5 111 73.5 191t135 87q152 13 224 -6q41 -10 78.5 -45.5t39.5 -63.5q0 -21 13 -34q9 -12 20 -93q7 -60 2.5 -72.5t-37.5 -29.5q-9 -4 -21 -10t-15.5 -7.5t-8.5 -6t-4.5 -5.5t1.5 -7.5t4 -11t9 -16t11 -22.5q19 -38 21 -55t-9 -51q-19 -50 -29 -50 q-12 0 -12 -18q0 -16 -55 -41q-42 -19 -110 -14t-131 21t-99 34q-47 24 -63 41t-25 53q-28 121 -12.5 232zM115 397q15 -129 78 -129q24 0 24 -10q0 -20 49 -35.5t106 -17t101 11.5q92 32 71 73q-19 36 -122 62q-49 11 -73 10t-60 -14q-40 -17 -51 -16.5t-21 20.5 q-9 17 -7 22t19 5q41 0 54.5 43t-17.5 74q-14 14 -18.5 29t2 24.5t22.5 9.5q17 0 32 27t28 28q15 0 59 19q34 19 62 8.5t28 -41.5q0 -25 -28.5 -40.5t-65.5 -12.5q-29 3 -37 -3t-8 -34q0 -20 34.5 -22t79.5 13.5t72 39.5q40 34 36 68t-50 63q-74 45 -164 34t-153 -73 q-100 -97 -82 -236zM135 215q0 -17 53.5 -44.5t87.5 -27.5h46q-12 5 -42.5 17t-53 22.5t-38.5 20.5q-51 31 -53 12zM176 985q0 67 14 100q13 25 26.5 24.5t68.5 -28.5q64 -31 116 -85t52 -91q0 -41 -27.5 -58t-97.5 -18q-57 -1 -76 5.5t-43 35.5q-19 25 -26 49t-7 66z M231 932q13 -26 54 -47t63 -13q19 7 -10 33q-7 6 -19 15q-58 45 -85 40q-17 -4 -3 -28zM231 1044q0 -14 50 -48t71 -33q14 0 14 4q0 2 -6 4q-7 1 -12.5 8.5t-5.5 15.5q8 6 -27 27q-53 32 -78 32q-10 -1 -6 -10zM346.5 418.5q7.5 -11.5 28.5 -17.5q36 -9 93 -6.5t87 13.5 q23 8 30 20t7 47q2 46 -13 55q-8 4 -16 -16q0 -15 -71.5 -40t-112.5 -25q-22 0 -31 -9.5t-1.5 -21zM355 135l11 -3q7 0 25 -1q60 -2 102 8t48 27q5 14 -3 18t-18 -6q-8 -8 -96 -26q-67 -14 -69 -17z" />
<glyph unicode="&#xe9;" horiz-adv-x="741" d="M74 399q-31 17 4 52q12 18 49 105.5t57 111.5q28 32 99.5 72t101.5 40q22 0 21 13q-1 14 -27 22q-63 20 -61.5 61t67.5 78q49 27 117 103q42 52 71 64.5t52 -11.5q19 -19 16 -84t-25 -115q-17 -36 -35 -51t-63 -33l-69 -24l79 -37q92 -41 122 -81t30 -122 q0 -80 -12 -119.5t-39 -46.5q-25 -6 -26.5 -21.5t15.5 -58.5q11 -24 10 -44.5t-14 -59.5q-23 -71 -61.5 -94t-144.5 -27q-83 -5 -112 0t-81 33q-66 34 -96.5 81.5t-30.5 119.5q0 66 -14 73zM143 276q0 -29 27.5 -60t67.5 -50q47 -22 174 -19q86 3 108 8.5t37 28.5 q16 26 13.5 28t-31.5 -5q-126 -28 -199 -15t-133 74q-15 14 -22.5 9.5t-20.5 7.5q-12 10 -16.5 8.5t-4.5 -15.5zM147 418q11 -43 67 -91t116 -65q82 -20 100 -20q31 0 82.5 20.5t56.5 34.5q8 23 -30 48t-83.5 31.5t-78.5 -9.5q-34 -22 -50 2.5t15 50.5q21 17 30 59.5 t-5 55.5q-20 20 -14 44t32 33q12 4 24 15t15 20q9 25 48 30.5t67 -13.5q21 -13 24.5 -23t-4.5 -27q-12 -23 -49.5 -27t-56.5 15q-13 13 -23.5 11.5t-12 -14t6.5 -30.5q17 -31 33.5 -41t50.5 -10q49 0 78 27t31.5 61.5t-22.5 69t-73 47.5q-165 48 -280 -70 q-46 -46 -75.5 -119t-19.5 -116zM382 877q4 -17 46 -19h12q43 1 83.5 26.5t45.5 53.5q4 20 -6 20q-11 1 -59 -26q-48 -25 -88 -33q-36 -8 -34 -22zM424 455q-3 -19 6.5 -26t44.5 -13q46 -8 89.5 7.5t53.5 43.5q7 22 -4.5 26.5t-48.5 -6.5q-44 -11 -90 -8q-30 3 -39.5 -1.5 t-11.5 -22.5zM494 967q9 -9 57.5 30t48.5 56q0 18 -10 18q-14 0 -58.5 -48.5t-37.5 -55.5z" />
<glyph unicode="&#xea;" horiz-adv-x="817" d="M64.5 397.5q7.5 94.5 29.5 126.5q19 27 19 47q0 19 63 93q38 43 61.5 61.5t49.5 22.5q45 7 55 22q11 17 92.5 4t140.5 -41q60 -29 93.5 -62t64.5 -93q20 -39 22.5 -63.5t-7.5 -90.5q-10 -81 -34 -109t-79 -28q-38 0 -47 -14t-17 -83q-4 -52 -14 -71t-43 -41 q-32 -23 -57.5 -27.5t-94.5 0.5q-240 15 -290 199q-15 53 -7.5 147.5zM113 418q0 -38 29 -85.5t63 -62.5q13 -6 23 -14.5t10 -13.5q0 -23 163 -39q41 -4 62 0t39 18q25 22 26.5 41.5t-20.5 26.5q-19 7 -12 24q3 10 -6.5 21t-30.5 18q-29 10 -45 9t-49 -13q-54 -19 -70 -12 q-14 5 -16 15.5t8 21t28 14.5q21 4 27.5 18t0 31.5t-16 32.5t-19.5 25q-3 3 -11.5 12.5t-12.5 14.5t-4 9q0 11 14 14.5t29.5 -2t19.5 -16.5q9 -25 71.5 -45t133.5 -22q89 -1 118 10.5t29 48.5q0 34 -15.5 72.5t-29.5 38.5q-17 8 -59 40.5t-70 43.5q-40 18 -101 23.5 t-75 -7.5q-10 -7 -10 -35q0 -22 -20 -25t-27 19q-10 14 -53 -34t-82.5 -120t-38.5 -116zM127 229q0 -13 34.5 -42t71.5 -48q42 -22 106.5 -29.5t112.5 1t48 30.5q0 11 -121 15q-82 2 -111 8.5t-69 34.5q-64 47 -70 38q-2 -2 -2 -8zM149 871.5q7 14.5 48 52.5q30 25 52.5 52 t46.5 60.5t38 50.5q21 24 71 24t89 -24q29 -17 72.5 -90t43.5 -104q0 -16 -41 -57q-31 -30 -52 -32.5t-52 21.5q-16 12 -80 19q-41 6 -63 1t-56 -28q-43 -27 -60.5 -23.5t-51.5 46.5q-12 17 -5 31.5zM227 856q6 -10 56 16q40 22 101 21t95 -23q23 -15 49.5 -12.5t26.5 19.5 q0 12 -58 39.5t-79 33.5q-21 7 -73 -12t-90.5 -45t-27.5 -37zM326 987q2 -5 78.5 -6.5t80.5 -5.5q23 -1 23 11t-33 50q-34 40 -70.5 38.5t-58.5 -42.5q-4 -9 -8.5 -19t-7.5 -17.5t-4 -8.5zM328 572q1 17 30 36q9 6 19 10q20 8 69 0.5t66 -20.5q22 -19 15.5 -44t-35.5 -32 q-20 -12 -71.5 19t-66.5 26q-26 -10 -26 5zM403 399q14 -5 14 7q-1 12 -11 14h-3q-26 0 0 -21zM512 391l35 -26q24 -18 57.5 -23.5t58.5 3t25 28.5q0 22 -30 27.5t-99 -3.5z" />
<glyph unicode="&#xeb;" horiz-adv-x="684" d="M61 359q-2 21 4 48t8.5 37t12.5 37t16 47q19 60 84 128t105 71q13 1 78 14.5t105.5 9t64.5 -35.5q19 -24 37 -60.5t34 -56.5q19 -25 6 -41q-18 -23 -18 -59q0 -11 -4.5 -21t-9 -16t-17 -14.5t-17 -11t-20.5 -10.5l-18 -9q3 -3 13.5 -10.5t12.5 -9t10 -8.5t9.5 -10t7 -10 t6.5 -13t4.5 -15t4.5 -19.5t2 -23.5t2 -29q3 -70 -2.5 -89.5t-40.5 -57.5l-49 -53q-123 -6 -228.5 12.5t-161.5 62.5q-23 18 -28.5 40.5t-10.5 105.5q0 49 -2 70zM116.5 886q-1.5 35 35.5 97q13 24 26.5 41.5t18.5 17.5q30 0 69 -21.5t49 -45.5q16 -36 16.5 -71t-17 -61 t-41.5 -41.5t-55.5 -12t-59.5 27.5q-40 34 -41.5 69zM125 246q12 -50 31 -70.5t66.5 -32.5t162.5 -22q46 -5 89 10.5t50 40.5q9 28 0.5 33t-51.5 -4q-72 -17 -170 1.5t-129 53.5q-17 20 -30.5 25.5t-18.5 -4t0 -31.5zM156 508q-14 -14 3 -102t38 -109q26 -26 114.5 -42 t141.5 -5q42 9 50 18.5t11 53.5l4 57q-112 4 -160 -21q-50 -25 -62.5 -16t-12.5 66q0 46 -6 61t-29 25q-33 14 -36 40q2 23 28 25q11 0 22 -5.5t14 -12.5q3 -8 23.5 -17t44.5 -12q57 -9 107.5 11t64.5 57q14 33 5.5 77t-34.5 54q-57 23 -133.5 -3.5t-129 -73t-54.5 -81.5 q0 -31 -14 -45zM170 872q0 -18 33 -29t57 -1q25 9 20.5 22t-32.5 13q-31 0 -55 8q-23 10 -23 -13zM192 949q0 -2 1 -3q3 -5 18 -9.5t31 -4.5q35 0 33 11q0 2 -1 3q-8 15 -49 15q-36 0 -33 -12zM317 641q30 24 52.5 26.5t52.5 -12.5q43 -25 21 -50q-25 -29 -101 -27 q-103 0 -25 63zM338 451q0 -33 19 -36t73 21q73 32 90.5 42.5t22.5 23.5q5 18 -8 16t-37 -20q-11 -9 -39 -16t-56 -7q-44 0 -54.5 -3.5t-10.5 -20.5zM400.5 948.5q4.5 14.5 25.5 42.5q16 19 40 28t41.5 10t63.5 1v-76q0 -46 -6.5 -67t-29.5 -49q-47 -54 -85.5 -38.5 t-48.5 93.5q-5 41 -0.5 55.5zM453 874q-1 -5 4 -12q9 -15 34 -12t25 18q0 9 -8 15t-19 4q-17 -1 -26 -4.5t-10 -8.5zM471 967q-14 -14 5 -28q20 -13 33 -2q7 5 7 17q0 15 -16.5 20t-28.5 -7z" />
<glyph unicode="&#xee;" horiz-adv-x="573" d="M68 846q-25 88 51 110q27 8 77.5 64t69.5 67q38 22 90.5 18.5t81.5 -32.5q26 -25 51.5 -73t22.5 -68q-8 -46 -18 -65t-35 -29q-23 -9 -34 -9.5t-24 9.5q-28 22 -100 15t-115 -36q-50 -33 -78 -26t-40 55zM106 219q0 58 27 82q32 31 37 72t-20 84q-17 27 -23 58.5t-6 88.5 q0 72 8 92t51 60q60 53 82 53q38 0 101 -39.5t77 -71.5q31 -77 13 -236.5t-68 -250.5q-40 -72 -63 -91.5t-74 -27.5q-32 -4 -50 1.5t-46 29.5t-37 42t-9 54zM121 874q0 -29 29 -24q24 5 51 31q21 18 43 24t67 6q77 0 113 -12q19 -6 24.5 -4.5t2.5 12.5q-3 16 -54 27 q-138 23 -182 19q-75 -9 -94 -79zM180 166q5 -14 38.5 -19t65 1t31.5 20q3 11 -70 11q-69 -1 -65 -13zM189.5 645q1.5 -56 29.5 -90q69 -90 6 -195q-49 -84 -23.5 -116.5t107.5 6.5q51 25 70.5 76.5t26.5 187.5q8 109 5 134.5t-28 53.5q-34 37 -89 46t-81 -19 q-25 -28 -23.5 -84zM240 995l55 -10q75 -13 103 -9.5t28 25.5q0 13 -3.5 22t-12 15t-15 9t-21 8t-22.5 8q-16 3 -26.5 2.5t-25 -11.5t-22.5 -19t-20 -21.5t-18 -18.5z" />
<glyph unicode="&#xef;" horiz-adv-x="548" d="M63 921q8 61 46 99q20 21 60 23t46 -17q6 -16 10 -90q1 -49 -4.5 -67t-30.5 -40q-29 -25 -51 -24t-53 29q-31 26 -23 87zM70 590q-4 65 0 81.5t26 30.5q14 10 35.5 28.5t40 32t43.5 23.5q42 20 54.5 18t37.5 -38q31 -41 42.5 -86.5t10 -80t-8 -109t-7.5 -130.5 q-1 -117 -9 -154.5t-32 -68.5q-31 -40 -66.5 -39.5t-95.5 41.5q-40 29 -45.5 41.5t0.5 65.5q11 70 35 127q33 66 21 73q-4 3 -13 3q-28 0 -46.5 36.5t-22.5 104.5zM136.5 545q-0.5 -12 4 -29t11.5 -24q13 -12 13 10q0 33 -15 52q-5 6 -9 5q-4 -2 -4.5 -14zM139 893 q-12 -20 1 -33q10 -10 22 2q16 8 2 28q-12 17 -23 7zM143 975q0 -11 15 -21q14 -5 14 4q1 14 -14 23q-11 7 -15 -6zM156 338q-3 -26 9.5 -45t34 -29.5t48.5 2.5q22 10 27.5 39.5t13.5 159.5q11 183 0 229q-7 37 -32.5 48.5t-45.5 -11.5q-16 -20 -33 -20q-14 0 -18.5 -18.5 t2 -43.5t20.5 -41q44 -51 44 -120.5t-46 -106.5q-21 -17 -24 -43zM166 195q7 -17 35 -28t54.5 -4t27.5 36q0 25 -3.5 26.5t-25.5 -12.5q-17 -14 -57 -6q-25 5 -30 3t-1 -15zM284.5 891.5q-7.5 50.5 51.5 87.5q37 22 55 28t34 1.5t36 -25.5t24 -37t-2 -43q-30 -147 -135 -92 q-56 30 -63.5 80.5zM354 879q2 -14 22 -23q8 -4 15 -4q28 -4 27 10q-2 14 -22 23q-8 4 -15 4q-28 4 -27 -10zM393 952q0 -17 16 -15q17 2 23 21q3 17 -15 17q-19 0 -23 -15q-2 -4 -1 -8z" />
<glyph unicode="&#xf4;" horiz-adv-x="653" d="M60.5 367.5q1.5 95.5 23.5 162.5q40 119 78 166t114 72q34 10 50 9t30 -15q22 -22 66 -35q57 -22 170 -145q-1 -14 -3.5 -58t-3.5 -57t-5 -46.5t-9 -51t-13.5 -42.5t-20.5 -48t-23 -47.5t-16.5 -39.5t-5.5 -18q0 -25 -57 -59t-116 -45q-43 -8 -126 47.5t-113 113.5 q-21 41 -19.5 136.5zM137 457q-3 -99 12.5 -132t81.5 -67q59 -29 92 -29t93 29q42 22 55 38t27 62q26 94 29.5 143t-13.5 83q-17 32 -61 69t-72 41q-109 18 -139 8q-20 -8 -60 -69q-28 -41 -35.5 -72.5t-9.5 -103.5zM156.5 864q1.5 15 25.5 49q14 21 33.5 42.5t33 34 t40 35.5t35.5 32q49 44 95.5 25.5t125.5 -115.5q28 -34 29 -48.5t-21 -54.5q-21 -37 -48.5 -46.5t-86.5 3.5q-39 11 -61.5 9t-63.5 -21q-63 -29 -84.5 -27t-38.5 39q-15 28 -13.5 43zM162 211q6 -17 67.5 -47.5t89.5 -32.5q25 0 70.5 20t54.5 35q15 25 -11 22 q-16 -1 -46 -13q-56 -23 -88 -21.5t-86 27.5q-53 25 -51 10zM190 485q12 43 52 86q100 109 133 2q4 -14 12 -32.5t12 -29t2.5 -24.5t-12.5 -28q-13 -11 -19.5 -29.5t-19.5 -26.5q-19 -5 0 -36q17 -29 14.5 -36t-28.5 -7q-22 0 -71 31.5t-66 56.5q-21 30 -9 73zM242 463 q0 -25 5.5 -34t22.5 -9q25 0 60 35.5t28 52.5q-12 33 -41 37.5t-52.5 -19.5t-22.5 -63zM250 853q3 -2 22 5q9 8 116 10t118 9q0 12 -55 26q-71 21 -128 11t-71 -44q-5 -15 -2 -17zM297 967q127 0 186 -4l-37 32q-37 31 -55 31.5t-55 -29.5z" />
<glyph unicode="&#xf9;" horiz-adv-x="808" d="M63 750q-5 9 19 20q5 3 8 4q29 13 64 -32t49 -107.5t-4 -120.5q-19 -46 -29 -145q-5 -54 2 -71t49 -56q104 -98 185 -23q36 36 36 49q0 14 28 14t28 -14q0 -7 43 -61q28 -33 45 -41.5t49 -5.5q29 2 41 9.5t16 29.5q10 40 0.5 53.5t-41.5 7.5q-25 -4 -34.5 3t-26.5 44 q-19 39 -19 67.5t23 125.5q44 189 32 228q-12 29 -63 11q-49 -19 -67.5 -66.5t-16.5 -154.5q3 -126 -5 -160.5t-46 -54.5q-75 -40 -139 51q-35 50 -40.5 145t25.5 152q31 58 28.5 94t-40.5 56q-25 12 -39.5 13t-36.5 -9q-42 -18 -45 -1q-2 9 11 25q15 21 86 21q40 0 61 -7.5 t43 -29.5t26 -39t-1 -53q-11 -60 -29 -78q-23 -25 -35 -97.5t2 -107.5q27 -69 67 -85q33 -12 43 24q6 17 3 43q-4 20 -4 115q0 63 7 90t34 69q28 44 70 79.5t67 35.5q10 0 57 -37q27 -19 38.5 -45t6 -61t-13 -59.5t-23.5 -67.5q-26 -71 -32 -136t14 -90q16 -16 45 -16 q34 0 49 -21.5t15 -70.5q0 -52 -20.5 -102.5t-45.5 -61.5q-94 -39 -166 4q-33 21 -50 22.5t-56 -12.5q-51 -17 -134 -8q-76 10 -102 23.5t-51 54.5q-26 39 -28 80.5t14 152.5q11 76 9 103.5t-22 66.5q-29 59 -26 134q4 74 -7 88zM137 1042q0 52 28.5 78t68 24.5t81.5 -11.5 q30 -8 59 -36.5t42 -66.5q9 -25 4.5 -41.5t-27.5 -50.5q-35 -54 -55 -66q-15 -9 -41.5 2.5t-48.5 36.5q-18 21 -39 21q-32 0 -52 30.5t-20 79.5zM141 606q-2 -38 3 -41l3 4q4 19 0 41q-4 18 -6 -4zM152 190q0 -20 22 -38t74 -43q102 -48 188 34q-68 -17 -137.5 -3.5 t-110.5 46.5q-31 23 -34 19q-2 -3 -2 -15zM209 999q5 -18 25 -22q14 -3 14 8q0 5 -7 12.5t-16 10.5q-10 4 -14 1.5t-2 -10.5zM215 1087q-5 -9 72 -55t84 -39q12 14 -5.5 49.5t-41.5 42.5q-32 12 -67 12.5t-42 -10.5zM505 128q-5 -10 27 -32q51 -34 109 -12q23 9 23 20 q-1 13 -27 5q-25 -7 -76 12q-49 20 -56 7z" />
<glyph unicode="&#xfb;" horiz-adv-x="823" d="M63 672q-5 51 0.5 71.5t32.5 53.5q15 21 38.5 39.5t41.5 23.5q40 14 51.5 13.5t44.5 -21.5q17 -9 37 -30.5t31 -41.5q19 -34 20.5 -54t-10.5 -83q-37 -192 -16 -235q9 -19 70 -20t69 20q5 8 9.5 58t4.5 107q0 97 5.5 129.5t27.5 63.5q28 43 69 57t73 -8q12 -8 26 -31.5 t21 -50.5q9 -40 6.5 -71t-19.5 -97q-31 -115 -27 -161t48 -87q34 -32 40 -42q10 -21 -7 -88q-4 -16 -17 -62q-20 -69 -51 -80q-29 -11 -74 -3.5t-78 28.5q-33 20 -41 6q-10 -17 -98.5 -30.5t-122.5 -4.5q-26 8 -57 14q-23 4 -45.5 40t-30.5 77q-4 20 -8 112.5t-11.5 174.5 t-21.5 96q-21 48 -31 117zM129 664q0 -54 16 -61q9 -4 15 15q4 13 6 33q4 44 -16 60q-15 12 -18 0q-3 -10 -3 -47zM158 433q-1 -31 26 -87q44 -91 128 -114.5t153 36.5q27 25 45 30.5t32 -6t29 -42.5q12 -27 25.5 -35.5t48.5 -11.5q40 -3 45.5 1.5t-0.5 33.5 q-5 16 -18.5 36.5t-26.5 30.5q-64 57 -12 240q57 191 16 221q-43 34 -86 -33q-17 -9 -24.5 -165.5t-20.5 -170.5q-28 -52 -88 -59t-115 35q-46 35 -53 76.5t19 123.5q26 85 26 128.5t-28 86.5q-25 39 -50 48q-13 4 -13 -8q1 -4 3 -11q5 -15 -14.5 -33.5t-40.5 -29.5l31 -23 q30 -23 29 -65.5t-34 -122.5q-31 -79 -32 -110zM182 227q20 -82 61 -114.5t130 -20.5q67 9 88 39q41 52 21 63q-8 4 -25 -1q-9 -3 -105 -17q-16 -5 -37 -1.5t-31.5 4.5t-27.5 8.5t-25 12l-24 13.5t-25 14zM197 952q0 5 26.5 34t61.5 61q48 45 71 58.5t43.5 10t57.5 -28.5 q21 -14 28.5 -24.5t16 -27.5t28.5 -38q35 -38 39 -60.5t-18 -49.5q-17 -22 -59 -25.5t-64 15.5t-98 12q-58 -4 -87.5 12t-45.5 51zM270 956q3 -15 78 -12q73 3 107 -18q40 -28 46 -9q5 18 -19 41q-13 12 -29 17q-58 18 -134 7q-54 -9 -49 -26zM366.5 1049q7.5 -7 24.5 -7 t23.5 7t0 14.5t-23.5 7.5t-24.5 -7.5t0 -14.5zM537 158q74 -68 104 -70q19 0 25.5 8t7.5 37q0 18 -137 25z" />
<glyph unicode="&#xfc;" horiz-adv-x="819" d="M66 592q0 98 20.5 138t103.5 79q57 27 83.5 24t62.5 -40l41 -43l-8 -160q-7 -115 -4 -143t24 -46q22 -20 29.5 -19.5t32.5 24.5q51 47 59 97t-16 202q-8 47 16 79t60.5 31t74.5 -35q42 -45 47.5 -89.5t-18.5 -172.5l-23 -102q4 -5 22.5 -32.5t24 -37t19.5 -34.5t19.5 -41 t11 -40.5t6.5 -48.5q4 -62 0.5 -81.5t-23.5 -39.5q-19 -18 -32.5 -20t-36 6t-37.5 10q-12 -2 -36.5 10t-40.5 17.5t-36 -6.5q-22 -22 -116.5 -17.5t-137.5 29.5q-36 22 -51.5 42.5t-22.5 57t-10 117.5q-7 135 -18 139q-47 29 -61 45q-29 34 -29 101zM127 590q0 -37 13 -61.5 t32 -24.5q7 0 9 16.5t-1.5 40.5t-11.5 45q-12 37 -25 35q-16 -2 -16 -51zM155.5 731q-4.5 -23 32.5 -63q85 -85 50 -201q-26 -96 26 -197q15 -31 56 -52.5t90 -22.5q44 -1 61 7t49 46q35 41 44.5 44.5t31.5 -16.5q29 -25 29 -45q0 -12 10.5 -16.5t23 0.5t17.5 18 q7 20 -12 46q-22 34 -46.5 101.5t-9.5 100.5q22 50 27 135t-8 107q-13 25 -49 29.5t-43 -17.5q-7 -17 8 -59q47 -126 -2 -217q-50 -97 -86 -123.5t-82 0.5q-53 31 -67 80.5t-7 177.5q8 154 -8 170q-30 30 -45 2q-8 -12 -41 -12q-45 0 -49.5 -23zM193 958q0 48 11.5 80.5 t31.5 36.5q37 10 88 8t63 -14q16 -16 16 -82q0 -44 -6 -60t-32 -34q-42 -27 -80 -28t-65 25t-27 68zM250 180q2 -14 42 -39q9 -5 19 -10q100 -50 164 -14q31 17 25 29t-41 4q-31 -7 -92 5.5t-93 24.5q-26 9 -24 0zM266 932q2 -13 29.5 -12t32.5 12q5 8 -11 12q-28 6 -46 -4 q-6 -3 -5 -8zM267 1009q-1 -19 7 -21q6 -2 12 11q0 1 1 2q7 11 -6 21q-12 6 -14 -13zM488 951.5q0 36.5 14 43.5q12 6 12 41q0 18 11 27t38 15l27 5q47 -10 68.5 -70.5t-13.5 -113.5q-23 -33 -74.5 -36.5t-68.5 26.5q-14 26 -14 62.5zM569 993q0 -21 24 -18q23 3 29 20 q4 11 -6 21q-14 11 -30.5 2.5t-16.5 -25.5zM596.5 151q-2.5 -20 46.5 -42q37 -15 53.5 -7t10.5 37q-3 24 -58 27q-50 5 -52.5 -15z" />
<glyph unicode="&#xff;" horiz-adv-x="751" d="M66 14q6 59 14 77t35 32q43 22 81.5 20t55.5 -28q10 -17 23 -20.5t36 1.5q24 6 30.5 16.5t6.5 43.5q1 33 -18.5 69t-46.5 72.5t-35 56.5q-7 20 -18.5 37t-16.5 17q-24 0 -44 52.5t-28 133.5q-7 61 -5 94.5t10 45.5t34 26q64 35 119.5 7.5t110.5 -122.5l53 -88l26 66 q24 60 40 80t57 42q46 22 67 9q85 -45 -20 -265q-19 -40 -26 -93t-11 -203q-2 -103 -5 -151t-13 -90t-24 -62t-44 -52q-41 -46 -90 -74q-73 -46 -162 -34.5t-147 75.5q-35 38 -44 80.5t-1 128.5zM130 -135.5q2 -7.5 11 -20.5q13 -23 75.5 -44.5t102.5 -16.5q34 4 91 33 q53 29 99 114t46 154q0 75 -17 60q-13 -11 -36 -81q-19 -61 -34.5 -85t-53.5 -52q-60 -41 -131.5 -59.5t-108.5 -1.5q-17 7 -27.5 9.5t-14.5 0t-2 -10zM133 45q-15 -82 33.5 -116t134.5 -3q61 22 83 40t52 71q38 67 21 71q-10 2 -39 -28q-32 -33 -93.5 -34t-103.5 30 q-73 53 -88 -31zM209 493q1 -14 22 -32q10 -8 14 -10.5t6 1t-1 15.5q-1 10 -9 21t-14 14q-18 4 -18 -9zM209 662q-17 -21 11 -77t89 -118q38 -39 53 -75t41 -70q16 -20 30.5 -53t28.5 -72t19 -50q2 7 16.5 77.5t27.5 117.5t30 78q48 85 70.5 184.5t1.5 112.5 q-14 9 -44 -28.5t-58 -97t-38 -108.5q-6 -28 -18 -39t-25 -2t-22 37q-63 185 -103 228q-32 32 -71 32q-24 0 -32 -8t-4.5 -20t4 -25.5t-6.5 -23.5zM223 940q0 89 56 107q52 19 83.5 -19.5t20.5 -109.5q-10 -58 -49.5 -77t-75 10t-35.5 89zM264 991q0 -14 20 -29.5t40 -15.5 q15 0 21.5 9.5t1 21t-20.5 16.5q-23 8 -42.5 7.5t-19.5 -9.5zM268 893q4 -23 39 -23t39 23q2 12 -6.5 17t-32.5 5q-25 0 -32.5 -4.5t-6.5 -17.5zM317 346l2 -2q14 -5 14 7q-1 12 -11 14h-3q-21 0 -2 -19zM383 164q-13 -29 3 -31q14 -3 25 13q9 14 -3 26q-16 16 -25 -8z M491.5 979.5q2.5 16.5 16.5 28.5q29 21 64.5 18t64.5 -29.5t29 -62.5q0 -35 -28 -74t-54 -39q-25 0 -54.5 29.5t-29.5 52.5q0 7 -5.5 33.5t-3 43zM555 958q1 -17 27 -11q24 6 25 20q1 6 -5 12q-10 6 -28.5 -2t-18.5 -19zM556 893q-3 -12 17 -29q15 -12 26 -5.5t11 28.5 q0 7 -7.5 12.5t-18.5 5.5q-25 0 -28 -12z" />
<glyph unicode="&#x152;" horiz-adv-x="1359" d="M64 580.5q-2 152.5 12 189.5q7 18 20 59.5t20.5 59t26.5 47t47 57.5q56 56 82.5 70.5t114.5 32.5q120 26 166 16q54 -14 93.5 -8t109.5 39q95 45 142 53t185 2q45 -3 99 -57q36 -36 45.5 -56.5t9.5 -60.5q0 -68 -29 -114.5t-78 -53.5q-56 -11 -61 -19t27 -36 q26 -22 32.5 -42.5t6.5 -86.5q0 -102 8 -107q7 -7 -9.5 -54t-33.5 -69q-17 -20 -80 -51q-43 -20 -59 -20.5t-43 14.5q-42 25 -41 -2q0 -17 14 -53q9 -24 19.5 -28t45.5 3q21 3 47.5 15t40.5 24q54 50 127.5 68.5t110.5 -9.5q14 -10 16.5 -40t-5 -66t-15 -64.5t-14.5 -46.5 q-5 -13 -17.5 -43t-15.5 -39q-7 -29 -58.5 -61.5t-121.5 -52.5q-69 -19 -182 -19t-148 19q-26 12 -41.5 13t-48.5 -11q-79 -31 -212.5 0t-191.5 82q0 9 -61 100q-59 90 -82 182q-18 72 -20 224.5zM109 643q13 -108 111 -256.5t183 -191.5q46 -23 107 -22t102 26l47 28 q227 -54 355 -57q75 -1 108.5 20t87.5 105q48 72 19 84q-26 11 -96 -39q-243 -175 -316 12q-17 42 -20.5 119t10.5 98q8 14 44.5 29.5t61.5 15.5q9 0 22.5 -16.5t20.5 -38.5q39 -95 99 -20q37 47 38 120.5t-36 98.5q-18 11 -77 -3.5t-77 -35.5q-17 -17 -56 -5t-52 40 q-11 22 -13.5 80t6.5 94q12 44 92 52.5t152 -28.5q40 -21 66 -18t53 31q35 37 29 73.5t-54 79.5q-37 34 -58.5 42t-70.5 7q-70 0 -106 -16q-96 -43 -138.5 -59t-99.5 -29q-84 -22 -90 -6q-9 28 -91 11t-181 -67q-82 -41 -138 -152t-44 -206zM118 417q-13 -5 25 -88 q11 -24 25 -50q71 -138 123 -183.5t149 -54.5q109 -11 153 10t44 90q-3 3 -74 -16q-39 -12 -63.5 -12.5t-57.5 10.5q-92 28 -156 81.5t-120 151.5q-38 66 -48 61zM264 692q-5 31 19.5 86t50.5 70q36 21 69.5 11.5t79.5 -52.5q53 -50 60.5 -86t-25.5 -86q-27 -41 -25.5 -59 t31.5 -54q80 -94 -14 -108q-48 -6 -52 -4q-6 3 -11 30q-1 10 -3 19q-10 50 -47 76q-47 37 -88 84.5t-45 72.5zM330 688q9 -35 43.5 -49.5t68.5 -1.5t41 47q5 25 1 40.5t-23 33.5q-22 22 -35 24.5t-45 -8.5q-40 -13 -50 -30.5t-1 -55.5zM694 121q-7 -36 2 -49.5t54 -30.5 q49 -18 121 -19.5t140 12t120.5 47.5t62.5 81q-1 7 -4 9.5t-10.5 0.5t-19 -8t-30.5 -17q-106 -62 -299 -10q-61 16 -85.5 19t-36 -4t-15.5 -31zM823.5 872.5q4.5 -11.5 38.5 -2.5q63 15 123 0q31 -7 31 10q0 18 -31 33l-6 2q-65 26 -91.5 27t-43.5 -24q-25 -34 -20.5 -45.5z M838 804.5q3 -25.5 20 -38.5q12 -10 24.5 -7.5t43.5 21.5q62 39 40 55q-5 4 -14 7q-22 8 -59.5 7.5t-46.5 -9.5q-11 -10 -8 -35.5zM851.5 506.5q2.5 -17.5 14.5 -17.5q6 0 19.5 -10.5t23.5 -23.5q23 -30 62 -36q30 -4 30 15q0 15 -38 15q-31 0 -44.5 15.5t-13.5 53.5 q0 19 -15.5 25t-29.5 -8q-11 -11 -8.5 -28.5z" />
<glyph unicode="&#x153;" horiz-adv-x="1079" d="M63.5 258q-7.5 111 10.5 141q13 24 29.5 129t31.5 131q27 49 80 105.5t86 69.5q95 38 152 -25q36 -39 80.5 -41.5t138.5 29.5q58 20 84.5 21.5t64.5 -9.5q49 -12 94 -47t70 -80q18 -32 29 -137q3 -40 4 -57.5t-5 -37.5t-13 -25.5t-32.5 -12t-50 -7.5t-77.5 -2 q-120 -2 -132 -7q-16 -7 25 -26q6 -2 12 -5q26 -11 47 -11.5t58 8.5q36 11 56 10t44 -14q25 -13 32 -22t11.5 -45t-0.5 -105q-3 -88 -20 -125.5t-66 -62.5q-39 -21 -140.5 -16.5t-150.5 30.5q-25 12 -38.5 13.5t-32.5 -7.5q-39 -22 -144.5 -19t-162.5 30q-25 12 -58.5 23 t-49 21.5t-34.5 37.5q-25 36 -32.5 147zM106 279q-2 -75 14 -103.5t85 -75.5q51 -33 79 -39t124 -8q84 0 109.5 5t39.5 22q10 14 15 36t3.5 39t-10.5 17q-3 0 -11 -4l-24 -12t-28 -13q-78 -43 -191 9q-25 12 -52 18.5t-47.5 16.5t-49.5 36zM127 377q15 -69 114.5 -137 t184.5 -68q32 0 52 10.5t57 44.5q11 10 23.5 23.5t18.5 19t14 10.5t13.5 2t13 -11t17.5 -25q22 -39 68.5 -57t105.5 -9q53 8 92 38.5t33 60.5q-3 14 -18.5 17.5t-61.5 2.5q-81 -4 -115 8t-80 62q-90 98 -26 159q22 19 40 20t93 -13q75 -13 95.5 -12t45.5 20q75 57 11 155 q-23 35 -40.5 44.5t-70.5 15.5q-42 6 -64.5 6t-31.5 -3t-35 -10t-64 -12q-55 -8 -86.5 -7t-70.5 13q-81 26 -124.5 27.5t-73 -21.5t-58.5 -81q-33 -65 -56.5 -159.5t-15.5 -133.5zM246 498q0 36 18 59.5t23 38.5q20 52 100 16q37 -17 46.5 -62t-15.5 -83q-13 -21 -15 -25.5 t3 -7t24 3.5q34 6 60 -9q11 -7 4 -13q-9 -5 -91 -15q-54 -6 -74.5 -3t-45.5 22q-37 29 -37 78zM307 477q6 -19 11.5 -20t24.5 11q3 2 5 3q43 27 43 58t-37 44q-17 0 -35.5 -37t-11.5 -59zM633 94q0 -19 14 -26.5t64 -18.5q227 -46 227 72q0 33 -13.5 39.5t-50.5 -8.5 q-43 -17 -109.5 -19.5t-86.5 12.5q-12 9 -22 6.5t-16.5 -18t-6.5 -39.5zM649 637q-4 28 23.5 54.5t68.5 35.5q59 12 76 -51q8 -28 -23 -47.5t-87 -20.5q-34 -2 -44.5 3.5t-13.5 25.5zM665 482q3 -18 68 -32q2 -1 4 -1q83 -17 155.5 -1t72.5 50q0 10 -2 14.5t-8 4.5t-14 -3.5 t-23 -11.5q-37 -19 -201 -8q-55 4 -52 -12zM734 666q-1 -6 3 -11q6 -10 26.5 -2.5t20.5 19.5q0 15 -24 12q-24 -4 -26 -18z" />
<glyph unicode="&#x178;" horiz-adv-x="868" d="M61 991q0 22 4 36t13.5 27.5t25.5 22.5q44 25 85.5 11t95.5 -74q66 -73 77 -107q17 -44 56 -98.5t53 -54.5q8 0 21.5 17.5t23.5 41.5q45 93 73 134.5t58 58.5q50 27 81 22.5t56 -43.5q18 -32 21.5 -57.5t-0.5 -98.5q-15 -175 -78 -196q-10 -3 -17.5 -10t-7.5 -13 q-6 -24 -129 -147q27 -144 48 -160q17 -12 12.5 -98.5t-23.5 -112.5q-14 -19 -32.5 -25t-67.5 -6q-83 0 -108 21t-23 92q4 73 22 178q8 41 10.5 61.5t1.5 39.5t-13 30.5t-28 21.5t-48 25q-42 18 -104 75t-109 118q-34 45 -39 129q-1 22 -4 51.5t-5 47.5t-2 40zM130 1004.5 q-3 -17.5 1 -60.5q7 -72 19 -80q5 -5 129.5 -117.5t146.5 -130.5q35 -31 41 -49.5t6 -93.5q0 -99 -18 -180q-17 -72 -9.5 -96.5t48.5 -24.5q70 0 90 39t-21 96q-24 31 -37.5 92.5t-11.5 126.5q2 43 28.5 86.5t98.5 118.5q35 35 68.5 97.5t33.5 91.5q0 72 -35 69 q-39 -4 -97 -97q-20 -34 -40 -75q-22 -45 -36.5 -69t-28.5 -40t-28 -15t-29 10.5t-37 31.5q-52 52 -64 92q-6 26 -21.5 38t-23.5 38q-10 33 -65 88q-43 43 -54.5 48t-36.5 -9q-14 -8 -17 -25.5zM135 780q0 -15 76.5 -88.5t112.5 -91.5q34 -15 49 -35q5 -7 7.5 -6.5t2.5 8.5 q0 6 -27.5 35t-64.5 62q-136 120 -151 122q-5 1 -5 -6zM272 1147q-11 32 1 105t32 85q21 11 56 -1.5t61 -39.5q50 -57 16 -133q-16 -36 -51 -52t-68.5 -6.5t-46.5 42.5zM322 1167q10 -17 37.5 -12t37.5 27q10 19 6 23.5t-32 4.5q-32 0 -46 -12.5t-3 -30.5zM445 119 q0 -3 12 -11l4 -2q25 -14 63.5 -7.5t55.5 26.5q12 15 1 17q-9 1 -94 -11q-41 -7 -42 -12zM575 1243l9 84l55 6q58 8 74.5 -0.5t23.5 -50.5q11 -63 -28 -116.5t-97 -53.5q-52 0 -37 131zM582 565q-6 -17 23 9q55 48 100 111q13 17 18 28q22 43 18 47q-7 6 -23 -5t-16 -22 q3 -10 -54 -68.5t-56 -64.5q0 -15 -10 -35zM611.5 1193.5q-10.5 -12.5 2.5 -26.5q15 -15 56 21q30 26 26.5 30.5t-43.5 -4.5q-31 -8 -41.5 -20.5zM625 1268q2 -10 29 -15q32 -6 34 13q0 12 -37 12q-27 -1 -26 -10z" />
<glyph unicode="&#x2000;" horiz-adv-x="741" />
<glyph unicode="&#x2001;" horiz-adv-x="1482" />
<glyph unicode="&#x2002;" horiz-adv-x="741" />
<glyph unicode="&#x2003;" horiz-adv-x="1482" />
<glyph unicode="&#x2004;" horiz-adv-x="494" />
<glyph unicode="&#x2005;" horiz-adv-x="370" />
<glyph unicode="&#x2006;" horiz-adv-x="247" />
<glyph unicode="&#x2007;" horiz-adv-x="247" />
<glyph unicode="&#x2008;" horiz-adv-x="185" />
<glyph unicode="&#x2009;" horiz-adv-x="296" />
<glyph unicode="&#x200a;" horiz-adv-x="82" />
<glyph unicode="&#x2010;" d="M67.5 523q11.5 58 41.5 85q33 31 54 32t77 -26q66 -28 110 -28q51 0 74 -8.5t35 -32.5q15 -30 -2 -98t-47 -97q-24 -22 -45.5 -26t-102.5 -2q-97 3 -138 22.5t-54 71.5q-14 49 -2.5 107zM128 417q1 -11 22 -22q23 -12 48 -5t25 26q0 18 -47 18q-48 0 -48 -17zM133 545 q-10 -45 7 -58.5t67 0.5q31 9 45 8.5t27 -12.5q34 -31 79 -17.5t45 54.5q0 34 -47 25q-34 -7 -62 -7t-28 7q0 10 -55 24q-52 18 -61.5 15t-16.5 -39zM283 387q4 -9 22 -18q28 -13 55 1t29 42q0 9 -8 6q-2 0 -11 -1t-21.5 -2.5t-22.5 -2.5q-24 -3 -35.5 -9.5t-7.5 -15.5z" />
<glyph unicode="&#x2011;" d="M67.5 523q11.5 58 41.5 85q33 31 54 32t77 -26q66 -28 110 -28q51 0 74 -8.5t35 -32.5q15 -30 -2 -98t-47 -97q-24 -22 -45.5 -26t-102.5 -2q-97 3 -138 22.5t-54 71.5q-14 49 -2.5 107zM128 417q1 -11 22 -22q23 -12 48 -5t25 26q0 18 -47 18q-48 0 -48 -17zM133 545 q-10 -45 7 -58.5t67 0.5q31 9 45 8.5t27 -12.5q34 -31 79 -17.5t45 54.5q0 34 -47 25q-34 -7 -62 -7t-28 7q0 10 -55 24q-52 18 -61.5 15t-16.5 -39zM283 387q4 -9 22 -18q28 -13 55 1t29 42q0 9 -8 6q-2 0 -11 -1t-21.5 -2.5t-22.5 -2.5q-24 -3 -35.5 -9.5t-7.5 -15.5z" />
<glyph unicode="&#x2012;" d="M67.5 523q11.5 58 41.5 85q33 31 54 32t77 -26q66 -28 110 -28q51 0 74 -8.5t35 -32.5q15 -30 -2 -98t-47 -97q-24 -22 -45.5 -26t-102.5 -2q-97 3 -138 22.5t-54 71.5q-14 49 -2.5 107zM128 417q1 -11 22 -22q23 -12 48 -5t25 26q0 18 -47 18q-48 0 -48 -17zM133 545 q-10 -45 7 -58.5t67 0.5q31 9 45 8.5t27 -12.5q34 -31 79 -17.5t45 54.5q0 34 -47 25q-34 -7 -62 -7t-28 7q0 10 -55 24q-52 18 -61.5 15t-16.5 -39zM283 387q4 -9 22 -18q28 -13 55 1t29 42q0 9 -8 6q-2 0 -11 -1t-21.5 -2.5t-22.5 -2.5q-24 -3 -35.5 -9.5t-7.5 -15.5z" />
<glyph unicode="&#x2013;" horiz-adv-x="1146" d="M75 523q29 58 105 85q84 31 137.5 32t195.5 -26q167 -28 279 -28q129 0 187.5 -8.5t88.5 -32.5q38 -30 -5 -98t-119 -97q-61 -22 -115.5 -26t-260.5 -2q-246 3 -350 22.5t-137 71.5q-35 49 -6 107zM229 417q2 -11 55 -22q59 -12 122.5 -5t63.5 26q0 18 -120 18 q-121 0 -121 -17zM241 545q-25 -45 18 -58.5t170 0.5q79 9 114.5 8.5t68.5 -12.5q86 -31 200 -17.5t114 54.5q0 34 -119 25q-86 -7 -157 -7t-71 7q0 10 -140 24q-132 18 -156 15t-42 -39zM622 387q10 -9 56 -18q71 -13 139.5 1t73.5 42q0 9 -21 6q-5 0 -27.5 -1t-54.5 -2.5 t-57 -2.5q-61 -3 -90 -9.5t-19 -15.5z" />
<glyph unicode="&#x2014;" horiz-adv-x="2170" d="M88.5 523q58.5 58 210.5 85q167 31 273.5 32t390.5 -26q335 -28 558 -28q259 0 375.5 -8.5t177.5 -32.5q76 -30 -10 -98t-238 -97q-122 -22 -231 -26t-520 -2q-492 3 -700 22.5t-274 71.5q-71 49 -12.5 107zM395 417q5 -11 112 -22q116 -12 243 -5t127 26q0 18 -238 18 q-244 0 -244 -17zM421 545q-51 -45 35 -58.5t340 0.5q157 9 228 8.5t137 -12.5q173 -31 401 -17.5t228 54.5q0 34 -238 25q-173 -7 -315 -7t-142 7q0 10 -279 24q-264 18 -312 15t-83 -39zM1181.5 387q20.5 -9 111.5 -18q142 -13 279 1t147 42q0 9 -40 6q-10 0 -56 -1 t-109.5 -2.5t-113.5 -2.5q-122 -3 -180.5 -9.5t-38 -15.5z" />
<glyph unicode="&#x202f;" horiz-adv-x="296" />
<glyph unicode="&#x205f;" horiz-adv-x="370" />
<glyph unicode="&#x25fc;" horiz-adv-x="808" d="M0 0v809h809v-809h-809z" />
</font>
</defs>
</svg>
